<?xml version="1.0" encoding="UTF-8" standalone="no"?>
<svg
   id="svg3430"
   width="1280"
   height="640"
   viewBox="0 0 1279.9996 640.00083"
   version="1.1"
   sodipodi:docname="multiflexi-social-preview.svg"
   inkscape:version="1.2.2 (b0a8486541, 2022-12-01)"
   inkscape:export-filename="multiflexi-socilal-preview.png"
   inkscape:export-xdpi="100.92558"
   inkscape:export-ydpi="100.92558"
   xmlns:inkscape="http://www.inkscape.org/namespaces/inkscape"
   xmlns:sodipodi="http://sodipodi.sourceforge.net/DTD/sodipodi-0.dtd"
   xmlns:xlink="http://www.w3.org/1999/xlink"
   xmlns="http://www.w3.org/2000/svg"
   xmlns:svg="http://www.w3.org/2000/svg"
   xmlns:rdf="http://www.w3.org/1999/02/22-rdf-syntax-ns#"
   xmlns:cc="http://creativecommons.org/ns#"
   xmlns:dc="http://purl.org/dc/elements/1.1/">
  <metadata
     id="metadata41">
    <rdf:RDF>
      <cc:Work
         rdf:about="">
        <dc:format>image/svg+xml</dc:format>
        <dc:type
           rdf:resource="http://purl.org/dc/dcmitype/StillImage" />
        <dc:title />
      </cc:Work>
    </rdf:RDF>
  </metadata>
  <sodipodi:namedview
     pagecolor="#ffffff"
     bordercolor="#666666"
     borderopacity="1"
     objecttolerance="10"
     gridtolerance="10"
     guidetolerance="10"
     inkscape:pageopacity="0"
     inkscape:pageshadow="2"
     inkscape:window-width="1920"
     inkscape:window-height="1171"
     id="namedview39"
     showgrid="false"
     inkscape:zoom="0.87006406"
     inkscape:cx="585.58907"
     inkscape:cy="187.34253"
     inkscape:window-x="0"
     inkscape:window-y="0"
     inkscape:window-maximized="1"
     inkscape:current-layer="svg3430"
     inkscape:document-rotation="0"
     showguides="true"
     inkscape:guide-bbox="true"
     inkscape:showpageshadow="2"
     inkscape:pagecheckerboard="0"
     inkscape:deskcolor="#d1d1d1">
    <sodipodi:guide
       position="453.98942,29.700149"
       orientation="0,-1"
       id="guide3089"
       inkscape:locked="false" />
    <sodipodi:guide
       position="90.797884,327.37977"
       orientation="1,0"
       id="guide3191"
       inkscape:locked="false" />
    <sodipodi:guide
       position="5.7467015,575.63767"
       orientation="0,-1"
       id="guide3193"
       inkscape:locked="false" />
  </sodipodi:namedview>
  <defs
     id="defs3434">
    <rect
       x="-24.33097"
       y="-86.472353"
       width="1294.0853"
       height="754.89086"
       id="rect3103" />
    <clipPath
       id="clipPath3444">
      <path
         id="path3446"
         d="M 11.52,162 C 11.52,81.677 135.307,16.56 288,16.56 440.693,16.56 564.48,81.678 564.48,162 564.48,242.322 440.693,307.44 288,307.44 135.307,307.44 11.52,242.32 11.52,162"
         inkscape:connector-curvature="0" />
    </clipPath>
    <radialGradient
       id="radialGradient3452"
       cx="0"
       cy="0"
       r="1"
       fx="0"
       fy="0"
       gradientTransform="matrix(363.06,0,0,-363.06,177.52,256.31)"
       gradientUnits="userSpaceOnUse"
       spreadMethod="pad">
      <stop
         id="stop3454"
         offset="0"
         stop-color="#aeb2d5" />
      <stop
         id="stop3456"
         offset="0.3"
         stop-color="#aeb2d5" />
      <stop
         id="stop3458"
         offset="0.75"
         stop-color="#484c89" />
      <stop
         id="stop3460"
         offset="1"
         stop-color="#484c89" />
    </radialGradient>
    <clipPath
       id="clipPath3468">
      <path
         id="path3470"
         d="M 0,324 H 576 V 0 H 0 Z"
         inkscape:connector-curvature="0" />
    </clipPath>
    <clipPath
       id="clipPath3480">
      <path
         id="path3482"
         d="M 0,324 H 576 V 0 H 0 Z"
         inkscape:connector-curvature="0" />
    </clipPath>
    <filter
       style="color-interpolation-filters:sRGB"
       inkscape:label="Drop Shadow"
       id="filter4622"
       x="-0.1215186"
       y="-0.21051334"
       width="1.29367"
       height="1.5087406">
      <feFlood
         flood-opacity="0.498039"
         flood-color="rgb(0,0,0)"
         result="flood"
         id="feFlood4612" />
      <feComposite
         in="flood"
         in2="SourceGraphic"
         operator="in"
         result="composite1"
         id="feComposite4614" />
      <feGaussianBlur
         in="composite1"
         stdDeviation="6"
         result="blur"
         id="feGaussianBlur4616" />
      <feOffset
         dx="6"
         dy="6"
         result="offset"
         id="feOffset4618" />
      <feComposite
         in="SourceGraphic"
         in2="offset"
         operator="over"
         result="fbSourceGraphic"
         id="feComposite4620" />
      <feColorMatrix
         result="fbSourceGraphicAlpha"
         in="fbSourceGraphic"
         values="0 0 0 -1 0 0 0 0 -1 0 0 0 0 -1 0 0 0 0 1 0"
         id="feColorMatrix4624" />
      <feFlood
         id="feFlood4626"
         flood-opacity="0.498039"
         flood-color="rgb(0,0,0)"
         result="flood"
         in="fbSourceGraphic" />
      <feComposite
         in2="fbSourceGraphic"
         id="feComposite4628"
         in="flood"
         operator="in"
         result="composite1" />
      <feGaussianBlur
         id="feGaussianBlur4630"
         in="composite1"
         stdDeviation="6"
         result="blur" />
      <feOffset
         id="feOffset4632"
         dx="6"
         dy="6"
         result="offset" />
      <feComposite
         in2="offset"
         id="feComposite4634"
         in="fbSourceGraphic"
         operator="over"
         result="fbSourceGraphic" />
      <feColorMatrix
         result="fbSourceGraphicAlpha"
         in="fbSourceGraphic"
         values="0 0 0 -1 0 0 0 0 -1 0 0 0 0 -1 0 0 0 0 1 0"
         id="feColorMatrix4636" />
      <feFlood
         id="feFlood4638"
         flood-opacity="0.498039"
         flood-color="rgb(0,0,0)"
         result="flood"
         in="fbSourceGraphic" />
      <feComposite
         in2="fbSourceGraphic"
         id="feComposite4640"
         in="flood"
         operator="in"
         result="composite1" />
      <feGaussianBlur
         id="feGaussianBlur4642"
         in="composite1"
         stdDeviation="6"
         result="blur" />
      <feOffset
         id="feOffset4644"
         dx="6"
         dy="6"
         result="offset" />
      <feComposite
         in2="offset"
         id="feComposite4646"
         in="fbSourceGraphic"
         operator="over"
         result="composite2" />
    </filter>
    <filter
       style="color-interpolation-filters:sRGB"
       inkscape:label="Color Shift"
       id="filter3861">
      <feColorMatrix
         type="hueRotate"
         values="112"
         result="color1"
         id="feColorMatrix3857" />
      <feColorMatrix
         type="saturate"
         values="0.6"
         result="fbSourceGraphic"
         id="feColorMatrix3859" />
      <feColorMatrix
         result="fbSourceGraphicAlpha"
         in="fbSourceGraphic"
         values="0 0 0 -1 0 0 0 0 -1 0 0 0 0 -1 0 0 0 0 1 0"
         id="feColorMatrix3863" />
      <feColorMatrix
         id="feColorMatrix3865"
         type="hueRotate"
         values="112"
         result="color1"
         in="fbSourceGraphic" />
      <feColorMatrix
         id="feColorMatrix3867"
         type="saturate"
         values="0.6"
         result="color2" />
    </filter>
    <filter
       style="color-interpolation-filters:sRGB"
       inkscape:label="Color Shift"
       id="filter3873">
      <feColorMatrix
         type="hueRotate"
         values="112"
         result="color1"
         id="feColorMatrix3869" />
      <feColorMatrix
         type="saturate"
         values="0.6"
         result="fbSourceGraphic"
         id="feColorMatrix3871" />
      <feColorMatrix
         result="fbSourceGraphicAlpha"
         in="fbSourceGraphic"
         values="0 0 0 -1 0 0 0 0 -1 0 0 0 0 -1 0 0 0 0 1 0"
         id="feColorMatrix3911" />
      <feColorMatrix
         id="feColorMatrix3913"
         type="hueRotate"
         values="323"
         result="color1"
         in="fbSourceGraphic" />
      <feColorMatrix
         id="feColorMatrix3915"
         type="saturate"
         values="0.61"
         result="color2" />
    </filter>
    <filter
       style="color-interpolation-filters:sRGB"
       inkscape:label="Color Shift"
       id="filter4017"
       x="-0.1215186"
       y="-0.21051334"
       width="1.2936701"
       height="1.5087405">
      <feColorMatrix
         type="hueRotate"
         values="327"
         result="color1"
         id="feColorMatrix4013" />
      <feColorMatrix
         type="saturate"
         values="1"
         result="color2"
         id="feColorMatrix4015" />
    </filter>
    <filter
       style="color-interpolation-filters:sRGB"
       inkscape:label="Color Shift"
       id="filter4135"
       x="0"
       y="0"
       width="1"
       height="1">
      <feColorMatrix
         type="hueRotate"
         values="229"
         result="color1"
         id="feColorMatrix4131" />
      <feColorMatrix
         type="saturate"
         values="0.79"
         result="color2"
         id="feColorMatrix4133" />
    </filter>
    <linearGradient
       x1="0"
       y1="0"
       x2="1"
       y2="0"
       gradientUnits="userSpaceOnUse"
       gradientTransform="matrix(-4.02e-6,-91.8907,-91.8907,4.02e-6,85.8809,161.434)"
       spreadMethod="pad"
       id="linearGradient3027">
      <stop
         style="stop-opacity:1;stop-color:#97d9f6"
         offset="0"
         id="stop3029" />
      <stop
         style="stop-opacity:1;stop-color:#0f80cc"
         offset="0.920245"
         id="stop3031" />
      <stop
         style="stop-opacity:1;stop-color:#0f80cc"
         offset="1"
         id="stop3033" />
    </linearGradient>
    <filter
       style="color-interpolation-filters:sRGB"
       inkscape:label="Drop Shadow"
       id="filter1553">
      <feFlood
         flood-opacity="0.498039"
         flood-color="rgb(0,0,0)"
         result="flood"
         id="feFlood1543" />
      <feComposite
         in="flood"
         in2="SourceGraphic"
         operator="in"
         result="composite1"
         id="feComposite1545" />
      <feGaussianBlur
         in="composite1"
         stdDeviation="3"
         result="blur"
         id="feGaussianBlur1547" />
      <feOffset
         dx="6"
         dy="6"
         result="offset"
         id="feOffset1549" />
      <feComposite
         in="SourceGraphic"
         in2="offset"
         operator="over"
         result="composite2"
         id="feComposite1551" />
    </filter>
    <filter
       style="color-interpolation-filters:sRGB"
       inkscape:label="Drop Shadow"
       id="filter3272"
       x="-0.01740399"
       y="-0.061734223"
       width="1.0944081"
       height="1.1369538">
      <feFlood
         flood-opacity="0.498039"
         flood-color="rgb(0,0,0)"
         result="flood"
         id="feFlood3262" />
      <feComposite
         in="flood"
         in2="SourceGraphic"
         operator="in"
         result="composite1"
         id="feComposite3264" />
      <feGaussianBlur
         in="composite1"
         stdDeviation="3"
         result="blur"
         id="feGaussianBlur3266" />
      <feOffset
         dx="6"
         dy="6"
         result="offset"
         id="feOffset3268" />
      <feComposite
         in="SourceGraphic"
         in2="offset"
         operator="over"
         result="composite2"
         id="feComposite3270" />
    </filter>
    <filter
       style="color-interpolation-filters:sRGB"
       inkscape:label="Drop Shadow"
       id="filter1553-2"
       x="-0.063473052"
       y="-0.056752802"
       width="1.1798403"
       height="1.1607996">
      <feFlood
         flood-opacity="0.498039"
         flood-color="rgb(0,0,0)"
         result="flood"
         id="feFlood1543-6" />
      <feComposite
         in="flood"
         in2="SourceGraphic"
         operator="in"
         result="composite1"
         id="feComposite1545-1" />
      <feGaussianBlur
         in="composite1"
         stdDeviation="3"
         result="blur"
         id="feGaussianBlur1547-8" />
      <feOffset
         dx="6"
         dy="6"
         result="offset"
         id="feOffset1549-7" />
      <feComposite
         in="SourceGraphic"
         in2="offset"
         operator="over"
         result="composite2"
         id="feComposite1551-9" />
    </filter>
    <linearGradient
       inkscape:collect="always"
       xlink:href="#linearGradient3027"
       id="linearGradient3003"
       gradientUnits="userSpaceOnUse"
       gradientTransform="matrix(-4.02e-7,-9.18907,-9.18907,4.02e-7,8.58809,16.1434)"
       spreadMethod="pad"
       x1="-15.614694"
       y1="-9.1082983"
       x2="-6.7410073"
       y2="-9.1082983" />
    <filter
       style="color-interpolation-filters:sRGB"
       inkscape:label="Drop Shadow"
       id="filter4143"
       x="-0.023522188"
       y="-0.057904144"
       width="1.0666462"
       height="1.1640617">
      <feFlood
         flood-opacity="0.498039"
         flood-color="rgb(0,0,0)"
         result="flood"
         id="feFlood4133" />
      <feComposite
         in="flood"
         in2="SourceGraphic"
         operator="in"
         result="composite1"
         id="feComposite4135" />
      <feGaussianBlur
         in="composite1"
         stdDeviation="3"
         result="blur"
         id="feGaussianBlur4137" />
      <feOffset
         dx="6"
         dy="6"
         result="offset"
         id="feOffset4139" />
      <feComposite
         in="SourceGraphic"
         in2="offset"
         operator="over"
         result="composite2"
         id="feComposite4141" />
    </filter>
    <filter
       style="color-interpolation-filters:sRGB;"
       inkscape:label="Drop Shadow"
       id="filter3205">
      <feFlood
         flood-opacity="0.243137"
         flood-color="rgb(254,254,254)"
         result="flood"
         id="feFlood3195" />
      <feComposite
         in="SourceGraphic"
         in2="flood"
         operator="in"
         result="composite1"
         id="feComposite3197" />
      <feGaussianBlur
         in="composite1"
         stdDeviation="3"
         result="blur"
         id="feGaussianBlur3199" />
      <feOffset
         dx="6"
         dy="6"
         result="offset"
         id="feOffset3201" />
      <feComposite
         in="offset"
         in2="offset"
         operator="atop"
         result="composite2"
         id="feComposite3203" />
    </filter>
    <filter
       style="color-interpolation-filters:sRGB;"
       inkscape:label="Drop Shadow"
       id="filter3217"
       x="-0.01052959"
       y="-0.059007789"
       width="1.0292043"
       height="1.1636607">
      <feFlood
         flood-opacity="0.243137"
         flood-color="rgb(254,254,254)"
         result="flood"
         id="feFlood3207" />
      <feComposite
         in="SourceGraphic"
         in2="flood"
         operator="in"
         result="composite1"
         id="feComposite3209" />
      <feGaussianBlur
         in="composite1"
         stdDeviation="3"
         result="blur"
         id="feGaussianBlur3211" />
      <feOffset
         dx="6"
         dy="6"
         result="offset"
         id="feOffset3213" />
      <feComposite
         in="offset"
         in2="offset"
         operator="atop"
         result="composite2"
         id="feComposite3215" />
    </filter>
    <filter
       inkscape:label="Black Hole"
       inkscape:menu="Morphology"
       inkscape:menu-tooltip="Creates a black light inside and outside"
       height="1.0441137"
       width="1.0594339"
       y="-0.022056837"
       x="-0.029716946"
       style="color-interpolation-filters:sRGB"
       id="filter776">
      <feGaussianBlur
         stdDeviation="5"
         in="SourceAlpha"
         result="result1"
         id="feGaussianBlur764" />
      <feComposite
         operator="arithmetic"
         k2="3.2"
         k1="-1"
         k4="-2"
         result="result3"
         in2="result1"
         id="feComposite766"
         k3="0" />
      <feColorMatrix
         values="1 0 0 0 0 0 1 0 0 0 0 0 1 0 0 0 0 0 10 0 "
         result="result2"
         id="feColorMatrix768" />
      <feComposite
         result="fbSourceGraphic"
         in="SourceGraphic"
         operator="out"
         in2="result2"
         id="feComposite770" />
      <feBlend
         mode="multiply"
         in="result1"
         in2="fbSourceGraphic"
         result="result91"
         id="feBlend772" />
      <feBlend
         mode="screen"
         in="fbSourceGraphic"
         in2="result91"
         id="feBlend774" />
    </filter>
  </defs>
  <g
     transform="matrix(0.75277935,0,0,0.75277935,279.96425,223.66848)"
     id="orginal"
     style="clip-rule:nonzero;fill-rule:nonzero;stroke:#000000;stroke-miterlimit:4" />
  <text
     xml:space="preserve"
     id="text3101"
     style="font-size:192px;line-height:1.25;font-family:'Quicksand Medium';-inkscape-font-specification:'Quicksand Medium, ';letter-spacing:0px;word-spacing:0px;white-space:pre;shape-inside:url(#rect3103);display:inline"
     transform="matrix(0.91283848,0,0,0.91283848,77.027174,4.1664522)" />
  <g
     transform="matrix(0.11695583,0,0,0.11695583,255.00158,521.44921)"
     id="Layer_x0020_3"
     style="clip-rule:nonzero;fill:none;fill-rule:nonzero;stroke:#ffffff;stroke-width:12.4651;stroke-linecap:round;stroke-linejoin:round;stroke-miterlimit:4;filter:url(#filter3272)">
    <path
       inkscape:connector-curvature="0"
       style="fill:#000000;stroke:#000000;stroke-width:37.3953;stroke-linecap:butt;stroke-linejoin:miter"
       d="m 323.205,324.227 c 2.833,-23.601 1.984,-27.062 19.563,-23.239 l 4.463,0.392 c 13.517,0.615 31.199,-2.174 41.587,-7 22.362,-10.376 35.622,-27.7 13.572,-23.148 -50.297,10.376 -53.755,-6.655 -53.755,-6.655 C 401.746,185.774 423.948,85.741 404.784,61.255 352.514,-5.534 262.036,26.049 260.522,26.869 l -0.482,0.089 c -9.938,-2.062 -21.06,-3.294 -33.554,-3.496 -22.761,-0.374 -40.032,5.967 -53.133,15.904 0,0 -161.408,-66.498 -153.899,83.628 1.597,31.936 45.777,241.655 98.47,178.31 19.259,-23.163 37.871,-42.748 37.871,-42.748 9.242,6.14 20.307,9.272 31.912,8.147 l 0.897,-0.765 c -0.281,2.876 -0.157,5.689 0.359,9.019 -13.572,15.167 -9.584,17.83 -36.723,23.416 -27.457,5.659 -11.326,15.734 -0.797,18.367 12.768,3.193 42.305,7.716 62.268,-20.224 l -0.795,3.188 c 5.325,4.26 4.965,30.619 5.72,49.452 0.756,18.834 2.017,36.409 5.856,46.771 3.839,10.36 8.369,37.05 44.036,29.406 29.809,-6.388 52.6,-15.582 54.677,-101.107"
       id="path2524" />
    <path
       inkscape:connector-curvature="0"
       style="fill:#336791;stroke:none"
       d="m 402.395,271.23 c -50.302,10.376 -53.76,-6.655 -53.76,-6.655 53.111,-78.808 75.313,-178.843 56.153,-203.326 -52.27,-66.785 -142.752,-35.2 -144.262,-34.38 l -0.486,0.087 c -9.938,-2.063 -21.06,-3.292 -33.56,-3.496 -22.761,-0.373 -40.026,5.967 -53.127,15.902 0,0 -161.411,-66.495 -153.904,83.63 1.597,31.938 45.776,241.657 98.471,178.312 19.26,-23.163 37.869,-42.748 37.869,-42.748 9.243,6.14 20.308,9.272 31.908,8.147 l 0.901,-0.765 c -0.28,2.876 -0.152,5.689 0.361,9.019 -13.575,15.167 -9.586,17.83 -36.723,23.416 -27.459,5.659 -11.328,15.734 -0.796,18.367 12.768,3.193 42.307,7.716 62.266,-20.224 l -0.796,3.188 c 5.319,4.26 9.054,27.711 8.428,48.969 -0.626,21.259 -1.044,35.854 3.147,47.254 4.191,11.4 8.368,37.05 44.042,29.406 29.809,-6.388 45.256,-22.942 47.405,-50.555 1.525,-19.631 4.976,-16.729 5.194,-34.28 l 2.768,-8.309 c 3.192,-26.611 0.507,-35.196 18.872,-31.203 l 4.463,0.392 c 13.517,0.615 31.208,-2.174 41.591,-7 22.358,-10.376 35.618,-27.7 13.573,-23.148 z"
       id="path2526" />
    <path
       inkscape:connector-curvature="0"
       d="m 215.866,286.484 c -1.385,49.516 0.348,99.377 5.193,111.495 4.848,12.118 15.223,35.688 50.9,28.045 29.806,-6.39 40.651,-18.756 45.357,-46.051 3.466,-20.082 10.148,-75.854 11.005,-87.281"
       id="path2528" />
    <path
       inkscape:connector-curvature="0"
       d="m 173.104,38.256 c 0,0 -161.521,-66.016 -154.012,84.109 1.597,31.938 45.779,241.664 98.473,178.316 19.256,-23.166 36.671,-41.335 36.671,-41.335"
       id="path2530" />
    <path
       inkscape:connector-curvature="0"
       d="m 260.349,26.207 c -5.591,1.753 89.848,-34.889 144.087,34.417 19.159,24.484 -3.043,124.519 -56.153,203.329"
       id="path2532" />
    <path
       inkscape:connector-curvature="0"
       style="stroke-linejoin:bevel"
       d="m 348.282,263.953 c 0,0 3.461,17.036 53.764,6.653 22.04,-4.552 8.776,12.774 -13.577,23.155 -18.345,8.514 -59.474,10.696 -60.146,-1.069 -1.729,-30.355 21.647,-21.133 19.96,-28.739 -1.525,-6.85 -11.979,-13.573 -18.894,-30.338 -6.037,-14.633 -82.796,-126.849 21.287,-110.183 3.813,-0.789 -27.146,-99.002 -124.553,-100.599 -97.385,-1.597 -94.19,119.762 -94.19,119.762"
       id="path2534" />
    <path
       inkscape:connector-curvature="0"
       d="m 188.604,274.334 c -13.577,15.166 -9.584,17.829 -36.723,23.417 -27.459,5.66 -11.326,15.733 -0.797,18.365 12.768,3.195 42.307,7.718 62.266,-20.229 6.078,-8.509 -0.036,-22.086 -8.385,-25.547 -4.034,-1.671 -9.428,-3.765 -16.361,3.994 z"
       id="path2536" />
    <path
       inkscape:connector-curvature="0"
       d="m 187.715,274.069 c -1.368,-8.917 2.93,-19.528 7.536,-31.942 6.922,-18.626 22.893,-37.255 10.117,-96.339 -9.523,-44.029 -73.396,-9.163 -73.436,-3.193 -0.039,5.968 2.889,30.26 -1.067,58.548 -5.162,36.913 23.488,68.132 56.479,64.938"
       id="path2538" />
    <path
       inkscape:connector-curvature="0"
       style="fill:#ffffff;stroke-width:4.155;stroke-linecap:butt;stroke-linejoin:miter"
       d="m 172.517,141.7 c -0.288,2.039 3.733,7.48 8.976,8.207 5.234,0.73 9.714,-3.522 9.998,-5.559 0.284,-2.039 -3.732,-4.285 -8.977,-5.015 -5.237,-0.731 -9.719,0.333 -9.996,2.367 z"
       id="path2540" />
    <path
       inkscape:connector-curvature="0"
       style="fill:#ffffff;stroke-width:2.0775;stroke-linecap:butt;stroke-linejoin:miter"
       d="m 331.941,137.543 c 0.284,2.039 -3.732,7.48 -8.976,8.207 -5.238,0.73 -9.718,-3.522 -10.005,-5.559 -0.277,-2.039 3.74,-4.285 8.979,-5.015 5.239,-0.73 9.718,0.333 10.002,2.368 z"
       id="path2542" />
    <path
       inkscape:connector-curvature="0"
       d="m 350.676,123.432 c 0.863,15.994 -3.445,26.888 -3.988,43.914 -0.804,24.748 11.799,53.074 -7.191,81.435"
       id="path2544" />
    <path
       inkscape:connector-curvature="0"
       style="stroke-width:3"
       d="M 0,60.232"
       id="path2546" />
  </g>
  <g
     id="g2998"
     transform="matrix(0.3171021,0,0,-0.3171021,336.1132,574.91639)"
     style="filter:url(#filter1553-2)">
    <path
       d="m 103.096,71.5961 c -0.057,0.7219 -0.091,1.191 -0.091,1.191 0,0 -2.189,14.7578 -4.7948,19.1617 -0.4122,0.6981 0.0449,3.5653 1.1953,7.8121 0.6725,-1.1629 3.5115,-6.1371 4.0815,-7.7398 0.642,-1.8121 0.777,-2.3313 0.777,-2.3313 0,0 -1.557,8.0114 -4.112,12.6862 0.56,1.89 1.229,3.979 1.986,6.212 0.968,-1.698 3.285,-5.809 3.795,-7.235 0.103,-0.293 0.19,-0.542 0.268,-0.77 0.025,0.137 0.05,0.274 0.075,0.411 -0.585,2.482 -1.734,6.801 -3.307,9.992 3.49,18.165 15.393,42.445 27.596,53.278 H 50.9602 c -5.3352,0 -9.7004,-4.366 -9.7004,-9.701 V 66.7738 c 0,-5.3347 4.3652,-9.7 9.7004,-9.7 H 103.39 c -0.378,4.5762 -0.504,9.6391 -0.294,14.5223"
       style="fill:#0f80cc;fill-opacity:1;fill-rule:nonzero;stroke:none"
       id="path3005"
       inkscape:connector-curvature="0" />
    <path
       d="m 99.4055,99.7609 c 0.6725,-1.1629 3.5115,-6.1371 4.0815,-7.7398 0.642,-1.8121 0.777,-2.3313 0.777,-2.3313 0,0 -1.557,8.0114 -4.112,12.6862 0.56,1.89 1.229,3.979 1.986,6.212 0.885,-1.553 2.896,-5.12 3.623,-6.81 0.027,0.319 0.054,0.638 0.082,0.954 -0.644,2.475 -1.622,5.715 -2.874,8.254 3.214,16.725 13.559,38.625 24.704,50.448 H 50.9602 c -3.7883,0 -6.8711,-3.082 -6.8711,-6.871 V 73.1789 c 17.3738,6.668 38.323,12.7633 56.3529,12.502 -0.6693,2.5812 -1.4315,4.9152 -2.2318,6.2679 -0.4122,0.6981 0.0449,3.5653 1.1953,7.8121"
       style="fill:url(#linearGradient3003);fill-opacity:1;fill-rule:nonzero;stroke:none"
       id="path3035"
       inkscape:connector-curvature="0" />
    <path
       d="m 149.133,167.137 c -5.452,4.862 -12.053,2.909 -18.568,-2.873 -0.967,-0.859 -1.932,-1.812 -2.892,-2.83 -11.145,-11.823 -21.49,-33.723 -24.704,-50.448 1.252,-2.539 2.23,-5.779 2.874,-8.254 0.165,-0.635 0.314,-1.231 0.433,-1.738 0.283,-1.1999 0.435,-1.978 0.435,-1.978 0,0 -0.1,0.3781 -0.51,1.567 -0.078,0.228 -0.165,0.477 -0.268,0.77 -0.044,0.121 -0.105,0.268 -0.172,0.425 -0.727,1.69 -2.738,5.257 -3.623,6.81 -0.757,-2.233 -1.426,-4.322 -1.986,-6.212 2.555,-4.6748 4.112,-12.6862 4.112,-12.6862 0,0 -0.135,0.5192 -0.777,2.3313 -0.57,1.6027 -3.409,6.5769 -4.0815,7.7398 -1.1504,-4.2468 -1.6075,-7.114 -1.1953,-7.8121 0.8003,-1.3527 1.5625,-3.6867 2.2318,-6.2679 1.512,-5.8149 2.563,-12.8938 2.563,-12.8938 0,0 0.034,-0.4691 0.091,-1.191 -0.21,-4.8832 -0.084,-9.9461 0.294,-14.5223 0.501,-6.0578 1.444,-11.2617 2.646,-14.0468 l 0.816,0.4449 c -1.765,5.4871 -2.482,12.6781 -2.168,20.9711 0.475,12.6761 3.392,27.9629 8.782,43.896 9.106,24.052 21.74,43.35 33.303,52.566 -10.539,-9.518 -24.803,-40.327 -29.073,-51.736 -4.781,-12.776 -8.169,-24.7651 -10.211,-36.2518 3.523,10.7687 14.914,15.3976 14.914,15.3976 0,0 5.587,6.8903 12.116,16.7342 -3.911,-0.892 -10.333,-2.419 -12.484,-3.323 -3.173,-1.331 -4.028,-1.785 -4.028,-1.785 0,0 10.278,6.259 19.096,9.093 12.127,19.1 25.339,46.234 12.034,58.103"
       style="fill:#003b57;fill-opacity:1;fill-rule:nonzero;stroke:none"
       id="path3045"
       inkscape:connector-curvature="0" />
  </g>
  <g
     id="g4112"
     transform="matrix(0.36278617,0,0,0.36278617,290.52206,469.09852)"
     style="filter:url(#filter4143)">
    <g
       inkscape:label="Layer 1"
       id="layer1-8"
       transform="matrix(1.0000013,0,0,1.0000013,-739.38128,-156.91557)">
      <g
         id="g3392"
         inkscape:export-filename="/mnt/files/documents/monty-program-ab/logos-dbart/MariaDB-seal-flat.png"
         inkscape:export-xdpi="90"
         inkscape:export-ydpi="90">
        <path
           inkscape:export-ydpi="90"
           inkscape:export-xdpi="90"
           inkscape:export-filename="/mnt/files/documents/monty-program-ab/logos/seal-flat.png"
           sodipodi:nodetypes="czssccsccssccccsccsssssz"
           id="path9"
           d="m 428.82171,292.65922 c -2.77907,0.0888 -1.90018,0.88955 -7.90517,2.36733 -6.06394,1.49229 -13.47115,1.0347 -20.00108,3.77329 -19.493,8.175 -23.40401,36.11599 -41.125,46.125 -13.246,7.482 -26.60999,8.07875 -38.625,11.84375 -7.896,2.476 -16.5335,7.55376 -23.6875,13.71875 -5.553,4.787 -5.69799,8.99601 -11.5,15 -6.206,6.422 -24.66525,0.10852 -33.03125,9.9375 2.695,2.725 3.87651,3.48826 9.1875,2.78125 -1.09957,2.08409 -7.58131,3.84041 -6.3125,6.90625 1.33506,3.22592 17.00519,5.41274 31.25,-3.1875 6.634,-4.00525 11.91801,-9.77824 22.25,-11.15625 13.37,-1.782 28.77201,1.14301 44.25,3.375 -2.295,6.843 -6.90274,11.39375 -10.59375,16.84375 -1.143,1.231 2.29574,1.36899 6.21875,0.625 7.057,-1.745 12.14276,-3.15 17.46875,-6.25 6.543,-3.809 7.53451,-13.57449 15.5625,-15.6875 4.473,6.875 16.63853,8.49901 24.1875,3 -6.624,-1.875 -8.45473,-15.9745 -6.21875,-22.1875 2.118,-5.881 4.21078,-15.2885 6.34375,-23.0625 2.29,-8.349 3.13483,-18.87215 5.90625,-23.125 4.16965,-6.39849 8.77695,-8.59575 12.77692,-12.2038 3.99996,-3.60805 7.66121,-7.1202 7.54106,-15.37616 -0.0387,-2.6592 -1.41364,-4.14149 -3.94298,-4.06066 z"
           style="fill:#002b64;fill-opacity:1;fill-rule:evenodd;stroke:none"
           inkscape:connector-curvature="0" />
        <path
           inkscape:export-ydpi="90"
           inkscape:export-xdpi="90"
           inkscape:export-filename="/mnt/files/documents/monty-program-ab/logos/seal-flat.png"
           d="m 258.70071,404.52409 c 10.144,1.453 16.313,0 24.459,-3.533 6.931,-3.006 13.625,-9.203 21.81,-11.83 12.021,-3.857 25.203,0.005 38.053,0.775 3.129,0.188 6.238,0.19 9.307,-0.144 4.787,-2.942 4.688,-13.947 9.347,-14.955 -0.137,15.44 -6.467,24.691 -13.087,33.649 13.952,-2.464 22.301,-10.534 27.94,-21.312 1.711,-3.268 3.172,-6.784 4.464,-10.469 1.997,1.533 0.865,6.197 1.869,8.724 9.61,-5.353 15.113,-17.57 18.757,-29.926 4.216,-14.3 5.942,-28.78 8.661,-33.011 2.654,-4.13 6.784,-6.676 10.554,-9.32 4.284,-3.006 8.105,-6.139 8.765,-11.867 -4.518,-0.418 -5.563,-1.463 -6.231,-3.74 -2.262,1.275 -4.342,1.548 -6.692,1.618 -2.039,0.062 -4.279,-0.029 -7.015,0.252 -22.627,2.324 -25.502,27.263 -40.005,41.401 -1.055,1.028 -2.196,1.987 -3.402,2.887 -5.079,3.785 -11.31,6.49 -17.04,8.68 -9.275,3.544 -18.093,3.796 -26.795,6.855 -6.388,2.245 -12.879,5.502 -18.126,9.093 -1.312,0.897 -2.548,1.816 -3.685,2.746 -3.079,2.519 -5.1,5.314 -7.055,8.189 -2.016,2.963 -3.963,6.011 -6.931,8.923 -4.808,4.721 -22.774,1.377 -29.099,5.755 -0.705,0.487 -1.265,1.072 -1.646,1.774 3.451,1.568 5.756,0.606 9.726,1.045 0.521,3.767 -8.191,6.006 -6.903,7.741 z"
           id="path3352"
           style="fill:#c49a6c;stroke:none"
           inkscape:connector-curvature="0" />
        <path
           inkscape:export-ydpi="90"
           inkscape:export-xdpi="90"
           inkscape:export-filename="/mnt/files/documents/monty-program-ab/logos/seal-flat.png"
           style="clip-rule:evenodd;fill:#c49a6c;fill-opacity:1;fill-rule:evenodd"
           id="path3873"
           d="m 395.78457,377.38405 c 0.27,4.322 2.779,12.897 4.994,14.981 -4.338,1.055 -11.811,-0.688 -13.728,-3.748 0.985,-4.418 6.111,-8.457 8.734,-11.233 z"
           inkscape:connector-curvature="0" />
        <path
           inkscape:export-ydpi="90"
           inkscape:export-xdpi="90"
           inkscape:export-filename="/mnt/files/documents/monty-program-ab/logos/seal-flat.png"
           style="clip-rule:evenodd;fill:#002b64;fill-rule:evenodd"
           id="path3880"
           d="m 402.13957,308.79227 c 3.203,2.781 9.924,0.549 8.723,-4.984 -4.977,-0.412 -7.86,1.277 -8.723,4.984 z"
           inkscape:connector-curvature="0" />
        <path
           inkscape:export-ydpi="90"
           inkscape:export-xdpi="90"
           inkscape:export-filename="/mnt/files/documents/monty-program-ab/logos/seal-flat.png"
           style="fill:#002b64"
           id="path3882"
           d="m 424.47057,302.32627 c -0.852,1.787 -2.483,4.091 -2.483,8.64 -0.007,0.781 -0.593,1.316 -0.603,0.112 0.044,-4.446 1.221,-6.368 2.471,-8.894 0.581,-1.035 0.931,-0.608 0.615,0.142 z"
           inkscape:connector-curvature="0" />
        <path
           inkscape:export-ydpi="90"
           inkscape:export-xdpi="90"
           inkscape:export-filename="/mnt/files/documents/monty-program-ab/logos/seal-flat.png"
           style="fill:#002b64"
           id="path3884"
           d="m 423.61257,301.65327 c -1.005,1.705 -3.425,4.815 -3.825,9.347 -0.074,0.777 -0.706,1.258 -0.61,0.057 0.436,-4.424 2.37,-7.193 3.838,-9.6 0.666,-0.979 0.979,-0.523 0.597,0.196 z"
           inkscape:connector-curvature="0" />
        <path
           inkscape:export-ydpi="90"
           inkscape:export-xdpi="90"
           inkscape:export-filename="/mnt/files/documents/monty-program-ab/logos/seal-flat.png"
           style="fill:#002b64"
           id="path3886"
           d="m 422.83057,300.76127 c -1.145,1.614 -4.87,5.349 -5.649,9.832 -0.14,0.767 -0.81,1.195 -0.613,0.006 0.806,-4.373 4.017,-7.81 5.682,-10.083 0.746,-0.921 1.019,-0.44 0.58,0.245 z"
           inkscape:connector-curvature="0" />
        <path
           inkscape:export-ydpi="90"
           inkscape:export-xdpi="90"
           inkscape:export-filename="/mnt/files/documents/monty-program-ab/logos/seal-flat.png"
           style="fill:#002b64"
           id="path3888"
           d="m 422.13257,299.76627 c -1.36,1.437 -5.801,6.2 -7.201,10.528 -0.248,0.74 -0.971,1.07 -0.608,-0.08 1.412,-4.216 5.301,-8.757 7.269,-10.773 0.869,-0.807 1.071,-0.292 0.54,0.325 z"
           inkscape:connector-curvature="0" />
      </g>
    </g>
    <path
       id="path3324"
       d="m -189.71396,233.65902 c -6.46477,-0.1612 -11.47505,0.48568 -15.67728,2.26308 -1.21214,0.48466 -3.15178,0.48516 -3.31349,2.02023 0.64689,0.64689 0.72749,1.69732 1.29326,2.58601 0.97033,1.61568 2.66661,3.79815 4.2022,4.92969 1.69679,1.29274 3.39409,2.58549 5.17151,3.71703 3.15178,1.93963 6.70758,3.07065 9.77825,5.01027 1.77843,1.13051 3.5553,2.58601 5.33322,3.79815 0.88923,0.64586 1.45448,1.69679 2.58602,2.10084 v -0.24233 c -0.56578,-0.72748 -0.72749,-1.77791 -1.29274,-2.586 -0.80759,-0.8081 -1.6162,-1.53559 -2.42429,-2.34368 -2.34368,-3.15127 -5.25264,-5.89897 -8.40437,-8.16154 -2.5855,-1.77792 -8.24267,-4.20219 -9.29312,-7.19225 0,0 -0.0811,-0.0806 -0.16171,-0.16121 1.7779,-0.16172 3.87874,-0.80809 5.57606,-1.29327 2.74774,-0.72748 5.25264,-0.56576 8.08093,-1.29274 1.29275,-0.32344 2.58602,-0.72748 3.87876,-1.13153 v -0.72698 c -1.45394,-1.45499 -2.50488,-3.3941 -4.04047,-4.76797 -4.12108,-3.55633 -8.64673,-7.03053 -13.33357,-9.93948 -2.50541,-1.61619 -5.73779,-2.66713 -8.40437,-4.04048 -0.9693,-0.48567 -2.58602,-0.72748 -3.15128,-1.53559 -1.45497,-1.77791 -2.26307,-4.12107 -3.31349,-6.22244 -2.34265,-4.44501 -4.60625,-9.37369 -6.62646,-14.06054 -1.45395,-3.15178 -2.34317,-6.30357 -4.12108,-9.21247 -8.32325,-13.7376 -17.37404,-22.06089 -31.27336,-30.22295 -2.99005,-1.6968 -6.54535,-2.42429 -10.34351,-3.31298 -2.01972,-0.0811 -4.04047,-0.24233 -6.06073,-0.32345 -1.29274,-0.56577 -2.586,-2.10084 -3.71755,-2.82833 -4.6052,-2.90945 -16.48483,-9.21199 -19.87892,-0.8887 -2.18196,5.25263 3.23238,10.42411 5.09088,13.09122 1.37437,1.85852 3.15177,3.95936 4.12159,6.06073 0.56577,1.37284 0.72698,2.82833 1.29275,4.2828 1.29326,3.5548 2.50488,7.51516 4.20219,10.82869 0.88921,1.6968 1.85852,3.47471 2.99005,5.00977 0.64638,0.88869 1.7774,1.29325 2.02024,2.74772 -1.13102,1.61618 -1.21214,4.04048 -1.85903,6.06073 -2.90893,9.13134 -1.7774,20.44471 2.34368,27.15177 1.29275,2.01973 4.3639,6.46527 8.48501,4.76797 3.63643,-1.45448 2.82833,-6.06073 3.87875,-10.1012 0.24284,-0.97034 0.0811,-1.61619 0.56577,-2.26257 4.2e-4,0.0806 0,0.16172 0,0.16172 1.13154,2.26257 2.26257,4.44454 3.31298,6.70707 2.5054,3.95935 6.86882,8.08094 10.50523,10.82869 1.94015,1.45395 3.47522,3.95937 5.89949,4.84857 v -0.24284 h -0.16172 c -0.48516,-0.72748 -1.21214,-1.05042 -1.85852,-1.61618 -1.45446,-1.45448 -3.07117,-3.23239 -4.20219,-4.84857 -3.39358,-4.52565 -6.38416,-9.53542 -9.05075,-14.70741 -1.29275,-2.50488 -2.42428,-5.25264 -3.4747,-7.75751 -0.48517,-0.97033 -0.48517,-2.42428 -1.29326,-2.90894 -1.21215,1.7774 -2.98955,3.31299 -3.87875,5.49495 -1.53456,3.4747 -1.6968,7.75752 -2.26257,12.20201 -0.32293,0.0811 -0.16172,0 -0.32345,0.16172 -2.58549,-0.64689 -3.4747,-3.31298 -4.44453,-5.57606 -2.42429,-5.73725 -2.82833,-14.94976 -0.72698,-21.57571 0.56577,-1.69731 2.99005,-7.03054 2.02024,-8.64673 -0.48466,-1.53559 -2.10136,-2.42428 -2.99006,-3.63642 -1.05042,-1.53559 -2.18195,-3.47471 -2.90893,-5.17199 -1.93964,-4.52514 -2.90945,-9.53542 -5.01028,-14.06108 -0.96982,-2.10135 -2.66661,-4.2828 -4.04048,-6.22192 -1.53507,-2.18196 -3.23238,-3.71754 -4.44454,-6.30356 -0.40353,-0.8887 -0.96981,-2.34316 -0.32344,-3.31299 0.16172,-0.64636 0.48465,-0.88869 1.13154,-1.05041 1.05042,-0.88922 4.04047,0.24232 5.09087,0.72697 2.99006,1.21163 5.49495,2.34368 8.00035,4.04048 1.13102,0.80809 2.34316,2.34368 3.79763,2.74773 h 1.69731 c 2.586,0.56525 5.49494,0.16171 7.91923,0.88869 4.28331,1.37336 8.16153,3.39411 11.63679,5.57607 10.58634,6.70706 19.31314,16.243 25.21267,27.63696 0.96982,1.858 1.37336,3.55581 2.26257,5.49494 1.6973,3.95987 3.79814,8.00035 5.49494,11.87911 1.69679,3.79763 3.31298,7.6769 5.73726,10.82869 1.21265,1.69628 6.06072,2.58549 8.24265,3.4747 1.61619,0.72698 4.1216,1.37387 5.57606,2.26256 2.74723,1.69628 5.49495,3.63643 8.08095,5.49495 1.29325,0.9693 5.33322,2.99005 5.57606,4.60573 z"
       style="fill:#00546b;stroke-width:0.464475"
       inkscape:connector-curvature="0" />
    <path
       id="path3326"
       d="m -272.14054,163.43534 c -1.37385,0 -2.34316,0.16224 -3.31298,0.40457 0,-4.3e-4 0,0.0811 0,0.16172 h 0.16173 c 0.64689,1.29275 1.7774,2.18195 2.58549,3.31298 0.64689,1.29274 1.21214,2.58601 1.85903,3.87926 0.0806,-0.0811 0.16121,-0.16172 0.16121,-0.16172 1.13205,-0.8086 1.6973,-2.10135 1.6973,-4.04047 -0.48516,-0.56577 -0.56577,-1.13154 -0.96981,-1.69731 -0.48466,-0.80861 -1.53559,-1.21214 -2.18197,-1.85903 z"
       style="fill:#00546b;stroke-width:0.464475"
       inkscape:connector-curvature="0" />
  </g>
  <text
     xml:space="preserve"
     style="font-size:175.265px;line-height:1.25;font-family:'Quicksand Medium';-inkscape-font-specification:'Quicksand Medium, ';letter-spacing:0px;word-spacing:0px;fill:#000000;stroke:#ffffff;stroke-width:1.113;stroke-miterlimit:4;stroke-dasharray:none;stroke-opacity:0.0579986"
     x="87.73024"
     y="193.90036"
     id="text3093"
     inkscape:export-xdpi="100"
     inkscape:export-ydpi="100"><tspan
       sodipodi:role="line"
       id="tspan3091"
       x="87.73024"
       y="193.90036"
       style="fill:#000000;stroke:#ffffff;stroke-width:1.113;stroke-miterlimit:4;stroke-dasharray:none;stroke-opacity:0.0579986">MultiFlexi</tspan></text>
  <text
     xml:space="preserve"
     style="font-size:175.265px;line-height:1.25;font-family:'Quicksand Medium';-inkscape-font-specification:'Quicksand Medium, ';letter-spacing:0px;word-spacing:0px;stroke:#ffffff;stroke-width:1.113;stroke-miterlimit:4;stroke-dasharray:none;stroke-opacity:0.0579986;filter:url(#filter3217)"
     x="94.096832"
     y="201.14328"
     id="text3093-7"
     inkscape:export-xdpi="100"
     inkscape:export-ydpi="100"><tspan
       sodipodi:role="line"
       id="tspan3091-2"
       x="94.096832"
       y="201.14328"
       style="stroke:#ffffff;stroke-width:1.113;stroke-miterlimit:4;stroke-dasharray:none;stroke-opacity:0.0579986">MultiFlexi</tspan></text>
  <text
     xml:space="preserve"
     style="font-size:48.6848px;line-height:1.25;font-family:'Quicksand Medium';-inkscape-font-specification:'Quicksand Medium, ';letter-spacing:0px;word-spacing:0px;stroke:#ffffff;stroke-width:0.912838;stroke-opacity:0.0579986"
     x="97.084198"
     y="286.56918"
     id="text3097-9"
     inkscape:export-xdpi="100"
     inkscape:export-ydpi="100"><tspan
       sodipodi:role="line"
       id="tspan3095-2"
       x="97.084198"
       y="286.56918"
       style="font-size:48.6848px;stroke:#ffffff;stroke-width:0.912838;stroke-opacity:0.0579986">Prostředí pro spouštění úloh nad</tspan><tspan
       sodipodi:role="line"
       x="97.084198"
       y="347.42517"
       style="font-weight:bold;font-size:48.6848px;stroke:#ffffff;stroke-width:0.912838;stroke-opacity:0.0579986"
       id="tspan3099-7">AbraFlexi a Stormware Pohoda</tspan></text>
  <text
     xml:space="preserve"
     style="font-style:normal;font-weight:normal;font-size:40.0001px;line-height:1.25;font-family:sans-serif;fill:#000000;fill-opacity:1;stroke:none;stroke-width:1"
     x="350.83539"
     y="333.40652"
     id="text422"><tspan
       sodipodi:role="line"
       id="tspan420"
       style="stroke-width:1"
       x="350.83539"
       y="333.40652"> </tspan></text>
  <g
     id="g249"
     transform="matrix(0.77076582,0.51752836,-0.51752836,0.77076582,684.31207,-381.55302)"
     style="fill:#ffd42a;fill-opacity:1;filter:url(#filter776)">
    <path
       id="path5740"
       style="color:#000000;text-indent:0;text-transform:none;fill:#ffd42a;fill-opacity:1;fill-rule:evenodd"
       inkscape:connector-curvature="0"
       d="m 713.47,204.89 v 74.226 c -91.83,18.86 -161.52,100.63 -161.52,197.79 0,96.668 69.012,178.12 160.15,197.51 L 645.092,607.408 686.15,566.35 c -26.951,-20.333 -44.214,-52.667 -44.214,-89.444 0,-48.051 29.471,-88.501 71.524,-104.52 v 115.53 L 854.98,346.396 713.47,204.886 Z" />
    <path
       id="path2985"
       style="color:#000000;text-indent:0;text-transform:none;fill:#ffd42a;fill-opacity:1;fill-rule:evenodd"
       inkscape:connector-curvature="0"
       d="m 795.61,279.41 67.008,66.993 -41.074,41.074 c 26.961,20.328 44.23,52.647 44.23,89.428 0,48.051 -29.47,88.512 -71.524,104.54 v -115.55 l -141.52,141.52 141.52,141.52 v -74.226 c 91.812,-18.87 161.51,-100.65 161.51,-197.79 0,-96.667 -69.01,-178.1 -160.15,-197.49 z" />
  </g>
</svg>
