<?xml version="1.0" encoding="UTF-8" standalone="no"?>
<svg
   xmlns:dc="http://purl.org/dc/elements/1.1/"
   xmlns:cc="http://creativecommons.org/ns#"
   xmlns:rdf="http://www.w3.org/1999/02/22-rdf-syntax-ns#"
   xmlns:svg="http://www.w3.org/2000/svg"
   xmlns="http://www.w3.org/2000/svg"
   xmlns:sodipodi="http://sodipodi.sourceforge.net/DTD/sodipodi-0.dtd"
   xmlns:inkscape="http://www.inkscape.org/namespaces/inkscape"
   id="svg3430"
   width="800"
   height="800"
   viewBox="0 0 799.99974 800.00104"
   version="1.1"
   sodipodi:docname="multi-flexibee-setup-pgsql.svg"
   inkscape:version="0.92.4 (5da689c313, 2019-01-14)">
  <metadata
     id="metadata41">
    <rdf:RDF>
      <cc:Work
         rdf:about="">
        <dc:format>image/svg+xml</dc:format>
        <dc:type
           rdf:resource="http://purl.org/dc/dcmitype/StillImage" />
        <dc:title></dc:title>
      </cc:Work>
    </rdf:RDF>
  </metadata>
  <sodipodi:namedview
     pagecolor="#ffffff"
     bordercolor="#666666"
     borderopacity="1"
     objecttolerance="10"
     gridtolerance="10"
     guidetolerance="10"
     inkscape:pageopacity="0"
     inkscape:pageshadow="2"
     inkscape:window-width="1920"
     inkscape:window-height="1051"
     id="namedview39"
     showgrid="false"
     inkscape:zoom="0.87006406"
     inkscape:cx="207.18978"
     inkscape:cy="298.75763"
     inkscape:window-x="1920"
     inkscape:window-y="0"
     inkscape:window-maximized="1"
     inkscape:current-layer="svg3430" />
  <defs
     id="defs3434">
    <clipPath
       id="clipPath3444">
      <path
         id="path3446"
         d="M 11.52,162 C 11.52,81.677 135.307,16.56 288,16.56 440.693,16.56 564.48,81.678 564.48,162 564.48,242.322 440.693,307.44 288,307.44 135.307,307.44 11.52,242.32 11.52,162"
         inkscape:connector-curvature="0" />
    </clipPath>
    <radialGradient
       id="radialGradient3452"
       cx="0"
       cy="0"
       r="1"
       fx="0"
       fy="0"
       gradientTransform="matrix(363.06,0,0,-363.06,177.52,256.31)"
       gradientUnits="userSpaceOnUse"
       spreadMethod="pad">
      <stop
         id="stop3454"
         offset="0"
         stop-color="#aeb2d5" />
      <stop
         id="stop3456"
         offset="0.3"
         stop-color="#aeb2d5" />
      <stop
         id="stop3458"
         offset="0.75"
         stop-color="#484c89" />
      <stop
         id="stop3460"
         offset="1"
         stop-color="#484c89" />
    </radialGradient>
    <clipPath
       id="clipPath3468">
      <path
         id="path3470"
         d="M 0,324 H 576 V 0 H 0 Z"
         inkscape:connector-curvature="0" />
    </clipPath>
    <clipPath
       id="clipPath3480">
      <path
         id="path3482"
         d="M 0,324 H 576 V 0 H 0 Z"
         inkscape:connector-curvature="0" />
    </clipPath>
    <filter
       style="color-interpolation-filters:sRGB"
       inkscape:label="Drop Shadow"
       id="filter4622">
      <feFlood
         flood-opacity="0.498039"
         flood-color="rgb(0,0,0)"
         result="flood"
         id="feFlood4612" />
      <feComposite
         in="flood"
         in2="SourceGraphic"
         operator="in"
         result="composite1"
         id="feComposite4614" />
      <feGaussianBlur
         in="composite1"
         stdDeviation="6"
         result="blur"
         id="feGaussianBlur4616" />
      <feOffset
         dx="6"
         dy="6"
         result="offset"
         id="feOffset4618" />
      <feComposite
         in="SourceGraphic"
         in2="offset"
         operator="over"
         result="fbSourceGraphic"
         id="feComposite4620" />
      <feColorMatrix
         result="fbSourceGraphicAlpha"
         in="fbSourceGraphic"
         values="0 0 0 -1 0 0 0 0 -1 0 0 0 0 -1 0 0 0 0 1 0"
         id="feColorMatrix4624" />
      <feFlood
         id="feFlood4626"
         flood-opacity="0.498039"
         flood-color="rgb(0,0,0)"
         result="flood"
         in="fbSourceGraphic" />
      <feComposite
         in2="fbSourceGraphic"
         id="feComposite4628"
         in="flood"
         operator="in"
         result="composite1" />
      <feGaussianBlur
         id="feGaussianBlur4630"
         in="composite1"
         stdDeviation="6"
         result="blur" />
      <feOffset
         id="feOffset4632"
         dx="6"
         dy="6"
         result="offset" />
      <feComposite
         in2="offset"
         id="feComposite4634"
         in="fbSourceGraphic"
         operator="over"
         result="fbSourceGraphic" />
      <feColorMatrix
         result="fbSourceGraphicAlpha"
         in="fbSourceGraphic"
         values="0 0 0 -1 0 0 0 0 -1 0 0 0 0 -1 0 0 0 0 1 0"
         id="feColorMatrix4636" />
      <feFlood
         id="feFlood4638"
         flood-opacity="0.498039"
         flood-color="rgb(0,0,0)"
         result="flood"
         in="fbSourceGraphic" />
      <feComposite
         in2="fbSourceGraphic"
         id="feComposite4640"
         in="flood"
         operator="in"
         result="composite1" />
      <feGaussianBlur
         id="feGaussianBlur4642"
         in="composite1"
         stdDeviation="6"
         result="blur" />
      <feOffset
         id="feOffset4644"
         dx="6"
         dy="6"
         result="offset" />
      <feComposite
         in2="offset"
         id="feComposite4646"
         in="fbSourceGraphic"
         operator="over"
         result="composite2" />
    </filter>
    <filter
       style="color-interpolation-filters:sRGB"
       inkscape:label="Color Shift"
       id="filter3861">
      <feColorMatrix
         type="hueRotate"
         values="112"
         result="color1"
         id="feColorMatrix3857" />
      <feColorMatrix
         type="saturate"
         values="0.6"
         result="fbSourceGraphic"
         id="feColorMatrix3859" />
      <feColorMatrix
         result="fbSourceGraphicAlpha"
         in="fbSourceGraphic"
         values="0 0 0 -1 0 0 0 0 -1 0 0 0 0 -1 0 0 0 0 1 0"
         id="feColorMatrix3863" />
      <feColorMatrix
         id="feColorMatrix3865"
         type="hueRotate"
         values="112"
         result="color1"
         in="fbSourceGraphic" />
      <feColorMatrix
         id="feColorMatrix3867"
         type="saturate"
         values="0.6"
         result="color2" />
    </filter>
    <filter
       style="color-interpolation-filters:sRGB"
       inkscape:label="Color Shift"
       id="filter3873">
      <feColorMatrix
         type="hueRotate"
         values="112"
         result="color1"
         id="feColorMatrix3869" />
      <feColorMatrix
         type="saturate"
         values="0.6"
         result="fbSourceGraphic"
         id="feColorMatrix3871" />
      <feColorMatrix
         result="fbSourceGraphicAlpha"
         in="fbSourceGraphic"
         values="0 0 0 -1 0 0 0 0 -1 0 0 0 0 -1 0 0 0 0 1 0"
         id="feColorMatrix3911" />
      <feColorMatrix
         id="feColorMatrix3913"
         type="hueRotate"
         values="323"
         result="color1"
         in="fbSourceGraphic" />
      <feColorMatrix
         id="feColorMatrix3915"
         type="saturate"
         values="0.61"
         result="color2" />
    </filter>
    <filter
       style="color-interpolation-filters:sRGB"
       inkscape:label="Color Shift"
       id="filter4017">
      <feColorMatrix
         type="hueRotate"
         values="327"
         result="color1"
         id="feColorMatrix4013" />
      <feColorMatrix
         type="saturate"
         values="1"
         result="color2"
         id="feColorMatrix4015" />
    </filter>
    <filter
       style="color-interpolation-filters:sRGB"
       inkscape:label="Color Shift"
       id="filter4135">
      <feColorMatrix
         type="hueRotate"
         values="229"
         result="color1"
         id="feColorMatrix4131" />
      <feColorMatrix
         type="saturate"
         values="0.79"
         result="color2"
         id="feColorMatrix4133" />
    </filter>
    <linearGradient
       x1="0"
       y1="0"
       x2="1"
       y2="0"
       gradientUnits="userSpaceOnUse"
       gradientTransform="matrix(-4.02e-6,-91.8907,-91.8907,4.02e-6,85.8809,161.434)"
       spreadMethod="pad"
       id="linearGradient3027">
      <stop
         style="stop-opacity:1;stop-color:#97d9f6"
         offset="0"
         id="stop3029" />
      <stop
         style="stop-opacity:1;stop-color:#0f80cc"
         offset="0.920245"
         id="stop3031" />
      <stop
         style="stop-opacity:1;stop-color:#0f80cc"
         offset="1"
         id="stop3033" />
    </linearGradient>
    <filter
       style="color-interpolation-filters:sRGB;"
       inkscape:label="Drop Shadow"
       id="filter1553">
      <feFlood
         flood-opacity="0.498039"
         flood-color="rgb(0,0,0)"
         result="flood"
         id="feFlood1543" />
      <feComposite
         in="flood"
         in2="SourceGraphic"
         operator="in"
         result="composite1"
         id="feComposite1545" />
      <feGaussianBlur
         in="composite1"
         stdDeviation="3"
         result="blur"
         id="feGaussianBlur1547" />
      <feOffset
         dx="6"
         dy="6"
         result="offset"
         id="feOffset1549" />
      <feComposite
         in="SourceGraphic"
         in2="offset"
         operator="over"
         result="composite2"
         id="feComposite1551" />
    </filter>
    <filter
       style="color-interpolation-filters:sRGB;"
       inkscape:label="Drop Shadow"
       id="filter3272">
      <feFlood
         flood-opacity="0.498039"
         flood-color="rgb(0,0,0)"
         result="flood"
         id="feFlood3262" />
      <feComposite
         in="flood"
         in2="SourceGraphic"
         operator="in"
         result="composite1"
         id="feComposite3264" />
      <feGaussianBlur
         in="composite1"
         stdDeviation="3"
         result="blur"
         id="feGaussianBlur3266" />
      <feOffset
         dx="6"
         dy="6"
         result="offset"
         id="feOffset3268" />
      <feComposite
         in="SourceGraphic"
         in2="offset"
         operator="over"
         result="composite2"
         id="feComposite3270" />
    </filter>
  </defs>
  <g
     id="g4190"
     transform="matrix(1.1697152,0,0,1.1697152,521.92762,609.42549)">
    <g
       transform="matrix(1.25,0,0,-1.25,-464.4007,-115.70074)"
       id="g3795"
       style="filter:url(#filter4622)">
      <g
         id="g3793"
         transform="matrix(28.377017,0,0,-28.377017,108.79034,8415.5854)">
        <g
           id="g3791"
           transform="matrix(0.015609,0,0,-0.015609,-18.251,294.31)"
           style="clip-rule:evenodd;image-rendering:optimizeQuality;shape-rendering:geometricPrecision">
          <path
             id="path3783"
             d="M 1708.7,0 1842.5,231.62 1976.2,0 Z"
             inkscape:connector-curvature="0"
             style="fill:#f9ae2d" />
          <path
             id="path3785"
             d="m 1708.7,0 -133.75,231.62 h 267.53 z"
             inkscape:connector-curvature="0"
             style="fill:#d28b25" />
          <path
             id="path3787"
             d="M 1574.9,231.62 1708.65,463.3 1842.43,231.62 Z"
             inkscape:connector-curvature="0"
             style="fill:#936327" />
          <path
             id="path3789"
             d="M 1708.7,463.3 H 1441.2 L 1173.6,0 h 267.56 l 267.47,463.3"
             inkscape:connector-curvature="0"
             style="fill:#767a7c" />
        </g>
      </g>
    </g>
    <g
       transform="matrix(-0.62121385,-1.0847089,-1.0847089,0.62121385,107.50515,141.82674)"
       style="filter:url(#filter4622)"
       id="g3777">
      <g
         style="filter:url(#filter4135)"
         transform="matrix(28.377017,0,0,-28.377017,108.79034,8415.5854)"
         id="g3775">
        <g
           style="clip-rule:evenodd;image-rendering:optimizeQuality;shape-rendering:geometricPrecision"
           transform="matrix(0.015609,0,0,-0.015609,-18.251,294.31)"
           id="g3773">
          <path
             style="fill:#f9ae2d"
             inkscape:connector-curvature="0"
             d="M 1708.7,0 1842.5,231.62 1976.2,0 Z"
             id="path3765" />
          <path
             style="fill:#d28b25"
             inkscape:connector-curvature="0"
             d="m 1708.7,0 -133.75,231.62 h 267.53 z"
             id="path3767" />
          <path
             style="fill:#936327"
             inkscape:connector-curvature="0"
             d="M 1574.9,231.62 1708.65,463.3 1842.43,231.62 Z"
             id="path3769" />
          <path
             style="fill:#767a7c"
             inkscape:connector-curvature="0"
             d="M 1708.7,463.3 H 1441.2 L 1173.6,0 h 267.56 l 267.47,463.3"
             id="path3771" />
        </g>
      </g>
    </g>
    <g
       transform="matrix(-0.61769877,1.0867144,1.0867144,0.61769877,42.359851,-484.23306)"
       id="g3476"
       style="filter:url(#filter4017)">
      <g
         style="filter:url(#filter4622)"
         id="g4514">
        <g
           transform="matrix(28.377017,0,0,-28.377017,108.79034,8415.5854)"
           id="g14">
          <g
             style="clip-rule:evenodd;image-rendering:optimizeQuality;shape-rendering:geometricPrecision"
             transform="matrix(0.015609,0,0,-0.015609,-18.251,294.31)"
             id="g12">
            <path
               style="fill:#f9ae2d"
               inkscape:connector-curvature="0"
               d="M 1708.7,0 1842.5,231.62 1976.2,0 Z"
               id="path4" />
            <path
               style="fill:#d28b25"
               inkscape:connector-curvature="0"
               d="m 1708.7,0 -133.75,231.62 h 267.53 z"
               id="path6" />
            <path
               style="fill:#936327"
               inkscape:connector-curvature="0"
               d="M 1574.9,231.62 1708.65,463.3 1842.43,231.62 Z"
               id="path8" />
            <path
               style="fill:#767a7c"
               inkscape:connector-curvature="0"
               d="M 1708.7,463.3 H 1441.2 L 1173.6,0 h 267.56 l 267.47,463.3"
               id="path10" />
          </g>
        </g>
      </g>
    </g>
  </g>
  <g
     transform="matrix(0.82465778,0,0,0.82465778,222.31429,240.46093)"
     id="orginal"
     style="clip-rule:nonzero;fill-rule:nonzero;stroke:#000000;stroke-miterlimit:4" />
  <g
     transform="matrix(0.82465778,0,0,0.82465778,222.31429,240.46093)"
     id="Layer_x0020_3"
     style="clip-rule:nonzero;fill:none;fill-rule:nonzero;stroke:#ffffff;stroke-width:12.46510029;stroke-linecap:round;stroke-linejoin:round;stroke-miterlimit:4;filter:url(#filter3272)">
    <path
       inkscape:connector-curvature="0"
       style="fill:#000000;stroke:#000000;stroke-width:37.39530182;stroke-linecap:butt;stroke-linejoin:miter"
       d="m 323.205,324.227 c 2.833,-23.601 1.984,-27.062 19.563,-23.239 l 4.463,0.392 c 13.517,0.615 31.199,-2.174 41.587,-7 22.362,-10.376 35.622,-27.7 13.572,-23.148 -50.297,10.376 -53.755,-6.655 -53.755,-6.655 C 401.746,185.774 423.948,85.741 404.784,61.255 352.514,-5.534 262.036,26.049 260.522,26.869 l -0.482,0.089 c -9.938,-2.062 -21.06,-3.294 -33.554,-3.496 -22.761,-0.374 -40.032,5.967 -53.133,15.904 0,0 -161.408,-66.498 -153.899,83.628 1.597,31.936 45.777,241.655 98.47,178.31 19.259,-23.163 37.871,-42.748 37.871,-42.748 9.242,6.14 20.307,9.272 31.912,8.147 l 0.897,-0.765 c -0.281,2.876 -0.157,5.689 0.359,9.019 -13.572,15.167 -9.584,17.83 -36.723,23.416 -27.457,5.659 -11.326,15.734 -0.797,18.367 12.768,3.193 42.305,7.716 62.268,-20.224 l -0.795,3.188 c 5.325,4.26 4.965,30.619 5.72,49.452 0.756,18.834 2.017,36.409 5.856,46.771 3.839,10.36 8.369,37.05 44.036,29.406 29.809,-6.388 52.6,-15.582 54.677,-101.107"
       id="path2524" />
    <path
       inkscape:connector-curvature="0"
       style="fill:#336791;stroke:none"
       d="m 402.395,271.23 c -50.302,10.376 -53.76,-6.655 -53.76,-6.655 53.111,-78.808 75.313,-178.843 56.153,-203.326 -52.27,-66.785 -142.752,-35.2 -144.262,-34.38 l -0.486,0.087 c -9.938,-2.063 -21.06,-3.292 -33.56,-3.496 -22.761,-0.373 -40.026,5.967 -53.127,15.902 0,0 -161.411,-66.495 -153.904,83.63 1.597,31.938 45.776,241.657 98.471,178.312 19.26,-23.163 37.869,-42.748 37.869,-42.748 9.243,6.14 20.308,9.272 31.908,8.147 l 0.901,-0.765 c -0.28,2.876 -0.152,5.689 0.361,9.019 -13.575,15.167 -9.586,17.83 -36.723,23.416 -27.459,5.659 -11.328,15.734 -0.796,18.367 12.768,3.193 42.307,7.716 62.266,-20.224 l -0.796,3.188 c 5.319,4.26 9.054,27.711 8.428,48.969 -0.626,21.259 -1.044,35.854 3.147,47.254 4.191,11.4 8.368,37.05 44.042,29.406 29.809,-6.388 45.256,-22.942 47.405,-50.555 1.525,-19.631 4.976,-16.729 5.194,-34.28 l 2.768,-8.309 c 3.192,-26.611 0.507,-35.196 18.872,-31.203 l 4.463,0.392 c 13.517,0.615 31.208,-2.174 41.591,-7 22.358,-10.376 35.618,-27.7 13.573,-23.148 z"
       id="path2526" />
    <path
       inkscape:connector-curvature="0"
       d="m 215.866,286.484 c -1.385,49.516 0.348,99.377 5.193,111.495 4.848,12.118 15.223,35.688 50.9,28.045 29.806,-6.39 40.651,-18.756 45.357,-46.051 3.466,-20.082 10.148,-75.854 11.005,-87.281"
       id="path2528" />
    <path
       inkscape:connector-curvature="0"
       d="m 173.104,38.256 c 0,0 -161.521,-66.016 -154.012,84.109 1.597,31.938 45.779,241.664 98.473,178.316 19.256,-23.166 36.671,-41.335 36.671,-41.335"
       id="path2530" />
    <path
       inkscape:connector-curvature="0"
       d="m 260.349,26.207 c -5.591,1.753 89.848,-34.889 144.087,34.417 19.159,24.484 -3.043,124.519 -56.153,203.329"
       id="path2532" />
    <path
       inkscape:connector-curvature="0"
       style="stroke-linejoin:bevel"
       d="m 348.282,263.953 c 0,0 3.461,17.036 53.764,6.653 22.04,-4.552 8.776,12.774 -13.577,23.155 -18.345,8.514 -59.474,10.696 -60.146,-1.069 -1.729,-30.355 21.647,-21.133 19.96,-28.739 -1.525,-6.85 -11.979,-13.573 -18.894,-30.338 -6.037,-14.633 -82.796,-126.849 21.287,-110.183 3.813,-0.789 -27.146,-99.002 -124.553,-100.599 -97.385,-1.597 -94.19,119.762 -94.19,119.762"
       id="path2534" />
    <path
       inkscape:connector-curvature="0"
       d="m 188.604,274.334 c -13.577,15.166 -9.584,17.829 -36.723,23.417 -27.459,5.66 -11.326,15.733 -0.797,18.365 12.768,3.195 42.307,7.718 62.266,-20.229 6.078,-8.509 -0.036,-22.086 -8.385,-25.547 -4.034,-1.671 -9.428,-3.765 -16.361,3.994 z"
       id="path2536" />
    <path
       inkscape:connector-curvature="0"
       d="m 187.715,274.069 c -1.368,-8.917 2.93,-19.528 7.536,-31.942 6.922,-18.626 22.893,-37.255 10.117,-96.339 -9.523,-44.029 -73.396,-9.163 -73.436,-3.193 -0.039,5.968 2.889,30.26 -1.067,58.548 -5.162,36.913 23.488,68.132 56.479,64.938"
       id="path2538" />
    <path
       inkscape:connector-curvature="0"
       style="fill:#ffffff;stroke-width:4.15500021;stroke-linecap:butt;stroke-linejoin:miter"
       d="m 172.517,141.7 c -0.288,2.039 3.733,7.48 8.976,8.207 5.234,0.73 9.714,-3.522 9.998,-5.559 0.284,-2.039 -3.732,-4.285 -8.977,-5.015 -5.237,-0.731 -9.719,0.333 -9.996,2.367 z"
       id="path2540" />
    <path
       inkscape:connector-curvature="0"
       style="fill:#ffffff;stroke-width:2.0775001;stroke-linecap:butt;stroke-linejoin:miter"
       d="m 331.941,137.543 c 0.284,2.039 -3.732,7.48 -8.976,8.207 -5.238,0.73 -9.718,-3.522 -10.005,-5.559 -0.277,-2.039 3.74,-4.285 8.979,-5.015 5.239,-0.73 9.718,0.333 10.002,2.368 z"
       id="path2542" />
    <path
       inkscape:connector-curvature="0"
       d="m 350.676,123.432 c 0.863,15.994 -3.445,26.888 -3.988,43.914 -0.804,24.748 11.799,53.074 -7.191,81.435"
       id="path2544" />
    <path
       inkscape:connector-curvature="0"
       style="stroke-width:3"
       d="M 0,60.232"
       id="path2546" />
  </g>
</svg>
