<?xml version="1.0" encoding="UTF-8" standalone="no"?>
<svg
   id="svg3430"
   width="800"
   height="800"
   viewBox="0 0 799.99974 800.00104"
   version="1.1"
   sodipodi:docname="multiflexi-sqlite.svg"
   inkscape:version="1.2.2 (b0a8486541, 2022-12-01)"
   xmlns:inkscape="http://www.inkscape.org/namespaces/inkscape"
   xmlns:sodipodi="http://sodipodi.sourceforge.net/DTD/sodipodi-0.dtd"
   xmlns:xlink="http://www.w3.org/1999/xlink"
   xmlns="http://www.w3.org/2000/svg"
   xmlns:svg="http://www.w3.org/2000/svg"
   xmlns:rdf="http://www.w3.org/1999/02/22-rdf-syntax-ns#"
   xmlns:cc="http://creativecommons.org/ns#"
   xmlns:dc="http://purl.org/dc/elements/1.1/">
  <metadata
     id="metadata41">
    <rdf:RDF>
      <cc:Work
         rdf:about="">
        <dc:format>image/svg+xml</dc:format>
        <dc:type
           rdf:resource="http://purl.org/dc/dcmitype/StillImage" />
        <dc:title />
      </cc:Work>
    </rdf:RDF>
  </metadata>
  <sodipodi:namedview
     pagecolor="#ffffff"
     bordercolor="#666666"
     borderopacity="1"
     objecttolerance="10"
     gridtolerance="10"
     guidetolerance="10"
     inkscape:pageopacity="0"
     inkscape:pageshadow="2"
     inkscape:window-width="1920"
     inkscape:window-height="1120"
     id="namedview39"
     showgrid="false"
     inkscape:zoom="0.43503203"
     inkscape:cx="-462.03494"
     inkscape:cy="699.94846"
     inkscape:window-x="0"
     inkscape:window-y="0"
     inkscape:window-maximized="1"
     inkscape:current-layer="svg3430"
     inkscape:showpageshadow="2"
     inkscape:pagecheckerboard="0"
     inkscape:deskcolor="#d1d1d1" />
  <defs
     id="defs3434">
    <clipPath
       id="clipPath3444">
      <path
         id="path3446"
         d="M 11.52,162 C 11.52,81.677 135.307,16.56 288,16.56 440.693,16.56 564.48,81.678 564.48,162 564.48,242.322 440.693,307.44 288,307.44 135.307,307.44 11.52,242.32 11.52,162"
         inkscape:connector-curvature="0" />
    </clipPath>
    <radialGradient
       id="radialGradient3452"
       cx="0"
       cy="0"
       r="1"
       fx="0"
       fy="0"
       gradientTransform="matrix(363.06,0,0,-363.06,177.52,256.31)"
       gradientUnits="userSpaceOnUse"
       spreadMethod="pad">
      <stop
         id="stop3454"
         offset="0"
         stop-color="#aeb2d5" />
      <stop
         id="stop3456"
         offset="0.3"
         stop-color="#aeb2d5" />
      <stop
         id="stop3458"
         offset="0.75"
         stop-color="#484c89" />
      <stop
         id="stop3460"
         offset="1"
         stop-color="#484c89" />
    </radialGradient>
    <clipPath
       id="clipPath3468">
      <path
         id="path3470"
         d="M 0,324 H 576 V 0 H 0 Z"
         inkscape:connector-curvature="0" />
    </clipPath>
    <clipPath
       id="clipPath3480">
      <path
         id="path3482"
         d="M 0,324 H 576 V 0 H 0 Z"
         inkscape:connector-curvature="0" />
    </clipPath>
    <filter
       style="color-interpolation-filters:sRGB"
       inkscape:label="Drop Shadow"
       id="filter4622"
       x="-0.1215186"
       y="-0.21051334"
       width="1.29367"
       height="1.5087406">
      <feFlood
         flood-opacity="0.498039"
         flood-color="rgb(0,0,0)"
         result="flood"
         id="feFlood4612" />
      <feComposite
         in="flood"
         in2="SourceGraphic"
         operator="in"
         result="composite1"
         id="feComposite4614" />
      <feGaussianBlur
         in="composite1"
         stdDeviation="6"
         result="blur"
         id="feGaussianBlur4616" />
      <feOffset
         dx="6"
         dy="6"
         result="offset"
         id="feOffset4618" />
      <feComposite
         in="SourceGraphic"
         in2="offset"
         operator="over"
         result="fbSourceGraphic"
         id="feComposite4620" />
      <feColorMatrix
         result="fbSourceGraphicAlpha"
         in="fbSourceGraphic"
         values="0 0 0 -1 0 0 0 0 -1 0 0 0 0 -1 0 0 0 0 1 0"
         id="feColorMatrix4624" />
      <feFlood
         id="feFlood4626"
         flood-opacity="0.498039"
         flood-color="rgb(0,0,0)"
         result="flood"
         in="fbSourceGraphic" />
      <feComposite
         in2="fbSourceGraphic"
         id="feComposite4628"
         in="flood"
         operator="in"
         result="composite1" />
      <feGaussianBlur
         id="feGaussianBlur4630"
         in="composite1"
         stdDeviation="6"
         result="blur" />
      <feOffset
         id="feOffset4632"
         dx="6"
         dy="6"
         result="offset" />
      <feComposite
         in2="offset"
         id="feComposite4634"
         in="fbSourceGraphic"
         operator="over"
         result="fbSourceGraphic" />
      <feColorMatrix
         result="fbSourceGraphicAlpha"
         in="fbSourceGraphic"
         values="0 0 0 -1 0 0 0 0 -1 0 0 0 0 -1 0 0 0 0 1 0"
         id="feColorMatrix4636" />
      <feFlood
         id="feFlood4638"
         flood-opacity="0.498039"
         flood-color="rgb(0,0,0)"
         result="flood"
         in="fbSourceGraphic" />
      <feComposite
         in2="fbSourceGraphic"
         id="feComposite4640"
         in="flood"
         operator="in"
         result="composite1" />
      <feGaussianBlur
         id="feGaussianBlur4642"
         in="composite1"
         stdDeviation="6"
         result="blur" />
      <feOffset
         id="feOffset4644"
         dx="6"
         dy="6"
         result="offset" />
      <feComposite
         in2="offset"
         id="feComposite4646"
         in="fbSourceGraphic"
         operator="over"
         result="composite2" />
    </filter>
    <filter
       style="color-interpolation-filters:sRGB"
       inkscape:label="Color Shift"
       id="filter3861">
      <feColorMatrix
         type="hueRotate"
         values="112"
         result="color1"
         id="feColorMatrix3857" />
      <feColorMatrix
         type="saturate"
         values="0.6"
         result="fbSourceGraphic"
         id="feColorMatrix3859" />
      <feColorMatrix
         result="fbSourceGraphicAlpha"
         in="fbSourceGraphic"
         values="0 0 0 -1 0 0 0 0 -1 0 0 0 0 -1 0 0 0 0 1 0"
         id="feColorMatrix3863" />
      <feColorMatrix
         id="feColorMatrix3865"
         type="hueRotate"
         values="112"
         result="color1"
         in="fbSourceGraphic" />
      <feColorMatrix
         id="feColorMatrix3867"
         type="saturate"
         values="0.6"
         result="color2" />
    </filter>
    <filter
       style="color-interpolation-filters:sRGB"
       inkscape:label="Color Shift"
       id="filter3873">
      <feColorMatrix
         type="hueRotate"
         values="112"
         result="color1"
         id="feColorMatrix3869" />
      <feColorMatrix
         type="saturate"
         values="0.6"
         result="fbSourceGraphic"
         id="feColorMatrix3871" />
      <feColorMatrix
         result="fbSourceGraphicAlpha"
         in="fbSourceGraphic"
         values="0 0 0 -1 0 0 0 0 -1 0 0 0 0 -1 0 0 0 0 1 0"
         id="feColorMatrix3911" />
      <feColorMatrix
         id="feColorMatrix3913"
         type="hueRotate"
         values="323"
         result="color1"
         in="fbSourceGraphic" />
      <feColorMatrix
         id="feColorMatrix3915"
         type="saturate"
         values="0.61"
         result="color2" />
    </filter>
    <filter
       style="color-interpolation-filters:sRGB"
       inkscape:label="Color Shift"
       id="filter4017"
       x="-0.1215186"
       y="-0.21051334"
       width="1.2936701"
       height="1.5087405">
      <feColorMatrix
         type="hueRotate"
         values="327"
         result="color1"
         id="feColorMatrix4013" />
      <feColorMatrix
         type="saturate"
         values="1"
         result="color2"
         id="feColorMatrix4015" />
    </filter>
    <filter
       style="color-interpolation-filters:sRGB"
       inkscape:label="Color Shift"
       id="filter4135"
       x="0"
       y="0"
       width="1"
       height="1">
      <feColorMatrix
         type="hueRotate"
         values="229"
         result="color1"
         id="feColorMatrix4131" />
      <feColorMatrix
         type="saturate"
         values="0.79"
         result="color2"
         id="feColorMatrix4133" />
    </filter>
    <linearGradient
       inkscape:collect="always"
       xlink:href="#linearGradient3027"
       id="linearGradient3003"
       gradientUnits="userSpaceOnUse"
       gradientTransform="matrix(-4.02e-7,-9.18907,-9.18907,4.02e-7,8.58809,16.1434)"
       spreadMethod="pad"
       x1="-15.614694"
       y1="-9.1082983"
       x2="-6.7410073"
       y2="-9.1082983" />
    <linearGradient
       x1="0"
       y1="0"
       x2="1"
       y2="0"
       gradientUnits="userSpaceOnUse"
       gradientTransform="matrix(-4.02e-6,-91.8907,-91.8907,4.02e-6,85.8809,161.434)"
       spreadMethod="pad"
       id="linearGradient3027">
      <stop
         style="stop-opacity:1;stop-color:#97d9f6"
         offset="0"
         id="stop3029" />
      <stop
         style="stop-opacity:1;stop-color:#0f80cc"
         offset="0.920245"
         id="stop3031" />
      <stop
         style="stop-opacity:1;stop-color:#0f80cc"
         offset="1"
         id="stop3033" />
    </linearGradient>
    <filter
       style="color-interpolation-filters:sRGB;"
       inkscape:label="Drop Shadow"
       id="filter1553"
       x="-0.063473052"
       y="-0.056752802"
       width="1.1798403"
       height="1.1607996">
      <feFlood
         flood-opacity="0.498039"
         flood-color="rgb(0,0,0)"
         result="flood"
         id="feFlood1543" />
      <feComposite
         in="flood"
         in2="SourceGraphic"
         operator="in"
         result="composite1"
         id="feComposite1545" />
      <feGaussianBlur
         in="composite1"
         stdDeviation="3"
         result="blur"
         id="feGaussianBlur1547" />
      <feOffset
         dx="6"
         dy="6"
         result="offset"
         id="feOffset1549" />
      <feComposite
         in="SourceGraphic"
         in2="offset"
         operator="over"
         result="composite2"
         id="feComposite1551" />
    </filter>
    <filter
       inkscape:label="Black Hole"
       inkscape:menu="Morphology"
       inkscape:menu-tooltip="Creates a black light inside and outside"
       height="1.0441137"
       width="1.0594339"
       y="-0.022056837"
       x="-0.029716946"
       style="color-interpolation-filters:sRGB"
       id="filter776">
      <feGaussianBlur
         stdDeviation="5"
         in="SourceAlpha"
         result="result1"
         id="feGaussianBlur764" />
      <feComposite
         operator="arithmetic"
         k2="3.2"
         k1="-1"
         k4="-2"
         result="result3"
         in2="result1"
         id="feComposite766"
         k3="0" />
      <feColorMatrix
         values="1 0 0 0 0 0 1 0 0 0 0 0 1 0 0 0 0 0 10 0 "
         result="result2"
         id="feColorMatrix768" />
      <feComposite
         result="fbSourceGraphic"
         in="SourceGraphic"
         operator="out"
         in2="result2"
         id="feComposite770" />
      <feBlend
         mode="multiply"
         in="result1"
         in2="fbSourceGraphic"
         result="result91"
         id="feBlend772" />
      <feBlend
         mode="screen"
         in="fbSourceGraphic"
         in2="result91"
         id="feBlend774" />
    </filter>
  </defs>
  <g
     id="g249"
     transform="matrix(1.3246338,0,0,1.3246338,-598.58196,-231.73128)"
     style="fill:#ffd42a;fill-opacity:1;filter:url(#filter776)">
    <path
       id="path5740"
       style="color:#000000;text-indent:0;text-transform:none;fill:#ffd42a;fill-opacity:1;fill-rule:evenodd"
       inkscape:connector-curvature="0"
       d="m 713.47,204.89 v 74.226 c -91.83,18.86 -161.52,100.63 -161.52,197.79 0,96.668 69.012,178.12 160.15,197.51 L 645.092,607.408 686.15,566.35 c -26.951,-20.333 -44.214,-52.667 -44.214,-89.444 0,-48.051 29.471,-88.501 71.524,-104.52 v 115.53 L 854.98,346.396 713.47,204.886 Z" />
    <path
       id="path2985"
       style="color:#000000;text-indent:0;text-transform:none;fill:#ffd42a;fill-opacity:1;fill-rule:evenodd"
       inkscape:connector-curvature="0"
       d="m 795.61,279.41 67.008,66.993 -41.074,41.074 c 26.961,20.328 44.23,52.647 44.23,89.428 0,48.051 -29.47,88.512 -71.524,104.54 v -115.55 l -141.52,141.52 141.52,141.52 v -74.226 c 91.812,-18.87 161.51,-100.65 161.51,-197.79 0,-96.667 -69.01,-178.1 -160.15,-197.49 z" />
  </g>
  <g
     id="g2998"
     transform="matrix(2.672876,0,0,-2.672876,145.23039,697.80176)"
     style="filter:url(#filter1553)">
    <path
       d="m 103.096,71.5961 c -0.057,0.7219 -0.091,1.191 -0.091,1.191 0,0 -2.189,14.7578 -4.7948,19.1617 -0.4122,0.6981 0.0449,3.5653 1.1953,7.8121 0.6725,-1.1629 3.5115,-6.1371 4.0815,-7.7398 0.642,-1.8121 0.777,-2.3313 0.777,-2.3313 0,0 -1.557,8.0114 -4.112,12.6862 0.56,1.89 1.229,3.979 1.986,6.212 0.968,-1.698 3.285,-5.809 3.795,-7.235 0.103,-0.293 0.19,-0.542 0.268,-0.77 0.025,0.137 0.05,0.274 0.075,0.411 -0.585,2.482 -1.734,6.801 -3.307,9.992 3.49,18.165 15.393,42.445 27.596,53.278 H 50.9602 c -5.3352,0 -9.7004,-4.366 -9.7004,-9.701 V 66.7738 c 0,-5.3347 4.3652,-9.7 9.7004,-9.7 H 103.39 c -0.378,4.5762 -0.504,9.6391 -0.294,14.5223"
       style="fill:#0f80cc;fill-opacity:1;fill-rule:nonzero;stroke:none"
       id="path3005"
       inkscape:connector-curvature="0" />
    <path
       d="m 99.4055,99.7609 c 0.6725,-1.1629 3.5115,-6.1371 4.0815,-7.7398 0.642,-1.8121 0.777,-2.3313 0.777,-2.3313 0,0 -1.557,8.0114 -4.112,12.6862 0.56,1.89 1.229,3.979 1.986,6.212 0.885,-1.553 2.896,-5.12 3.623,-6.81 0.027,0.319 0.054,0.638 0.082,0.954 -0.644,2.475 -1.622,5.715 -2.874,8.254 3.214,16.725 13.559,38.625 24.704,50.448 H 50.9602 c -3.7883,0 -6.8711,-3.082 -6.8711,-6.871 V 73.1789 c 17.3738,6.668 38.323,12.7633 56.3529,12.502 -0.6693,2.5812 -1.4315,4.9152 -2.2318,6.2679 -0.4122,0.6981 0.0449,3.5653 1.1953,7.8121"
       style="fill:url(#linearGradient3003);fill-opacity:1;fill-rule:nonzero;stroke:none"
       id="path3035"
       inkscape:connector-curvature="0" />
    <path
       d="m 149.133,167.137 c -5.452,4.862 -12.053,2.909 -18.568,-2.873 -0.967,-0.859 -1.932,-1.812 -2.892,-2.83 -11.145,-11.823 -21.49,-33.723 -24.704,-50.448 1.252,-2.539 2.23,-5.779 2.874,-8.254 0.165,-0.635 0.314,-1.231 0.433,-1.738 0.283,-1.1999 0.435,-1.978 0.435,-1.978 0,0 -0.1,0.3781 -0.51,1.567 -0.078,0.228 -0.165,0.477 -0.268,0.77 -0.044,0.121 -0.105,0.268 -0.172,0.425 -0.727,1.69 -2.738,5.257 -3.623,6.81 -0.757,-2.233 -1.426,-4.322 -1.986,-6.212 2.555,-4.6748 4.112,-12.6862 4.112,-12.6862 0,0 -0.135,0.5192 -0.777,2.3313 -0.57,1.6027 -3.409,6.5769 -4.0815,7.7398 -1.1504,-4.2468 -1.6075,-7.114 -1.1953,-7.8121 0.8003,-1.3527 1.5625,-3.6867 2.2318,-6.2679 1.512,-5.8149 2.563,-12.8938 2.563,-12.8938 0,0 0.034,-0.4691 0.091,-1.191 -0.21,-4.8832 -0.084,-9.9461 0.294,-14.5223 0.501,-6.0578 1.444,-11.2617 2.646,-14.0468 l 0.816,0.4449 c -1.765,5.4871 -2.482,12.6781 -2.168,20.9711 0.475,12.6761 3.392,27.9629 8.782,43.896 9.106,24.052 21.74,43.35 33.303,52.566 -10.539,-9.518 -24.803,-40.327 -29.073,-51.736 -4.781,-12.776 -8.169,-24.7651 -10.211,-36.2518 3.523,10.7687 14.914,15.3976 14.914,15.3976 0,0 5.587,6.8903 12.116,16.7342 -3.911,-0.892 -10.333,-2.419 -12.484,-3.323 -3.173,-1.331 -4.028,-1.785 -4.028,-1.785 0,0 10.278,6.259 19.096,9.093 12.127,19.1 25.339,46.234 12.034,58.103"
       style="fill:#003b57;fill-opacity:1;fill-rule:nonzero;stroke:none"
       id="path3045"
       inkscape:connector-curvature="0" />
  </g>
</svg>
