<?xml version="1.0" encoding="UTF-8"?>
<!-- Generator: Adobe Illustrator 21.1.0, SVG Export Plug-In . SVG Version: 6.00 Build 0)  -->
<svg version="1.1" id="Layer_1" xmlns="http://www.w3.org/2000/svg" xmlns:xlink="http://www.w3.org/1999/xlink" x="0px" y="0px" viewBox="0 0 16 16" style="enable-background:new 0 0 16 16;" xml:space="preserve">
<style type="text/css">
	.st0{fill:#FF0000;}
</style>
<path class="st0" d="M1.9,10.1l2.5,0.6c0,0-0.2,1-0.2,1.4c0,0.4,0,0.8,0,0.8l-2.8,0c0,0,0.1-0.8,0.2-1.5C1.6,10.8,1.9,10.1,1.9,10.1  z"/>
<polygon class="st0" points="2.2,9.1 4.4,10 4.9,8.1 2.9,7.1 "/>
<path class="st0" d="M3.6,6.2l1.7,1.3c0,0,0.5-0.7,0.7-0.8c0.2-0.2,0.6-0.5,0.6-0.5L5.2,4.6c0,0-0.7,0.5-0.9,0.7S3.6,6.2,3.6,6.2z"/>
<path class="st0" d="M2.7,3.6"/>
<path class="st0" d="M6.4,4.1c0,0,1.1-0.4,1.8-0.3c0.8,0,1.6,0.4,1.6,0.4L9,5.9l-1.8,0L6.4,4.1z"/>
<path class="st0" d="M10.9,4.7L9.6,6.2c0,0,0.5,0.4,0.7,0.6c0.2,0.2,0.5,0.7,0.5,0.7l1.7-1.3c0,0-0.6-0.8-0.9-1  C11.4,4.9,10.9,4.7,10.9,4.7z"/>
<path class="st0" d="M11.2,8.1l0.6,2L14,9c0,0-0.2-0.7-0.4-1.1c-0.2-0.4-0.4-0.8-0.4-0.8L11.2,8.1z"/>
<path class="st0" d="M11.9,10.7l0.1,2.2h2.8c0,0-0.1-0.9-0.2-1.5s-0.3-1.3-0.3-1.3L11.9,10.7z"/>
</svg>