<?xml version="1.0" encoding="UTF-8" standalone="no"?>
<svg
   xmlns:dc="http://purl.org/dc/elements/1.1/"
   xmlns:cc="http://creativecommons.org/ns#"
   xmlns:rdf="http://www.w3.org/1999/02/22-rdf-syntax-ns#"
   xmlns:svg="http://www.w3.org/2000/svg"
   xmlns="http://www.w3.org/2000/svg"
   xmlns:sodipodi="http://sodipodi.sourceforge.net/DTD/sodipodi-0.dtd"
   xmlns:inkscape="http://www.inkscape.org/namespaces/inkscape"
   viewBox="0 0 170 170"
   version="1.1"
   id="svg10"
   sodipodi:docname="kanca.svg"
   inkscape:version="0.92.2 (5c3e80d, 2017-08-06)">
  <metadata
     id="metadata16">
    <rdf:RDF>
      <cc:Work
         rdf:about="">
        <dc:format>image/svg+xml</dc:format>
        <dc:type
           rdf:resource="http://purl.org/dc/dcmitype/StillImage" />
        <dc:title></dc:title>
      </cc:Work>
    </rdf:RDF>
  </metadata>
  <defs
     id="defs14" />
  <sodipodi:namedview
     pagecolor="#ffffff"
     bordercolor="#666666"
     borderopacity="1"
     objecttolerance="10"
     gridtolerance="10"
     guidetolerance="10"
     inkscape:pageopacity="0"
     inkscape:pageshadow="2"
     inkscape:window-width="1474"
     inkscape:window-height="947"
     id="namedview12"
     showgrid="false"
     inkscape:zoom="5.5529412"
     inkscape:cx="91.661224"
     inkscape:cy="80.842345"
     inkscape:window-x="506"
     inkscape:window-y="228"
     inkscape:window-maximized="0"
     inkscape:current-layer="g8" />
  <g
     transform="translate(0 -882.36)"
     id="g8"
     fill-rule="evenodd">
    <path
       sodipodi:type="star"
       style="fill:#f9d100;fill-opacity:1;fill-rule:nonzero;stroke:#000000;stroke-width:7.55905533;stroke-linecap:round;stroke-linejoin:round;stroke-miterlimit:4;stroke-dasharray:none;stroke-dashoffset:6;stroke-opacity:1"
       id="path823"
       sodipodi:sides="3"
       sodipodi:cx="85.000001"
       sodipodi:cy="987.35614"
       sodipodi:r1="79.985298"
       sodipodi:r2="39.992649"
       sodipodi:arg1="-1.5707963"
       sodipodi:arg2="-0.52359878"
       inkscape:flatsided="false"
       inkscape:rounded="0"
       inkscape:randomized="0"
       d="m 85.000002,907.37084 34.634648,59.98898 34.63465,59.98898 -69.2693,0 -69.269301,0 34.634651,-59.98898 z"
       inkscape:transform-center-y="-19.996325" />
    <path
       style="fill:#000000;fill-opacity:1;fill-rule:nonzero;stroke:none;stroke-width:6.6236701;stroke-linecap:round;stroke-linejoin:round;stroke-miterlimit:4;stroke-dasharray:none;stroke-dashoffset:6;stroke-opacity:1"
       d="m 71.469478,945.01625 v 12.625 h 8.802735 c 0.0815,4.40732 0.453986,11.14132 2.001953,14.13477 2.411439,4.66321 6.051478,5.8373 10.43164,8.29802 4.380156,2.46072 6.795196,8.26848 6.302736,13.92073 -0.935853,9.98453 -6.159842,11.69653 -13.86485,11.37773 -13.866974,-0.4958 -16.597191,-17.71495 -12.791401,-29.13359 0,0 -7.422082,0.14818 -8.763672,6.20703 -0.927836,4.19026 -2.424353,9.97076 0.002,18.07036 2.744184,9.1608 10.758401,14.3259 19.826172,15.2441 9.067771,0.9183 19.888509,-2.2038 25.480469,-10.1523 2.25931,-3.2115 3.34096,-7.11941 3.70703,-10.94146 0.36606,-3.82213 0.0408,-7.55119 -1.25,-10.69336 -1.96942,-8.57723 -13.597404,-11.33489 -16.719823,-16.89844 -0.639872,-1.23738 -0.432017,-7.91327 -0.440379,-9.43359 h 2.523437 v -12.625 z"
       id="rect825"
       inkscape:connector-curvature="0"
       sodipodi:nodetypes="cccsscccscccccccccc" />
  </g>
</svg>
