<?xml version="1.0" encoding="UTF-8" standalone="no"?>
<!-- Created with Inkscape (http://www.inkscape.org/) -->
<svg xmlns:dc="http://purl.org/dc/elements/1.1/" xmlns:cc="http://creativecommons.org/ns#" xmlns:rdf="http://www.w3.org/1999/02/22-rdf-syntax-ns#" xmlns:svg="http://www.w3.org/2000/svg" xmlns="http://www.w3.org/2000/svg" xmlns:sodipodi="http://sodipodi.sourceforge.net/DTD/sodipodi-0.dtd" xmlns:inkscape="http://www.inkscape.org/namespaces/inkscape" width="591.77771" height="591.77765" id="svg2" version="1.1" inkscape:version="0.48.5 r10040" sodipodi:docname="kvok.svg">
  <defs id="defs4"/>
  <sodipodi:namedview id="base" pagecolor="#000000" bordercolor="#666666" borderopacity="1.0" inkscape:pageopacity="1" inkscape:pageshadow="2" inkscape:zoom="0.7" inkscape:cx="585.75164" inkscape:cy="162.10746" inkscape:document-units="px" inkscape:current-layer="g4109" showgrid="false" inkscape:snap-global="true" inkscape:snap-bbox="true" inkscape:bbox-nodes="true" inkscape:bbox-paths="true" inkscape:snap-bbox-edge-midpoints="true" inkscape:snap-bbox-midpoints="true" inkscape:snap-nodes="true" inkscape:object-paths="true" inkscape:snap-intersection-paths="true" inkscape:snap-smooth-nodes="true" inkscape:object-nodes="true" inkscape:snap-midpoints="true" inkscape:snap-object-midpoints="true" inkscape:window-width="1280" inkscape:window-height="999" inkscape:window-x="0" inkscape:window-y="0" inkscape:window-maximized="1" fit-margin-top="0" fit-margin-left="0" fit-margin-right="0" fit-margin-bottom="0"/>
  <metadata id="metadata7">
    <rdf:RDF>
      <cc:Work rdf:about="">
        <dc:format>image/svg+xml</dc:format>
        <dc:type rdf:resource="http://purl.org/dc/dcmitype/StillImage"/>
        <dc:title/>
      </cc:Work>
    </rdf:RDF>
  </metadata>
  <g inkscape:label="Layer 1" inkscape:groupmode="layer" id="layer1" transform="translate(-83.453188,-226.93805)">
    <g id="g4109" transform="matrix(0.6265561,0,0,0.6265561,976.49946,412.20219)" style="fill:#004700;fill-opacity:1">
      <path transform="translate(-27.779196,0)" d="m -564.17021,176.55992 c 0,15.34203 -12.43717,27.7792 -27.77919,27.7792 -15.34203,0 -27.7792,-12.43717 -27.7792,-27.7792 0,-15.34202 12.43717,-27.77919 27.7792,-27.77919 15.34202,0 27.77919,12.43717 27.77919,27.77919 z" sodipodi:ry="27.779196" sodipodi:rx="27.779196" sodipodi:cy="176.55992" sodipodi:cx="-591.9494" id="path2985" style="fill:#004700;fill-opacity:1;stroke:none" sodipodi:type="arc"/>
      <path transform="translate(55.558392,0)" sodipodi:type="arc" style="fill:#004700;fill-opacity:1;stroke:none" id="path3757" sodipodi:cx="-591.9494" sodipodi:cy="176.55992" sodipodi:rx="27.779196" sodipodi:ry="27.779196" d="m -564.17021,176.55992 c 0,15.34203 -12.43717,27.7792 -27.77919,27.7792 -15.34203,0 -27.7792,-12.43717 -27.7792,-27.7792 0,-15.34202 12.43717,-27.77919 27.7792,-27.77919 15.34202,0 27.77919,12.43717 27.77919,27.77919 z"/>
      <path sodipodi:type="arc" style="fill:#004700;fill-opacity:1;stroke:none" id="path3765" sodipodi:cx="-591.9494" sodipodi:cy="176.55992" sodipodi:rx="27.779196" sodipodi:ry="27.779196" d="m -564.17021,176.55992 c 0,15.34203 -12.43717,27.7792 -27.77919,27.7792 -15.34203,0 -27.7792,-12.43717 -27.7792,-27.7792 0,-15.34202 12.43717,-27.77919 27.7792,-27.77919 15.34202,0 27.77919,12.43717 27.77919,27.77919 z" transform="translate(-27.779196,83.337588)"/>
      <path d="m -564.17021,176.55992 c 0,15.34203 -12.43717,27.7792 -27.77919,27.7792 -15.34203,0 -27.7792,-12.43717 -27.7792,-27.7792 0,-15.34202 12.43717,-27.77919 27.7792,-27.77919 15.34202,0 27.77919,12.43717 27.77919,27.77919 z" sodipodi:ry="27.779196" sodipodi:rx="27.779196" sodipodi:cy="176.55992" sodipodi:cx="-591.9494" id="path3767" style="fill:#004700;fill-opacity:1;stroke:none" sodipodi:type="arc" transform="translate(55.558392,83.337588)"/>
      <path sodipodi:type="arc" style="fill:#004700;fill-opacity:1;stroke:none" id="path3771" sodipodi:cx="-591.9494" sodipodi:cy="176.55992" sodipodi:rx="27.779196" sodipodi:ry="27.779196" d="m -564.17021,176.55992 c 0,15.34203 -12.43717,27.7792 -27.77919,27.7792 -15.34203,0 -27.7792,-12.43717 -27.7792,-27.7792 0,-15.34202 12.43717,-27.77919 27.7792,-27.77919 15.34202,0 27.77919,12.43717 27.77919,27.77919 z" transform="translate(-27.779196,166.67517)"/>
      <path d="m -564.17021,176.55992 c 0,15.34203 -12.43717,27.7792 -27.77919,27.7792 -15.34203,0 -27.7792,-12.43717 -27.7792,-27.7792 0,-15.34202 12.43717,-27.77919 27.7792,-27.77919 15.34202,0 27.77919,12.43717 27.77919,27.77919 z" sodipodi:ry="27.779196" sodipodi:rx="27.779196" sodipodi:cy="176.55992" sodipodi:cx="-591.9494" id="path3773" style="fill:#004700;fill-opacity:1;stroke:none" sodipodi:type="arc" transform="translate(55.558392,166.67517)"/>
      <path sodipodi:type="arc" style="fill:#004700;fill-opacity:1;stroke:none" id="path3777" sodipodi:cx="-591.9494" sodipodi:cy="176.55992" sodipodi:rx="27.779196" sodipodi:ry="27.779196" d="m -564.17021,176.55992 c 0,15.34203 -12.43717,27.7792 -27.77919,27.7792 -15.34203,0 -27.7792,-12.43717 -27.7792,-27.7792 0,-15.34202 12.43717,-27.77919 27.7792,-27.77919 15.34202,0 27.77919,12.43717 27.77919,27.77919 z" transform="translate(-277.79196,0)"/>
      <path d="m -564.17021,176.55992 c 0,15.34203 -12.43717,27.7792 -27.77919,27.7792 -15.34203,0 -27.7792,-12.43717 -27.7792,-27.7792 0,-15.34202 12.43717,-27.77919 27.7792,-27.77919 15.34202,0 27.77919,12.43717 27.77919,27.77919 z" sodipodi:ry="27.779196" sodipodi:rx="27.779196" sodipodi:cy="176.55992" sodipodi:cx="-591.9494" id="path3779" style="fill:#004700;fill-opacity:1;stroke:none" sodipodi:type="arc" transform="translate(-194.45437,0)"/>
      <path transform="translate(-111.11678,0)" sodipodi:type="arc" style="fill:#004700;fill-opacity:1;stroke:none" id="path3781" sodipodi:cx="-591.9494" sodipodi:cy="176.55992" sodipodi:rx="27.779196" sodipodi:ry="27.779196" d="m -564.17021,176.55992 c 0,15.34203 -12.43717,27.7792 -27.77919,27.7792 -15.34203,0 -27.7792,-12.43717 -27.7792,-27.7792 0,-15.34202 12.43717,-27.77919 27.7792,-27.77919 15.34202,0 27.77919,12.43717 27.77919,27.77919 z"/>
      <path transform="translate(-277.79196,83.337588)" d="m -564.17021,176.55992 c 0,15.34203 -12.43717,27.7792 -27.77919,27.7792 -15.34203,0 -27.7792,-12.43717 -27.7792,-27.7792 0,-15.34202 12.43717,-27.77919 27.7792,-27.77919 15.34202,0 27.77919,12.43717 27.77919,27.77919 z" sodipodi:ry="27.779196" sodipodi:rx="27.779196" sodipodi:cy="176.55992" sodipodi:cx="-591.9494" id="path3783" style="fill:#004700;fill-opacity:1;stroke:none" sodipodi:type="arc"/>
      <path transform="translate(-194.45437,83.337588)" sodipodi:type="arc" style="fill:#004700;fill-opacity:1;stroke:none" id="path3785" sodipodi:cx="-591.9494" sodipodi:cy="176.55992" sodipodi:rx="27.779196" sodipodi:ry="27.779196" d="m -564.17021,176.55992 c 0,15.34203 -12.43717,27.7792 -27.77919,27.7792 -15.34203,0 -27.7792,-12.43717 -27.7792,-27.7792 0,-15.34202 12.43717,-27.77919 27.7792,-27.77919 15.34202,0 27.77919,12.43717 27.77919,27.77919 z"/>
      <path d="m -564.17021,176.55992 c 0,15.34203 -12.43717,27.7792 -27.77919,27.7792 -15.34203,0 -27.7792,-12.43717 -27.7792,-27.7792 0,-15.34202 12.43717,-27.77919 27.7792,-27.77919 15.34202,0 27.77919,12.43717 27.77919,27.77919 z" sodipodi:ry="27.779196" sodipodi:rx="27.779196" sodipodi:cy="176.55992" sodipodi:cx="-591.9494" id="path3787" style="fill:#004700;fill-opacity:1;stroke:none" sodipodi:type="arc" transform="translate(-111.11678,83.337588)"/>
      <path transform="translate(-277.79196,166.67517)" d="m -564.17021,176.55992 c 0,15.34203 -12.43717,27.7792 -27.77919,27.7792 -15.34203,0 -27.7792,-12.43717 -27.7792,-27.7792 0,-15.34202 12.43717,-27.77919 27.7792,-27.77919 15.34202,0 27.77919,12.43717 27.77919,27.77919 z" sodipodi:ry="27.779196" sodipodi:rx="27.779196" sodipodi:cy="176.55992" sodipodi:cx="-591.9494" id="path3789" style="fill:#004700;fill-opacity:1;stroke:none" sodipodi:type="arc"/>
      <path transform="translate(-194.45437,166.67517)" sodipodi:type="arc" style="fill:#004700;fill-opacity:1;stroke:none" id="path3791" sodipodi:cx="-591.9494" sodipodi:cy="176.55992" sodipodi:rx="27.779196" sodipodi:ry="27.779196" d="m -564.17021,176.55992 c 0,15.34203 -12.43717,27.7792 -27.77919,27.7792 -15.34203,0 -27.7792,-12.43717 -27.7792,-27.7792 0,-15.34202 12.43717,-27.77919 27.7792,-27.77919 15.34202,0 27.77919,12.43717 27.77919,27.77919 z"/>
      <path d="m -564.17021,176.55992 c 0,15.34203 -12.43717,27.7792 -27.77919,27.7792 -15.34203,0 -27.7792,-12.43717 -27.7792,-27.7792 0,-15.34202 12.43717,-27.77919 27.7792,-27.77919 15.34202,0 27.77919,12.43717 27.77919,27.77919 z" sodipodi:ry="27.779196" sodipodi:rx="27.779196" sodipodi:cy="176.55992" sodipodi:cx="-591.9494" id="path3793" style="fill:#004700;fill-opacity:1;stroke:none" sodipodi:type="arc" transform="translate(-111.11678,166.67517)"/>
      <path transform="translate(-27.779196,250.01276)" d="m -564.17021,176.55992 c 0,15.34203 -12.43717,27.7792 -27.77919,27.7792 -15.34203,0 -27.7792,-12.43717 -27.7792,-27.7792 0,-15.34202 12.43717,-27.77919 27.7792,-27.77919 15.34202,0 27.77919,12.43717 27.77919,27.77919 z" sodipodi:ry="27.779196" sodipodi:rx="27.779196" sodipodi:cy="176.55992" sodipodi:cx="-591.9494" id="path3795" style="fill:#004700;fill-opacity:1;stroke:none" sodipodi:type="arc"/>
      <path transform="translate(55.558394,250.01276)" sodipodi:type="arc" style="fill:#004700;fill-opacity:1;stroke:none" id="path3797" sodipodi:cx="-591.9494" sodipodi:cy="176.55992" sodipodi:rx="27.779196" sodipodi:ry="27.779196" d="m -564.17021,176.55992 c 0,15.34203 -12.43717,27.7792 -27.77919,27.7792 -15.34203,0 -27.7792,-12.43717 -27.7792,-27.7792 0,-15.34202 12.43717,-27.77919 27.7792,-27.77919 15.34202,0 27.77919,12.43717 27.77919,27.77919 z"/>
      <path sodipodi:type="arc" style="fill:#004700;fill-opacity:1;stroke:none" id="path3801" sodipodi:cx="-591.9494" sodipodi:cy="176.55992" sodipodi:rx="27.779196" sodipodi:ry="27.779196" d="m -564.17021,176.55992 c 0,15.34203 -12.43717,27.7792 -27.77919,27.7792 -15.34203,0 -27.7792,-12.43717 -27.7792,-27.7792 0,-15.34202 12.43717,-27.77919 27.7792,-27.77919 15.34202,0 27.77919,12.43717 27.77919,27.77919 z" transform="translate(-27.779196,333.35035)"/>
      <path d="m -564.17021,176.55992 c 0,15.34203 -12.43717,27.7792 -27.77919,27.7792 -15.34203,0 -27.7792,-12.43717 -27.7792,-27.7792 0,-15.34202 12.43717,-27.77919 27.7792,-27.77919 15.34202,0 27.77919,12.43717 27.77919,27.77919 z" sodipodi:ry="27.779196" sodipodi:rx="27.779196" sodipodi:cy="176.55992" sodipodi:cx="-591.9494" id="path3803" style="fill:#004700;fill-opacity:1;stroke:none" sodipodi:type="arc" transform="translate(55.558394,333.35035)"/>
      <path sodipodi:type="arc" style="fill:#004700;fill-opacity:1;stroke:none" id="path3807" sodipodi:cx="-591.9494" sodipodi:cy="176.55992" sodipodi:rx="27.779196" sodipodi:ry="27.779196" d="m -564.17021,176.55992 c 0,15.34203 -12.43717,27.7792 -27.77919,27.7792 -15.34203,0 -27.7792,-12.43717 -27.7792,-27.7792 0,-15.34202 12.43717,-27.77919 27.7792,-27.77919 15.34202,0 27.77919,12.43717 27.77919,27.77919 z" transform="translate(-27.779196,416.68793)"/>
      <path d="m -564.17021,176.55992 c 0,15.34203 -12.43717,27.7792 -27.77919,27.7792 -15.34203,0 -27.7792,-12.43717 -27.7792,-27.7792 0,-15.34202 12.43717,-27.77919 27.7792,-27.77919 15.34202,0 27.77919,12.43717 27.77919,27.77919 z" sodipodi:ry="27.779196" sodipodi:rx="27.779196" sodipodi:cy="176.55992" sodipodi:cx="-591.9494" id="path3809" style="fill:#004700;fill-opacity:1;stroke:none" sodipodi:type="arc" transform="translate(55.558394,416.68793)"/>
      <path sodipodi:type="arc" style="fill:#004700;fill-opacity:1;stroke:none" id="path3813" sodipodi:cx="-591.9494" sodipodi:cy="176.55992" sodipodi:rx="27.779196" sodipodi:ry="27.779196" d="m -564.17021,176.55992 c 0,15.34203 -12.43717,27.7792 -27.77919,27.7792 -15.34203,0 -27.7792,-12.43717 -27.7792,-27.7792 0,-15.34202 12.43717,-27.77919 27.7792,-27.77919 15.34202,0 27.77919,12.43717 27.77919,27.77919 z" transform="translate(-277.79196,250.01276)"/>
      <path d="m -564.17021,176.55992 c 0,15.34203 -12.43717,27.7792 -27.77919,27.7792 -15.34203,0 -27.7792,-12.43717 -27.7792,-27.7792 0,-15.34202 12.43717,-27.77919 27.7792,-27.77919 15.34202,0 27.77919,12.43717 27.77919,27.77919 z" sodipodi:ry="27.779196" sodipodi:rx="27.779196" sodipodi:cy="176.55992" sodipodi:cx="-591.9494" id="path3815" style="fill:#004700;fill-opacity:1;stroke:none" sodipodi:type="arc" transform="translate(-194.45437,250.01276)"/>
      <path transform="translate(-111.11678,250.01276)" sodipodi:type="arc" style="fill:#004700;fill-opacity:1;stroke:none" id="path3817" sodipodi:cx="-591.9494" sodipodi:cy="176.55992" sodipodi:rx="27.779196" sodipodi:ry="27.779196" d="m -564.17021,176.55992 c 0,15.34203 -12.43717,27.7792 -27.77919,27.7792 -15.34203,0 -27.7792,-12.43717 -27.7792,-27.7792 0,-15.34202 12.43717,-27.77919 27.7792,-27.77919 15.34202,0 27.77919,12.43717 27.77919,27.77919 z"/>
      <path transform="translate(-277.79196,333.35035)" d="m -564.17021,176.55992 c 0,15.34203 -12.43717,27.7792 -27.77919,27.7792 -15.34203,0 -27.7792,-12.43717 -27.7792,-27.7792 0,-15.34202 12.43717,-27.77919 27.7792,-27.77919 15.34202,0 27.77919,12.43717 27.77919,27.77919 z" sodipodi:ry="27.779196" sodipodi:rx="27.779196" sodipodi:cy="176.55992" sodipodi:cx="-591.9494" id="path3819" style="fill:#004700;fill-opacity:1;stroke:none" sodipodi:type="arc"/>
      <path transform="translate(-194.45437,333.35035)" sodipodi:type="arc" style="fill:#004700;fill-opacity:1;stroke:none" id="path3821" sodipodi:cx="-591.9494" sodipodi:cy="176.55992" sodipodi:rx="27.779196" sodipodi:ry="27.779196" d="m -564.17021,176.55992 c 0,15.34203 -12.43717,27.7792 -27.77919,27.7792 -15.34203,0 -27.7792,-12.43717 -27.7792,-27.7792 0,-15.34202 12.43717,-27.77919 27.7792,-27.77919 15.34202,0 27.77919,12.43717 27.77919,27.77919 z"/>
      <path d="m -564.17021,176.55992 c 0,15.34203 -12.43717,27.7792 -27.77919,27.7792 -15.34203,0 -27.7792,-12.43717 -27.7792,-27.7792 0,-15.34202 12.43717,-27.77919 27.7792,-27.77919 15.34202,0 27.77919,12.43717 27.77919,27.77919 z" sodipodi:ry="27.779196" sodipodi:rx="27.779196" sodipodi:cy="176.55992" sodipodi:cx="-591.9494" id="path3823" style="fill:#004700;fill-opacity:1;stroke:none" sodipodi:type="arc" transform="translate(-111.11678,333.35035)"/>
      <path transform="translate(-277.79196,416.68793)" d="m -564.17021,176.55992 c 0,15.34203 -12.43717,27.7792 -27.77919,27.7792 -15.34203,0 -27.7792,-12.43717 -27.7792,-27.7792 0,-15.34202 12.43717,-27.77919 27.7792,-27.77919 15.34202,0 27.77919,12.43717 27.77919,27.77919 z" sodipodi:ry="27.779196" sodipodi:rx="27.779196" sodipodi:cy="176.55992" sodipodi:cx="-591.9494" id="path3825" style="fill:#004700;fill-opacity:1;stroke:none" sodipodi:type="arc"/>
      <path transform="translate(-194.45437,416.68793)" sodipodi:type="arc" style="fill:#004700;fill-opacity:1;stroke:none" id="path3827" sodipodi:cx="-591.9494" sodipodi:cy="176.55992" sodipodi:rx="27.779196" sodipodi:ry="27.779196" d="m -564.17021,176.55992 c 0,15.34203 -12.43717,27.7792 -27.77919,27.7792 -15.34203,0 -27.7792,-12.43717 -27.7792,-27.7792 0,-15.34202 12.43717,-27.77919 27.7792,-27.77919 15.34202,0 27.77919,12.43717 27.77919,27.77919 z"/>
      <path d="m -564.17021,176.55992 c 0,15.34203 -12.43717,27.7792 -27.77919,27.7792 -15.34203,0 -27.7792,-12.43717 -27.7792,-27.7792 0,-15.34202 12.43717,-27.77919 27.7792,-27.77919 15.34202,0 27.77919,12.43717 27.77919,27.77919 z" sodipodi:ry="27.779196" sodipodi:rx="27.779196" sodipodi:cy="176.55992" sodipodi:cx="-591.9494" id="path3829" style="fill:#004700;fill-opacity:1;stroke:none" sodipodi:type="arc" transform="translate(-111.11678,416.68793)"/>
      <path sodipodi:type="arc" style="fill:#004700;fill-opacity:1;stroke:none" id="path3831" sodipodi:cx="-591.9494" sodipodi:cy="176.55992" sodipodi:rx="27.779196" sodipodi:ry="27.779196" d="m -564.17021,176.55992 c 0,15.34203 -12.43717,27.7792 -27.77919,27.7792 -15.34203,0 -27.7792,-12.43717 -27.7792,-27.7792 0,-15.34202 12.43717,-27.77919 27.7792,-27.77919 15.34202,0 27.77919,12.43717 27.77919,27.77919 z" transform="translate(-527.80473,0)"/>
      <path d="m -564.17021,176.55992 c 0,15.34203 -12.43717,27.7792 -27.77919,27.7792 -15.34203,0 -27.7792,-12.43717 -27.7792,-27.7792 0,-15.34202 12.43717,-27.77919 27.7792,-27.77919 15.34202,0 27.77919,12.43717 27.77919,27.77919 z" sodipodi:ry="27.779196" sodipodi:rx="27.779196" sodipodi:cy="176.55992" sodipodi:cx="-591.9494" id="path3833" style="fill:#004700;fill-opacity:1;stroke:none" sodipodi:type="arc" transform="translate(-444.46714,0)"/>
      <path transform="translate(-361.12955,0)" sodipodi:type="arc" style="fill:#004700;fill-opacity:1;stroke:none" id="path3835" sodipodi:cx="-591.9494" sodipodi:cy="176.55992" sodipodi:rx="27.779196" sodipodi:ry="27.779196" d="m -564.17021,176.55992 c 0,15.34203 -12.43717,27.7792 -27.77919,27.7792 -15.34203,0 -27.7792,-12.43717 -27.7792,-27.7792 0,-15.34202 12.43717,-27.77919 27.7792,-27.77919 15.34202,0 27.77919,12.43717 27.77919,27.77919 z"/>
      <path transform="translate(-527.80473,83.337588)" d="m -564.17021,176.55992 c 0,15.34203 -12.43717,27.7792 -27.77919,27.7792 -15.34203,0 -27.7792,-12.43717 -27.7792,-27.7792 0,-15.34202 12.43717,-27.77919 27.7792,-27.77919 15.34202,0 27.77919,12.43717 27.77919,27.77919 z" sodipodi:ry="27.779196" sodipodi:rx="27.779196" sodipodi:cy="176.55992" sodipodi:cx="-591.9494" id="path3837" style="fill:#004700;fill-opacity:1;stroke:none" sodipodi:type="arc"/>
      <path transform="translate(-444.46714,83.337588)" sodipodi:type="arc" style="fill:#004700;fill-opacity:1;stroke:none" id="path3839" sodipodi:cx="-591.9494" sodipodi:cy="176.55992" sodipodi:rx="27.779196" sodipodi:ry="27.779196" d="m -564.17021,176.55992 c 0,15.34203 -12.43717,27.7792 -27.77919,27.7792 -15.34203,0 -27.7792,-12.43717 -27.7792,-27.7792 0,-15.34202 12.43717,-27.77919 27.7792,-27.77919 15.34202,0 27.77919,12.43717 27.77919,27.77919 z"/>
      <path d="m -564.17021,176.55992 c 0,15.34203 -12.43717,27.7792 -27.77919,27.7792 -15.34203,0 -27.7792,-12.43717 -27.7792,-27.7792 0,-15.34202 12.43717,-27.77919 27.7792,-27.77919 15.34202,0 27.77919,12.43717 27.77919,27.77919 z" sodipodi:ry="27.779196" sodipodi:rx="27.779196" sodipodi:cy="176.55992" sodipodi:cx="-591.9494" id="path3841" style="fill:#004700;fill-opacity:1;stroke:none" sodipodi:type="arc" transform="translate(-361.12955,83.337588)"/>
      <path transform="translate(-527.80473,166.67517)" d="m -564.17021,176.55992 c 0,15.34203 -12.43717,27.7792 -27.77919,27.7792 -15.34203,0 -27.7792,-12.43717 -27.7792,-27.7792 0,-15.34202 12.43717,-27.77919 27.7792,-27.77919 15.34202,0 27.77919,12.43717 27.77919,27.77919 z" sodipodi:ry="27.779196" sodipodi:rx="27.779196" sodipodi:cy="176.55992" sodipodi:cx="-591.9494" id="path3843" style="fill:#004700;fill-opacity:1;stroke:none" sodipodi:type="arc"/>
      <path transform="translate(-444.46714,166.67517)" sodipodi:type="arc" style="fill:#004700;fill-opacity:1;stroke:none" id="path3845" sodipodi:cx="-591.9494" sodipodi:cy="176.55992" sodipodi:rx="27.779196" sodipodi:ry="27.779196" d="m -564.17021,176.55992 c 0,15.34203 -12.43717,27.7792 -27.77919,27.7792 -15.34203,0 -27.7792,-12.43717 -27.7792,-27.7792 0,-15.34202 12.43717,-27.77919 27.7792,-27.77919 15.34202,0 27.77919,12.43717 27.77919,27.77919 z"/>
      <path d="m -564.17021,176.55992 c 0,15.34203 -12.43717,27.7792 -27.77919,27.7792 -15.34203,0 -27.7792,-12.43717 -27.7792,-27.7792 0,-15.34202 12.43717,-27.77919 27.7792,-27.77919 15.34202,0 27.77919,12.43717 27.77919,27.77919 z" sodipodi:ry="27.779196" sodipodi:rx="27.779196" sodipodi:cy="176.55992" sodipodi:cx="-591.9494" id="path3847" style="fill:#004700;fill-opacity:1;stroke:none" sodipodi:type="arc" transform="translate(-361.12955,166.67517)"/>
      <path transform="translate(-777.81749,0)" d="m -564.17021,176.55992 c 0,15.34203 -12.43717,27.7792 -27.77919,27.7792 -15.34203,0 -27.7792,-12.43717 -27.7792,-27.7792 0,-15.34202 12.43717,-27.77919 27.7792,-27.77919 15.34202,0 27.77919,12.43717 27.77919,27.77919 z" sodipodi:ry="27.779196" sodipodi:rx="27.779196" sodipodi:cy="176.55992" sodipodi:cx="-591.9494" id="path3849" style="fill:#004700;fill-opacity:1;stroke:none" sodipodi:type="arc"/>
      <path transform="translate(-694.4799,0)" sodipodi:type="arc" style="fill:#004700;fill-opacity:1;stroke:none" id="path3851" sodipodi:cx="-591.9494" sodipodi:cy="176.55992" sodipodi:rx="27.779196" sodipodi:ry="27.779196" d="m -564.17021,176.55992 c 0,15.34203 -12.43717,27.7792 -27.77919,27.7792 -15.34203,0 -27.7792,-12.43717 -27.7792,-27.7792 0,-15.34202 12.43717,-27.77919 27.7792,-27.77919 15.34202,0 27.77919,12.43717 27.77919,27.77919 z"/>
      <path d="m -564.17021,176.55992 c 0,15.34203 -12.43717,27.7792 -27.77919,27.7792 -15.34203,0 -27.7792,-12.43717 -27.7792,-27.7792 0,-15.34202 12.43717,-27.77919 27.7792,-27.77919 15.34202,0 27.77919,12.43717 27.77919,27.77919 z" sodipodi:ry="27.779196" sodipodi:rx="27.779196" sodipodi:cy="176.55992" sodipodi:cx="-591.9494" id="path3853" style="fill:#004700;fill-opacity:1;stroke:none" sodipodi:type="arc" transform="translate(-611.14231,0)"/>
      <path sodipodi:type="arc" style="fill:#004700;fill-opacity:1;stroke:none" id="path3855" sodipodi:cx="-591.9494" sodipodi:cy="176.55992" sodipodi:rx="27.779196" sodipodi:ry="27.779196" d="m -564.17021,176.55992 c 0,15.34203 -12.43717,27.7792 -27.77919,27.7792 -15.34203,0 -27.7792,-12.43717 -27.7792,-27.7792 0,-15.34202 12.43717,-27.77919 27.7792,-27.77919 15.34202,0 27.77919,12.43717 27.77919,27.77919 z" transform="translate(-777.81749,83.337588)"/>
      <path d="m -564.17021,176.55992 c 0,15.34203 -12.43717,27.7792 -27.77919,27.7792 -15.34203,0 -27.7792,-12.43717 -27.7792,-27.7792 0,-15.34202 12.43717,-27.77919 27.7792,-27.77919 15.34202,0 27.77919,12.43717 27.77919,27.77919 z" sodipodi:ry="27.779196" sodipodi:rx="27.779196" sodipodi:cy="176.55992" sodipodi:cx="-591.9494" id="path3857" style="fill:#004700;fill-opacity:1;stroke:none" sodipodi:type="arc" transform="translate(-694.4799,83.337588)"/>
      <path transform="translate(-611.14231,83.337588)" sodipodi:type="arc" style="fill:#004700;fill-opacity:1;stroke:none" id="path3859" sodipodi:cx="-591.9494" sodipodi:cy="176.55992" sodipodi:rx="27.779196" sodipodi:ry="27.779196" d="m -564.17021,176.55992 c 0,15.34203 -12.43717,27.7792 -27.77919,27.7792 -15.34203,0 -27.7792,-12.43717 -27.7792,-27.7792 0,-15.34202 12.43717,-27.77919 27.7792,-27.77919 15.34202,0 27.77919,12.43717 27.77919,27.77919 z"/>
      <path sodipodi:type="arc" style="fill:#004700;fill-opacity:1;stroke:none" id="path3861" sodipodi:cx="-591.9494" sodipodi:cy="176.55992" sodipodi:rx="27.779196" sodipodi:ry="27.779196" d="m -564.17021,176.55992 c 0,15.34203 -12.43717,27.7792 -27.77919,27.7792 -15.34203,0 -27.7792,-12.43717 -27.7792,-27.7792 0,-15.34202 12.43717,-27.77919 27.7792,-27.77919 15.34202,0 27.77919,12.43717 27.77919,27.77919 z" transform="translate(-777.81749,166.67517)"/>
      <path d="m -564.17021,176.55992 c 0,15.34203 -12.43717,27.7792 -27.77919,27.7792 -15.34203,0 -27.7792,-12.43717 -27.7792,-27.7792 0,-15.34202 12.43717,-27.77919 27.7792,-27.77919 15.34202,0 27.77919,12.43717 27.77919,27.77919 z" sodipodi:ry="27.779196" sodipodi:rx="27.779196" sodipodi:cy="176.55992" sodipodi:cx="-591.9494" id="path3863" style="fill:#004700;fill-opacity:1;stroke:none" sodipodi:type="arc" transform="translate(-694.4799,166.67517)"/>
      <path transform="translate(-611.14231,166.67517)" sodipodi:type="arc" style="fill:#004700;fill-opacity:1;stroke:none" id="path3865" sodipodi:cx="-591.9494" sodipodi:cy="176.55992" sodipodi:rx="27.779196" sodipodi:ry="27.779196" d="m -564.17021,176.55992 c 0,15.34203 -12.43717,27.7792 -27.77919,27.7792 -15.34203,0 -27.7792,-12.43717 -27.7792,-27.7792 0,-15.34202 12.43717,-27.77919 27.7792,-27.77919 15.34202,0 27.77919,12.43717 27.77919,27.77919 z"/>
      <path sodipodi:type="arc" style="fill:#004700;fill-opacity:1;stroke:none" id="path3867" sodipodi:cx="-591.9494" sodipodi:cy="176.55992" sodipodi:rx="27.779196" sodipodi:ry="27.779196" d="m -564.17021,176.55992 c 0,15.34203 -12.43717,27.7792 -27.77919,27.7792 -15.34203,0 -27.7792,-12.43717 -27.7792,-27.7792 0,-15.34202 12.43717,-27.77919 27.7792,-27.77919 15.34202,0 27.77919,12.43717 27.77919,27.77919 z" transform="translate(-527.80473,250.01276)"/>
      <path d="m -564.17021,176.55992 c 0,15.34203 -12.43717,27.7792 -27.77919,27.7792 -15.34203,0 -27.7792,-12.43717 -27.7792,-27.7792 0,-15.34202 12.43717,-27.77919 27.7792,-27.77919 15.34202,0 27.77919,12.43717 27.77919,27.77919 z" sodipodi:ry="27.779196" sodipodi:rx="27.779196" sodipodi:cy="176.55992" sodipodi:cx="-591.9494" id="path3869" style="fill:#004700;fill-opacity:1;stroke:none" sodipodi:type="arc" transform="translate(-444.46714,250.01276)"/>
      <path transform="translate(-361.12955,250.01276)" sodipodi:type="arc" style="fill:#004700;fill-opacity:1;stroke:none" id="path3871" sodipodi:cx="-591.9494" sodipodi:cy="176.55992" sodipodi:rx="27.779196" sodipodi:ry="27.779196" d="m -564.17021,176.55992 c 0,15.34203 -12.43717,27.7792 -27.77919,27.7792 -15.34203,0 -27.7792,-12.43717 -27.7792,-27.7792 0,-15.34202 12.43717,-27.77919 27.7792,-27.77919 15.34202,0 27.77919,12.43717 27.77919,27.77919 z"/>
      <path transform="translate(-527.80473,333.35035)" d="m -564.17021,176.55992 c 0,15.34203 -12.43717,27.7792 -27.77919,27.7792 -15.34203,0 -27.7792,-12.43717 -27.7792,-27.7792 0,-15.34202 12.43717,-27.77919 27.7792,-27.77919 15.34202,0 27.77919,12.43717 27.77919,27.77919 z" sodipodi:ry="27.779196" sodipodi:rx="27.779196" sodipodi:cy="176.55992" sodipodi:cx="-591.9494" id="path3873" style="fill:#004700;fill-opacity:1;stroke:none" sodipodi:type="arc"/>
      <path transform="translate(-444.46714,333.35035)" sodipodi:type="arc" style="fill:#004700;fill-opacity:1;stroke:none" id="path3875" sodipodi:cx="-591.9494" sodipodi:cy="176.55992" sodipodi:rx="27.779196" sodipodi:ry="27.779196" d="m -564.17021,176.55992 c 0,15.34203 -12.43717,27.7792 -27.77919,27.7792 -15.34203,0 -27.7792,-12.43717 -27.7792,-27.7792 0,-15.34202 12.43717,-27.77919 27.7792,-27.77919 15.34202,0 27.77919,12.43717 27.77919,27.77919 z"/>
      <path d="m -564.17021,176.55992 c 0,15.34203 -12.43717,27.7792 -27.77919,27.7792 -15.34203,0 -27.7792,-12.43717 -27.7792,-27.7792 0,-15.34202 12.43717,-27.77919 27.7792,-27.77919 15.34202,0 27.77919,12.43717 27.77919,27.77919 z" sodipodi:ry="27.779196" sodipodi:rx="27.779196" sodipodi:cy="176.55992" sodipodi:cx="-591.9494" id="path3877" style="fill:#004700;fill-opacity:1;stroke:none" sodipodi:type="arc" transform="translate(-361.12955,333.35035)"/>
      <path transform="translate(-527.80473,416.68793)" d="m -564.17021,176.55992 c 0,15.34203 -12.43717,27.7792 -27.77919,27.7792 -15.34203,0 -27.7792,-12.43717 -27.7792,-27.7792 0,-15.34202 12.43717,-27.77919 27.7792,-27.77919 15.34202,0 27.77919,12.43717 27.77919,27.77919 z" sodipodi:ry="27.779196" sodipodi:rx="27.779196" sodipodi:cy="176.55992" sodipodi:cx="-591.9494" id="path3879" style="fill:#004700;fill-opacity:1;stroke:none" sodipodi:type="arc"/>
      <path transform="translate(-444.46714,416.68793)" sodipodi:type="arc" style="fill:#004700;fill-opacity:1;stroke:none" id="path3881" sodipodi:cx="-591.9494" sodipodi:cy="176.55992" sodipodi:rx="27.779196" sodipodi:ry="27.779196" d="m -564.17021,176.55992 c 0,15.34203 -12.43717,27.7792 -27.77919,27.7792 -15.34203,0 -27.7792,-12.43717 -27.7792,-27.7792 0,-15.34202 12.43717,-27.77919 27.7792,-27.77919 15.34202,0 27.77919,12.43717 27.77919,27.77919 z"/>
      <path d="m -564.17021,176.55992 c 0,15.34203 -12.43717,27.7792 -27.77919,27.7792 -15.34203,0 -27.7792,-12.43717 -27.7792,-27.7792 0,-15.34202 12.43717,-27.77919 27.7792,-27.77919 15.34202,0 27.77919,12.43717 27.77919,27.77919 z" sodipodi:ry="27.779196" sodipodi:rx="27.779196" sodipodi:cy="176.55992" sodipodi:cx="-591.9494" id="path3883" style="fill:#004700;fill-opacity:1;stroke:none" sodipodi:type="arc" transform="translate(-361.12955,416.68793)"/>
      <path transform="translate(-777.81749,250.01276)" d="m -564.17021,176.55992 c 0,15.34203 -12.43717,27.7792 -27.77919,27.7792 -15.34203,0 -27.7792,-12.43717 -27.7792,-27.7792 0,-15.34202 12.43717,-27.77919 27.7792,-27.77919 15.34202,0 27.77919,12.43717 27.77919,27.77919 z" sodipodi:ry="27.779196" sodipodi:rx="27.779196" sodipodi:cy="176.55992" sodipodi:cx="-591.9494" id="path3885" style="fill:#004700;fill-opacity:1;stroke:none" sodipodi:type="arc"/>
      <path transform="translate(-694.4799,250.01276)" sodipodi:type="arc" style="fill:#004700;fill-opacity:1;stroke:none" id="path3887" sodipodi:cx="-591.9494" sodipodi:cy="176.55992" sodipodi:rx="27.779196" sodipodi:ry="27.779196" d="m -564.17021,176.55992 c 0,15.34203 -12.43717,27.7792 -27.77919,27.7792 -15.34203,0 -27.7792,-12.43717 -27.7792,-27.7792 0,-15.34202 12.43717,-27.77919 27.7792,-27.77919 15.34202,0 27.77919,12.43717 27.77919,27.77919 z"/>
      <path d="m -564.17021,176.55992 c 0,15.34203 -12.43717,27.7792 -27.77919,27.7792 -15.34203,0 -27.7792,-12.43717 -27.7792,-27.7792 0,-15.34202 12.43717,-27.77919 27.7792,-27.77919 15.34202,0 27.77919,12.43717 27.77919,27.77919 z" sodipodi:ry="27.779196" sodipodi:rx="27.779196" sodipodi:cy="176.55992" sodipodi:cx="-591.9494" id="path3889" style="fill:#004700;fill-opacity:1;stroke:none" sodipodi:type="arc" transform="translate(-611.14231,250.01276)"/>
      <path sodipodi:type="arc" style="fill:#004700;fill-opacity:1;stroke:none" id="path3891" sodipodi:cx="-591.9494" sodipodi:cy="176.55992" sodipodi:rx="27.779196" sodipodi:ry="27.779196" d="m -564.17021,176.55992 c 0,15.34203 -12.43717,27.7792 -27.77919,27.7792 -15.34203,0 -27.7792,-12.43717 -27.7792,-27.7792 0,-15.34202 12.43717,-27.77919 27.7792,-27.77919 15.34202,0 27.77919,12.43717 27.77919,27.77919 z" transform="translate(-777.81749,333.35035)"/>
      <path d="m -564.17021,176.55992 c 0,15.34203 -12.43717,27.7792 -27.77919,27.7792 -15.34203,0 -27.7792,-12.43717 -27.7792,-27.7792 0,-15.34202 12.43717,-27.77919 27.7792,-27.77919 15.34202,0 27.77919,12.43717 27.77919,27.77919 z" sodipodi:ry="27.779196" sodipodi:rx="27.779196" sodipodi:cy="176.55992" sodipodi:cx="-591.9494" id="path3893" style="fill:#004700;fill-opacity:1;stroke:none" sodipodi:type="arc" transform="translate(-694.4799,333.35035)"/>
      <path transform="translate(-611.14231,333.35035)" sodipodi:type="arc" style="fill:#004700;fill-opacity:1;stroke:none" id="path3895" sodipodi:cx="-591.9494" sodipodi:cy="176.55992" sodipodi:rx="27.779196" sodipodi:ry="27.779196" d="m -564.17021,176.55992 c 0,15.34203 -12.43717,27.7792 -27.77919,27.7792 -15.34203,0 -27.7792,-12.43717 -27.7792,-27.7792 0,-15.34202 12.43717,-27.77919 27.7792,-27.77919 15.34202,0 27.77919,12.43717 27.77919,27.77919 z"/>
      <path sodipodi:type="arc" style="fill:#004700;fill-opacity:1;stroke:none" id="path3897" sodipodi:cx="-591.9494" sodipodi:cy="176.55992" sodipodi:rx="27.779196" sodipodi:ry="27.779196" d="m -564.17021,176.55992 c 0,15.34203 -12.43717,27.7792 -27.77919,27.7792 -15.34203,0 -27.7792,-12.43717 -27.7792,-27.7792 0,-15.34202 12.43717,-27.77919 27.7792,-27.77919 15.34202,0 27.77919,12.43717 27.77919,27.77919 z" transform="translate(-777.81749,416.68793)"/>
      <path d="m -564.17021,176.55992 c 0,15.34203 -12.43717,27.7792 -27.77919,27.7792 -15.34203,0 -27.7792,-12.43717 -27.7792,-27.7792 0,-15.34202 12.43717,-27.77919 27.7792,-27.77919 15.34202,0 27.77919,12.43717 27.77919,27.77919 z" sodipodi:ry="27.779196" sodipodi:rx="27.779196" sodipodi:cy="176.55992" sodipodi:cx="-591.9494" id="path3899" style="fill:#004700;fill-opacity:1;stroke:none" sodipodi:type="arc" transform="translate(-694.4799,416.68793)"/>
      <path transform="translate(-611.14231,416.68793)" sodipodi:type="arc" style="fill:#004700;fill-opacity:1;stroke:none" id="path3901" sodipodi:cx="-591.9494" sodipodi:cy="176.55992" sodipodi:rx="27.779196" sodipodi:ry="27.779196" d="m -564.17021,176.55992 c 0,15.34203 -12.43717,27.7792 -27.77919,27.7792 -15.34203,0 -27.7792,-12.43717 -27.7792,-27.7792 0,-15.34202 12.43717,-27.77919 27.7792,-27.77919 15.34202,0 27.77919,12.43717 27.77919,27.77919 z"/>
      <path transform="translate(-27.779196,-416.68793)" d="m -564.17021,176.55992 c 0,15.34203 -12.43717,27.7792 -27.77919,27.7792 -15.34203,0 -27.7792,-12.43717 -27.7792,-27.7792 0,-15.34202 12.43717,-27.77919 27.7792,-27.77919 15.34202,0 27.77919,12.43717 27.77919,27.77919 z" sodipodi:ry="27.779196" sodipodi:rx="27.779196" sodipodi:cy="176.55992" sodipodi:cx="-591.9494" id="path3909" style="fill:#004700;fill-opacity:1;stroke:none" sodipodi:type="arc"/>
      <path transform="translate(55.558392,-416.68793)" sodipodi:type="arc" style="fill:#004700;fill-opacity:1;stroke:none" id="path3911" sodipodi:cx="-591.9494" sodipodi:cy="176.55992" sodipodi:rx="27.779196" sodipodi:ry="27.779196" d="m -564.17021,176.55992 c 0,15.34203 -12.43717,27.7792 -27.77919,27.7792 -15.34203,0 -27.7792,-12.43717 -27.7792,-27.7792 0,-15.34202 12.43717,-27.77919 27.7792,-27.77919 15.34202,0 27.77919,12.43717 27.77919,27.77919 z"/>
      <path transform="translate(-27.779196,-333.35035)" d="m -564.17021,176.55992 c 0,15.34203 -12.43717,27.7792 -27.77919,27.7792 -15.34203,0 -27.7792,-12.43717 -27.7792,-27.7792 0,-15.34202 12.43717,-27.77919 27.7792,-27.77919 15.34202,0 27.77919,12.43717 27.77919,27.77919 z" sodipodi:ry="27.779196" sodipodi:rx="27.779196" sodipodi:cy="176.55992" sodipodi:cx="-591.9494" id="path3915" style="fill:#004700;fill-opacity:1;stroke:none" sodipodi:type="arc"/>
      <path transform="translate(55.558392,-333.35035)" sodipodi:type="arc" style="fill:#004700;fill-opacity:1;stroke:none" id="path3917" sodipodi:cx="-591.9494" sodipodi:cy="176.55992" sodipodi:rx="27.779196" sodipodi:ry="27.779196" d="m -564.17021,176.55992 c 0,15.34203 -12.43717,27.7792 -27.77919,27.7792 -15.34203,0 -27.7792,-12.43717 -27.7792,-27.7792 0,-15.34202 12.43717,-27.77919 27.7792,-27.77919 15.34202,0 27.77919,12.43717 27.77919,27.77919 z"/>
      <path sodipodi:type="arc" style="fill:#004700;fill-opacity:1;stroke:none" id="path3927" sodipodi:cx="-591.9494" sodipodi:cy="176.55992" sodipodi:rx="27.779196" sodipodi:ry="27.779196" d="m -564.17021,176.55992 c 0,15.34203 -12.43717,27.7792 -27.77919,27.7792 -15.34203,0 -27.7792,-12.43717 -27.7792,-27.7792 0,-15.34202 12.43717,-27.77919 27.7792,-27.77919 15.34202,0 27.77919,12.43717 27.77919,27.77919 z" transform="translate(-277.79196,-416.68793)"/>
      <path d="m -564.17021,176.55992 c 0,15.34203 -12.43717,27.7792 -27.77919,27.7792 -15.34203,0 -27.7792,-12.43717 -27.7792,-27.7792 0,-15.34202 12.43717,-27.77919 27.7792,-27.77919 15.34202,0 27.77919,12.43717 27.77919,27.77919 z" sodipodi:ry="27.779196" sodipodi:rx="27.779196" sodipodi:cy="176.55992" sodipodi:cx="-591.9494" id="path3929" style="fill:#004700;fill-opacity:1;stroke:none" sodipodi:type="arc" transform="translate(-194.45437,-416.68793)"/>
      <path transform="translate(-111.11678,-416.68793)" sodipodi:type="arc" style="fill:#004700;fill-opacity:1;stroke:none" id="path3931" sodipodi:cx="-591.9494" sodipodi:cy="176.55992" sodipodi:rx="27.779196" sodipodi:ry="27.779196" d="m -564.17021,176.55992 c 0,15.34203 -12.43717,27.7792 -27.77919,27.7792 -15.34203,0 -27.7792,-12.43717 -27.7792,-27.7792 0,-15.34202 12.43717,-27.77919 27.7792,-27.77919 15.34202,0 27.77919,12.43717 27.77919,27.77919 z"/>
      <path sodipodi:type="arc" style="fill:#004700;fill-opacity:1;stroke:none" id="path3933" sodipodi:cx="-591.9494" sodipodi:cy="176.55992" sodipodi:rx="27.779196" sodipodi:ry="27.779196" d="m -564.17021,176.55992 c 0,15.34203 -12.43717,27.7792 -27.77919,27.7792 -15.34203,0 -27.7792,-12.43717 -27.7792,-27.7792 0,-15.34202 12.43717,-27.77919 27.7792,-27.77919 15.34202,0 27.77919,12.43717 27.77919,27.77919 z" transform="translate(-277.79196,-333.35035)"/>
      <path d="m -564.17021,176.55992 c 0,15.34203 -12.43717,27.7792 -27.77919,27.7792 -15.34203,0 -27.7792,-12.43717 -27.7792,-27.7792 0,-15.34202 12.43717,-27.77919 27.7792,-27.77919 15.34202,0 27.77919,12.43717 27.77919,27.77919 z" sodipodi:ry="27.779196" sodipodi:rx="27.779196" sodipodi:cy="176.55992" sodipodi:cx="-591.9494" id="path3935" style="fill:#004700;fill-opacity:1;stroke:none" sodipodi:type="arc" transform="translate(-194.45437,-333.35035)"/>
      <path transform="translate(-111.11678,-333.35035)" sodipodi:type="arc" style="fill:#004700;fill-opacity:1;stroke:none" id="path3937" sodipodi:cx="-591.9494" sodipodi:cy="176.55992" sodipodi:rx="27.779196" sodipodi:ry="27.779196" d="m -564.17021,176.55992 c 0,15.34203 -12.43717,27.7792 -27.77919,27.7792 -15.34203,0 -27.7792,-12.43717 -27.7792,-27.7792 0,-15.34202 12.43717,-27.77919 27.7792,-27.77919 15.34202,0 27.77919,12.43717 27.77919,27.77919 z"/>
      <path sodipodi:type="arc" style="fill:#004700;fill-opacity:1;stroke:none" id="path3939" sodipodi:cx="-591.9494" sodipodi:cy="176.55992" sodipodi:rx="27.779196" sodipodi:ry="27.779196" d="m -564.17021,176.55992 c 0,15.34203 -12.43717,27.7792 -27.77919,27.7792 -15.34203,0 -27.7792,-12.43717 -27.7792,-27.7792 0,-15.34202 12.43717,-27.77919 27.7792,-27.77919 15.34202,0 27.77919,12.43717 27.77919,27.77919 z" transform="translate(-27.779196,-250.01276)"/>
      <path d="m -564.17021,176.55992 c 0,15.34203 -12.43717,27.7792 -27.77919,27.7792 -15.34203,0 -27.7792,-12.43717 -27.7792,-27.7792 0,-15.34202 12.43717,-27.77919 27.7792,-27.77919 15.34202,0 27.77919,12.43717 27.77919,27.77919 z" sodipodi:ry="27.779196" sodipodi:rx="27.779196" sodipodi:cy="176.55992" sodipodi:cx="-591.9494" id="path3941" style="fill:#004700;fill-opacity:1;stroke:none" sodipodi:type="arc" transform="translate(55.558394,-250.01276)"/>
      <path transform="translate(-27.779196,-166.67517)" d="m -564.17021,176.55992 c 0,15.34203 -12.43717,27.7792 -27.77919,27.7792 -15.34203,0 -27.7792,-12.43717 -27.7792,-27.7792 0,-15.34202 12.43717,-27.77919 27.7792,-27.77919 15.34202,0 27.77919,12.43717 27.77919,27.77919 z" sodipodi:ry="27.779196" sodipodi:rx="27.779196" sodipodi:cy="176.55992" sodipodi:cx="-591.9494" id="path3945" style="fill:#004700;fill-opacity:1;stroke:none" sodipodi:type="arc"/>
      <path transform="translate(55.558394,-166.67517)" sodipodi:type="arc" style="fill:#004700;fill-opacity:1;stroke:none" id="path3947" sodipodi:cx="-591.9494" sodipodi:cy="176.55992" sodipodi:rx="27.779196" sodipodi:ry="27.779196" d="m -564.17021,176.55992 c 0,15.34203 -12.43717,27.7792 -27.77919,27.7792 -15.34203,0 -27.7792,-12.43717 -27.7792,-27.7792 0,-15.34202 12.43717,-27.77919 27.7792,-27.77919 15.34202,0 27.77919,12.43717 27.77919,27.77919 z"/>
      <path transform="translate(-27.779196,-83.337588)" d="m -564.17021,176.55992 c 0,15.34203 -12.43717,27.7792 -27.77919,27.7792 -15.34203,0 -27.7792,-12.43717 -27.7792,-27.7792 0,-15.34202 12.43717,-27.77919 27.7792,-27.77919 15.34202,0 27.77919,12.43717 27.77919,27.77919 z" sodipodi:ry="27.779196" sodipodi:rx="27.779196" sodipodi:cy="176.55992" sodipodi:cx="-591.9494" id="path3951" style="fill:#004700;fill-opacity:1;stroke:none" sodipodi:type="arc"/>
      <path transform="translate(55.558394,-83.337588)" sodipodi:type="arc" style="fill:#004700;fill-opacity:1;stroke:none" id="path3953" sodipodi:cx="-591.9494" sodipodi:cy="176.55992" sodipodi:rx="27.779196" sodipodi:ry="27.779196" d="m -564.17021,176.55992 c 0,15.34203 -12.43717,27.7792 -27.77919,27.7792 -15.34203,0 -27.7792,-12.43717 -27.7792,-27.7792 0,-15.34202 12.43717,-27.77919 27.7792,-27.77919 15.34202,0 27.77919,12.43717 27.77919,27.77919 z"/>
      <path transform="translate(-277.79196,-250.01276)" d="m -564.17021,176.55992 c 0,15.34203 -12.43717,27.7792 -27.77919,27.7792 -15.34203,0 -27.7792,-12.43717 -27.7792,-27.7792 0,-15.34202 12.43717,-27.77919 27.7792,-27.77919 15.34202,0 27.77919,12.43717 27.77919,27.77919 z" sodipodi:ry="27.779196" sodipodi:rx="27.779196" sodipodi:cy="176.55992" sodipodi:cx="-591.9494" id="path3957" style="fill:#004700;fill-opacity:1;stroke:none" sodipodi:type="arc"/>
      <path transform="translate(-194.45437,-250.01276)" sodipodi:type="arc" style="fill:#004700;fill-opacity:1;stroke:none" id="path3959" sodipodi:cx="-591.9494" sodipodi:cy="176.55992" sodipodi:rx="27.779196" sodipodi:ry="27.779196" d="m -564.17021,176.55992 c 0,15.34203 -12.43717,27.7792 -27.77919,27.7792 -15.34203,0 -27.7792,-12.43717 -27.7792,-27.7792 0,-15.34202 12.43717,-27.77919 27.7792,-27.77919 15.34202,0 27.77919,12.43717 27.77919,27.77919 z"/>
      <path d="m -564.17021,176.55992 c 0,15.34203 -12.43717,27.7792 -27.77919,27.7792 -15.34203,0 -27.7792,-12.43717 -27.7792,-27.7792 0,-15.34202 12.43717,-27.77919 27.7792,-27.77919 15.34202,0 27.77919,12.43717 27.77919,27.77919 z" sodipodi:ry="27.779196" sodipodi:rx="27.779196" sodipodi:cy="176.55992" sodipodi:cx="-591.9494" id="path3961" style="fill:#004700;fill-opacity:1;stroke:none" sodipodi:type="arc" transform="translate(-111.11678,-250.01276)"/>
      <path sodipodi:type="arc" style="fill:#004700;fill-opacity:1;stroke:none" id="path3963" sodipodi:cx="-591.9494" sodipodi:cy="176.55992" sodipodi:rx="27.779196" sodipodi:ry="27.779196" d="m -564.17021,176.55992 c 0,15.34203 -12.43717,27.7792 -27.77919,27.7792 -15.34203,0 -27.7792,-12.43717 -27.7792,-27.7792 0,-15.34202 12.43717,-27.77919 27.7792,-27.77919 15.34202,0 27.77919,12.43717 27.77919,27.77919 z" transform="translate(-277.79196,-166.67517)"/>
      <path d="m -564.17021,176.55992 c 0,15.34203 -12.43717,27.7792 -27.77919,27.7792 -15.34203,0 -27.7792,-12.43717 -27.7792,-27.7792 0,-15.34202 12.43717,-27.77919 27.7792,-27.77919 15.34202,0 27.77919,12.43717 27.77919,27.77919 z" sodipodi:ry="27.779196" sodipodi:rx="27.779196" sodipodi:cy="176.55992" sodipodi:cx="-591.9494" id="path3965" style="fill:#004700;fill-opacity:1;stroke:none" sodipodi:type="arc" transform="translate(-194.45437,-166.67517)"/>
      <path transform="translate(-111.11678,-166.67517)" sodipodi:type="arc" style="fill:#004700;fill-opacity:1;stroke:none" id="path3967" sodipodi:cx="-591.9494" sodipodi:cy="176.55992" sodipodi:rx="27.779196" sodipodi:ry="27.779196" d="m -564.17021,176.55992 c 0,15.34203 -12.43717,27.7792 -27.77919,27.7792 -15.34203,0 -27.7792,-12.43717 -27.7792,-27.7792 0,-15.34202 12.43717,-27.77919 27.7792,-27.77919 15.34202,0 27.77919,12.43717 27.77919,27.77919 z"/>
      <path sodipodi:type="arc" style="fill:#004700;fill-opacity:1;stroke:none" id="path3969" sodipodi:cx="-591.9494" sodipodi:cy="176.55992" sodipodi:rx="27.779196" sodipodi:ry="27.779196" d="m -564.17021,176.55992 c 0,15.34203 -12.43717,27.7792 -27.77919,27.7792 -15.34203,0 -27.7792,-12.43717 -27.7792,-27.7792 0,-15.34202 12.43717,-27.77919 27.7792,-27.77919 15.34202,0 27.77919,12.43717 27.77919,27.77919 z" transform="translate(-277.79196,-83.337588)"/>
      <path d="m -564.17021,176.55992 c 0,15.34203 -12.43717,27.7792 -27.77919,27.7792 -15.34203,0 -27.7792,-12.43717 -27.7792,-27.7792 0,-15.34202 12.43717,-27.77919 27.7792,-27.77919 15.34202,0 27.77919,12.43717 27.77919,27.77919 z" sodipodi:ry="27.779196" sodipodi:rx="27.779196" sodipodi:cy="176.55992" sodipodi:cx="-591.9494" id="path3971" style="fill:#004700;fill-opacity:1;stroke:none" sodipodi:type="arc" transform="translate(-194.45437,-83.337588)"/>
      <path transform="translate(-111.11678,-83.337588)" sodipodi:type="arc" style="fill:#004700;fill-opacity:1;stroke:none" id="path3973" sodipodi:cx="-591.9494" sodipodi:cy="176.55992" sodipodi:rx="27.779196" sodipodi:ry="27.779196" d="m -564.17021,176.55992 c 0,15.34203 -12.43717,27.7792 -27.77919,27.7792 -15.34203,0 -27.7792,-12.43717 -27.7792,-27.7792 0,-15.34202 12.43717,-27.77919 27.7792,-27.77919 15.34202,0 27.77919,12.43717 27.77919,27.77919 z"/>
      <path sodipodi:type="arc" style="fill:#004700;fill-opacity:1;stroke:none" id="path3981" sodipodi:cx="-591.9494" sodipodi:cy="176.55992" sodipodi:rx="27.779196" sodipodi:ry="27.779196" d="m -564.17021,176.55992 c 0,15.34203 -12.43717,27.7792 -27.77919,27.7792 -15.34203,0 -27.7792,-12.43717 -27.7792,-27.7792 0,-15.34202 12.43717,-27.77919 27.7792,-27.77919 15.34202,0 27.77919,12.43717 27.77919,27.77919 z" transform="translate(-527.80473,-416.68793)"/>
      <path d="m -564.17021,176.55992 c 0,15.34203 -12.43717,27.7792 -27.77919,27.7792 -15.34203,0 -27.7792,-12.43717 -27.7792,-27.7792 0,-15.34202 12.43717,-27.77919 27.7792,-27.77919 15.34202,0 27.77919,12.43717 27.77919,27.77919 z" sodipodi:ry="27.779196" sodipodi:rx="27.779196" sodipodi:cy="176.55992" sodipodi:cx="-591.9494" id="path3983" style="fill:#004700;fill-opacity:1;stroke:none" sodipodi:type="arc" transform="translate(-444.46714,-416.68793)"/>
      <path transform="translate(-361.12955,-416.68793)" sodipodi:type="arc" style="fill:#004700;fill-opacity:1;stroke:none" id="path3985" sodipodi:cx="-591.9494" sodipodi:cy="176.55992" sodipodi:rx="27.779196" sodipodi:ry="27.779196" d="m -564.17021,176.55992 c 0,15.34203 -12.43717,27.7792 -27.77919,27.7792 -15.34203,0 -27.7792,-12.43717 -27.7792,-27.7792 0,-15.34202 12.43717,-27.77919 27.7792,-27.77919 15.34202,0 27.77919,12.43717 27.77919,27.77919 z"/>
      <path sodipodi:type="arc" style="fill:#004700;fill-opacity:1;stroke:none" id="path3987" sodipodi:cx="-591.9494" sodipodi:cy="176.55992" sodipodi:rx="27.779196" sodipodi:ry="27.779196" d="m -564.17021,176.55992 c 0,15.34203 -12.43717,27.7792 -27.77919,27.7792 -15.34203,0 -27.7792,-12.43717 -27.7792,-27.7792 0,-15.34202 12.43717,-27.77919 27.7792,-27.77919 15.34202,0 27.77919,12.43717 27.77919,27.77919 z" transform="translate(-527.80473,-333.35035)"/>
      <path d="m -564.17021,176.55992 c 0,15.34203 -12.43717,27.7792 -27.77919,27.7792 -15.34203,0 -27.7792,-12.43717 -27.7792,-27.7792 0,-15.34202 12.43717,-27.77919 27.7792,-27.77919 15.34202,0 27.77919,12.43717 27.77919,27.77919 z" sodipodi:ry="27.779196" sodipodi:rx="27.779196" sodipodi:cy="176.55992" sodipodi:cx="-591.9494" id="path3989" style="fill:#004700;fill-opacity:1;stroke:none" sodipodi:type="arc" transform="translate(-444.46714,-333.35035)"/>
      <path transform="translate(-361.12955,-333.35035)" sodipodi:type="arc" style="fill:#004700;fill-opacity:1;stroke:none" id="path3991" sodipodi:cx="-591.9494" sodipodi:cy="176.55992" sodipodi:rx="27.779196" sodipodi:ry="27.779196" d="m -564.17021,176.55992 c 0,15.34203 -12.43717,27.7792 -27.77919,27.7792 -15.34203,0 -27.7792,-12.43717 -27.7792,-27.7792 0,-15.34202 12.43717,-27.77919 27.7792,-27.77919 15.34202,0 27.77919,12.43717 27.77919,27.77919 z"/>
      <path transform="translate(-777.81749,-416.68793)" d="m -564.17021,176.55992 c 0,15.34203 -12.43717,27.7792 -27.77919,27.7792 -15.34203,0 -27.7792,-12.43717 -27.7792,-27.7792 0,-15.34202 12.43717,-27.77919 27.7792,-27.77919 15.34202,0 27.77919,12.43717 27.77919,27.77919 z" sodipodi:ry="27.779196" sodipodi:rx="27.779196" sodipodi:cy="176.55992" sodipodi:cx="-591.9494" id="path3999" style="fill:#004700;fill-opacity:1;stroke:none" sodipodi:type="arc"/>
      <path transform="translate(-694.4799,-416.68793)" sodipodi:type="arc" style="fill:#004700;fill-opacity:1;stroke:none" id="path4001" sodipodi:cx="-591.9494" sodipodi:cy="176.55992" sodipodi:rx="27.779196" sodipodi:ry="27.779196" d="m -564.17021,176.55992 c 0,15.34203 -12.43717,27.7792 -27.77919,27.7792 -15.34203,0 -27.7792,-12.43717 -27.7792,-27.7792 0,-15.34202 12.43717,-27.77919 27.7792,-27.77919 15.34202,0 27.77919,12.43717 27.77919,27.77919 z"/>
      <path d="m -564.17021,176.55992 c 0,15.34203 -12.43717,27.7792 -27.77919,27.7792 -15.34203,0 -27.7792,-12.43717 -27.7792,-27.7792 0,-15.34202 12.43717,-27.77919 27.7792,-27.77919 15.34202,0 27.77919,12.43717 27.77919,27.77919 z" sodipodi:ry="27.779196" sodipodi:rx="27.779196" sodipodi:cy="176.55992" sodipodi:cx="-591.9494" id="path4003" style="fill:#004700;fill-opacity:1;stroke:none" sodipodi:type="arc" transform="translate(-611.14231,-416.68793)"/>
      <path transform="translate(-777.81749,-333.35035)" d="m -564.17021,176.55992 c 0,15.34203 -12.43717,27.7792 -27.77919,27.7792 -15.34203,0 -27.7792,-12.43717 -27.7792,-27.7792 0,-15.34202 12.43717,-27.77919 27.7792,-27.77919 15.34202,0 27.77919,12.43717 27.77919,27.77919 z" sodipodi:ry="27.779196" sodipodi:rx="27.779196" sodipodi:cy="176.55992" sodipodi:cx="-591.9494" id="path4005" style="fill:#004700;fill-opacity:1;stroke:none" sodipodi:type="arc"/>
      <path transform="translate(-694.4799,-333.35035)" sodipodi:type="arc" style="fill:#004700;fill-opacity:1;stroke:none" id="path4007" sodipodi:cx="-591.9494" sodipodi:cy="176.55992" sodipodi:rx="27.779196" sodipodi:ry="27.779196" d="m -564.17021,176.55992 c 0,15.34203 -12.43717,27.7792 -27.77919,27.7792 -15.34203,0 -27.7792,-12.43717 -27.7792,-27.7792 0,-15.34202 12.43717,-27.77919 27.7792,-27.77919 15.34202,0 27.77919,12.43717 27.77919,27.77919 z"/>
      <path d="m -564.17021,176.55992 c 0,15.34203 -12.43717,27.7792 -27.77919,27.7792 -15.34203,0 -27.7792,-12.43717 -27.7792,-27.7792 0,-15.34202 12.43717,-27.77919 27.7792,-27.77919 15.34202,0 27.77919,12.43717 27.77919,27.77919 z" sodipodi:ry="27.779196" sodipodi:rx="27.779196" sodipodi:cy="176.55992" sodipodi:cx="-591.9494" id="path4009" style="fill:#004700;fill-opacity:1;stroke:none" sodipodi:type="arc" transform="translate(-611.14231,-333.35035)"/>
      <path transform="translate(-527.80473,-250.01276)" d="m -564.17021,176.55992 c 0,15.34203 -12.43717,27.7792 -27.77919,27.7792 -15.34203,0 -27.7792,-12.43717 -27.7792,-27.7792 0,-15.34202 12.43717,-27.77919 27.7792,-27.77919 15.34202,0 27.77919,12.43717 27.77919,27.77919 z" sodipodi:ry="27.779196" sodipodi:rx="27.779196" sodipodi:cy="176.55992" sodipodi:cx="-591.9494" id="path4011" style="fill:#004700;fill-opacity:1;stroke:none" sodipodi:type="arc"/>
      <path transform="translate(-444.46714,-250.01276)" sodipodi:type="arc" style="fill:#004700;fill-opacity:1;stroke:none" id="path4013" sodipodi:cx="-591.9494" sodipodi:cy="176.55992" sodipodi:rx="27.779196" sodipodi:ry="27.779196" d="m -564.17021,176.55992 c 0,15.34203 -12.43717,27.7792 -27.77919,27.7792 -15.34203,0 -27.7792,-12.43717 -27.7792,-27.7792 0,-15.34202 12.43717,-27.77919 27.7792,-27.77919 15.34202,0 27.77919,12.43717 27.77919,27.77919 z"/>
      <path d="m -564.17021,176.55992 c 0,15.34203 -12.43717,27.7792 -27.77919,27.7792 -15.34203,0 -27.7792,-12.43717 -27.7792,-27.7792 0,-15.34202 12.43717,-27.77919 27.7792,-27.77919 15.34202,0 27.77919,12.43717 27.77919,27.77919 z" sodipodi:ry="27.779196" sodipodi:rx="27.779196" sodipodi:cy="176.55992" sodipodi:cx="-591.9494" id="path4015" style="fill:#004700;fill-opacity:1;stroke:none" sodipodi:type="arc" transform="translate(-361.12955,-250.01276)"/>
      <path sodipodi:type="arc" style="fill:#004700;fill-opacity:1;stroke:none" id="path4017" sodipodi:cx="-591.9494" sodipodi:cy="176.55992" sodipodi:rx="27.779196" sodipodi:ry="27.779196" d="m -564.17021,176.55992 c 0,15.34203 -12.43717,27.7792 -27.77919,27.7792 -15.34203,0 -27.7792,-12.43717 -27.7792,-27.7792 0,-15.34202 12.43717,-27.77919 27.7792,-27.77919 15.34202,0 27.77919,12.43717 27.77919,27.77919 z" transform="translate(-527.80473,-166.67517)"/>
      <path d="m -564.17021,176.55992 c 0,15.34203 -12.43717,27.7792 -27.77919,27.7792 -15.34203,0 -27.7792,-12.43717 -27.7792,-27.7792 0,-15.34202 12.43717,-27.77919 27.7792,-27.77919 15.34202,0 27.77919,12.43717 27.77919,27.77919 z" sodipodi:ry="27.779196" sodipodi:rx="27.779196" sodipodi:cy="176.55992" sodipodi:cx="-591.9494" id="path4019" style="fill:#004700;fill-opacity:1;stroke:none" sodipodi:type="arc" transform="translate(-444.46714,-166.67517)"/>
      <path transform="translate(-361.12955,-166.67517)" sodipodi:type="arc" style="fill:#004700;fill-opacity:1;stroke:none" id="path4021" sodipodi:cx="-591.9494" sodipodi:cy="176.55992" sodipodi:rx="27.779196" sodipodi:ry="27.779196" d="m -564.17021,176.55992 c 0,15.34203 -12.43717,27.7792 -27.77919,27.7792 -15.34203,0 -27.7792,-12.43717 -27.7792,-27.7792 0,-15.34202 12.43717,-27.77919 27.7792,-27.77919 15.34202,0 27.77919,12.43717 27.77919,27.77919 z"/>
      <path sodipodi:type="arc" style="fill:#004700;fill-opacity:1;stroke:none" id="path4023" sodipodi:cx="-591.9494" sodipodi:cy="176.55992" sodipodi:rx="27.779196" sodipodi:ry="27.779196" d="m -564.17021,176.55992 c 0,15.34203 -12.43717,27.7792 -27.77919,27.7792 -15.34203,0 -27.7792,-12.43717 -27.7792,-27.7792 0,-15.34202 12.43717,-27.77919 27.7792,-27.77919 15.34202,0 27.77919,12.43717 27.77919,27.77919 z" transform="translate(-527.80473,-83.337588)"/>
      <path d="m -564.17021,176.55992 c 0,15.34203 -12.43717,27.7792 -27.77919,27.7792 -15.34203,0 -27.7792,-12.43717 -27.7792,-27.7792 0,-15.34202 12.43717,-27.77919 27.7792,-27.77919 15.34202,0 27.77919,12.43717 27.77919,27.77919 z" sodipodi:ry="27.779196" sodipodi:rx="27.779196" sodipodi:cy="176.55992" sodipodi:cx="-591.9494" id="path4025" style="fill:#004700;fill-opacity:1;stroke:none" sodipodi:type="arc" transform="translate(-444.46714,-83.337588)"/>
      <path transform="translate(-361.12955,-83.337588)" sodipodi:type="arc" style="fill:#004700;fill-opacity:1;stroke:none" id="path4027" sodipodi:cx="-591.9494" sodipodi:cy="176.55992" sodipodi:rx="27.779196" sodipodi:ry="27.779196" d="m -564.17021,176.55992 c 0,15.34203 -12.43717,27.7792 -27.77919,27.7792 -15.34203,0 -27.7792,-12.43717 -27.7792,-27.7792 0,-15.34202 12.43717,-27.77919 27.7792,-27.77919 15.34202,0 27.77919,12.43717 27.77919,27.77919 z"/>
      <path sodipodi:type="arc" style="fill:#004700;fill-opacity:1;stroke:none" id="path4029" sodipodi:cx="-591.9494" sodipodi:cy="176.55992" sodipodi:rx="27.779196" sodipodi:ry="27.779196" d="m -564.17021,176.55992 c 0,15.34203 -12.43717,27.7792 -27.77919,27.7792 -15.34203,0 -27.7792,-12.43717 -27.7792,-27.7792 0,-15.34202 12.43717,-27.77919 27.7792,-27.77919 15.34202,0 27.77919,12.43717 27.77919,27.77919 z" transform="translate(-777.81749,-250.01276)"/>
      <path d="m -564.17021,176.55992 c 0,15.34203 -12.43717,27.7792 -27.77919,27.7792 -15.34203,0 -27.7792,-12.43717 -27.7792,-27.7792 0,-15.34202 12.43717,-27.77919 27.7792,-27.77919 15.34202,0 27.77919,12.43717 27.77919,27.77919 z" sodipodi:ry="27.779196" sodipodi:rx="27.779196" sodipodi:cy="176.55992" sodipodi:cx="-591.9494" id="path4031" style="fill:#004700;fill-opacity:1;stroke:none" sodipodi:type="arc" transform="translate(-694.4799,-250.01276)"/>
      <path transform="translate(-611.14231,-250.01276)" sodipodi:type="arc" style="fill:#004700;fill-opacity:1;stroke:none" id="path4033" sodipodi:cx="-591.9494" sodipodi:cy="176.55992" sodipodi:rx="27.779196" sodipodi:ry="27.779196" d="m -564.17021,176.55992 c 0,15.34203 -12.43717,27.7792 -27.77919,27.7792 -15.34203,0 -27.7792,-12.43717 -27.7792,-27.7792 0,-15.34202 12.43717,-27.77919 27.7792,-27.77919 15.34202,0 27.77919,12.43717 27.77919,27.77919 z"/>
      <path transform="translate(-777.81749,-166.67517)" d="m -564.17021,176.55992 c 0,15.34203 -12.43717,27.7792 -27.77919,27.7792 -15.34203,0 -27.7792,-12.43717 -27.7792,-27.7792 0,-15.34202 12.43717,-27.77919 27.7792,-27.77919 15.34202,0 27.77919,12.43717 27.77919,27.77919 z" sodipodi:ry="27.779196" sodipodi:rx="27.779196" sodipodi:cy="176.55992" sodipodi:cx="-591.9494" id="path4035" style="fill:#004700;fill-opacity:1;stroke:none" sodipodi:type="arc"/>
      <path transform="translate(-694.4799,-166.67517)" sodipodi:type="arc" style="fill:#004700;fill-opacity:1;stroke:none" id="path4037" sodipodi:cx="-591.9494" sodipodi:cy="176.55992" sodipodi:rx="27.779196" sodipodi:ry="27.779196" d="m -564.17021,176.55992 c 0,15.34203 -12.43717,27.7792 -27.77919,27.7792 -15.34203,0 -27.7792,-12.43717 -27.7792,-27.7792 0,-15.34202 12.43717,-27.77919 27.7792,-27.77919 15.34202,0 27.77919,12.43717 27.77919,27.77919 z"/>
      <path d="m -564.17021,176.55992 c 0,15.34203 -12.43717,27.7792 -27.77919,27.7792 -15.34203,0 -27.7792,-12.43717 -27.7792,-27.7792 0,-15.34202 12.43717,-27.77919 27.7792,-27.77919 15.34202,0 27.77919,12.43717 27.77919,27.77919 z" sodipodi:ry="27.779196" sodipodi:rx="27.779196" sodipodi:cy="176.55992" sodipodi:cx="-591.9494" id="path4039" style="fill:#004700;fill-opacity:1;stroke:none" sodipodi:type="arc" transform="translate(-611.14231,-166.67517)"/>
      <path transform="translate(-777.81749,-83.337588)" d="m -564.17021,176.55992 c 0,15.34203 -12.43717,27.7792 -27.77919,27.7792 -15.34203,0 -27.7792,-12.43717 -27.7792,-27.7792 0,-15.34202 12.43717,-27.77919 27.7792,-27.77919 15.34202,0 27.77919,12.43717 27.77919,27.77919 z" sodipodi:ry="27.779196" sodipodi:rx="27.779196" sodipodi:cy="176.55992" sodipodi:cx="-591.9494" id="path4041" style="fill:#004700;fill-opacity:1;stroke:none" sodipodi:type="arc"/>
      <path transform="translate(-694.4799,-83.337588)" sodipodi:type="arc" style="fill:#004700;fill-opacity:1;stroke:none" id="path4043" sodipodi:cx="-591.9494" sodipodi:cy="176.55992" sodipodi:rx="27.779196" sodipodi:ry="27.779196" d="m -564.17021,176.55992 c 0,15.34203 -12.43717,27.7792 -27.77919,27.7792 -15.34203,0 -27.7792,-12.43717 -27.7792,-27.7792 0,-15.34202 12.43717,-27.77919 27.7792,-27.77919 15.34202,0 27.77919,12.43717 27.77919,27.77919 z"/>
      <path d="m -564.17021,176.55992 c 0,15.34203 -12.43717,27.7792 -27.77919,27.7792 -15.34203,0 -27.7792,-12.43717 -27.7792,-27.7792 0,-15.34202 12.43717,-27.77919 27.7792,-27.77919 15.34202,0 27.77919,12.43717 27.77919,27.77919 z" sodipodi:ry="27.779196" sodipodi:rx="27.779196" sodipodi:cy="176.55992" sodipodi:cx="-591.9494" id="path4045" style="fill:#004700;fill-opacity:1;stroke:none" sodipodi:type="arc" transform="translate(-611.14231,-83.337588)"/>
    </g>
    <g id="g4087" transform="matrix(0.6265561,0,0,0.6265561,924.28375,464.41786)" style="fill:#00ff00;fill-opacity:1;stroke:#01ff04;stroke-width:17.55628967;stroke-miterlimit:4;stroke-opacity:1;stroke-dasharray:none">
      <path transform="translate(-611.14231,-83.337588)" d="m -564.17021,176.55992 c 0,15.34203 -12.43717,27.7792 -27.77919,27.7792 -15.34203,0 -27.7792,-12.43717 -27.7792,-27.7792 0,-15.34202 12.43717,-27.77919 27.7792,-27.77919 15.34202,0 27.77919,12.43717 27.77919,27.77919 z" sodipodi:ry="27.779196" sodipodi:rx="27.779196" sodipodi:cy="176.55992" sodipodi:cx="-591.9494" id="path4047" style="fill:#00ff00;fill-opacity:1;stroke:#01ff04;stroke-width:17.55628967;stroke-miterlimit:4;stroke-opacity:1;stroke-dasharray:none" sodipodi:type="arc"/>
      <path sodipodi:type="arc" style="fill:#00ff00;fill-opacity:1;stroke:#01ff04;stroke-width:17.55628967;stroke-miterlimit:4;stroke-opacity:1;stroke-dasharray:none" id="path4049" sodipodi:cx="-591.9494" sodipodi:cy="176.55992" sodipodi:rx="27.779196" sodipodi:ry="27.779196" d="m -564.17021,176.55992 c 0,15.34203 -12.43717,27.7792 -27.77919,27.7792 -15.34203,0 -27.7792,-12.43717 -27.7792,-27.7792 0,-15.34202 12.43717,-27.77919 27.7792,-27.77919 15.34202,0 27.77919,12.43717 27.77919,27.77919 z" transform="translate(-611.14231,0)"/>
      <path transform="translate(-611.14231,-166.67517)" d="m -564.17021,176.55992 c 0,15.34203 -12.43717,27.7792 -27.77919,27.7792 -15.34203,0 -27.7792,-12.43717 -27.7792,-27.7792 0,-15.34202 12.43717,-27.77919 27.7792,-27.77919 15.34202,0 27.77919,12.43717 27.77919,27.77919 z" sodipodi:ry="27.779196" sodipodi:rx="27.779196" sodipodi:cy="176.55992" sodipodi:cx="-591.9494" id="path4051" style="fill:#00ff00;fill-opacity:1;stroke:#01ff04;stroke-width:17.55628967;stroke-miterlimit:4;stroke-opacity:1;stroke-dasharray:none" sodipodi:type="arc"/>
      <path sodipodi:type="arc" style="fill:#00ff00;fill-opacity:1;stroke:#01ff04;stroke-width:17.55628967;stroke-miterlimit:4;stroke-opacity:1;stroke-dasharray:none" id="path4053" sodipodi:cx="-591.9494" sodipodi:cy="176.55992" sodipodi:rx="27.779196" sodipodi:ry="27.779196" d="m -564.17021,176.55992 c 0,15.34203 -12.43717,27.7792 -27.77919,27.7792 -15.34203,0 -27.7792,-12.43717 -27.7792,-27.7792 0,-15.34202 12.43717,-27.77919 27.7792,-27.77919 15.34202,0 27.77919,12.43717 27.77919,27.77919 z" transform="translate(-527.80473,-250.01276)"/>
      <path transform="translate(-444.46714,-250.01276)" d="m -564.17021,176.55992 c 0,15.34203 -12.43717,27.7792 -27.77919,27.7792 -15.34203,0 -27.7792,-12.43717 -27.7792,-27.7792 0,-15.34202 12.43717,-27.77919 27.7792,-27.77919 15.34202,0 27.77919,12.43717 27.77919,27.77919 z" sodipodi:ry="27.779196" sodipodi:rx="27.779196" sodipodi:cy="176.55992" sodipodi:cx="-591.9494" id="path4055" style="fill:#00ff00;fill-opacity:1;stroke:#01ff04;stroke-width:17.55628967;stroke-miterlimit:4;stroke-opacity:1;stroke-dasharray:none" sodipodi:type="arc"/>
      <path transform="translate(-527.80473,83.337588)" d="m -564.17021,176.55992 c 0,15.34203 -12.43717,27.7792 -27.77919,27.7792 -15.34203,0 -27.7792,-12.43717 -27.7792,-27.7792 0,-15.34202 12.43717,-27.77919 27.7792,-27.77919 15.34202,0 27.77919,12.43717 27.77919,27.77919 z" sodipodi:ry="27.779196" sodipodi:rx="27.779196" sodipodi:cy="176.55992" sodipodi:cx="-591.9494" id="path4057" style="fill:#00ff00;fill-opacity:1;stroke:#01ff04;stroke-width:17.55628967;stroke-miterlimit:4;stroke-opacity:1;stroke-dasharray:none" sodipodi:type="arc"/>
      <path sodipodi:type="arc" style="fill:#00ff00;fill-opacity:1;stroke:#01ff04;stroke-width:17.55628967;stroke-miterlimit:4;stroke-opacity:1;stroke-dasharray:none" id="path4059" sodipodi:cx="-591.9494" sodipodi:cy="176.55992" sodipodi:rx="27.779196" sodipodi:ry="27.779196" d="m -564.17021,176.55992 c 0,15.34203 -12.43717,27.7792 -27.77919,27.7792 -15.34203,0 -27.7792,-12.43717 -27.7792,-27.7792 0,-15.34202 12.43717,-27.77919 27.7792,-27.77919 15.34202,0 27.77919,12.43717 27.77919,27.77919 z" transform="translate(-444.46714,83.337588)"/>
      <path sodipodi:type="arc" style="fill:#00ff00;fill-opacity:1;stroke:#01ff04;stroke-width:17.55628967;stroke-miterlimit:4;stroke-opacity:1;stroke-dasharray:none" id="path4061" sodipodi:cx="-591.9494" sodipodi:cy="176.55992" sodipodi:rx="27.779196" sodipodi:ry="27.779196" d="m -564.17021,176.55992 c 0,15.34203 -12.43717,27.7792 -27.77919,27.7792 -15.34203,0 -27.7792,-12.43717 -27.7792,-27.7792 0,-15.34202 12.43717,-27.77919 27.7792,-27.77919 15.34202,0 27.77919,12.43717 27.77919,27.77919 z" transform="translate(-361.12955,-83.337588)"/>
      <path transform="translate(-361.12955,0)" d="m -564.17021,176.55992 c 0,15.34203 -12.43717,27.7792 -27.77919,27.7792 -15.34203,0 -27.7792,-12.43717 -27.7792,-27.7792 0,-15.34202 12.43717,-27.77919 27.7792,-27.77919 15.34202,0 27.77919,12.43717 27.77919,27.77919 z" sodipodi:ry="27.779196" sodipodi:rx="27.779196" sodipodi:cy="176.55992" sodipodi:cx="-591.9494" id="path4063" style="fill:#00ff00;fill-opacity:1;stroke:#01ff04;stroke-width:17.55628967;stroke-miterlimit:4;stroke-opacity:1;stroke-dasharray:none" sodipodi:type="arc"/>
      <path sodipodi:type="arc" style="fill:#00ff00;fill-opacity:1;stroke:#01ff04;stroke-width:17.55628967;stroke-miterlimit:4;stroke-opacity:1;stroke-dasharray:none" id="path4065" sodipodi:cx="-591.9494" sodipodi:cy="176.55992" sodipodi:rx="27.779196" sodipodi:ry="27.779196" d="m -564.17021,176.55992 c 0,15.34203 -12.43717,27.7792 -27.77919,27.7792 -15.34203,0 -27.7792,-12.43717 -27.7792,-27.7792 0,-15.34202 12.43717,-27.77919 27.7792,-27.77919 15.34202,0 27.77919,12.43717 27.77919,27.77919 z" transform="translate(-361.12955,-166.67517)"/>
      <path transform="translate(-277.79196,-83.337588)" d="m -564.17021,176.55992 c 0,15.34203 -12.43717,27.7792 -27.77919,27.7792 -15.34203,0 -27.7792,-12.43717 -27.7792,-27.7792 0,-15.34202 12.43717,-27.77919 27.7792,-27.77919 15.34202,0 27.77919,12.43717 27.77919,27.77919 z" sodipodi:ry="27.779196" sodipodi:rx="27.779196" sodipodi:cy="176.55992" sodipodi:cx="-591.9494" id="path4067" style="fill:#00ff00;fill-opacity:1;stroke:#01ff04;stroke-width:17.55628967;stroke-miterlimit:4;stroke-opacity:1;stroke-dasharray:none" sodipodi:type="arc"/>
      <path sodipodi:type="arc" style="fill:#00ff00;fill-opacity:1;stroke:#01ff04;stroke-width:17.55628967;stroke-miterlimit:4;stroke-opacity:1;stroke-dasharray:none" id="path4069" sodipodi:cx="-591.9494" sodipodi:cy="176.55992" sodipodi:rx="27.779196" sodipodi:ry="27.779196" d="m -564.17021,176.55992 c 0,15.34203 -12.43717,27.7792 -27.77919,27.7792 -15.34203,0 -27.7792,-12.43717 -27.7792,-27.7792 0,-15.34202 12.43717,-27.77919 27.7792,-27.77919 15.34202,0 27.77919,12.43717 27.77919,27.77919 z" transform="translate(-194.45437,-83.337588)"/>
      <path transform="translate(-111.11678,-83.337588)" d="m -564.17021,176.55992 c 0,15.34203 -12.43717,27.7792 -27.77919,27.7792 -15.34203,0 -27.7792,-12.43717 -27.7792,-27.7792 0,-15.34202 12.43717,-27.77919 27.7792,-27.77919 15.34202,0 27.77919,12.43717 27.77919,27.77919 z" sodipodi:ry="27.779196" sodipodi:rx="27.779196" sodipodi:cy="176.55992" sodipodi:cx="-591.9494" id="path4071" style="fill:#00ff00;fill-opacity:1;stroke:#01ff04;stroke-width:17.55628967;stroke-miterlimit:4;stroke-opacity:1;stroke-dasharray:none" sodipodi:type="arc"/>
      <path sodipodi:type="arc" style="fill:#00ff00;fill-opacity:1;stroke:#01ff04;stroke-width:17.55628967;stroke-miterlimit:4;stroke-opacity:1;stroke-dasharray:none" id="path4073" sodipodi:cx="-591.9494" sodipodi:cy="176.55992" sodipodi:rx="27.779196" sodipodi:ry="27.779196" d="m -564.17021,176.55992 c 0,15.34203 -12.43717,27.7792 -27.77919,27.7792 -15.34203,0 -27.7792,-12.43717 -27.7792,-27.7792 0,-15.34202 12.43717,-27.77919 27.7792,-27.77919 15.34202,0 27.77919,12.43717 27.77919,27.77919 z" transform="translate(-27.779196,-83.337588)"/>
      <path transform="translate(55.558394,-83.337588)" d="m -564.17021,176.55992 c 0,15.34203 -12.43717,27.7792 -27.77919,27.7792 -15.34203,0 -27.7792,-12.43717 -27.7792,-27.7792 0,-15.34202 12.43717,-27.77919 27.7792,-27.77919 15.34202,0 27.77919,12.43717 27.77919,27.77919 z" sodipodi:ry="27.779196" sodipodi:rx="27.779196" sodipodi:cy="176.55992" sodipodi:cx="-591.9494" id="path4075" style="fill:#00ff00;fill-opacity:1;stroke:#01ff04;stroke-width:17.55628967;stroke-miterlimit:4;stroke-opacity:1;stroke-dasharray:none" sodipodi:type="arc"/>
      <path sodipodi:type="arc" style="fill:#00ff00;fill-opacity:1;stroke:#01ff04;stroke-width:17.55628967;stroke-miterlimit:4;stroke-opacity:1;stroke-dasharray:none" id="path4077" sodipodi:cx="-591.9494" sodipodi:cy="176.55992" sodipodi:rx="27.779196" sodipodi:ry="27.779196" d="m -564.17021,176.55992 c 0,15.34203 -12.43717,27.7792 -27.77919,27.7792 -15.34203,0 -27.7792,-12.43717 -27.7792,-27.7792 0,-15.34202 12.43717,-27.77919 27.7792,-27.77919 15.34202,0 27.77919,12.43717 27.77919,27.77919 z" transform="translate(-111.11678,0)"/>
      <path transform="translate(55.558392,0)" d="m -564.17021,176.55992 c 0,15.34203 -12.43717,27.7792 -27.77919,27.7792 -15.34203,0 -27.7792,-12.43717 -27.7792,-27.7792 0,-15.34202 12.43717,-27.77919 27.7792,-27.77919 15.34202,0 27.77919,12.43717 27.77919,27.77919 z" sodipodi:ry="27.779196" sodipodi:rx="27.779196" sodipodi:cy="176.55992" sodipodi:cx="-591.9494" id="path4079" style="fill:#00ff00;fill-opacity:1;stroke:#01ff04;stroke-width:17.55628967;stroke-miterlimit:4;stroke-opacity:1;stroke-dasharray:none" sodipodi:type="arc"/>
      <path sodipodi:type="arc" style="fill:#00ff00;fill-opacity:1;stroke:#01ff04;stroke-width:17.55628967;stroke-miterlimit:4;stroke-opacity:1;stroke-dasharray:none" id="path4081" sodipodi:cx="-591.9494" sodipodi:cy="176.55992" sodipodi:rx="27.779196" sodipodi:ry="27.779196" d="m -564.17021,176.55992 c 0,15.34203 -12.43717,27.7792 -27.77919,27.7792 -15.34203,0 -27.7792,-12.43717 -27.7792,-27.7792 0,-15.34202 12.43717,-27.77919 27.7792,-27.77919 15.34202,0 27.77919,12.43717 27.77919,27.77919 z" transform="translate(-111.11678,83.337588)"/>
      <path sodipodi:type="arc" style="fill:#00ff00;fill-opacity:1;stroke:#01ff04;stroke-width:17.55628967;stroke-miterlimit:4;stroke-opacity:1;stroke-dasharray:none" id="path4083" sodipodi:cx="-591.9494" sodipodi:cy="176.55992" sodipodi:rx="27.779196" sodipodi:ry="27.779196" d="m -564.17021,176.55992 c 0,15.34203 -12.43717,27.7792 -27.77919,27.7792 -15.34203,0 -27.7792,-12.43717 -27.7792,-27.7792 0,-15.34202 12.43717,-27.77919 27.7792,-27.77919 15.34202,0 27.77919,12.43717 27.77919,27.77919 z" transform="translate(55.558392,83.337588)"/>
      <path transform="translate(-27.779196,0)" d="m -564.17021,176.55992 c 0,15.34203 -12.43717,27.7792 -27.77919,27.7792 -15.34203,0 -27.7792,-12.43717 -27.7792,-27.7792 0,-15.34202 12.43717,-27.77919 27.7792,-27.77919 15.34202,0 27.77919,12.43717 27.77919,27.77919 z" sodipodi:ry="27.779196" sodipodi:rx="27.779196" sodipodi:cy="176.55992" sodipodi:cx="-591.9494" id="path4085" style="fill:#00ff00;fill-opacity:1;stroke:#01ff04;stroke-width:17.55628967;stroke-miterlimit:4;stroke-opacity:1;stroke-dasharray:none" sodipodi:type="arc"/>
    </g>
  </g>
<script xmlns=""/></svg>