<?xml version="1.0" encoding="UTF-8" standalone="no"?>
<!-- Generator: Adobe Illustrator 17.1.0, SVG Export Plug-In . SVG Version: 6.00 Build 0)  -->

<svg
   xmlns:dc="http://purl.org/dc/elements/1.1/"
   xmlns:cc="http://creativecommons.org/ns#"
   xmlns:rdf="http://www.w3.org/1999/02/22-rdf-syntax-ns#"
   xmlns:svg="http://www.w3.org/2000/svg"
   xmlns="http://www.w3.org/2000/svg"
   xmlns:sodipodi="http://sodipodi.sourceforge.net/DTD/sodipodi-0.dtd"
   xmlns:inkscape="http://www.inkscape.org/namespaces/inkscape"
   version="1.1"
   id="Capa_1"
   x="0px"
   y="0px"
   viewBox="0 0 203.333 203.333"
   style="enable-background:new 0 0 203.333 203.333;"
   xml:space="preserve"
   sodipodi:docname="company.svg"
   inkscape:version="0.92.1 r15371"><metadata
     id="metadata39"><rdf:RDF><cc:Work
         rdf:about=""><dc:format>image/svg+xml</dc:format><dc:type
           rdf:resource="http://purl.org/dc/dcmitype/StillImage" /><dc:title></dc:title></cc:Work></rdf:RDF></metadata><defs
     id="defs37" /><sodipodi:namedview
     pagecolor="#ffffff"
     bordercolor="#666666"
     borderopacity="1"
     objecttolerance="10"
     gridtolerance="10"
     guidetolerance="10"
     inkscape:pageopacity="0"
     inkscape:pageshadow="2"
     inkscape:window-width="871"
     inkscape:window-height="480"
     id="namedview35"
     showgrid="false"
     inkscape:zoom="1.1606577"
     inkscape:cx="101.6665"
     inkscape:cy="101.6665"
     inkscape:window-x="0"
     inkscape:window-y="0"
     inkscape:window-maximized="0"
     inkscape:current-layer="Capa_1" /><path
     d="M203.333,104.983v82.451c0,2.761-2.239,5-5,5H5c-2.761,0-5-2.239-5-5v-58.34c0-1.896,1.072-3.628,2.768-4.474l48.333-24.111  c1.55-0.773,3.39-0.689,4.862,0.222c1.473,0.911,2.37,2.52,2.37,4.252v16.029l29.597-14.764V57.416c0-2.761,2.239-5,5-5h9.074  c2.761,0,5,2.239,5,5v63.428l33.021-16.472l2.044-88.589c0.063-2.716,2.282-4.885,4.999-4.885h21.797  c2.716,0,4.936,2.169,4.999,4.885l2.186,94.729l20.051-10.002c1.55-0.773,3.389-0.689,4.862,0.222S203.333,103.251,203.333,104.983z   M35.078,151.969H21.553v19.006h13.525V151.969z M71.703,151.969H58.178v19.006h13.525V151.969z M108.329,151.969H94.804v19.006  h13.525V151.969z M144.955,151.969H131.43v19.006h13.525V151.969z"
     id="path2"
     style="fill:#008080" /><g
     id="g4" /><g
     id="g6" /><g
     id="g8" /><g
     id="g10" /><g
     id="g12" /><g
     id="g14" /><g
     id="g16" /><g
     id="g18" /><g
     id="g20" /><g
     id="g22" /><g
     id="g24" /><g
     id="g26" /><g
     id="g28" /><g
     id="g30" /><g
     id="g32" /></svg>