<?xml version="1.0" encoding="UTF-8" standalone="no"?>
<!-- Generator: Adobe Illustrator 21.0.0, SVG Export Plug-In . SVG Version: 6.00 Build 0)  -->

<svg
   version="1.1"
   id="Layer_1"
   x="0px"
   y="0px"
   viewBox="0 0 200 200.00001"
   xml:space="preserve"
   sodipodi:docname="Fio.svg"
   width="200"
   height="200"
   inkscape:version="1.4 (e7c3feb100, 2024-10-09)"
   xmlns:inkscape="http://www.inkscape.org/namespaces/inkscape"
   xmlns:sodipodi="http://sodipodi.sourceforge.net/DTD/sodipodi-0.dtd"
   xmlns="http://www.w3.org/2000/svg"
   xmlns:svg="http://www.w3.org/2000/svg"><defs
   id="defs18">
	
	

		
		
		
		
		
		
		
		
		
		
		
		
		
		
		
		
		
		
		
		
		
		
		
		
		
	</defs><sodipodi:namedview
   id="namedview18"
   pagecolor="#ffffff"
   bordercolor="#000000"
   borderopacity="0.25"
   inkscape:showpageshadow="2"
   inkscape:pageopacity="0.0"
   inkscape:pagecheckerboard="0"
   inkscape:deskcolor="#d1d1d1"
   inkscape:zoom="0.93720715"
   inkscape:cx="-222.46949"
   inkscape:cy="3.7344999"
   inkscape:window-width="1920"
   inkscape:window-height="1164"
   inkscape:window-x="0"
   inkscape:window-y="0"
   inkscape:window-maximized="1"
   inkscape:current-layer="Layer_1" />
<style
   type="text/css"
   id="style1">
	.st0{fill-rule:evenodd;clip-rule:evenodd;fill:#00408A;}
	.st1{fill-rule:evenodd;clip-rule:evenodd;fill:#FFFFFF;}
</style>
<g
   id="g19"
   transform="translate(709.93798,277.122)"><polygon
     class="st0"
     points="53.1,70 4.8,53.4 52.9,36.8 "
     id="polygon1"
     transform="translate(-708.48798,-230.472)" /><polygon
     class="st0"
     points="99.7,86.1 142.2,71.5 142.2,35.1 99.9,20.6 153,2.2 153,104.5 "
     id="polygon2"
     transform="translate(-708.48798,-230.472)" /><polygon
     class="st0"
     points="97.9,20.3 41.3,0.9 41.3,39.9 41.4,67.9 41.4,106.7 97.8,87.1 154.2,67.9 197.1,53.8 154.2,39.9 "
     id="polygon3"
     transform="translate(-708.48798,-230.472)" /><polygon
     class="st0"
     points="53.1,70 4.8,53.4 52.9,36.8 "
     id="polygon4"
     transform="translate(-708.48798,-230.472)" /><path
     class="st0"
     d="m -657.08798,-191.472 c 0,3.5 0.1,25.3 0.1,28.9 -3.4,-1.2 -35.3,-12.2 -42,-14.5 6.7,-2.3 38.5,-13.2 41.9,-14.4 z m -51.4,14.4 54.6,18.8 -0.2,-37.5 z"
     id="path4" /><polygon
     class="st0"
     points="99.7,86.1 142.2,71.5 142.2,35.1 99.9,20.6 153,2.2 153,104.5 "
     id="polygon5"
     transform="translate(-708.48798,-230.472)" /><path
     class="st0"
     d="m -557.08798,-226.172 c 0,4.1 0,94 0,98 -3.5,-1.2 -40.1,-13.9 -47,-16.2 6.9,-2.4 39.3,-13.5 39.3,-13.5 v -38.6 c 0,0 -32.2,-11.1 -39.1,-13.4 6.9,-2.4 43.3,-15 46.8,-16.3 z m -56.3,16.3 c 0,0 43.5,14.9 45.5,15.6 0,2 0,32.2 0,34.2 -2,0.7 -45.6,15.7 -45.6,15.7 l 59.5,20.6 v -106.7 z"
     id="path5" /><polygon
     class="st0"
     points="97.9,20.3 41.3,0.9 41.3,39.9 41.4,67.9 41.4,106.7 97.8,87.1 154.2,67.9 197.1,53.8 154.2,39.9 "
     id="polygon6"
     transform="translate(-708.48798,-230.472)" /><path
     class="st1"
     d="m -608.58798,-209.872 42.3,14.5 v 36.4 l -42.5,14.6 53.2,18.4 v -102.3 z m -95.1,32.8 48.3,16.6 -0.1,-33.2 z m 117.8,-11.9 h 0.3 c 4.1,-0.6 4.9,7.3 4.9,9.9 0,3.9 -0.4,9.3 -4.6,10.6 0,0 -0.1,0 -0.3,0.1 -4.8,1 -4.8,-8.7 -4.8,-11.6 0,-3.7 0.8,-8 4.5,-9 z m 0.2,21.6 c 0.4,-0.1 0.7,-0.1 1,-0.3 4.9,-2 8.4,-7.7 8.5,-13.3 v -0.9 c 0,-1.5 -0.3,-2.8 -0.8,-4.1 -1.4,-3.6 -5.2,-4.9 -8.7,-4.2 -0.4,0.1 -0.8,0.3 -1.3,0.4 -4.2,1.7 -7.1,6.2 -7.8,10.9 -0.6,3.5 -0.3,8.4 2.9,10.7 1.9,1.3 4.1,1.3 6.2,0.8 z m -21.4,7.7 c 1.1,-0.1 2.8,-1.3 3.5,-2 1.1,-1.3 2.4,-3.8 3.1,-6.7 -1.4,-0.4 0.4,0.1 -1.1,-0.3 -0.3,1.2 -1,2.5 -1.3,3 -0.3,0.4 -1,1.5 -1.4,1.6 l -0.6,0.1 c -0.4,-0.1 -0.4,-2.5 -0.3,-3.2 v -18.4 c -3.9,1.7 -4.6,1.9 -8.7,3.8 0.2,0.9 0.1,1 0.1,0.8 0,0.2 0.1,0.4 0.2,0.8 l 0.7,-0.1 c 0.6,-0.1 1.4,-0.3 1.5,-0.3 0.8,-0.1 0.8,1 0.8,2.5 v 13.3 c 0,1.6 -0.3,4.4 1,4.8 0.1,0 1.2,0.5 2.5,0.3 z m -6.6,-21.3 c -0.2,-0.7 -0.1,-0.1 0,0 z m 6.7,-8 c 2,0 3.5,-1.7 3.5,-3.8 0,-2 -1.5,-3.8 -3.5,-3.8 -2.1,0 -3.6,1.7 -3.6,3.8 0,2 1.5,3.8 3.6,3.8 z m -38.3,-5.1 c 1.7,-0.3 2.8,-0.3 3.6,0 0.4,0.1 1.1,0.9 1.1,1.6 0,0.4 0.3,1.6 0.3,2.6 v 32.3 c 0,0.9 0.6,5.4 -4.8,8.6 v 2 l 16.9,-5.5 v -2.5 c -2.7,0 -4.2,-1.2 -4.2,-2.8 v -18 c 1.8,-0.4 2.9,-0.7 3.9,-0.7 0.8,0 1.8,0.4 2.4,0.9 0.4,0.3 1,1 1.1,1.6 0.1,0.4 0.6,1.6 0.7,2.5 l 0.6,2.8 h 1.2 v -19.5 h -1.7 c -0.1,1.4 -0.3,2.8 -0.3,3 -0.1,1 -0.7,2.2 -1,2.9 -0.4,0.9 -1.4,1.9 -2.2,2.3 -1.7,0.9 -3.2,1.2 -4.9,1.7 v -16.1 c 0,-1.7 0,-2.9 1.7,-3.9 l 0.6,-0.3 c 2.8,-1.7 5.9,-0.7 7.4,0.1 1.7,0.7 3.2,4.4 3.8,7.3 l 0.3,1.2 h 1.3 v -15.6 l -27.9,9.7 v 1.8 z"
     id="path6" /></g>

</svg>
