<?xml version="1.0" encoding="UTF-8" standalone="no"?>
<!-- Uploaded to: SVG Repo, www.svgrepo.com, Generator: SVG Repo Mixer Tools -->

<svg
   width="800px"
   height="800px"
   viewBox="0 0 36 36"
   aria-hidden="true"
   role="img"
   class="iconify iconify--twemoji"
   preserveAspectRatio="xMidYMid meet"
   version="1.1"
   id="svg6"
   sodipodi:docname="multiflexi-executor.svg"
   inkscape:version="1.4 (e7c3feb100, 2024-10-09)"
   xmlns:inkscape="http://www.inkscape.org/namespaces/inkscape"
   xmlns:sodipodi="http://sodipodi.sourceforge.net/DTD/sodipodi-0.dtd"
   xmlns="http://www.w3.org/2000/svg"
   xmlns:svg="http://www.w3.org/2000/svg">
  <defs
     id="defs6" />
  <sodipodi:namedview
     id="namedview6"
     pagecolor="#ffffff"
     bordercolor="#000000"
     borderopacity="0.25"
     inkscape:showpageshadow="2"
     inkscape:pageopacity="0.0"
     inkscape:pagecheckerboard="0"
     inkscape:deskcolor="#d1d1d1"
     inkscape:zoom="1.14125"
     inkscape:cx="400"
     inkscape:cy="400"
     inkscape:window-width="1920"
     inkscape:window-height="1164"
     inkscape:window-x="0"
     inkscape:window-y="0"
     inkscape:window-maximized="1"
     inkscape:current-layer="svg6" />
  <g
     id="g6"
     transform="matrix(0.78256923,0,0,0.78256923,-2.0402441,-0.55146261)">
    <path
       fill="#8899a6"
       d="M 5,36 A 2,2 0 0 1 3,34 V 3 a 2,2 0 0 1 4,0 v 31 a 2,2 0 0 1 -2,2 z"
       id="path1" />
    <path
       fill="#aab8c2"
       d="M 5,1 A 2,2 0 0 0 3,3 v 31 a 0.5,0.5 0 0 0 1,0 V 4.414 C 4,3.633 4.633,3 5.414,3 H 7 A 2,2 0 0 0 5,1 Z"
       id="path2" />
    <path
       fill="#8899a6"
       d="M 5,36 A 2,2 0 0 1 3,34 V 3 a 2,2 0 0 1 4,0 v 31 a 2,2 0 0 1 -2,2 z"
       id="path3" />
    <path
       fill="#aab8c2"
       d="M 5,1 A 2,2 0 0 0 3,3 v 31 a 0.5,0.5 0 0 0 1,0 V 4.414 C 4,3.633 4.633,3 5.414,3 H 7 A 2,2 0 0 0 5,1 Z"
       id="path4" />
    <path
       fill="#31373d"
       d="M 32.396,3.082 C 30.732,2.363 28.959,2.006 27,1.974 L 25.625,2.354 21,3 20,2.872 C 19.763,2.923 19.524,2.971 19.289,3.022 17.12,3.491 15.059,3.916 13,4.004 L 12,5 6,4 v 19 h 6 l 1,2 h 0.077 c 2.244,-0.096 4.472,-0.556 6.633,-1.022 L 20,23.917 20.646,23.272 26.084,22.564 27,22.974 c 1.68,0.032 3.193,0.335 4.604,0.944 A 1,1 0 0 0 33,23 V 4 A 1,1 0 0 0 32.396,3.082 Z"
       id="path5" />
    <path
       fill="#e1e8ed"
       d="m 13,4.004 c -0.239,0.01 -0.478,0.035 -0.717,0.035 -1.797,0 -3.396,-0.313 -4.887,-0.957 A 0.991,0.991 0 0 0 6.451,3.165 0.997,0.997 0 0 0 6,4 v 6 c 0,0 3.292,1 7,1 z M 20,10 c 0,0 -3.75,1 -7,1 v 7 c 3,0 7,-1 7,-1 z M 27,9 V 1.974 C 26.904,1.972 26.814,1.961 26.717,1.961 24.45,1.961 22.196,2.403 20,2.872 V 10 c 0,0 2.167,-1 7,-1 z M 6.604,23.918 c 1.5,0.648 3.09,0.993 4.82,1.082 H 13 V 18 C 8.833,18 6,17 6,17 v 6 a 1,1 0 0 0 0.604,0.918 z M 20,17 v 6.916 c 2.313,-0.499 4.511,-0.955 6.717,-0.955 0.097,0 0.187,0.011 0.283,0.013 V 16 c -4.5,0 -7,1 -7,1 z m 7,-1 c 2.676,0 4.82,0.56 6,0.954 V 9.908 C 31.853,9.527 29.769,9 27,9 Z"
       id="path6" />
  </g>
  <g
     id="g16283"
     transform="matrix(0.07037644,0.04431708,-0.04431708,0.07037644,16.791354,-10.197173)">
    <ellipse
       ry="56.40678"
       rx="53.152542"
       cy="167.05084"
       cx="254.91525"
       id="path16281"
       style="opacity:1;fill:#b2d7dc;fill-opacity:1;stroke:#000000;stroke-width:9;stroke-linecap:round;stroke-linejoin:round;stroke-miterlimit:4;stroke-dasharray:none;stroke-opacity:1" />
    <g
       id="g15725">
      <g
         style="stroke-width:9;stroke-miterlimit:4;stroke-dasharray:none"
         id="g15727">
        <path
           style="fill:#b23051;fill-opacity:1;stroke:#000000;stroke-width:9;stroke-miterlimit:4;stroke-dasharray:none;stroke-opacity:1"
           id="path15729"
           d="m 204.192,62.194 c 14.147,-20.472 29.339,-41.613 50.963,-54.72 21.323,12.782 36.366,33.547 50.311,53.656 32.847,49.754 52.929,109.515 48.878,169.578 10.615,8.898 21.537,17.441 31.994,26.521 15.011,13.797 22.02,35.319 18.406,55.327 -5.036,25.275 -9.876,50.607 -15.206,75.813 -2.963,12.968 -20.508,18.905 -30.823,10.62 -17.121,-14.291 -33.816,-29.108 -50.932,-43.417 -12.95,12.462 -30.153,20.772 -48.214,21.773 -20.791,1.466 -41.375,-7.156 -56.448,-21.242 -12.28,9.401 -23.666,20.686 -35.664,30.755 -5.799,4.66 -10.621,10.784 -17.484,13.966 -10.64,4.565 -24.342,-2.248 -26.747,-13.685 -5.479,-24.642 -11.203,-49.24 -16.52,-73.92 -4.321,-20.878 3.332,-43.61 19.419,-57.607 9.313,-7.822 18.756,-15.487 28.243,-23.096 2.643,-1.39 1.315,-4.596 1.465,-6.951 -2.828,-57.951 16.967,-115.232 48.359,-163.371 z m 16.803,76.332 c -12.424,15.994 -10.921,40.768 3.488,55.052 15.255,16.809 44.15,17.422 60.106,1.29 12.317,-11.253 16.482,-30.146 10.603,-45.671 -5.387,-14.967 -19.809,-26.195 -35.671,-27.591 -14.648,-1.686 -29.815,5.053 -38.526,16.92 z"
           inkscape:connector-curvature="0" />
      </g>
      <path
         style="fill:#dc9517;fill-opacity:1"
         id="path15731"
         d="m 198.263,407.819 c -0.213,-7.266 8.83,-12.262 14.942,-8.417 25.87,13.32 58.027,13.314 83.896,-0.007 5.937,-3.645 14.736,0.733 14.955,7.803 0.087,15.432 0.105,30.88 0.024,46.317 0.119,7.533 -9.832,12.337 -15.681,7.626 -4.452,-3.926 -8.467,-8.341 -12.75,-12.461 -6.776,13.201 -13.163,26.602 -19.995,39.772 -3.281,6.275 -13.533,6.318 -16.877,0.105 -6.87,-13.195 -13.213,-26.676 -20.121,-39.858 -4.221,4.157 -8.248,8.548 -12.694,12.468 -5.824,4.734 -15.756,-0.162 -15.675,-7.647 -0.124,-15.229 -0.043,-30.465 -0.024,-45.701 z"
         inkscape:connector-curvature="0" />
    </g>
  </g>
</svg>
