<?xml version="1.0" encoding="UTF-8" standalone="no"?>
<!-- Created with Inkscape (http://www.inkscape.org/) -->

<svg
   id="svg3041"
   sodipodi:docname="pohoda.svg"
   viewBox="0 0 9.3749999 9.3749997"
   version="1.1"
   inkscape:version="1.2.2 (b0a8486541, 2022-12-01)"
   width="10"
   height="10"
   xmlns:inkscape="http://www.inkscape.org/namespaces/inkscape"
   xmlns:sodipodi="http://sodipodi.sourceforge.net/DTD/sodipodi-0.dtd"
   xmlns:xlink="http://www.w3.org/1999/xlink"
   xmlns="http://www.w3.org/2000/svg"
   xmlns:svg="http://www.w3.org/2000/svg"
   xmlns:rdf="http://www.w3.org/1999/02/22-rdf-syntax-ns#"
   xmlns:cc="http://creativecommons.org/ns#"
   xmlns:dc="http://purl.org/dc/elements/1.1/">
  <defs
     id="defs26">
    <linearGradient
       id="linearGradient3235">
      <stop
         id="stop3237"
         style="stop-color:#ffffff"
         offset="0" />
      <stop
         id="stop3247"
         style="stop-color:#43ff38"
         offset=".26786" />
      <stop
         id="stop3239"
         style="stop-color:#ffffff;stop-opacity:0"
         offset="1" />
    </linearGradient>
    <radialGradient
       id="radialGradient5217"
       xlink:href="#linearGradient3235"
       gradientUnits="userSpaceOnUse"
       cy="507.57999"
       cx="544.67999"
       gradientTransform="matrix(0.6462,0,0,0.37308,192.71,318.21)"
       r="7.6715002"
       inkscape:collect="always" />
    <linearGradient
       id="linearGradient3282">
      <stop
         id="stop3284"
         style="stop-color:#ffffff;stop-opacity:.29412"
         offset="0" />
      <stop
         id="stop3286"
         style="stop-color:#ffffff;stop-opacity:0"
         offset="1" />
    </linearGradient>
  </defs>
  <sodipodi:namedview
     id="base"
     bordercolor="#666666"
     inkscape:pageshadow="2"
     inkscape:window-y="0"
     fit-margin-left="0"
     pagecolor="#ffffff"
     fit-margin-top="0"
     inkscape:window-maximized="1"
     inkscape:zoom="22.519784"
     inkscape:window-x="1920"
     inkscape:window-height="1176"
     showgrid="false"
     borderopacity="1.0"
     inkscape:current-layer="g4550"
     inkscape:cx="-9.4361473"
     inkscape:cy="4.8179858"
     fit-margin-right="0"
     fit-margin-bottom="0"
     inkscape:window-width="1920"
     inkscape:pageopacity="0.0"
     inkscape:document-units="px"
     inkscape:showpageshadow="2"
     inkscape:pagecheckerboard="0"
     inkscape:deskcolor="#d1d1d1" />
  <g
     id="layer1"
     inkscape:label="Layer 1"
     inkscape:groupmode="layer"
     transform="translate(-44.3965,-11.398655)">
    <g
       id="g4550"
       transform="matrix(1,0,0,0.85496564,0,1.6743816)">
      <g
         id="g714"
         transform="matrix(1.0586951,0.0013686,-0.0633306,1.1510667,17.223815,-7.1072778)">
        <g
           id="g440"
           transform="matrix(0.02198127,0,8.3376115e-4,0.02571012,23.831482,12.142337)">
          <g
             id="g3038"
             transform="matrix(7.3142855,0,0,7.3141813,1.1487061e-5,-4659.1335)">
            <path
               fill="#b2b2b2"
               d="m 48.138,704.971 v -3.212 c 0,-4.757 3.885,-8.827 8.521,-9.23 H 21.237 c -0.683,0 -1.237,0.388 -1.237,1.071 v 12.304 c 0,0.685 0.554,1.097 1.237,1.097 h 27.497 c -0.28,-0.401 -0.596,-1.264 -0.596,-2.03 z"
               id="path2988" />
            <path
               fill="#595959"
               d="m 70,672.444 c 0,0.686 -0.555,1.237 -1.238,1.237 H 21.237 c -0.683,0 -1.237,-0.552 -1.237,-1.237 v -12.303 c 0,-0.686 0.554,-1.239 1.237,-1.239 h 47.525 c 0.683,0 1.238,0.554 1.238,1.239 z"
               id="path2990" />
            <circle
               fill="#f79903"
               cx="62.91"
               cy="666.29303"
               r="2.404"
               id="circle2992" />
            <g
               id="g3004">
              <polygon
                 fill-rule="evenodd"
                 clip-rule="evenodd"
                 fill="#ffffff"
                 points="40.235,663.401 37.351,669.182 35.06,669.182 37.943,663.401 "
                 id="polygon2994" />
              <g
                 id="g3002">
                <polygon
                   fill-rule="evenodd"
                   clip-rule="evenodd"
                   fill="#ffffff"
                   points="31.82,663.401 28.938,669.182 26.644,669.182 29.527,663.401 "
                   id="polygon2996" />
                <polygon
                   fill-rule="evenodd"
                   clip-rule="evenodd"
                   fill="#ffffff"
                   points="36.029,663.401 33.144,669.182 30.852,669.182 33.736,663.401 "
                   id="polygon2998" />
                <polygon
                   fill-rule="evenodd"
                   clip-rule="evenodd"
                   fill="#ffffff"
                   points="44.464,663.401 41.579,669.182 39.285,669.182 42.171,663.401 "
                   id="polygon3000" />
              </g>
            </g>
            <path
               fill="#b2b2b2"
               d="m 70,689.291 c 0,0.685 -0.555,1.237 -1.238,1.237 H 21.237 c -0.683,0 -1.237,-0.553 -1.237,-1.237 v -12.304 c 0,-0.684 0.554,-1.237 1.237,-1.237 h 47.525 c 0.683,0 1.238,0.554 1.238,1.237 z"
               id="path3006" />
            <path
               fill="#f79903"
               d="m 65.313,683.141 c 0,1.326 -1.077,2.403 -2.404,2.403 -1.329,0 -2.404,-1.077 -2.404,-2.403 0,-1.331 1.075,-2.406 2.404,-2.406 1.327,-10e-4 2.404,1.075 2.404,2.406 z"
               id="path3008" />
            <g
               id="g3020">
              <polygon
                 fill-rule="evenodd"
                 clip-rule="evenodd"
                 fill="#595959"
                 points="40.235,680.249 37.351,686.029 35.06,686.029 37.943,680.249 "
                 id="polygon3010" />
              <g
                 id="g3018">
                <polygon
                   fill-rule="evenodd"
                   clip-rule="evenodd"
                   fill="#595959"
                   points="31.82,680.249 28.938,686.029 26.644,686.029 29.527,680.249 "
                   id="polygon3012" />
                <polygon
                   fill-rule="evenodd"
                   clip-rule="evenodd"
                   fill="#595959"
                   points="36.029,680.249 33.144,686.029 30.852,686.029 33.736,680.249 "
                   id="polygon3014" />
                <polygon
                   fill-rule="evenodd"
                   clip-rule="evenodd"
                   fill="#595959"
                   points="44.464,680.249 41.579,686.029 39.285,686.029 42.171,680.249 "
                   id="polygon3016" />
              </g>
            </g>
            <g
               id="g3032">
              <polygon
                 fill-rule="evenodd"
                 clip-rule="evenodd"
                 fill="#595959"
                 points="40.235,696.86 37.351,702.64 35.06,702.64 37.943,696.86 "
                 id="polygon3022" />
              <g
                 id="g3030">
                <polygon
                   fill-rule="evenodd"
                   clip-rule="evenodd"
                   fill="#595959"
                   points="31.82,696.86 28.938,702.64 26.644,702.64 29.527,696.86 "
                   id="polygon3024" />
                <polygon
                   fill-rule="evenodd"
                   clip-rule="evenodd"
                   fill="#595959"
                   points="36.029,696.86 33.144,702.64 30.852,702.64 33.736,696.86 "
                   id="polygon3026" />
                <polygon
                   fill-rule="evenodd"
                   clip-rule="evenodd"
                   fill="#595959"
                   points="44.464,696.86 41.579,702.64 39.285,702.64 42.171,696.86 "
                   id="polygon3028" />
              </g>
            </g>
            <g
               id="g3036">
              <path
                 fill="#f79903"
                 d="m 68.036,706.811 c -1.012,0 -1.839,-0.825 -1.839,-1.84 v -3.212 c 0,-0.855 -0.695,-1.544 -1.552,-1.544 -0.848,0 -1.532,0.688 -1.532,1.544 v 3.212 c 0,1.015 -0.835,1.84 -1.853,1.84 -1.044,0 -1.871,-0.825 -1.871,-1.84 v -3.212 c 0,-0.855 -0.7,-1.544 -1.548,-1.544 -0.849,0 -1.543,0.688 -1.543,1.544 v 3.212 c 0,1.015 -0.832,1.84 -1.847,1.84 -1.015,0 -1.841,-0.825 -1.841,-1.84 v -3.212 c 0,-2.886 2.343,-5.24 5.232,-5.24 1.181,0 2.306,0.398 3.242,1.131 l 0.168,0.139 0.167,-0.139 c 0.931,-0.732 2.049,-1.131 3.227,-1.131 2.898,0 5.246,2.354 5.246,5.24 v 3.212 c -0.002,1.014 -0.835,1.84 -1.856,1.84 z"
                 id="path3034" />
            </g>
          </g>
        </g>
      </g>
    </g>
  </g>
  <metadata
     id="metadata23">
    <rdf:RDF>
      <cc:Work>
        <dc:format>image/svg+xml</dc:format>
        <dc:type
           rdf:resource="http://purl.org/dc/dcmitype/StillImage" />
        <cc:license
           rdf:resource="http://creativecommons.org/publicdomain/zero/1.0/" />
        <dc:publisher>
          <cc:Agent
             rdf:about="http://openclipart.org/">
            <dc:title>Openclipart</dc:title>
          </cc:Agent>
        </dc:publisher>
        <dc:date>2012-01-07T08:22:20</dc:date>
        <dc:description>Help desk</dc:description>
        <dc:source>https://openclipart.org/detail/166905/help-desk-by-gsagri04</dc:source>
        <dc:creator>
          <cc:Agent>
            <dc:title>gsagri04</dc:title>
          </cc:Agent>
        </dc:creator>
        <dc:subject>
          <rdf:Bag>
            <rdf:li>Help</rdf:li>
            <rdf:li>care</rdf:li>
            <rdf:li>corporate</rdf:li>
            <rdf:li>customer</rdf:li>
            <rdf:li>desk</rdf:li>
            <rdf:li>office</rdf:li>
            <rdf:li>reception</rdf:li>
          </rdf:Bag>
        </dc:subject>
      </cc:Work>
      <cc:License
         rdf:about="http://creativecommons.org/publicdomain/zero/1.0/">
        <cc:permits
           rdf:resource="http://creativecommons.org/ns#Reproduction" />
        <cc:permits
           rdf:resource="http://creativecommons.org/ns#Distribution" />
        <cc:permits
           rdf:resource="http://creativecommons.org/ns#DerivativeWorks" />
      </cc:License>
    </rdf:RDF>
  </metadata>
</svg>
