<?xml version="1.0" encoding="UTF-8" standalone="no"?>
<svg version="1.1" viewBox="0 0 546.89 129.99999" id="svg42" sodipodi:docname="rb.svg" width="546.89001" height="130" inkscape:version="1.2.2 (b0a8486541, 2022-12-01)" xmlns:inkscape="http://www.inkscape.org/namespaces/inkscape" xmlns:sodipodi="http://sodipodi.sourceforge.net/DTD/sodipodi-0.dtd" xmlns="http://www.w3.org/2000/svg" xmlns:svg="http://www.w3.org/2000/svg">
  <defs id="defs46"/>
  <sodipodi:namedview id="namedview44" pagecolor="#ffffff" bordercolor="#000000" borderopacity="0.25" inkscape:showpageshadow="2" inkscape:pageopacity="0.0" inkscape:pagecheckerboard="0" inkscape:deskcolor="#d1d1d1" showgrid="false" inkscape:zoom="1.6892133" inkscape:cx="273.79609" inkscape:cy="69.855003" inkscape:window-width="1920" inkscape:window-height="1120" inkscape:window-x="0" inkscape:window-y="0" inkscape:window-maximized="1" inkscape:current-layer="svg42"/>
  <style id="style2"> .cls-1 { fill: #fee600; } .cls-2, .cls-3 { fill: #2b2d33; } .cls-3 { fill-rule: evenodd; } </style>
  <g id="g40" transform="matrix(0.78815075,0,0,0.78815075,9.9788621,10.653729)">
    <g id="g32">
      <path d="M 203.11,63.4 190.84,41.11 h -4.97 V 63.4 H 173.94 V 7.05 h 22.63 c 3.87,0 7.21,0.65 10.03,1.95 2.82,1.3 4.97,3.19 6.46,5.68 1.49,2.49 2.24,5.47 2.24,8.95 0,4.09 -1.09,7.51 -3.27,10.28 -2.18,2.77 -5.29,4.7 -9.32,5.8 l 13.68,23.7 H 203.13 Z M 185.87,17.32 v 14.34 h 9.28 c 2.49,0 4.39,-0.62 5.72,-1.86 1.33,-1.24 1.99,-3.05 1.99,-5.43 0,-2.38 -0.66,-4.28 -1.99,-5.39 -1.33,-1.11 -3.26,-1.66 -5.8,-1.66 z" class="cls-2" id="path4"/>
      <path d="m 250.6,19.56 h 11.35 V 63.4 H 250.6 v -5.22 c -1.44,1.99 -3.26,3.55 -5.47,4.68 -2.21,1.13 -4.7,1.7 -7.46,1.7 -3.59,0 -6.8,-0.98 -9.61,-2.94 -2.82,-1.96 -5.01,-4.7 -6.59,-8.21 -1.58,-3.51 -2.36,-7.47 -2.36,-11.89 0,-4.42 0.79,-8.47 2.36,-11.98 1.57,-3.51 3.77,-6.24 6.59,-8.2 2.82,-1.96 6.02,-2.94 9.61,-2.94 2.76,0 5.25,0.58 7.46,1.74 2.21,1.16 4.03,2.74 5.47,4.73 z m -4.48,33.23 c 1.49,-0.99 2.67,-2.45 3.52,-4.35 0.86,-1.91 1.28,-4.21 1.28,-6.92 0,-2.71 -0.43,-5.01 -1.28,-6.92 -0.86,-1.9 -2.03,-3.36 -3.52,-4.35 -1.49,-0.99 -3.2,-1.49 -5.14,-1.49 -1.94,0 -3.66,0.5 -5.18,1.49 -1.52,0.99 -2.69,2.45 -3.52,4.35 -0.83,1.91 -1.24,4.21 -1.24,6.92 0,2.71 0.41,5.01 1.24,6.92 0.83,1.9 2,3.36 3.52,4.35 1.52,1 3.25,1.49 5.18,1.49 1.93,0 3.65,-0.5 5.14,-1.49 z" class="cls-2" id="path6"/>
      <path d="m 272.61,11.56 c -1.24,-1.24 -1.86,-2.86 -1.86,-4.85 0,-1.99 0.62,-3.61 1.86,-4.85 1.24,-1.24 2.86,-1.87 4.85,-1.87 1.99,0 3.59,0.62 4.81,1.87 1.21,1.24 1.82,2.86 1.82,4.85 0,1.99 -0.61,3.61 -1.82,4.85 -1.22,1.24 -2.82,1.87 -4.81,1.87 -1.99,0 -3.61,-0.62 -4.85,-1.87 z m 10.4,51.84 H 271.66 V 19.56 h 11.35 z" class="cls-2" id="path8"/>
      <path d="m 307.29,19.56 h 12.02 v 9.95 h -12.02 v 33.9 h -11.35 v -33.9 h -7.46 v -9.95 h 7.46 v -2.65 c 0,-4.81 1.38,-8.48 4.14,-11.02 2.76,-2.54 6.55,-3.81 11.35,-3.81 1.77,0 3.45,0.16 5.06,0.5 1.6,0.33 3.07,0.78 4.39,1.33 l -2.9,8.7 c -1.49,-0.61 -3.12,-0.91 -4.89,-0.91 -2.05,0 -3.52,0.47 -4.43,1.41 -0.91,0.94 -1.37,2.38 -1.37,4.31 v 2.15 z" class="cls-2" id="path10"/>
      <path d="m 336.3,19.56 h 12.02 v 9.95 H 336.3 v 33.9 h -11.35 v -33.9 h -7.46 v -9.95 h 7.46 v -2.65 c 0,-4.81 1.38,-8.48 4.14,-11.02 2.76,-2.54 6.55,-3.81 11.35,-3.81 1.77,0 3.45,0.16 5.06,0.5 1.6,0.33 3.07,0.78 4.39,1.33 l -2.9,8.7 C 345.5,12 343.87,11.7 342.1,11.7 c -2.05,0 -3.52,0.47 -4.43,1.41 -0.91,0.94 -1.37,2.38 -1.37,4.31 v 2.15 z" class="cls-2" id="path12"/>
      <path d="M 392.49,45.5 H 362.9 c 0.39,3.32 1.46,5.72 3.23,7.21 1.77,1.49 4.36,2.24 7.79,2.24 2.37,0 4.57,-0.34 6.59,-1.03 2.02,-0.69 3.77,-1.67 5.26,-2.94 l 4.89,7.79 c -2.21,1.88 -4.78,3.32 -7.71,4.31 -2.93,0.99 -6.08,1.49 -9.45,1.49 -4.75,0 -8.84,-0.91 -12.27,-2.73 -3.43,-1.82 -6.04,-4.45 -7.83,-7.87 -1.8,-3.43 -2.69,-7.49 -2.69,-12.18 0,-4.69 0.88,-8.73 2.65,-12.27 1.77,-3.54 4.27,-6.27 7.5,-8.21 3.23,-1.93 6.92,-2.9 11.06,-2.9 4.14,0 7.76,0.94 10.86,2.82 3.09,1.88 5.48,4.56 7.17,8.04 1.68,3.48 2.53,7.57 2.53,12.27 v 3.98 z M 362.9,37.71 h 18.15 c -0.28,-3.26 -1.19,-5.69 -2.73,-7.29 -1.55,-1.6 -3.65,-2.4 -6.3,-2.4 -5.3,0 -8.34,3.23 -9.12,9.7 z" class="cls-2" id="path14"/>
      <path d="m 400.41,11.56 c -1.24,-1.24 -1.86,-2.86 -1.86,-4.85 0,-1.99 0.62,-3.61 1.86,-4.85 1.24,-1.24 2.86,-1.87 4.85,-1.87 1.99,0 3.59,0.62 4.81,1.87 1.21,1.24 1.82,2.86 1.82,4.85 0,1.99 -0.61,3.61 -1.82,4.85 -1.22,1.24 -2.82,1.87 -4.81,1.87 -1.99,0 -3.61,-0.62 -4.85,-1.87 z m 10.4,51.84 H 399.46 V 19.56 h 11.35 z" class="cls-2" id="path16"/>
      <path d="m 425.31,63.11 c -3.1,-0.97 -5.72,-2.47 -7.87,-4.52 l 5.3,-8.12 c 3.26,3.09 7.4,4.64 12.43,4.64 2.21,0 3.88,-0.34 5.01,-1.04 1.13,-0.69 1.7,-1.73 1.7,-3.11 0,-1.16 -0.51,-2.11 -1.53,-2.86 -1.02,-0.75 -2.89,-1.45 -5.59,-2.11 -3.48,-0.77 -6.34,-1.63 -8.58,-2.57 -2.24,-0.94 -4.05,-2.27 -5.43,-3.98 -1.38,-1.71 -2.07,-3.95 -2.07,-6.71 0,-2.93 0.75,-5.47 2.24,-7.62 1.49,-2.15 3.62,-3.81 6.38,-4.97 2.76,-1.16 5.97,-1.74 9.61,-1.74 3.42,0 6.59,0.5 9.49,1.49 2.9,0.99 5.37,2.46 7.42,4.39 l -5.3,7.79 c -1.49,-1.38 -3.26,-2.43 -5.3,-3.15 -2.04,-0.72 -4.17,-1.08 -6.38,-1.08 -2.21,0 -3.7,0.33 -4.81,1 -1.11,0.66 -1.66,1.66 -1.66,2.98 0,0.77 0.23,1.42 0.7,1.95 0.47,0.53 1.28,1.03 2.45,1.53 1.17,0.5 2.82,0.99 4.97,1.49 2.98,0.72 5.55,1.58 7.71,2.57 2.16,0.99 3.92,2.4 5.3,4.23 1.38,1.82 2.07,4.14 2.07,6.96 0,2.82 -0.72,5.28 -2.16,7.38 -1.44,2.1 -3.54,3.73 -6.3,4.89 -2.76,1.16 -6.08,1.74 -9.95,1.74 -3.48,0 -6.77,-0.48 -9.86,-1.45 z" class="cls-2" id="path18"/>
      <path d="m 499.98,45.5 h -29.59 c 0.39,3.32 1.46,5.72 3.23,7.21 1.77,1.49 4.36,2.24 7.79,2.24 2.37,0 4.57,-0.34 6.59,-1.03 2.02,-0.69 3.77,-1.67 5.26,-2.94 l 4.89,7.79 c -2.21,1.88 -4.78,3.32 -7.71,4.31 -2.93,0.99 -6.08,1.49 -9.45,1.49 -4.75,0 -8.84,-0.91 -12.27,-2.73 -3.43,-1.82 -6.04,-4.45 -7.83,-7.87 -1.8,-3.43 -2.69,-7.49 -2.69,-12.18 0,-4.69 0.88,-8.73 2.65,-12.27 1.77,-3.54 4.27,-6.27 7.5,-8.21 3.23,-1.93 6.92,-2.9 11.06,-2.9 4.14,0 7.76,0.94 10.86,2.82 3.09,1.88 5.48,4.56 7.17,8.04 1.68,3.48 2.53,7.57 2.53,12.27 v 3.98 z m -29.59,-7.79 h 18.15 c -0.28,-3.26 -1.19,-5.69 -2.73,-7.29 -1.55,-1.6 -3.65,-2.4 -6.3,-2.4 -5.3,0 -8.34,3.23 -9.12,9.7 z" class="cls-2" id="path20"/>
      <path d="m 539.56,20.43 c 2.35,1.35 4.16,3.33 5.43,5.93 1.27,2.6 1.91,5.72 1.91,9.37 V 63.41 H 535.46 V 37.14 c 0,-2.82 -0.65,-4.93 -1.95,-6.34 -1.3,-1.41 -3.27,-2.11 -5.93,-2.11 -1.99,0 -3.74,0.44 -5.26,1.33 -1.52,0.89 -2.86,2.21 -4.02,3.98 V 63.42 H 506.95 V 19.56 h 11.35 v 5.14 c 1.38,-1.99 3.19,-3.54 5.43,-4.64 2.24,-1.1 4.74,-1.66 7.5,-1.66 3.2,0 5.98,0.68 8.33,2.03 z" class="cls-2" id="path22"/>
      <path d="m 213.06,114.06 c 1.6,2.29 2.4,5.1 2.4,8.41 0,5.14 -1.65,9.11 -4.93,11.89 -3.29,2.79 -7.94,4.19 -13.96,4.19 H 173.94 V 82.19 h 20.64 c 5.97,0 10.58,1.28 13.84,3.85 3.26,2.57 4.89,6.2 4.89,10.9 0,5.58 -2.4,9.59 -7.21,12.02 3.04,1.11 5.36,2.81 6.96,5.1 z M 185.87,92.3 v 13.18 h 7.79 c 2.54,0 4.41,-0.55 5.59,-1.66 1.19,-1.1 1.78,-2.73 1.78,-4.89 0,-2.37 -0.64,-4.07 -1.91,-5.1 -1.27,-1.02 -3.18,-1.53 -5.72,-1.53 h -7.54 z m 9.28,36.13 c 2.6,0 4.54,-0.55 5.84,-1.66 1.3,-1.1 1.95,-2.87 1.95,-5.3 0,-2.27 -0.62,-3.95 -1.86,-5.06 -1.24,-1.1 -3.3,-1.66 -6.17,-1.66 h -9.03 v 13.68 h 9.28 z" class="cls-2" id="path24"/>
      <path d="m 251.35,94.71 h 11.35 v 43.84 h -11.35 v -5.22 c -1.44,1.99 -3.26,3.55 -5.47,4.68 -2.21,1.13 -4.7,1.7 -7.46,1.7 -3.59,0 -6.8,-0.98 -9.61,-2.94 -2.82,-1.96 -5.01,-4.7 -6.59,-8.21 -1.58,-3.51 -2.36,-7.47 -2.36,-11.89 0,-4.42 0.79,-8.47 2.36,-11.98 1.57,-3.51 3.77,-6.24 6.59,-8.2 2.82,-1.96 6.02,-2.94 9.61,-2.94 2.76,0 5.25,0.58 7.46,1.74 2.21,1.16 4.03,2.74 5.47,4.73 z m -4.48,33.23 c 1.49,-0.99 2.67,-2.45 3.52,-4.35 0.86,-1.91 1.28,-4.21 1.28,-6.92 0,-2.71 -0.43,-5.01 -1.28,-6.92 -0.86,-1.9 -2.03,-3.36 -3.52,-4.35 -1.49,-0.99 -3.2,-1.49 -5.14,-1.49 -1.94,0 -3.66,0.5 -5.18,1.49 -1.52,0.99 -2.69,2.45 -3.52,4.35 -0.83,1.91 -1.24,4.21 -1.24,6.92 0,2.71 0.41,5.01 1.24,6.92 0.83,1.9 2,3.36 3.52,4.35 1.52,1 3.25,1.49 5.18,1.49 1.93,0 3.65,-0.5 5.14,-1.49 z" class="cls-2" id="path26"/>
      <path d="m 305.01,95.58 c 2.35,1.35 4.16,3.33 5.43,5.93 1.27,2.6 1.91,5.72 1.91,9.37 v 27.68 h -11.44 v -26.27 c 0,-2.82 -0.65,-4.93 -1.95,-6.34 -1.3,-1.41 -3.27,-2.11 -5.93,-2.11 -1.99,0 -3.74,0.44 -5.26,1.33 -1.52,0.89 -2.86,2.21 -4.02,3.98 v 29.42 H 272.4 V 94.73 h 11.35 v 5.14 c 1.38,-1.99 3.19,-3.54 5.43,-4.64 2.24,-1.1 4.74,-1.66 7.5,-1.66 3.2,0 5.98,0.68 8.33,2.03 z" class="cls-2" id="path28"/>
      <path d="m 343.51,115.18 17.57,23.37 h -13.59 l -15,-19.89 v 19.89 H 321.14 V 78.88 h 11.35 v 33.65 l 14.26,-17.82 h 13.51 l -16.74,20.47 z" class="cls-2" id="path30"/>
    </g>
    <g id="g38">
      <rect y="7.04" width="131.5" height="131.50999" class="cls-1" id="rect34" x="0"/>
      <path d="m 95.09,63.45 16.76,-16.76 4.48,4.48 0.03,-0.03 c 0,-2.88 -0.85,-12.78 -8.8,-20.53 -8.9,-8.68 -17.81,-3.6 -20.89,-0.54 v 0 c 0,0 -16.14,16.14 -16.14,16.14 l 4,4 -8.78,8.78 -8.78,-8.78 4,-4 -16.14,-16.14 v 0 C 41.76,27 32.85,21.93 23.94,30.61 c -7.95,7.75 -8.8,17.65 -8.8,20.53 l 0.03,0.03 4.48,-4.48 16.76,16.76 4.62,-4.62 V 47.79 l 4.75,4.75 v 13.35 l 6.54,6.54 -33.94,33.94 13.43,13.43 33.94,-33.94 33.94,33.94 13.43,-13.43 -33.94,-33.94 6.54,-6.54 V 52.54 l 4.75,-4.75 v 11.04 z" class="cls-3" id="path36"/>
    </g>
  </g>
<script xmlns=""/></svg>