<?xml version="1.0" encoding="UTF-8" standalone="no"?>
<svg
   xmlns:dc="http://purl.org/dc/elements/1.1/"
   xmlns:cc="http://creativecommons.org/ns#"
   xmlns:rdf="http://www.w3.org/1999/02/22-rdf-syntax-ns#"
   xmlns:svg="http://www.w3.org/2000/svg"
   xmlns="http://www.w3.org/2000/svg"
   xmlns:sodipodi="http://sodipodi.sourceforge.net/DTD/sodipodi-0.dtd"
   xmlns:inkscape="http://www.inkscape.org/namespaces/inkscape"
   width="3846.6648"
   height="3846.6648"
   id="svg4006"
   version="1.1"
   inkscape:version="1.0.2 (e86c870879, 2021-01-15)"
   sodipodi:docname="set.svg">
  <defs
     id="defs4008" />
  <sodipodi:namedview
     id="base"
     pagecolor="#ffffff"
     bordercolor="#666666"
     borderopacity="1.0"
     inkscape:pageopacity="0.0"
     inkscape:pageshadow="2"
     inkscape:zoom="0.11880785"
     inkscape:cx="2890.7982"
     inkscape:cy="2479.1228"
     inkscape:document-units="px"
     inkscape:current-layer="layer1"
     showgrid="false"
     inkscape:snap-bbox="true"
     inkscape:window-width="1920"
     inkscape:window-height="1150"
     inkscape:window-x="1920"
     inkscape:window-y="27"
     inkscape:window-maximized="1"
     fit-margin-top="0"
     fit-margin-left="0"
     fit-margin-right="0"
     fit-margin-bottom="0"
     inkscape:document-rotation="0">
    <inkscape:grid
       type="xygrid"
       id="grid7443"
       empspacing="5"
       visible="true"
       enabled="true"
       snapvisiblegridlinesonly="true"
       originx="3569.2089"
       originy="-6576.9205"
       spacingx="1"
       spacingy="1" />
  </sodipodi:namedview>
  <metadata
     id="metadata4011">
    <rdf:RDF>
      <cc:Work
         rdf:about="">
        <dc:format>image/svg+xml</dc:format>
        <dc:type
           rdf:resource="http://purl.org/dc/dcmitype/StillImage" />
        <dc:title></dc:title>
      </cc:Work>
    </rdf:RDF>
  </metadata>
  <g
     inkscape:label="Layer 1"
     inkscape:groupmode="layer"
     id="layer1"
     transform="translate(3569.2089,9371.223)">
    <path
       style="fill:#000000;stroke-width:49.954;fill-opacity:1;stroke:#ffab00;stroke-opacity:1;stroke-miterlimit:4;stroke-dasharray:none"
       d="m -2721.7043,-8963.8125 c -231.2942,0 -422.0636,171.6157 -422.0636,379.6875 v 652.3125 742.25 326.4376 551.4374 c 0,208.0719 190.7694,379.7188 422.0636,379.7188 h 524.922 578.4181 143.0501 257.4761 647.75464 c 231.29421,0 422.09823,-171.6469 422.09823,-379.7188 v -517.75 -236.0312 -866.3438 -652.3125 c 0,-208.0718 -190.80402,-379.6875 -422.09823,-379.6875 z m 0,264.125 h 2151.62094 c 73.70615,0 128.46016,49.2567 128.46016,115.5625 v 1200.1875 l -87.46963,-1.7187 -64.2995,291.3125 0.2779,0.375 c -69.17757,8.8749 -137.26032,23.9783 -203.1811,44.8438 l 0.13895,-0.625 -206.37702,-231.7813 -201.7915,99.4687 106.367,281.375 c -54.2303,38.2189 -104.7233,81.6222 -150.6576,129.9376 l -0.069,-0.2813 -307.7071,-107.9687 -119.463,177.0312 248.4095,195.7812 0.2779,-0.062 c -26.461,58.9465 -45.9234,119.271 -58.6025,180.1874 l -326.6389,44.9376 -2.0843,85 h -80.0705 c 0,-0.083 0,-0.167 0,-0.25 h -17.6468 c -1.1852,-21.7235 -3.1468,-43.3075 -5.9401,-64.75 l 296.7993,-130.25 -63.3617,-198.9063 -328.48,31.3437 c -29.9135,-56.6464 -65.9717,-110.6195 -107.5829,-160.9374 l 184.909,-246.125 -165.5253,-143.7813 -267.0985,175 c -56.7255,-35.2381 -117.8774,-65.777 -182.8595,-90.875 l 0.2432,-0.125 23.1701,-296.4063 -223.1553,-49.9687 -99.072,200.75 V -8584.125 c 0,-66.3058 54.754,-115.5625 128.4601,-115.5625 z m 1474.1655,465.625 c -54.0583,30.6953 -97.6105,67.0962 -126.1328,111.6876 -37.8561,59.1847 -49.2323,132.7795 -23.5869,226.5312 6.532,23.8785 -96.4319,196.9062 -96.4319,196.9062 -17.7671,26.8936 -36.809,53.1025 -55.372,79.5626 0,0 -131.287,173.2587 -155.1039,178.5312 -83.5152,18.4881 -149.9916,44.4527 -185.7775,99.9688 -34.6854,53.8071 -40.5181,135.3578 -5.1065,264.8124 l 41.0252,8.3438 62.4238,-196.875 c 91.3668,-20.2262 173.4595,-3.5172 239.3777,60.3438 l -62.4236,196.875 20.53,4.1874 c 125.808,-71.4364 194.687,-173.8629 149.7196,-338.25 -14.9146,-5.7295 54.1324,-135.326 92.2982,-190.2812 16.3807,-23.5865 27.2482,-42.484 42.6579,-62.6875 53.3399,-69.9342 147.3501,-196.5925 171.9172,-202.0313 164.46022,-36.4068 262.86598,-101.7626 190.91862,-364.7812 l -41.0601,-8.3438 -62.38902,196.875 c -91.3668,20.2263 -173.4592,3.5174 -239.3777,-60.3437 l 62.4238,-196.875 z m 798.51652,1354.1563 c 2.46466,-0.015 4.9332,-0.01 7.39908,0 v 568.2187 c 0,66.3062 -54.75401,115.5626 -128.46016,115.5626 h -683.60394 c 7.8518,-114.1515 45.7665,-228.3161 116.3366,-332.875 141.62522,-209.8365 382.11107,-332.4908 634.97125,-349 17.72836,-1.1577 35.53676,-1.7995 53.35717,-1.9063 z m -2401.14222,8.1563 c 25.1157,3.4211 50.2677,7.9308 75.4157,13.5624 351.6508,78.75 592.1157,352.9225 613.7464,661.8126 h -1.0074 c 0.011,0.083 0.028,0.1662 0.035,0.25 h -559.729 c -73.7062,0 -128.4602,-49.2564 -128.4602,-115.5626 z"
       id="path3084" />
  </g>
</svg>
