<?xml version="1.0" encoding="UTF-8" standalone="no"?>
<!-- Created with Inkscape (http://www.inkscape.org/) -->

<svg
   xmlns:dc="http://purl.org/dc/elements/1.1/"
   xmlns:cc="http://creativecommons.org/ns#"
   xmlns:rdf="http://www.w3.org/1999/02/22-rdf-syntax-ns#"
   xmlns:svg="http://www.w3.org/2000/svg"
   xmlns="http://www.w3.org/2000/svg"
   xmlns:sodipodi="http://sodipodi.sourceforge.net/DTD/sodipodi-0.dtd"
   xmlns:inkscape="http://www.inkscape.org/namespaces/inkscape"
   width="210mm"
   height="297mm"
   viewBox="0 0 744.09448819 1052.3622047"
   id="svg2"
   version="1.1"
   inkscape:version="0.91 r13725"
   sodipodi:docname="Rødsvart abstrakt blekksprutte.svg"
   inkscape:export-filename="C:\Users\Hanne\Dropbox\Rødsvart abstrakt blekksprutte.png"
   inkscape:export-xdpi="90"
   inkscape:export-ydpi="90">
  <defs
     id="defs4">
    <inkscape:path-effect
       cusp_linecap_type="round"
       end_linecap_type="zerowidth"
       miter_limit="4"
       linejoin_type="round"
       start_linecap_type="zerowidth"
       interpolator_beta="0.2"
       interpolator_type="Linear"
       sort_points="true"
       offset_points="0.014383376,-8.0539054"
       is_visible="true"
       id="path-effect4909"
       effect="powerstroke" />
    <inkscape:path-effect
       is_visible="true"
       id="path-effect4907"
       effect="spiro" />
    <inkscape:path-effect
       effect="powerstroke"
       id="path-effect4903"
       is_visible="true"
       offset_points="0.014383376,-8.0539054"
       sort_points="true"
       interpolator_type="Linear"
       interpolator_beta="0.2"
       start_linecap_type="zerowidth"
       linejoin_type="round"
       miter_limit="4"
       end_linecap_type="zerowidth"
       cusp_linecap_type="round" />
    <inkscape:path-effect
       effect="spiro"
       id="path-effect4901"
       is_visible="true" />
    <inkscape:path-effect
       cusp_linecap_type="round"
       end_linecap_type="zerowidth"
       miter_limit="4"
       linejoin_type="round"
       start_linecap_type="zerowidth"
       interpolator_beta="0.2"
       interpolator_type="Linear"
       sort_points="true"
       offset_points="0.014383376,-8.0539054"
       is_visible="true"
       id="path-effect4897"
       effect="powerstroke" />
    <inkscape:path-effect
       is_visible="true"
       id="path-effect4895"
       effect="spiro" />
    <inkscape:path-effect
       effect="powerstroke"
       id="path-effect4891"
       is_visible="true"
       offset_points="0.014383376,-8.0539054"
       sort_points="true"
       interpolator_type="Linear"
       interpolator_beta="0.2"
       start_linecap_type="zerowidth"
       linejoin_type="round"
       miter_limit="4"
       end_linecap_type="zerowidth"
       cusp_linecap_type="round" />
    <inkscape:path-effect
       effect="spiro"
       id="path-effect4889"
       is_visible="true" />
    <inkscape:path-effect
       cusp_linecap_type="round"
       end_linecap_type="zerowidth"
       miter_limit="4"
       linejoin_type="round"
       start_linecap_type="zerowidth"
       interpolator_beta="0.2"
       interpolator_type="Linear"
       sort_points="true"
       offset_points="0.014383376,-8.0539054"
       is_visible="true"
       id="path-effect4885"
       effect="powerstroke" />
    <inkscape:path-effect
       is_visible="true"
       id="path-effect4883"
       effect="spiro" />
    <inkscape:path-effect
       effect="powerstroke"
       id="path-effect4879"
       is_visible="true"
       offset_points="0.014383376,-8.0539054"
       sort_points="true"
       interpolator_type="Linear"
       interpolator_beta="0.2"
       start_linecap_type="zerowidth"
       linejoin_type="round"
       miter_limit="4"
       end_linecap_type="zerowidth"
       cusp_linecap_type="round" />
    <inkscape:path-effect
       effect="spiro"
       id="path-effect4877"
       is_visible="true" />
    <inkscape:path-effect
       cusp_linecap_type="round"
       end_linecap_type="zerowidth"
       miter_limit="4"
       linejoin_type="round"
       start_linecap_type="zerowidth"
       interpolator_beta="0.2"
       interpolator_type="Linear"
       sort_points="true"
       offset_points="0.014383376,-8.0539054"
       is_visible="true"
       id="path-effect4873"
       effect="powerstroke" />
    <inkscape:path-effect
       is_visible="true"
       id="path-effect4871"
       effect="spiro" />
    <inkscape:path-effect
       effect="powerstroke"
       id="path-effect4867"
       is_visible="true"
       offset_points="0.014383376,-8.0539054"
       sort_points="true"
       interpolator_type="Linear"
       interpolator_beta="0.2"
       start_linecap_type="zerowidth"
       linejoin_type="round"
       miter_limit="4"
       end_linecap_type="zerowidth"
       cusp_linecap_type="round" />
    <inkscape:path-effect
       effect="spiro"
       id="path-effect4865"
       is_visible="true" />
    <inkscape:path-effect
       effect="powerstroke"
       id="path-effect4843"
       is_visible="true"
       offset_points="7.5465705,-11.494623"
       sort_points="true"
       interpolator_type="Linear"
       interpolator_beta="0.2"
       start_linecap_type="zerowidth"
       linejoin_type="round"
       miter_limit="4"
       end_linecap_type="zerowidth"
       cusp_linecap_type="round" />
    <inkscape:path-effect
       effect="spiro"
       id="path-effect4841"
       is_visible="true" />
    <inkscape:path-effect
       effect="powerstroke"
       id="path-effect4837"
       is_visible="true"
       offset_points="0,10.768235"
       sort_points="true"
       interpolator_type="Linear"
       interpolator_beta="0.2"
       start_linecap_type="zerowidth"
       linejoin_type="round"
       miter_limit="4"
       end_linecap_type="zerowidth"
       cusp_linecap_type="round" />
    <inkscape:path-effect
       effect="spiro"
       id="path-effect4835"
       is_visible="true" />
    <inkscape:path-effect
       cusp_linecap_type="round"
       end_linecap_type="zerowidth"
       miter_limit="4"
       linejoin_type="round"
       start_linecap_type="zerowidth"
       interpolator_beta="0.2"
       interpolator_type="Linear"
       sort_points="true"
       offset_points="0,26.73564"
       is_visible="true"
       id="path-effect4750"
       effect="powerstroke" />
    <inkscape:path-effect
       is_visible="true"
       id="path-effect4748"
       effect="spiro" />
    <inkscape:path-effect
       effect="powerstroke"
       id="path-effect4725"
       is_visible="true"
       offset_points="0,26.73564"
       sort_points="true"
       interpolator_type="Linear"
       interpolator_beta="0.2"
       start_linecap_type="zerowidth"
       linejoin_type="round"
       miter_limit="4"
       end_linecap_type="zerowidth"
       cusp_linecap_type="round" />
    <inkscape:path-effect
       effect="spiro"
       id="path-effect4723"
       is_visible="true" />
    <inkscape:path-effect
       cusp_linecap_type="round"
       end_linecap_type="zerowidth"
       miter_limit="4"
       linejoin_type="round"
       start_linecap_type="zerowidth"
       interpolator_beta="0.2"
       interpolator_type="Linear"
       sort_points="true"
       offset_points="0,26.73564"
       is_visible="true"
       id="path-effect4700"
       effect="powerstroke" />
    <inkscape:path-effect
       is_visible="true"
       id="path-effect4698"
       effect="spiro" />
    <inkscape:path-effect
       effect="powerstroke"
       id="path-effect4675"
       is_visible="true"
       offset_points="0,26.73564"
       sort_points="true"
       interpolator_type="Linear"
       interpolator_beta="0.2"
       start_linecap_type="zerowidth"
       linejoin_type="round"
       miter_limit="4"
       end_linecap_type="zerowidth"
       cusp_linecap_type="round" />
    <inkscape:path-effect
       effect="spiro"
       id="path-effect4673"
       is_visible="true" />
    <inkscape:path-effect
       cusp_linecap_type="round"
       end_linecap_type="zerowidth"
       miter_limit="4"
       linejoin_type="round"
       start_linecap_type="zerowidth"
       interpolator_beta="0.2"
       interpolator_type="Linear"
       sort_points="true"
       offset_points="0,26.73564"
       is_visible="true"
       id="path-effect4650"
       effect="powerstroke" />
    <inkscape:path-effect
       is_visible="true"
       id="path-effect4648"
       effect="spiro" />
    <inkscape:path-effect
       effect="powerstroke"
       id="path-effect4625"
       is_visible="true"
       offset_points="0,26.73564"
       sort_points="true"
       interpolator_type="Linear"
       interpolator_beta="0.2"
       start_linecap_type="zerowidth"
       linejoin_type="round"
       miter_limit="4"
       end_linecap_type="zerowidth"
       cusp_linecap_type="round" />
    <inkscape:path-effect
       effect="spiro"
       id="path-effect4623"
       is_visible="true" />
    <inkscape:path-effect
       cusp_linecap_type="round"
       end_linecap_type="zerowidth"
       miter_limit="4"
       linejoin_type="round"
       start_linecap_type="zerowidth"
       interpolator_beta="0.2"
       interpolator_type="Linear"
       sort_points="true"
       offset_points="0,26.73564"
       is_visible="true"
       id="path-effect4600"
       effect="powerstroke" />
    <inkscape:path-effect
       is_visible="true"
       id="path-effect4598"
       effect="spiro" />
    <inkscape:path-effect
       effect="powerstroke"
       id="path-effect4388"
       is_visible="true"
       offset_points="0,26.73564"
       sort_points="true"
       interpolator_type="Linear"
       interpolator_beta="0.2"
       start_linecap_type="zerowidth"
       linejoin_type="round"
       miter_limit="4"
       end_linecap_type="zerowidth"
       cusp_linecap_type="round" />
    <inkscape:path-effect
       effect="spiro"
       id="path-effect4386"
       is_visible="true" />
    <inkscape:path-effect
       cusp_linecap_type="round"
       end_linecap_type="zerowidth"
       miter_limit="4"
       linejoin_type="round"
       start_linecap_type="zerowidth"
       interpolator_beta="0.2"
       interpolator_type="Linear"
       sort_points="true"
       offset_points="0.875902,5.4175215"
       is_visible="true"
       id="path-effect4382"
       effect="powerstroke" />
    <inkscape:path-effect
       is_visible="true"
       id="path-effect4380"
       effect="spiro" />
    <inkscape:path-effect
       cusp_linecap_type="round"
       end_linecap_type="zerowidth"
       miter_limit="4"
       linejoin_type="round"
       start_linecap_type="zerowidth"
       interpolator_beta="0.2"
       interpolator_type="Linear"
       sort_points="true"
       offset_points="0.875902,5.4175215"
       is_visible="true"
       id="path-effect4376"
       effect="powerstroke" />
    <inkscape:path-effect
       is_visible="true"
       id="path-effect4374"
       effect="spiro" />
    <inkscape:path-effect
       cusp_linecap_type="round"
       end_linecap_type="zerowidth"
       miter_limit="4"
       linejoin_type="round"
       start_linecap_type="zerowidth"
       interpolator_beta="0.2"
       interpolator_type="Linear"
       sort_points="true"
       offset_points="0.875902,5.4175216"
       is_visible="true"
       id="path-effect4370"
       effect="powerstroke" />
    <inkscape:path-effect
       is_visible="true"
       id="path-effect4368"
       effect="spiro" />
    <inkscape:path-effect
       cusp_linecap_type="round"
       end_linecap_type="zerowidth"
       miter_limit="4"
       linejoin_type="round"
       start_linecap_type="zerowidth"
       interpolator_beta="0.2"
       interpolator_type="Linear"
       sort_points="true"
       offset_points="0.875902,5.4175215"
       is_visible="true"
       id="path-effect4364"
       effect="powerstroke" />
    <inkscape:path-effect
       is_visible="true"
       id="path-effect4362"
       effect="spiro" />
    <inkscape:path-effect
       cusp_linecap_type="round"
       end_linecap_type="zerowidth"
       miter_limit="4"
       linejoin_type="round"
       start_linecap_type="zerowidth"
       interpolator_beta="0.2"
       interpolator_type="Linear"
       sort_points="true"
       offset_points="0.875902,5.4175216"
       is_visible="true"
       id="path-effect4358"
       effect="powerstroke" />
    <inkscape:path-effect
       is_visible="true"
       id="path-effect4356"
       effect="spiro" />
    <inkscape:path-effect
       cusp_linecap_type="round"
       end_linecap_type="zerowidth"
       miter_limit="4"
       linejoin_type="round"
       start_linecap_type="zerowidth"
       interpolator_beta="0.2"
       interpolator_type="Linear"
       sort_points="true"
       offset_points="0.875902,5.4175215"
       is_visible="true"
       id="path-effect4352"
       effect="powerstroke" />
    <inkscape:path-effect
       is_visible="true"
       id="path-effect4350"
       effect="spiro" />
    <inkscape:path-effect
       cusp_linecap_type="round"
       end_linecap_type="zerowidth"
       miter_limit="4"
       linejoin_type="round"
       start_linecap_type="zerowidth"
       interpolator_beta="0.2"
       interpolator_type="Linear"
       sort_points="true"
       offset_points="0.875902,5.4175216"
       is_visible="true"
       id="path-effect4346"
       effect="powerstroke" />
    <inkscape:path-effect
       is_visible="true"
       id="path-effect4344"
       effect="spiro" />
    <inkscape:path-effect
       effect="powerstroke"
       id="path-effect4324"
       is_visible="true"
       offset_points="0.875902,11.181675"
       sort_points="true"
       interpolator_type="Linear"
       interpolator_beta="0.2"
       start_linecap_type="zerowidth"
       linejoin_type="round"
       miter_limit="4"
       end_linecap_type="zerowidth"
       cusp_linecap_type="round" />
    <inkscape:path-effect
       effect="spiro"
       id="path-effect4322"
       is_visible="true" />
    <inkscape:path-effect
       effect="powerstroke"
       id="path-effect4318"
       is_visible="true"
       offset_points="2.5546601,-25.620782"
       sort_points="true"
       interpolator_type="Linear"
       interpolator_beta="0.2"
       start_linecap_type="zerowidth"
       linejoin_type="round"
       miter_limit="4"
       end_linecap_type="zerowidth"
       cusp_linecap_type="round" />
    <inkscape:path-effect
       effect="spiro"
       id="path-effect4316"
       is_visible="true" />
    <inkscape:path-effect
       effect="powerstroke"
       id="path-effect4258"
       is_visible="true"
       offset_points="0,0.5"
       sort_points="true"
       interpolator_type="CubicBezierJohan"
       interpolator_beta="0.2"
       start_linecap_type="zerowidth"
       linejoin_type="round"
       miter_limit="4"
       end_linecap_type="zerowidth"
       cusp_linecap_type="round" />
    <inkscape:path-effect
       effect="spiro"
       id="path-effect4256"
       is_visible="true" />
    <inkscape:path-effect
       effect="powerstroke"
       id="path-effect4252"
       is_visible="true"
       offset_points="0,0.5"
       sort_points="true"
       interpolator_type="CubicBezierJohan"
       interpolator_beta="0.2"
       start_linecap_type="zerowidth"
       linejoin_type="round"
       miter_limit="4"
       end_linecap_type="zerowidth"
       cusp_linecap_type="round" />
    <inkscape:path-effect
       effect="spiro"
       id="path-effect4250"
       is_visible="true" />
    <inkscape:path-effect
       cusp_linecap_type="round"
       end_linecap_type="zerowidth"
       miter_limit="4"
       linejoin_type="round"
       start_linecap_type="zerowidth"
       interpolator_beta="0.2"
       interpolator_type="Linear"
       sort_points="true"
       offset_points="0.02412003,-14.629023"
       is_visible="true"
       id="path-effect4215"
       effect="powerstroke" />
    <inkscape:path-effect
       is_visible="true"
       id="path-effect4213"
       effect="spiro" />
    <inkscape:path-effect
       effect="powerstroke"
       id="path-effect4190"
       is_visible="true"
       offset_points="0.02412003,-14.629023"
       sort_points="true"
       interpolator_type="Linear"
       interpolator_beta="0.2"
       start_linecap_type="zerowidth"
       linejoin_type="round"
       miter_limit="4"
       end_linecap_type="zerowidth"
       cusp_linecap_type="round" />
    <inkscape:path-effect
       effect="spiro"
       id="path-effect4188"
       is_visible="true" />
    <inkscape:path-effect
       cusp_linecap_type="round"
       end_linecap_type="zerowidth"
       miter_limit="4"
       linejoin_type="round"
       start_linecap_type="zerowidth"
       interpolator_beta="0.2"
       interpolator_type="Linear"
       sort_points="true"
       offset_points="0.02412003,-14.629023"
       is_visible="true"
       id="path-effect4165"
       effect="powerstroke" />
    <inkscape:path-effect
       is_visible="true"
       id="path-effect4163"
       effect="spiro" />
    <inkscape:path-effect
       effect="powerstroke"
       id="path-effect4140"
       is_visible="true"
       offset_points="0.02412003,-14.629023"
       sort_points="true"
       interpolator_type="Linear"
       interpolator_beta="0.2"
       start_linecap_type="zerowidth"
       linejoin_type="round"
       miter_limit="4"
       end_linecap_type="zerowidth"
       cusp_linecap_type="round" />
    <inkscape:path-effect
       effect="spiro"
       id="path-effect4138"
       is_visible="true" />
    <inkscape:path-effect
       effect="spiro"
       id="path-effect4138-9"
       is_visible="true" />
    <inkscape:path-effect
       effect="powerstroke"
       id="path-effect4140-0"
       is_visible="true"
       offset_points="0.02412003,-14.629023"
       sort_points="true"
       interpolator_type="Linear"
       interpolator_beta="0.2"
       start_linecap_type="zerowidth"
       linejoin_type="round"
       miter_limit="4"
       end_linecap_type="zerowidth"
       cusp_linecap_type="round" />
    <inkscape:path-effect
       is_visible="true"
       id="path-effect4163-7"
       effect="spiro" />
    <inkscape:path-effect
       cusp_linecap_type="round"
       end_linecap_type="zerowidth"
       miter_limit="4"
       linejoin_type="round"
       start_linecap_type="zerowidth"
       interpolator_beta="0.2"
       interpolator_type="Linear"
       sort_points="true"
       offset_points="0.02412003,-14.629023"
       is_visible="true"
       id="path-effect4165-9"
       effect="powerstroke" />
    <inkscape:path-effect
       effect="spiro"
       id="path-effect4188-2"
       is_visible="true" />
    <inkscape:path-effect
       effect="powerstroke"
       id="path-effect4190-4"
       is_visible="true"
       offset_points="0.02412003,-14.629023"
       sort_points="true"
       interpolator_type="Linear"
       interpolator_beta="0.2"
       start_linecap_type="zerowidth"
       linejoin_type="round"
       miter_limit="4"
       end_linecap_type="zerowidth"
       cusp_linecap_type="round" />
    <inkscape:path-effect
       effect="spiro"
       id="path-effect4386-2"
       is_visible="true" />
    <inkscape:path-effect
       effect="powerstroke"
       id="path-effect4388-3"
       is_visible="true"
       offset_points="0,26.73564"
       sort_points="true"
       interpolator_type="Linear"
       interpolator_beta="0.2"
       start_linecap_type="zerowidth"
       linejoin_type="round"
       miter_limit="4"
       end_linecap_type="zerowidth"
       cusp_linecap_type="round" />
    <inkscape:path-effect
       is_visible="true"
       id="path-effect4598-7"
       effect="spiro" />
    <inkscape:path-effect
       cusp_linecap_type="round"
       end_linecap_type="zerowidth"
       miter_limit="4"
       linejoin_type="round"
       start_linecap_type="zerowidth"
       interpolator_beta="0.2"
       interpolator_type="Linear"
       sort_points="true"
       offset_points="0,26.73564"
       is_visible="true"
       id="path-effect4600-3"
       effect="powerstroke" />
    <inkscape:path-effect
       effect="spiro"
       id="path-effect4623-3"
       is_visible="true" />
    <inkscape:path-effect
       effect="powerstroke"
       id="path-effect4625-8"
       is_visible="true"
       offset_points="0,26.73564"
       sort_points="true"
       interpolator_type="Linear"
       interpolator_beta="0.2"
       start_linecap_type="zerowidth"
       linejoin_type="round"
       miter_limit="4"
       end_linecap_type="zerowidth"
       cusp_linecap_type="round" />
    <inkscape:path-effect
       is_visible="true"
       id="path-effect4648-8"
       effect="spiro" />
    <inkscape:path-effect
       cusp_linecap_type="round"
       end_linecap_type="zerowidth"
       miter_limit="4"
       linejoin_type="round"
       start_linecap_type="zerowidth"
       interpolator_beta="0.2"
       interpolator_type="Linear"
       sort_points="true"
       offset_points="0,26.73564"
       is_visible="true"
       id="path-effect4650-5"
       effect="powerstroke" />
    <inkscape:path-effect
       effect="spiro"
       id="path-effect4673-0"
       is_visible="true" />
    <inkscape:path-effect
       effect="powerstroke"
       id="path-effect4675-9"
       is_visible="true"
       offset_points="0,26.73564"
       sort_points="true"
       interpolator_type="Linear"
       interpolator_beta="0.2"
       start_linecap_type="zerowidth"
       linejoin_type="round"
       miter_limit="4"
       end_linecap_type="zerowidth"
       cusp_linecap_type="round" />
    <inkscape:path-effect
       is_visible="true"
       id="path-effect4698-8"
       effect="spiro" />
    <inkscape:path-effect
       cusp_linecap_type="round"
       end_linecap_type="zerowidth"
       miter_limit="4"
       linejoin_type="round"
       start_linecap_type="zerowidth"
       interpolator_beta="0.2"
       interpolator_type="Linear"
       sort_points="true"
       offset_points="0,26.73564"
       is_visible="true"
       id="path-effect4700-3"
       effect="powerstroke" />
    <inkscape:path-effect
       effect="spiro"
       id="path-effect4723-6"
       is_visible="true" />
    <inkscape:path-effect
       effect="powerstroke"
       id="path-effect4725-9"
       is_visible="true"
       offset_points="0,26.73564"
       sort_points="true"
       interpolator_type="Linear"
       interpolator_beta="0.2"
       start_linecap_type="zerowidth"
       linejoin_type="round"
       miter_limit="4"
       end_linecap_type="zerowidth"
       cusp_linecap_type="round" />
  </defs>
  <sodipodi:namedview
     id="base"
     pagecolor="#ffffff"
     bordercolor="#666666"
     borderopacity="1.0"
     inkscape:pageopacity="0.0"
     inkscape:pageshadow="2"
     inkscape:zoom="0.96717865"
     inkscape:cx="-60.726043"
     inkscape:cy="702.55818"
     inkscape:document-units="px"
     inkscape:current-layer="layer2"
     showgrid="false"
     showguides="true"
     inkscape:guide-bbox="true"
     inkscape:window-width="1440"
     inkscape:window-height="785"
     inkscape:window-x="0"
     inkscape:window-y="1"
     inkscape:window-maximized="1" />
  <metadata
     id="metadata7">
    <rdf:RDF>
      <cc:Work
         rdf:about="">
        <dc:format>image/svg+xml</dc:format>
        <dc:type
           rdf:resource="http://purl.org/dc/dcmitype/StillImage" />
        <dc:title></dc:title>
      </cc:Work>
    </rdf:RDF>
  </metadata>
  <g
     inkscape:label="Hvit bakgrunn"
     inkscape:groupmode="layer"
     id="layer1"
     sodipodi:insensitive="true"
     style="display:inline">
    <ellipse
       style="opacity:1;fill:#ffffff;fill-opacity:1;stroke:#000000;stroke-width:0.26929134;stroke-linecap:round;stroke-linejoin:round;stroke-miterlimit:4;stroke-dasharray:none;stroke-opacity:1"
       id="path4943"
       cx="372.36862"
       cy="381.76645"
       rx="337.43243"
       ry="329.18512" />
  </g>
  <g
     inkscape:groupmode="layer"
     id="layer2"
     inkscape:label="Svart"
     style="display:inline"
     sodipodi:insensitive="true">
    <path
       inkscape:connector-curvature="0"
       style="opacity:1;fill:#000000;fill-rule:evenodd;stroke:none;stroke-width:1px;stroke-linecap:butt;stroke-linejoin:miter;stroke-opacity:1"
       d="m 425.47409,80.280711 c -14.51719,0.205548 -29.21644,3.216998 -42.53516,9.86914 -16.395,8.185299 -30.4152,22.060779 -37.27344,39.535159 -0.30002,0.8048 -0.57933,1.61774 -0.84765,2.43359 -1.69081,-2.32108 -3.48692,-4.55563 -5.40039,-6.66797 -11.92076,-13.15682 -27.73668,-21.94797 -44.26563,-25.880857 -16.54045,-3.934169 -33.71064,-3.064347 -49.38281,1.498047 -15.67847,4.56525 -29.8795,12.7768 -41.75,23.10156 -13.39787,11.57865 -24.57903,26.53763 -30.38086,43.91797 -5.80513,17.3809 -5.90712,37.10673 1.59961,54.3125 0.35704,0.78148 0.73575,1.55345 1.12305,2.32031 -2.8374,-0.44582 -5.68791,-0.75584 -8.53516,-0.89648 -17.73253,-0.87402 -35.13091,4.09323 -49.59961,13 -14.47774,8.91398 -26.005526,21.67052 -33.861326,35.97852 -7.85823,14.31447 -12.092539,30.16301 -13.185547,45.85742 -1.286378,17.66107 1.385016,36.14484 9.572266,52.53711 8.185297,16.39501 22.062727,30.41519 39.537107,37.27343 0.80533,0.30022 1.6172,0.57723 2.4336,0.84571 -2.32188,1.69126 -4.55692,3.48631 -6.66993,5.40039 -13.15682,11.92077 -21.946021,27.73863 -25.878902,44.26758 -3.934168,16.54045 -3.066302,33.71064 1.496093,49.38281 4.565251,15.67847 12.776809,29.8795 23.101559,41.75 11.57866,13.39787 26.53958,24.57709 43.91992,30.37891 17.38089,5.80514 37.10673,5.90712 54.3125,-1.59961 0.78127,-0.35695 1.5517,-0.73392 2.31836,-1.1211 -0.44582,2.8374 -0.75584,5.68596 -0.89648,8.53321 -0.87402,17.73254 4.09518,35.13286 13.00195,49.60156 8.91399,14.47774 21.66856,26.00357 35.97656,33.85937 14.31447,7.85823 30.16302,12.09449 45.85743,13.1875 17.66108,1.28638 36.14484,-1.38697 52.53711,-9.57422 16.39501,-8.1853 30.41519,-22.06077 37.27343,-39.53515 0.30002,-0.8048 0.57933,-1.61774 0.84766,-2.4336 1.69092,2.32128 3.48677,4.55547 5.40039,6.66797 11.92077,13.15683 27.73667,21.94798 44.26562,25.88086 16.54046,3.93417 33.71065,3.06436 49.38282,-1.49804 15.67847,-4.56525 29.8795,-12.77485 41.75,-23.09961 13.39787,-11.57866 24.57904,-26.53959 30.38086,-43.91993 5.80514,-17.3809 5.90712,-37.10673 -1.59961,-54.3125 -0.35705,-0.78147 -0.73575,-1.55344 -1.12305,-2.32031 2.83744,0.44584 5.68787,0.75779 8.53516,0.89844 17.73254,0.87403 35.1309,-4.09518 49.59961,-13.00195 14.47774,-8.91398 26.00552,-21.67052 33.86132,-35.97852 7.85823,-14.31447 12.09254,-30.16106 13.18555,-45.85547 1.28637,-17.66107 -1.38501,-36.14484 -9.57226,-52.53711 -8.18529,-16.395 -22.06274,-30.4152 -39.53711,-37.27343 -0.80533,-0.30022 -1.6172,-0.57918 -2.4336,-0.84766 2.32188,-1.69127 4.55692,-3.48631 6.66992,-5.40039 13.15682,-11.92077 21.94603,-27.73668 25.87891,-44.26563 3.93417,-16.54045 3.0663,-33.71063 -1.49609,-49.38281 -4.56525,-15.67847 -12.77681,-29.8795 -23.10157,-41.75 -11.57866,-13.39787 -26.53957,-24.57903 -43.91992,-30.38086 -17.3809,-5.80514 -37.10673,-5.90713 -54.3125,1.59961 -0.78133,0.35698 -1.55162,0.73583 -2.31836,1.12305 0.44583,-2.8374 0.75584,-5.68791 0.89649,-8.53516 0.87402,-17.73254 -4.09519,-35.13091 -13.00196,-49.59961 -8.91398,-14.47774 -21.66856,-26.00553 -35.97656,-33.861327 -14.31446,-7.858231 -30.16301,-12.094492 -45.85742,-13.1875 -3.31145,-0.241196 -6.65183,-0.342356 -10.00195,-0.294922 z m -2.87696,26.160159 c 3.4171,0.0446 6.8508,0.29635 10.26954,0.74414 12.17667,1.64386 23.75873,5.67839 33.61718,11.96289 9.86291,6.28899 17.93707,14.8273 23.07617,24.57617 5.14166,9.75848 7.30036,20.72278 6.0918,30.92188 -1.2136,10.21265 -5.83377,19.66846 -12.64648,26.20312 -6.96701,6.70001 -16.97287,11.39703 -29.10547,14.90625 -28.36649,8.21502 -9.51104,1.06398 -41.11719,10.01758 -14.84203,4.19615 -30.14093,10.34545 -44.16992,19.70898 -14.03078,9.36739 -27.0257,22.20667 -35.79102,38.49219 -7.04822,13.34688 -10.80057,28.34186 -11.10937,43.4668 -0.24641,-0.59655 -0.49207,-1.19416 -0.71289,-1.80078 -3.31659,-8.70956 -4.27297,-19.02502 -2.86328,-29.87305 1.41341,-10.84931 5.09738,-21.90922 10.42578,-33.08594 -1.82567,3.82163 20.25853,-38.70512 19.86523,-37.86914 4.37279,-9.28951 8.40019,-19.91737 10.41211,-31.36719 6.90685,6.47269 15.55889,10.98789 24.77149,12.69141 10.50088,1.94282 21.55275,0.13563 30.59765,-5.16797 11.00364,-6.34194 18.62968,-17.76759 20.16016,-30 1.53436,-12.25832 -3.17376,-24.86853 -12.07422,-32.82422 -5.90939,-5.0733 -13.35574,-8.05488 -20.83203,-8.54101 -7.4843,-0.48665 -14.94373,1.52622 -20.9707,5.47265 6.47485,-3.17593 13.84552,-4.11872 20.63867,-2.82031 6.80046,1.29981 13.0013,4.83134 17.45507,9.74024 7.00226,7.36518 9.86371,18.14553 7.86524,27.68945 -2.00196,9.56464 -8.74774,17.83045 -17.25586,21.83789 -7.0833,3.25327 -15.3093,3.70877 -22.60938,1.58203 -7.30538,-2.12672 -13.78473,-6.79537 -18.24804,-12.79687 -4.46639,-6.0031 -7.0163,-13.3781 -7.44336,-20.7793 -0.4286,-7.40296 1.21468,-14.91618 4.49023,-21.5586 5.33658,-11.55102 15.66897,-20.85089 27.7793,-26.03906 9.08191,-3.89419 19.18231,-5.62392 29.43359,-5.49023 z m -154.33007,21.40625 c 6.41857,-0.008 12.72678,0.89694 18.64843,2.73047 10.53599,3.26458 19.81264,9.49215 26.16992,17.55859 6.3633,8.07957 9.78255,18.03268 9.58594,27.4707 -0.18879,9.66404 -3.94141,20.06066 -10.03906,31.1211 -14.24921,25.86697 -5.9725,7.47623 -21.99023,36.15625 -7.52778,13.46202 -13.9979,28.6289 -17.29688,45.16992 -3.29751,16.545 -3.40938,34.81371 1.9082,52.52734 4.45386,14.42162 12.40611,27.67651 22.88282,38.58985 -0.59617,-0.24763 -1.19214,-0.49668 -1.77735,-0.76953 -8.50377,-3.81341 -16.47453,-10.43013 -23.14844,-19.09766 -6.67219,-8.67105 -11.88804,-19.09669 -16.02343,-30.76758 1.41134,3.99321 -13.04347,-41.6934 -12.73047,-40.82422 -3.47672,-9.66088 -8.14651,-20.02393 -14.82031,-29.54297 9.46156,-0.3066 18.7727,-3.23086 26.49218,-8.54101 8.79903,-6.05146 15.33496,-15.1451 17.98047,-25.29102 3.29632,-12.26518 0.61037,-25.73692 -6.95703,-35.46875 -7.58299,-9.7529 -19.82895,-15.33992 -31.74805,-14.67187 -7.76594,0.59121 -15.13925,3.74861 -20.76953,8.6914 -5.63631,4.94809 -9.48782,11.64501 -10.95898,18.69727 2.3327,-6.82414 6.87801,-12.70252 12.59961,-16.58789 5.72775,-3.88954 12.60809,-5.7769 19.22851,-5.45508 10.15931,0.25663 19.80714,5.85783 25.14258,14.01953 5.34761,8.17882 6.42074,18.79274 3.23828,27.64258 -2.70824,7.30906 -8.20142,13.44542 -14.86718,17.10352 -6.66951,3.66187 -14.55145,4.94508 -21.95118,3.85742 -7.40305,-1.08662 -14.42161,-4.50017 -19.95703,-9.43164 -5.53775,-4.93162 -9.68762,-11.40686 -12.06836,-18.41992 -4.39428,-11.94133 -3.66424,-25.82281 1.23047,-38.05469 4.89102,-12.23399 13.78062,-23.0266 24.7168,-31.42969 9.7726,-7.44782 20.81568,-12.78338 32.23047,-15.31055 4.99674,-1.10562 10.0566,-1.66549 15.04883,-1.67187 z m 288.04101,73.68554 c 7.28539,-0.0528 14.68598,1.38346 21.56641,4.13672 12.23399,4.89103 23.02854,13.78062 31.43164,24.7168 7.44782,9.7726 12.78338,20.81568 15.31055,32.23047 2.52714,11.42113 2.201,23.16792 -1.0586,33.69531 -3.26459,10.53599 -9.49216,19.81461 -17.55859,26.17188 -8.07958,6.3633 -18.03464,9.78254 -27.47266,9.58593 -9.66404,-0.18879 -20.0587,-3.94141 -31.11914,-10.03906 -25.86704,-14.24925 -7.47811,-5.97246 -36.1582,-21.99023 -13.46202,-7.52778 -28.6289,-13.99985 -45.16992,-17.29883 -16.545,-3.29751 -34.81176,-3.40742 -52.52539,1.91016 -14.42177,4.4539 -27.67644,12.40594 -38.58985,22.88281 0.2476,-0.59611 0.49475,-1.19219 0.76758,-1.77735 3.81341,-8.50377 10.43013,-16.47648 19.09766,-23.15039 8.67105,-6.67219 19.09864,-11.88609 30.76953,-16.02148 -3.99332,1.41138 41.69351,-13.04546 40.82422,-12.73242 9.66064,-3.47663 20.02218,-8.14483 29.54101,-14.81836 0.3066,9.46156 3.23282,18.77271 8.54297,26.49219 6.05146,8.79903 15.14314,15.33495 25.28906,17.98046 12.26518,3.29631 25.73888,0.61037 35.47071,-6.95703 9.7529,-7.58299 15.33992,-19.82894 14.67187,-31.74804 -0.59121,-7.76594 -3.74862,-15.14121 -8.69141,-20.77149 -4.94809,-5.63631 -11.645,-9.48587 -18.69726,-10.95703 6.82414,2.3327 12.70252,6.87801 16.58789,12.59961 3.88954,5.72775 5.7769,12.6081 5.45508,19.22852 -0.25663,10.15931 -5.85783,19.80713 -14.01953,25.14257 -8.17882,5.34761 -18.79273,6.42075 -27.64258,3.23828 -7.30905,-2.70823 -13.44737,-8.20142 -17.10547,-14.86718 -3.66187,-6.6695 -4.94313,-14.55143 -3.85547,-21.95117 1.08661,-7.40305 4.50018,-14.42162 9.43164,-19.95704 4.93162,-5.53775 11.4049,-9.68957 18.41797,-12.07031 5.22434,-1.9225 10.82187,-2.86322 16.48828,-2.9043 z m -396.86523,56.62305 c 1.9531,-0.008 3.89235,0.10152 5.80468,0.32813 10.21266,1.21359 19.66847,5.83376 26.20313,12.64648 6.70002,6.967 11.39898,16.97286 14.9082,29.10547 8.21499,28.36637 1.06206,9.5092 10.01563,41.11523 4.19615,14.84203 10.34545,30.14289 19.70898,44.17188 9.36739,14.03078 22.20667,27.02569 38.49219,35.79102 13.34687,7.04821 28.34187,10.79862 43.4668,11.10742 -0.59641,0.24634 -1.19234,0.49211 -1.79883,0.71289 -8.70956,3.31659 -19.02501,4.27493 -29.87305,2.86523 -10.84931,-1.41341 -21.90921,-5.09933 -33.08594,-10.42773 3.82134,1.82554 -38.70677,-20.25645 -37.87109,-19.86328 -9.29002,-4.37303 -19.91861,-8.40031 -31.36914,-10.41211 6.47367,-6.90718 10.99163,-15.55802 12.69531,-24.77149 1.94281,-10.50088 0.13368,-21.55275 -5.16992,-30.59765 -6.34194,-11.00364 -17.76759,-18.62968 -30,-20.16016 -12.25832,-1.53436 -24.86852,3.17376 -32.82422,12.07422 -5.0733,5.90939 -8.05488,13.35575 -8.54101,20.83203 -0.48665,7.4843 1.52623,14.94178 5.47265,20.96875 -3.17592,-6.47486 -4.11872,-13.84357 -2.82031,-20.63672 1.29981,-6.80046 4.83133,-13.0013 9.74024,-17.45508 7.36518,-7.00225 18.14748,-9.8637 27.6914,-7.86523 9.56464,2.00197 17.8285,8.74774 21.83594,17.25586 3.25327,7.0833 3.70877,15.30735 1.58203,22.60742 -2.12672,7.30538 -6.79342,13.78474 -12.79492,18.24805 -6.00309,4.46639 -13.38004,7.01631 -20.78125,7.44336 -7.40296,0.42861 -14.91617,-1.21273 -21.55859,-4.48828 -11.55103,-5.33659 -20.8509,-15.66897 -26.03907,-27.7793 -5.192256,-12.10921 -6.537256,-26.0282 -4.746091,-39.70313 1.643863,-12.17667 5.678391,-23.75873 11.962891,-33.61718 6.289,-9.86292 14.8273,-17.93902 24.57617,-23.07813 7.92877,-4.1776 16.65375,-6.38526 25.11719,-6.41797 z m 288.94336,68.75 c 3.25326,-0.0216 6.59046,0.18643 9.98047,0.62695 10.84931,1.41341 21.90921,5.09934 33.08593,10.42774 -3.8217,-1.82571 38.70714,20.25856 37.8711,19.86523 9.2895,4.37279 19.91738,8.39824 31.36718,10.41016 -6.47365,6.90717 -10.98968,15.55804 -12.69336,24.77148 -1.94281,10.50088 -0.13367,21.55276 5.16993,30.59766 6.34194,11.00363 17.76759,18.63163 30,20.16211 12.25831,1.53436 24.86852,-3.17377 32.82422,-12.07422 5.0733,-5.90939 8.05488,-13.35575 8.54101,-20.83203 0.48665,-7.4843 -1.52623,-14.94373 -5.47266,-20.9707 3.17593,6.47486 4.11873,13.84552 2.82032,20.63867 -1.29981,6.80046 -4.83133,12.99934 -9.74024,17.45312 -7.36518,7.00225 -18.14749,9.86566 -27.6914,7.86719 -9.56463,-2.00196 -17.82849,-8.7497 -21.83594,-17.25781 -3.25327,-7.0833 -3.70877,-15.30735 -1.58203,-22.60742 2.12671,-7.30539 6.79343,-13.78474 12.79492,-18.24805 6.0031,-4.46639 13.38004,-7.0163 20.78125,-7.44336 7.40296,-0.4286 14.91616,1.21468 21.55859,4.49023 11.55102,5.33659 20.85091,15.66898 26.03907,27.7793 5.19226,12.10922 6.53725,26.0282 4.74609,39.70313 -1.64386,12.17668 -5.67839,23.75677 -11.96289,33.61523 -6.28899,9.86292 -14.8273,17.93902 -24.57617,23.07813 -9.75848,5.14166 -20.72278,7.29839 -30.92188,6.08984 -10.21266,-1.2136 -19.66846,-5.83377 -26.20312,-12.64648 -6.70001,-6.96701 -11.39899,-16.97092 -14.90821,-29.10352 -8.21492,-28.36617 -1.06211,-9.51136 -10.01562,-41.11719 -4.19614,-14.84203 -10.34545,-30.14287 -19.70899,-44.17187 -9.36739,-14.03078 -22.20666,-27.0257 -38.49218,-35.79102 -13.34688,-7.04822 -28.34187,-10.79862 -43.4668,-11.10742 0.59641,-0.24635 1.19234,-0.49211 1.79883,-0.71289 5.98782,-2.28016 12.7354,-3.44465 19.89258,-3.49219 z m -1.78321,57.45703 c 0.59555,0.2474 1.19078,0.49501 1.77539,0.76758 8.50377,3.81341 16.47452,10.43013 23.14844,19.09766 6.67218,8.67105 11.88805,19.09669 16.02344,30.76758 -1.41127,-3.993 13.04339,41.69515 12.73047,40.82617 3.47657,9.6605 8.14498,20.02229 14.81836,29.54101 -9.46089,0.30694 -18.77128,3.23123 -26.49024,8.54102 -8.79903,6.05147 -15.33497,15.14509 -17.98047,25.29101 -3.29631,12.26518 -0.61037,25.73692 6.95703,35.46875 7.58299,9.75289 19.82896,15.34188 31.74805,14.67383 7.76595,-0.5912 15.13926,-3.74862 20.76953,-8.6914 5.63632,-4.94809 9.48782,-11.64696 10.95899,-18.69922 -2.3327,6.82414 -6.87801,12.70253 -12.59961,16.58789 -5.72775,3.88955 -12.61006,5.77691 -19.23047,5.45508 -10.15931,-0.25663 -19.8052,-5.85588 -25.14063,-14.01758 -5.34762,-8.17882 -6.42074,-18.79274 -3.23828,-27.64258 2.70823,-7.30905 8.20143,-13.44737 14.86719,-17.10547 6.6695,-3.66187 14.55143,-4.94314 21.95117,-3.85547 7.40305,1.08661 14.42161,4.49822 19.95703,9.42969 5.53775,4.93162 9.68762,11.40685 12.06836,18.41992 4.39428,11.94133 3.66424,25.82281 -1.23047,38.05469 -4.89102,12.23398 -13.78061,23.02855 -24.71679,31.43164 -9.7726,7.44782 -20.81568,12.78338 -32.23047,15.31055 -11.42113,2.52714 -23.16989,2.19905 -33.69727,-1.06055 -10.536,-3.26458 -19.81265,-9.49021 -26.16992,-17.55664 -6.36331,-8.07958 -9.78255,-18.03464 -9.58594,-27.47266 0.18879,-9.66404 3.94141,-20.05869 10.03907,-31.11914 14.24916,-25.86688 5.97254,-7.47826 21.99023,-36.1582 7.52778,-13.46202 13.9979,-28.6289 17.29688,-45.16992 3.29751,-16.54501 3.40937,-34.81176 -1.90821,-52.52539 -4.45358,-14.42074 -12.4051,-27.67688 -22.88086,-38.58985 z m -280.39258,47.09961 c 9.66404,0.18879 20.05871,3.94142 31.11915,10.03907 25.86669,14.24905 7.47846,5.97461 36.1582,21.99218 13.46202,7.52778 28.62695,13.99791 45.16797,17.29688 16.545,3.29752 34.81372,3.40742 52.52734,-1.91016 14.42162,-4.45385 27.6765,-12.40415 38.58984,-22.88086 -0.24744,0.59569 -0.49494,1.19261 -0.76757,1.77735 -3.81341,8.50377 -10.43014,16.47452 -19.09766,23.14843 -8.67105,6.67219 -19.09864,11.8861 -30.76953,16.02149 3.99301,-1.41127 -41.69321,13.04535 -40.82422,12.73242 -9.66051,3.47658 -20.02229,8.14498 -29.54102,14.81836 -0.30661,-9.46153 -3.23283,-18.77077 -8.54296,-26.49024 -6.05147,-8.79903 -15.14315,-15.33691 -25.28907,-17.98242 -12.26518,-3.29631 -25.73887,-0.60842 -35.4707,6.95899 -9.7529,7.58298 -15.33992,19.82894 -14.67187,31.74804 0.59121,7.76593 3.74861,15.13925 8.6914,20.76954 4.94808,5.6363 11.64501,9.48586 18.69727,10.95703 -6.82414,-2.3327 -12.70253,-6.87607 -16.58789,-12.59766 -3.88954,-5.72775 -5.7769,-12.61006 -5.45508,-19.23047 0.25663,-10.15931 5.85783,-19.80715 14.01953,-25.14258 8.17882,-5.34762 18.79274,-6.42074 27.64258,-3.23828 7.30905,2.70824 13.44738,8.20143 17.10547,14.86719 3.66188,6.6695 4.94313,14.55143 3.85547,21.95117 -1.08662,7.40305 -4.50017,14.42161 -9.43165,19.95703 -4.93162,5.53775 -11.40685,9.68957 -18.41992,12.07031 -11.94133,4.39428 -25.82085,3.66425 -38.05273,-1.23046 -12.23398,-4.89102 -23.02855,-13.78062 -31.43164,-24.7168 -7.44782,-9.7726 -12.78338,-20.81568 -15.31055,-32.23047 -2.52714,-11.42113 -2.201,-23.16988 1.0586,-33.69727 3.26458,-10.53599 9.49215,-19.8146 17.55859,-26.17187 8.07957,-6.3633 18.03463,-9.78255 27.47265,-9.58594 z m 256.81446,4.62891 c 0.24641,0.59654 0.49206,1.19415 0.71289,1.80078 3.31659,8.70956 4.27298,19.02501 2.86328,29.87305 -1.41341,10.8493 -5.09738,21.9092 -10.42578,33.08593 1.82563,-3.82154 -20.25851,38.70503 -19.86524,37.86914 -4.37268,9.28928 -8.40013,19.91771 -10.41211,31.36719 -6.90684,-6.47266 -15.55891,-10.9879 -24.77148,-12.6914 -10.50088,-1.94282 -21.55276,-0.13563 -30.59766,5.16797 -11.00364,6.34194 -18.62968,17.76955 -20.16015,30.00195 -1.53436,12.25832 3.17376,24.86853 12.07422,32.82422 5.90939,5.0733 13.35574,8.05489 20.83203,8.54101 7.4843,0.48666 14.94373,-1.52819 20.9707,-5.47461 -6.47486,3.17592 -13.84552,4.11873 -20.63867,2.82032 -6.80045,-1.29981 -13.0013,-4.82939 -17.45508,-9.73829 -7.00225,-7.36518 -9.86369,-18.14748 -7.86523,-27.6914 2.00197,-9.56463 8.74775,-17.82849 17.25586,-21.83594 7.0833,-3.25327 15.3093,-3.70877 22.60937,-1.58203 7.30539,2.12672 13.78474,6.79342 18.24805,12.79492 4.4664,6.00309 7.01434,13.37809 7.4414,20.7793 0.42861,7.40296 -1.21273,14.91812 -4.48828,21.56055 -5.33658,11.55101 -15.66896,20.84894 -27.77929,26.0371 -12.10921,5.19226 -26.0282,6.53921 -39.70313,4.74805 -12.17667,-1.64386 -23.75874,-5.68034 -33.61719,-11.96484 -9.86292,-6.289 -17.93707,-14.8273 -23.07617,-24.57617 -5.14166,-9.75848 -7.30036,-20.72082 -6.0918,-30.91993 1.2136,-10.21265 5.83377,-19.67041 12.64649,-26.20507 6.967,-6.70002 16.97286,-11.39703 29.10547,-14.90625 28.36617,-8.21493 9.51135,-1.06406 41.11719,-10.01758 14.84203,-4.19615 30.14093,-10.34349 44.16992,-19.70703 14.03079,-9.36739 27.02569,-22.20667 35.79101,-38.49219 7.04842,-13.34726 10.80077,-28.34338 11.10938,-43.46875 z"
       id="path4384" />
    <circle
       style="opacity:1;fill:#000000;fill-opacity:1;stroke:none;stroke-width:0.26929134;stroke-linecap:round;stroke-linejoin:round;stroke-miterlimit:4;stroke-dasharray:none;stroke-opacity:1"
       id="path4767"
       cx="199.32719"
       cy="520.38312"
       r="12.517673"
       inkscape:transform-center-x="172.38625"
       inkscape:transform-center-y="140.19795" />
    <circle
       inkscape:transform-center-y="-22.760564"
       inkscape:transform-center-x="221.0304"
       r="12.517673"
       cy="146.18834"
       cx="359.28635"
       id="circle4769"
       style="opacity:1;fill:#000000;fill-opacity:1;stroke:none;stroke-width:0.26929134;stroke-linecap:round;stroke-linejoin:round;stroke-miterlimit:4;stroke-dasharray:none;stroke-opacity:1"
       transform="matrix(0.70710678,0.70710678,-0.70710678,0.70710678,0,0)" />
    <circle
       transform="matrix(0,1,-1,0,0,0)"
       style="opacity:1;fill:#000000;fill-opacity:1;stroke:none;stroke-width:0.26929134;stroke-linecap:round;stroke-linejoin:round;stroke-miterlimit:4;stroke-dasharray:none;stroke-opacity:1"
       id="circle4771"
       cx="207.7989"
       cy="-231.5155"
       r="12.517673"
       inkscape:transform-center-x="140.19794"
       inkscape:transform-center-y="-172.38625" />
    <circle
       inkscape:transform-center-y="-221.03041"
       inkscape:transform-center-x="-22.760568"
       r="12.517673"
       cy="-391.47464"
       cx="-166.39586"
       id="circle4773"
       style="opacity:1;fill:#000000;fill-opacity:1;stroke:none;stroke-width:0.26929134;stroke-linecap:round;stroke-linejoin:round;stroke-miterlimit:4;stroke-dasharray:none;stroke-opacity:1"
       transform="matrix(-0.70710678,0.70710678,-0.70710678,-0.70710678,0,0)" />
    <circle
       transform="scale(-1,-1)"
       style="opacity:1;fill:#000000;fill-opacity:1;stroke:none;stroke-width:0.26929134;stroke-linecap:round;stroke-linejoin:round;stroke-miterlimit:4;stroke-dasharray:none;stroke-opacity:1"
       id="circle4775"
       cx="-544.09967"
       cy="-239.9872"
       r="12.517673"
       inkscape:transform-center-x="-172.38626"
       inkscape:transform-center-y="-140.19796" />
    <circle
       inkscape:transform-center-y="22.760578"
       inkscape:transform-center-x="-221.03043"
       r="12.517673"
       cy="134.20755"
       cx="-704.0589"
       id="circle4777"
       style="opacity:1;fill:#000000;fill-opacity:1;stroke:none;stroke-width:0.26929134;stroke-linecap:round;stroke-linejoin:round;stroke-miterlimit:4;stroke-dasharray:none;stroke-opacity:1"
       transform="matrix(-0.70710678,-0.70710678,0.70710678,-0.70710678,0,0)" />
    <circle
       transform="matrix(0,-1,1,0,0,0)"
       style="opacity:1;fill:#000000;fill-opacity:1;stroke:none;stroke-width:0.26929134;stroke-linecap:round;stroke-linejoin:round;stroke-miterlimit:4;stroke-dasharray:none;stroke-opacity:1"
       id="circle4779"
       cx="-552.57141"
       cy="511.91141"
       r="12.517673"
       inkscape:transform-center-x="-140.19797"
       inkscape:transform-center-y="172.38627" />
    <circle
       inkscape:transform-center-y="221.03045"
       inkscape:transform-center-x="22.760559"
       r="12.517673"
       cy="671.87061"
       cx="-178.37668"
       id="circle4781"
       style="opacity:1;fill:#000000;fill-opacity:1;stroke:none;stroke-width:0.26929134;stroke-linecap:round;stroke-linejoin:round;stroke-miterlimit:4;stroke-dasharray:none;stroke-opacity:1"
       transform="matrix(0.70710678,-0.70710678,0.70710678,0.70710678,0,0)" />
    <circle
       style="opacity:1;fill:#000000;fill-opacity:1;stroke:none;stroke-width:0.26929134;stroke-linecap:round;stroke-linejoin:round;stroke-miterlimit:4;stroke-dasharray:none;stroke-opacity:1"
       id="path4783"
       cx="292.31561"
       cy="492.48654"
       r="6.0800128"
       inkscape:transform-center-x="79.397817"
       inkscape:transform-center-y="110.87083" />
    <circle
       inkscape:transform-center-y="22.25478"
       inkscape:transform-center-x="134.54024"
       r="6.0800128"
       cy="117.8728"
       cx="453.28635"
       id="circle4785"
       style="opacity:1;fill:#000000;fill-opacity:1;stroke:none;stroke-width:0.26929134;stroke-linecap:round;stroke-linejoin:round;stroke-miterlimit:4;stroke-dasharray:none;stroke-opacity:1"
       transform="matrix(0.70710678,0.70710678,-0.70710678,0.70710678,0,0)" />
    <circle
       transform="matrix(0,1,-1,0,0,0)"
       style="opacity:1;fill:#000000;fill-opacity:1;stroke:none;stroke-width:0.26929134;stroke-linecap:round;stroke-linejoin:round;stroke-miterlimit:4;stroke-dasharray:none;stroke-opacity:1"
       id="circle4787"
       cx="302.2179"
       cy="-260.84262"
       r="6.0800128"
       inkscape:transform-center-x="110.87082"
       inkscape:transform-center-y="-79.397816" />
    <circle
       inkscape:transform-center-y="-134.54025"
       inkscape:transform-center-x="22.254784"
       r="6.0800128"
       cy="-421.81332"
       cx="-72.395844"
       id="circle4789"
       style="opacity:1;fill:#000000;fill-opacity:1;stroke:none;stroke-width:0.26929134;stroke-linecap:round;stroke-linejoin:round;stroke-miterlimit:4;stroke-dasharray:none;stroke-opacity:1"
       transform="matrix(-0.70710678,0.70710678,-0.70710678,-0.70710678,0,0)" />
    <circle
       transform="scale(-1,-1)"
       style="opacity:1;fill:#000000;fill-opacity:1;stroke:none;stroke-width:0.26929134;stroke-linecap:round;stroke-linejoin:round;stroke-miterlimit:4;stroke-dasharray:none;stroke-opacity:1"
       id="circle4791"
       cx="-451.11127"
       cy="-270.74487"
       r="6.0800128"
       inkscape:transform-center-x="-79.397826"
       inkscape:transform-center-y="-110.87084" />
    <circle
       inkscape:transform-center-y="-22.254769"
       inkscape:transform-center-x="-134.54028"
       r="6.0800128"
       cy="103.86887"
       cx="-612.08203"
       id="circle4793"
       style="opacity:1;fill:#000000;fill-opacity:1;stroke:none;stroke-width:0.26929134;stroke-linecap:round;stroke-linejoin:round;stroke-miterlimit:4;stroke-dasharray:none;stroke-opacity:1"
       transform="matrix(-0.70710678,-0.70710678,0.70710678,-0.70710678,0,0)" />
    <circle
       transform="matrix(0,-1,1,0,0,0)"
       style="opacity:1;fill:#000000;fill-opacity:1;stroke:none;stroke-width:0.26929134;stroke-linecap:round;stroke-linejoin:round;stroke-miterlimit:4;stroke-dasharray:none;stroke-opacity:1"
       id="circle4795"
       cx="-461.01355"
       cy="482.58429"
       r="6.0800128"
       inkscape:transform-center-x="-110.87085"
       inkscape:transform-center-y="79.397837" />
    <circle
       inkscape:transform-center-y="134.54029"
       inkscape:transform-center-x="-22.254793"
       r="6.0800128"
       cy="643.55505"
       cx="-86.399811"
       id="circle4797"
       style="opacity:1;fill:#000000;fill-opacity:1;stroke:none;stroke-width:0.26929134;stroke-linecap:round;stroke-linejoin:round;stroke-miterlimit:4;stroke-dasharray:none;stroke-opacity:1"
       transform="matrix(0.70710678,-0.70710678,0.70710678,0.70710678,0,0)" />
    <circle
       inkscape:transform-center-y="118.02379"
       inkscape:transform-center-x="100.14139"
       r="6.0800128"
       cy="500.3548"
       cx="272.28735"
       id="circle4799"
       style="opacity:1;fill:#000000;fill-opacity:1;stroke:none;stroke-width:0.26929134;stroke-linecap:round;stroke-linejoin:round;stroke-miterlimit:4;stroke-dasharray:none;stroke-opacity:1" />
    <circle
       style="opacity:1;fill:#000000;fill-opacity:1;stroke:none;stroke-width:0.26929134;stroke-linecap:round;stroke-linejoin:round;stroke-miterlimit:4;stroke-dasharray:none;stroke-opacity:1"
       id="circle4801"
       cx="433.55435"
       cy="125.02576"
       r="6.0800128"
       inkscape:transform-center-x="154.26608"
       inkscape:transform-center-y="12.64477"
       transform="matrix(0.70710678,0.70710678,-0.70710678,0.70710678,0,0)" />
    <circle
       transform="matrix(0,1,-1,0,0,0)"
       inkscape:transform-center-y="-100.1414"
       inkscape:transform-center-x="118.02379"
       r="6.0800128"
       cy="-254.40495"
       cx="282.18961"
       id="circle4803"
       style="opacity:1;fill:#000000;fill-opacity:1;stroke:none;stroke-width:0.26929134;stroke-linecap:round;stroke-linejoin:round;stroke-miterlimit:4;stroke-dasharray:none;stroke-opacity:1" />
    <circle
       style="opacity:1;fill:#000000;fill-opacity:1;stroke:none;stroke-width:0.26929134;stroke-linecap:round;stroke-linejoin:round;stroke-miterlimit:4;stroke-dasharray:none;stroke-opacity:1"
       id="circle4805"
       cx="-93.139435"
       cy="-415.67194"
       r="6.0800128"
       inkscape:transform-center-x="12.644769"
       inkscape:transform-center-y="-154.2661"
       transform="matrix(-0.70710678,0.70710678,-0.70710678,-0.70710678,0,0)" />
    <circle
       transform="scale(-1,-1)"
       inkscape:transform-center-y="-118.0238"
       inkscape:transform-center-x="-100.14142"
       r="6.0800128"
       cy="-264.30722"
       cx="-472.57016"
       id="circle4807"
       style="opacity:1;fill:#000000;fill-opacity:1;stroke:none;stroke-width:0.26929134;stroke-linecap:round;stroke-linejoin:round;stroke-miterlimit:4;stroke-dasharray:none;stroke-opacity:1" />
    <circle
       style="opacity:1;fill:#000000;fill-opacity:1;stroke:none;stroke-width:0.26929134;stroke-linecap:round;stroke-linejoin:round;stroke-miterlimit:4;stroke-dasharray:none;stroke-opacity:1"
       id="circle4809"
       cx="-633.83716"
       cy="111.02183"
       r="6.0800128"
       inkscape:transform-center-x="-154.26608"
       inkscape:transform-center-y="-12.644772"
       transform="matrix(-0.70710678,-0.70710678,0.70710678,-0.70710678,0,0)" />
    <circle
       transform="matrix(0,-1,1,0,0,0)"
       inkscape:transform-center-y="100.14138"
       inkscape:transform-center-x="-118.0238"
       r="6.0800128"
       cy="490.45255"
       cx="-482.47238"
       id="circle4811"
       style="opacity:1;fill:#000000;fill-opacity:1;stroke:none;stroke-width:0.26929134;stroke-linecap:round;stroke-linejoin:round;stroke-miterlimit:4;stroke-dasharray:none;stroke-opacity:1" />
    <circle
       transform="matrix(0.70710678,-0.70710678,0.70710678,0.70710678,0,0)"
       inkscape:transform-center-y="154.26606"
       inkscape:transform-center-x="-12.644757"
       r="6.0800128"
       cy="651.71954"
       cx="-107.14335"
       id="circle4815"
       style="opacity:1;fill:#000000;fill-opacity:1;stroke:none;stroke-width:0.26929134;stroke-linecap:round;stroke-linejoin:round;stroke-miterlimit:4;stroke-dasharray:none;stroke-opacity:1" />
    <circle
       style="opacity:1;fill:#000000;fill-opacity:1;stroke:none;stroke-width:0.26929134;stroke-linecap:round;stroke-linejoin:round;stroke-miterlimit:4;stroke-dasharray:none;stroke-opacity:1"
       id="circle4817"
       cx="222.93196"
       cy="471.02768"
       r="6.0800128"
       inkscape:transform-center-x="148.78149"
       inkscape:transform-center-y="87.266077" />
    <circle
       inkscape:transform-center-y="-43.497969"
       inkscape:transform-center-x="166.91084"
       r="6.0800128"
       cy="95.785416"
       cx="385.42004"
       id="circle4819"
       style="opacity:1;fill:#000000;fill-opacity:1;stroke:none;stroke-width:0.26929134;stroke-linecap:round;stroke-linejoin:round;stroke-miterlimit:4;stroke-dasharray:none;stroke-opacity:1"
       transform="matrix(0.70710678,0.70710678,-0.70710678,0.70710678,0,0)" />
    <circle
       transform="matrix(0,1,-1,0,0,0)"
       style="opacity:1;fill:#000000;fill-opacity:1;stroke:none;stroke-width:0.26929134;stroke-linecap:round;stroke-linejoin:round;stroke-miterlimit:4;stroke-dasharray:none;stroke-opacity:1"
       id="circle4821"
       cx="234.98012"
       cy="-284.44736"
       r="6.0800128"
       inkscape:transform-center-x="87.266081"
       inkscape:transform-center-y="-148.7815" />
    <circle
       inkscape:transform-center-y="-166.91085"
       inkscape:transform-center-x="-43.497967"
       r="6.0800128"
       cy="-446.93546"
       cx="-140.26216"
       id="circle4823"
       style="opacity:1;fill:#000000;fill-opacity:1;stroke:none;stroke-width:0.26929134;stroke-linecap:round;stroke-linejoin:round;stroke-miterlimit:4;stroke-dasharray:none;stroke-opacity:1"
       transform="matrix(-0.70710678,0.70710678,-0.70710678,-0.70710678,0,0)" />
    <circle
       transform="scale(-1,-1)"
       style="opacity:1;fill:#000000;fill-opacity:1;stroke:none;stroke-width:0.26929134;stroke-linecap:round;stroke-linejoin:round;stroke-miterlimit:4;stroke-dasharray:none;stroke-opacity:1"
       id="circle4825"
       cx="-520.49493"
       cy="-296.49551"
       r="6.0800128"
       inkscape:transform-center-x="-148.78151"
       inkscape:transform-center-y="-87.266092" />
    <circle
       inkscape:transform-center-y="43.497975"
       inkscape:transform-center-x="-166.91087"
       r="6.0800128"
       cy="78.746758"
       cx="-682.98309"
       id="circle4827"
       style="opacity:1;fill:#000000;fill-opacity:1;stroke:none;stroke-width:0.26929134;stroke-linecap:round;stroke-linejoin:round;stroke-miterlimit:4;stroke-dasharray:none;stroke-opacity:1"
       transform="matrix(-0.70710678,-0.70710678,0.70710678,-0.70710678,0,0)" />
    <circle
       transform="matrix(0,-1,1,0,0,0)"
       style="opacity:1;fill:#000000;fill-opacity:1;stroke:none;stroke-width:0.26929134;stroke-linecap:round;stroke-linejoin:round;stroke-miterlimit:4;stroke-dasharray:none;stroke-opacity:1"
       id="circle4829"
       cx="-532.54315"
       cy="458.97955"
       r="6.0800128"
       inkscape:transform-center-x="-87.266101"
       inkscape:transform-center-y="148.78155" />
    <circle
       inkscape:transform-center-y="166.91089"
       inkscape:transform-center-x="43.49801"
       r="6.0800128"
       cy="621.46765"
       cx="-157.30089"
       id="circle4831"
       style="opacity:1;fill:#000000;fill-opacity:1;stroke:none;stroke-width:0.26929134;stroke-linecap:round;stroke-linejoin:round;stroke-miterlimit:4;stroke-dasharray:none;stroke-opacity:1"
       transform="matrix(0.70710678,-0.70710678,0.70710678,0.70710678,0,0)" />
    <circle
       style="opacity:1;fill:#000000;fill-opacity:1;stroke:none;stroke-width:0.26929134;stroke-linecap:round;stroke-linejoin:round;stroke-miterlimit:4;stroke-dasharray:none;stroke-opacity:1"
       id="path4847"
       cx="158.19768"
       cy="462.08649"
       r="16.451799"
       inkscape:transform-center-x="214.5887"
       inkscape:transform-center-y="79.397817" />
    <circle
       inkscape:transform-center-y="-95.594393"
       inkscape:transform-center-x="207.87988"
       r="16.451799"
       cy="86.399811"
       cx="319.61282"
       id="circle4849"
       style="opacity:1;fill:#000000;fill-opacity:1;stroke:none;stroke-width:0.26929134;stroke-linecap:round;stroke-linejoin:round;stroke-miterlimit:4;stroke-dasharray:none;stroke-opacity:1"
       transform="matrix(0.70710678,0.70710678,-0.70710678,0.70710678,0,0)" />
    <circle
       transform="matrix(0,1,-1,0,0,0)"
       style="opacity:1;fill:#000000;fill-opacity:1;stroke:none;stroke-width:0.26929134;stroke-linecap:round;stroke-linejoin:round;stroke-miterlimit:4;stroke-dasharray:none;stroke-opacity:1"
       id="circle4851"
       cx="168.09998"
       cy="-293.38855"
       r="16.451799"
       inkscape:transform-center-x="79.397822"
       inkscape:transform-center-y="-214.58871" />
    <circle
       inkscape:transform-center-y="-207.87987"
       inkscape:transform-center-x="-95.594384"
       r="16.451799"
       cy="-454.80371"
       cx="-207.58673"
       id="circle4853"
       style="opacity:1;fill:#000000;fill-opacity:1;stroke:none;stroke-width:0.26929134;stroke-linecap:round;stroke-linejoin:round;stroke-miterlimit:4;stroke-dasharray:none;stroke-opacity:1"
       transform="matrix(-0.70710678,0.70710678,-0.70710678,-0.70710678,0,0)" />
    <circle
       transform="scale(-1,-1)"
       style="opacity:1;fill:#000000;fill-opacity:1;stroke:none;stroke-width:0.26929134;stroke-linecap:round;stroke-linejoin:round;stroke-miterlimit:4;stroke-dasharray:none;stroke-opacity:1"
       id="circle4855"
       cx="-587.37506"
       cy="-303.29083"
       r="16.451799"
       inkscape:transform-center-x="-214.5887"
       inkscape:transform-center-y="-79.397836" />
    <circle
       inkscape:transform-center-y="95.594384"
       inkscape:transform-center-x="-207.87988"
       r="16.451799"
       cy="72.395859"
       cx="-748.79028"
       id="circle4857"
       style="opacity:1;fill:#000000;fill-opacity:1;stroke:none;stroke-width:0.26929134;stroke-linecap:round;stroke-linejoin:round;stroke-miterlimit:4;stroke-dasharray:none;stroke-opacity:1"
       transform="matrix(-0.70710678,-0.70710678,0.70710678,-0.70710678,0,0)" />
    <circle
       transform="matrix(0,-1,1,0,0,0)"
       style="opacity:1;fill:#000000;fill-opacity:1;stroke:none;stroke-width:0.26929134;stroke-linecap:round;stroke-linejoin:round;stroke-miterlimit:4;stroke-dasharray:none;stroke-opacity:1"
       id="circle4859"
       cx="-597.2774"
       cy="452.18423"
       r="16.451799"
       inkscape:transform-center-x="-79.397843"
       inkscape:transform-center-y="214.58874" />
    <circle
       inkscape:transform-center-y="207.87992"
       inkscape:transform-center-x="95.594396"
       r="16.451799"
       cy="613.59943"
       cx="-221.59071"
       id="circle4861"
       style="opacity:1;fill:#000000;fill-opacity:1;stroke:none;stroke-width:0.26929134;stroke-linecap:round;stroke-linejoin:round;stroke-miterlimit:4;stroke-dasharray:none;stroke-opacity:1"
       transform="matrix(0.70710678,-0.70710678,0.70710678,0.70710678,0,0)" />
    <circle
       style="opacity:1;fill:#000000;fill-opacity:1;stroke:none;stroke-width:0.26929134;stroke-linecap:round;stroke-linejoin:round;stroke-miterlimit:4;stroke-dasharray:none;stroke-opacity:1"
       id="circle4813"
       cx="-107.14335"
       cy="651.71954"
       r="6.0800128"
       inkscape:transform-center-x="-12.644757"
       inkscape:transform-center-y="154.26606"
       transform="matrix(0.70710678,-0.70710678,0.70710678,0.70710678,0,0)" />
  </g>
  <g
     inkscape:groupmode="layer"
     id="layer3"
     inkscape:label="Rød"
     style="display:inline"
     sodipodi:insensitive="true">
    <path
       style="fill:#ff0000;fill-rule:evenodd;stroke:none;stroke-width:1px;stroke-linecap:butt;stroke-linejoin:miter;stroke-opacity:1"
       d="m 374.21697,383.40398 c -0.0861,2.7004 -0.20633,5.40158 -0.36059,8.10298 -23.01114,1.40354 -46.31068,-7.17072 -62.83846,-23.0558 -16.77197,-16.11977 -26.18073,-39.38879 -25.39564,-62.48766 0.55876,-14.62993 5.00331,-28.59053 10.65388,-41.26029 5.59994,-12.55577 12.68592,-24.57441 18.90863,-36.09476 6.32323,-11.70633 12.02648,-23.39108 15.36994,-35.69543 3.33677,-12.27799 4.18843,-25.17667 0.91511,-36.99217 -3.15041,-11.39535 -10.20956,-21.75658 -19.62478,-29.29119 -9.41238,-7.53206 -21.11495,-12.26157 -33.281,-13.79756 -12.16359,-1.53553 -24.75524,0.0797 -36.45429,4.30834 -11.69757,4.22823 -22.49069,11.02858 -31.76817,19.54062 -8.59596,7.86992 -15.89526,17.21413 -20.84344,27.71764 -4.94786,10.50257 -7.50726,22.21367 -6.73913,33.79386 0.7679,11.57875 4.95001,23.03517 12.35994,32.01279 7.40808,8.9756 18.12511,15.37677 29.72715,17.00801 9.78507,1.40231 20.09671,-0.61427 28.71518,-5.69128 8.61557,-5.07529 15.48424,-13.181 19.08369,-22.6361 -3.28245,9.56616 -9.91949,18.01263 -18.55773,23.49559 -8.63533,5.4811 -19.2088,7.95794 -29.49305,6.83127 -12.18987,-1.36677 -23.65689,-7.75318 -31.7786,-17.04978 -8.11992,-9.29432 -12.90893,-21.32221 -14.07404,-33.64553 -1.16508,-12.3218 1.21106,-24.86357 6.16822,-36.19983 4.95666,-11.33537 12.42958,-21.46028 21.28537,-30.03658 9.56493,-9.24447 20.89712,-16.84016 33.42746,-21.74115 12.5289,-4.90033 26.27584,-7.07364 39.84133,-5.71864 13.56286,1.35487 26.92168,6.28769 37.94802,14.64924 11.02297,8.35924 19.6281,20.16806 23.73079,33.6273 4.24757,13.95491 3.50669,28.86133 0.14564,42.58013 -3.35433,13.69315 -9.25623,26.46809 -15.39281,38.54192 -6.23266,12.26299 -12.55719,23.57871 -17.59252,35.67433 -4.98757,11.98147 -8.42089,24.23658 -8.57881,36.44634 -0.34235,19.1119 7.80498,38.21739 21.68869,51.13805 13.68615,12.73679 32.84473,19.38598 51.34779,17.95782 0.45156,2.66009 0.93692,5.31613 1.45623,7.96752 z"
       id="path4863"
       inkscape:path-effect="#path-effect4865;#path-effect4867"
       inkscape:original-d="m 374.21697,383.40398 c 33.61889,-33.6189 -73.67546,-51.50129 -81.5437,-77.25193 -7.86825,-25.75065 102.06057,-227.019398 43.63303,-151.64269 -18.35297,23.67697 -107.29435,-42.91773 -128.03792,-20.02827 -14.52169,16.02394 -17.88239,95.84962 16.4518,113.73201 34.3342,17.88239 45.06363,-20.02828 47.92481,-29.32712"
       inkscape:connector-curvature="0"
       sodipodi:nodetypes="cssssc"
       inkscape:transform-center-x="95.134322"
       inkscape:transform-center-y="-135.19088" />
    <path
       inkscape:transform-center-y="-143.39365"
       inkscape:transform-center-x="-58.307123"
       sodipodi:nodetypes="cssssc"
       inkscape:connector-curvature="0"
       inkscape:original-d="m 373.28972,385.29752 c 47.5443,0 -15.67951,-88.51333 -3.03474,-112.28546 12.64477,-23.77216 232.69468,-88.35924 138.08079,-76.37437 -29.71966,3.76464 -45.52115,-106.215979 -76.37436,-104.698605 -21.59902,1.062251 -80.42068,55.131155 -68.7875,92.053855 11.63319,36.92271 46.02693,17.70267 54.62537,13.15055"
       inkscape:path-effect="#path-effect4871;#path-effect4873"
       id="path4869"
       d="m 373.28972,385.29752 c -1.97033,1.84861 -3.96539,3.6736 -5.98465,5.4747 -17.26378,-15.27889 -27.67613,-37.81707 -28.13058,-60.73641 -0.46118,-23.25797 9.33951,-46.36465 26.22801,-62.14288 10.74003,-9.94982 23.75443,-16.67868 36.70887,-21.642 12.83802,-4.91851 26.34703,-8.40644 38.89327,-12.15243 12.74882,-3.80643 25.04399,-8.03599 36.10867,-14.3723 11.0413,-6.32239 20.76426,-14.84092 26.80449,-25.51033 5.83006,-10.28541 8.16498,-22.60347 6.83518,-34.58882 -1.32959,-11.98153 -6.26028,-23.60076 -13.77687,-33.28957 -7.51517,-9.68673 -17.56092,-17.44826 -28.82353,-22.73061 -11.26125,-5.281619 -23.7017,-8.104931 -36.28079,-8.646182 -11.64314,-0.51339 -23.41188,0.932577 -34.33788,4.860789 -10.9251,3.927773 -21.01587,10.399003 -28.66115,19.130583 -7.64442,8.7304 -12.78814,19.78852 -13.89666,31.37627 -1.10841,11.585 1.94336,23.6894 8.99379,33.04674 5.9275,7.91067 14.64487,13.77617 24.32904,16.28036 9.6809,2.50335 20.26938,1.62863 29.50035,-2.51194 -9.08534,4.44326 -19.75099,5.72272 -29.73619,3.4916 -9.98183,-2.23038 -19.20979,-7.95556 -25.68518,-16.0243 -7.65308,-9.58599 -11.24562,-22.21027 -10.41485,-34.52689 0.83044,-12.31372 5.94909,-24.20506 13.83914,-33.74282 7.88899,-9.53667 18.43755,-16.724849 29.95873,-21.235555 11.52021,-4.510432 23.96375,-6.385671 36.2901,-6.188043 13.30025,0.226602 26.68429,2.868706 39.0101,8.263476 12.32433,5.394212 23.58165,13.578002 32.21576,24.128382 8.63236,10.54843 14.59045,23.48256 16.47473,37.19187 1.88355,13.7053 -0.3818,28.14013 -6.99788,40.5583 -6.86413,12.87109 -17.92844,22.88764 -30.00572,30.21169 -12.05439,7.31065 -25.26091,12.17062 -38.13761,16.36889 -13.07841,4.26409 -25.55194,7.79338 -37.66536,12.78577 -11.99892,4.94544 -23.09232,11.18338 -31.83758,19.70532 -13.75624,13.27208 -21.50482,32.54273 -20.82384,51.49628 0.67129,18.68384 9.51677,36.93268 23.61027,49.00646 -1.56166,2.20027 -3.09657,4.42158 -4.60418,6.6636 z"
       style="fill:#ff0000;fill-rule:evenodd;stroke:none;stroke-width:1px;stroke-linecap:butt;stroke-linejoin:miter;stroke-opacity:1" />
    <path
       style="fill:#ff0000;fill-rule:evenodd;stroke:none;stroke-width:1px;stroke-linecap:butt;stroke-linejoin:miter;stroke-opacity:1"
       d="m 371.29512,385.98079 c -2.7004,-0.0861 -5.40158,-0.20633 -8.10298,-0.36059 -1.40353,-23.01114 7.17073,-46.31068 23.0558,-62.83845 16.11978,-16.77197 39.3888,-26.18073 62.48766,-25.39564 14.62993,0.55876 28.59053,5.00331 41.2603,10.65388 12.55576,5.59995 24.57441,12.68592 36.09475,18.90863 11.70634,6.32324 23.39109,12.02648 35.69544,15.36994 12.27799,3.33677 25.17667,4.18843 36.99217,0.91511 11.39535,-3.15041 21.75657,-10.20956 29.29119,-19.62479 7.53206,-9.41238 12.26157,-21.11494 13.79755,-33.281 1.53553,-12.16358 -0.0797,-24.75523 -4.30834,-36.45428 -4.22823,-11.69757 -11.02858,-22.49069 -19.54062,-31.76817 -7.86992,-8.59596 -17.21413,-15.89526 -27.71764,-20.84344 -10.50257,-4.94786 -22.21367,-7.50726 -33.79386,-6.73913 -11.57874,0.76789 -23.03517,4.95001 -32.01279,12.35994 -8.9756,7.40807 -15.37677,18.1251 -17.00801,29.72714 -1.40231,9.78507 0.61426,20.09671 5.69128,28.71519 5.07529,8.61557 13.181,15.48424 22.63611,19.08369 -9.56617,-3.28245 -18.01264,-9.91948 -23.4956,-18.55773 -5.48111,-8.63533 -7.95794,-19.20881 -6.83127,-29.49306 1.36677,-12.18987 7.75318,-23.65689 17.04979,-31.7786 9.29432,-8.11991 21.3222,-12.90893 33.64553,-14.07403 12.32179,-1.16508 24.86356,1.21106 36.19982,6.16822 11.33537,4.95666 21.46028,12.42958 30.03658,21.28537 9.24446,9.56493 16.84016,20.89712 21.74115,33.42746 4.90033,12.5289 7.07364,26.27584 5.71864,39.84133 -1.35487,13.56286 -6.28768,26.92168 -14.64923,37.94801 -8.35924,11.02298 -20.16806,19.6281 -33.6273,23.7308 -13.95491,4.24757 -28.86133,3.50669 -42.58013,0.14565 -13.69316,-3.35434 -26.46809,-9.25624 -38.54193,-15.39282 -12.26299,-6.23266 -23.5787,-12.55719 -35.67433,-17.59252 -11.98147,-4.98757 -24.23658,-8.42089 -36.44634,-8.57881 -19.1119,-0.34235 -38.21738,7.80498 -51.13804,21.68869 -12.7368,13.68614 -19.38598,32.84472 -17.95783,51.34778 -2.66008,0.45156 -5.31613,0.93692 -7.96752,1.45623 z"
       id="path4875"
       inkscape:path-effect="#path-effect4877;#path-effect4879"
       inkscape:original-d="m 371.29512,385.98079 c 33.6189,33.6189 51.50129,-73.67546 77.25193,-81.54369 25.75066,-7.86825 227.0194,102.06057 151.6427,43.63303 -23.67698,-18.35297 42.91772,-107.29435 20.02826,-128.03792 -16.02394,-14.52169 -95.84962,-17.8824 -113.73201,16.45179 -17.88239,34.33421 20.02828,45.06364 29.32713,47.92482"
       inkscape:connector-curvature="0"
       sodipodi:nodetypes="cssssc"
       inkscape:transform-center-x="-135.19089"
       inkscape:transform-center-y="-95.134327" />
    <path
       inkscape:transform-center-y="58.307129"
       inkscape:transform-center-x="-143.39365"
       sodipodi:nodetypes="cssssc"
       inkscape:connector-curvature="0"
       inkscape:original-d="m 369.40158,385.05355 c 0,47.5443 88.51333,-15.67951 112.28546,-3.03473 23.77216,12.64477 88.35924,232.69467 76.37437,138.08079 -3.76464,-29.71966 106.21597,-45.52115 104.6986,-76.37436 -1.06225,-21.59903 -55.13115,-80.42069 -92.05385,-68.78751 -36.92271,11.6332 -17.70267,46.02694 -13.15055,54.62538"
       inkscape:path-effect="#path-effect4883;#path-effect4885"
       id="path4881"
       d="m 369.40158,385.05355 c -1.84861,-1.97033 -3.6736,-3.96539 -5.4747,-5.98465 15.27889,-17.26378 37.81707,-27.67612 60.73641,-28.13058 23.25798,-0.46117 46.36465,9.33952 62.14288,26.22802 9.94982,10.74003 16.67868,23.75443 21.642,36.70887 4.91851,12.83803 8.40644,26.34703 12.15243,38.89327 3.80642,12.74883 8.03599,25.04399 14.3723,36.10867 6.32239,11.0413 14.84092,20.76426 25.51033,26.80449 10.28541,5.83006 22.60347,8.16497 34.58882,6.83518 11.98152,-1.32959 23.60075,-6.26028 33.28956,-13.77688 9.68674,-7.51516 17.44827,-17.56091 22.73062,-28.82352 5.28161,-11.26125 8.10493,-23.7017 8.64618,-36.28079 0.51339,-11.64314 -0.93258,-23.41188 -4.86079,-34.33788 -3.92778,-10.9251 -10.399,-21.01587 -19.13058,-28.66116 -8.7304,-7.64442 -19.78851,-12.78814 -31.37626,-13.89666 -11.58501,-1.10841 -23.68941,1.94336 -33.04675,8.99379 -7.91067,5.9275 -13.77617,14.64487 -16.28037,24.32905 -2.50334,9.6809 -1.62862,20.26938 2.51195,29.50035 -4.44326,-9.08534 -5.72273,-19.751 -3.4916,-29.7362 2.23037,-9.98183 7.95556,-19.20979 16.0243,-25.68518 9.58599,-7.65308 22.21028,-11.24561 34.52689,-10.41484 12.31372,0.83043 24.20506,5.94909 33.74282,13.83914 9.53667,7.88899 16.72485,18.43755 21.23555,29.95873 4.51043,11.52021 6.38567,23.96375 6.18804,36.2901 -0.2266,13.30025 -2.8687,26.68429 -8.26347,39.0101 -5.39421,12.32432 -13.578,23.58164 -24.12838,32.21576 -10.54843,8.63235 -23.48257,14.59044 -37.19187,16.47473 -13.7053,1.88355 -28.14013,-0.3818 -40.5583,-6.99788 -12.87109,-6.86413 -22.88764,-17.92844 -30.21169,-30.00572 -7.31065,-12.05439 -12.17062,-25.26091 -16.36889,-38.13761 -4.26409,-13.0784 -7.79339,-25.55194 -12.78577,-37.66536 -4.94544,-11.99892 -11.18338,-23.09232 -19.70532,-31.83758 -13.27208,-13.75624 -32.54272,-21.50482 -51.49628,-20.82384 -18.68384,0.67129 -36.93268,9.51676 -49.00646,23.61026 -2.20027,-1.56166 -4.42158,-3.09657 -6.6636,-4.60418 z"
       style="fill:#ff0000;fill-rule:evenodd;stroke:none;stroke-width:1px;stroke-linecap:butt;stroke-linejoin:miter;stroke-opacity:1" />
    <path
       style="fill:#ff0000;fill-rule:evenodd;stroke:none;stroke-width:1px;stroke-linecap:butt;stroke-linejoin:miter;stroke-opacity:1"
       d="m 368.71831,383.05895 c 0.0861,-2.7004 0.20633,-5.40158 0.36059,-8.10298 23.01114,-1.40353 46.31068,7.17074 62.83844,23.05581 16.77197,16.11978 26.18073,39.3888 25.39564,62.48766 -0.55876,14.62993 -5.00331,28.59053 -10.65388,41.26029 -5.59994,12.55577 -12.68592,24.57441 -18.90863,36.09476 -6.32323,11.70633 -12.02647,23.39108 -15.36993,35.69543 -3.33678,12.27799 -4.18843,25.17667 -0.91511,36.99217 3.15041,11.39535 10.20956,21.75657 19.62479,29.29118 9.41237,7.53206 21.11494,12.26157 33.28099,13.79756 12.16358,1.53553 24.75523,-0.0796 36.45428,-4.30833 11.69757,-4.22824 22.49069,-11.02858 31.76817,-19.54062 8.59596,-7.86992 15.89527,-17.21413 20.84345,-27.71764 4.94786,-10.50257 7.50727,-22.21367 6.73914,-33.79386 -0.7679,-11.57875 -4.95001,-23.03518 -12.35995,-32.0128 -7.40807,-8.9756 -18.1251,-15.37677 -29.72714,-17.00801 -9.78507,-1.40231 -20.09671,0.61426 -28.71519,5.69128 -8.61557,5.07529 -15.48424,13.181 -19.08369,22.63611 3.28245,-9.56617 9.91948,-18.01264 18.55773,-23.4956 8.63533,-5.48111 19.20881,-7.95794 29.49306,-6.83127 12.18987,1.36677 23.65689,7.75318 31.7786,17.04979 8.11992,9.29432 12.90893,21.32221 14.07403,33.64553 1.16508,12.3218 -1.21106,24.86357 -6.16822,36.19983 -4.95667,11.33537 -12.42959,21.46028 -21.28538,30.03658 -9.56493,9.24446 -20.89712,16.84016 -33.42746,21.74114 -12.5289,4.90033 -26.27584,7.07364 -39.84132,5.71864 -13.56286,-1.35487 -26.92168,-6.28768 -37.94802,-14.64924 -11.02297,-8.35924 -19.62809,-20.16805 -23.73079,-33.62729 -4.24757,-13.95491 -3.50669,-28.86133 -0.14565,-42.58013 3.35433,-13.69315 9.25623,-26.46809 15.39281,-38.54192 6.23266,-12.26299 12.55719,-23.57871 17.59252,-35.67433 4.98757,-11.98147 8.42089,-24.23658 8.57881,-36.44634 0.34235,-19.1119 -7.80497,-38.21738 -21.68868,-51.13804 -13.68615,-12.7368 -32.84473,-19.38599 -51.34778,-17.95784 -0.45156,-2.66008 -0.93692,-5.31613 -1.45623,-7.96752 z"
       id="path4887"
       inkscape:path-effect="#path-effect4889;#path-effect4891"
       inkscape:original-d="m 368.71831,383.05895 c -33.6189,33.6189 73.67546,51.50129 81.54368,77.25194 7.86826,25.75065 -102.06056,227.01939 -43.63302,151.64269 18.35297,-23.67697 107.29434,42.91772 128.03791,20.02827 14.5217,-16.02395 17.88241,-95.84963 -16.45178,-113.73202 -34.33422,-17.88238 -45.06364,20.02828 -47.92482,29.32713"
       inkscape:connector-curvature="0"
       sodipodi:nodetypes="cssssc"
       inkscape:transform-center-x="-95.134329"
       inkscape:transform-center-y="135.19088" />
    <path
       inkscape:transform-center-y="143.39365"
       inkscape:transform-center-x="58.307123"
       sodipodi:nodetypes="cssssc"
       inkscape:connector-curvature="0"
       inkscape:original-d="m 369.64556,381.16542 c -47.54431,0 15.6795,88.51332 3.03472,112.28545 -12.64476,23.77216 -232.69467,88.35924 -138.08078,76.37437 29.71965,-3.76463 45.52114,106.21597 76.37435,104.6986 21.59903,-1.06225 80.42069,-55.13115 68.78751,-92.05384 -11.6332,-36.92271 -46.02693,-17.70268 -54.62537,-13.15056"
       inkscape:path-effect="#path-effect4895;#path-effect4897"
       id="path4893"
       d="m 369.64556,381.16542 c 1.97033,-1.84861 3.96539,-3.6736 5.98465,-5.4747 17.26377,15.27889 27.67611,37.81707 28.13057,60.73641 0.46116,23.25797 -9.33952,46.36465 -26.22802,62.14287 -10.74003,9.94982 -23.75443,16.67868 -36.70887,21.642 -12.83802,4.91851 -26.34703,8.40644 -38.89326,12.15243 -12.74883,3.80643 -25.044,8.03599 -36.10867,14.3723 -11.0413,6.32239 -20.76426,14.84092 -26.80449,25.51033 -5.83006,10.28541 -8.16497,22.60347 -6.83518,34.58881 1.32959,11.98153 6.26028,23.60076 13.77687,33.28957 7.51517,9.68673 17.56092,17.44826 28.82353,22.73062 11.26124,5.28161 23.7017,8.10492 36.28078,8.64618 11.64314,0.51339 23.41188,-0.93258 34.33787,-4.86079 10.92511,-3.92777 21.01588,-10.399 28.66116,-19.13058 7.64442,-8.73039 12.78814,-19.78851 13.89666,-31.37626 1.10842,-11.585 -1.94336,-23.6894 -8.99378,-33.04674 -5.9275,-7.91067 -14.64486,-13.77617 -24.32904,-16.28037 -9.6809,-2.50335 -20.26938,-1.62863 -29.50035,2.51194 9.08534,-4.44326 19.75099,-5.72272 29.73619,-3.49159 9.98183,2.23037 19.20979,7.95556 25.68518,16.0243 7.65308,9.58599 11.24561,22.21028 10.41484,34.52689 -0.83044,12.31372 -5.94909,24.20506 -13.83915,33.74282 -7.88898,9.53666 -18.43754,16.72484 -29.95872,21.23554 -11.52021,4.51044 -23.96376,6.38567 -36.2901,6.18804 -13.30025,-0.2266 -26.68429,-2.86871 -39.0101,-8.26348 -12.32432,-5.39421 -23.58164,-13.578 -32.21576,-24.12838 -8.63235,-10.54842 -14.59044,-23.48256 -16.47472,-37.19187 -1.88355,-13.70529 0.38181,-28.14012 6.99788,-40.55829 6.86413,-12.87109 17.92844,-22.88764 30.00571,-30.21169 12.05439,-7.31064 25.26091,-12.17062 38.13762,-16.36889 13.0784,-4.26409 25.55194,-7.79339 37.66535,-12.78577 11.99892,-4.94544 23.09232,-11.18338 31.83758,-19.70532 13.75623,-13.27208 21.50482,-32.54272 20.82384,-51.49627 -0.67129,-18.68384 -9.51676,-36.93268 -23.61025,-49.00646 1.56166,-2.20027 3.09657,-4.42158 4.60418,-6.6636 z"
       style="fill:#ff0000;fill-rule:evenodd;stroke:none;stroke-width:1px;stroke-linecap:butt;stroke-linejoin:miter;stroke-opacity:1" />
    <path
       style="fill:#ff0000;fill-rule:evenodd;stroke:none;stroke-width:1px;stroke-linecap:butt;stroke-linejoin:miter;stroke-opacity:1"
       d="m 371.64015,380.48215 c 2.7004,0.0861 5.40158,0.20633 8.10298,0.36059 1.40353,23.01114 -7.17073,46.31068 -23.0558,62.83844 -16.11978,16.77197 -39.3888,26.18073 -62.48766,25.39564 -14.62993,-0.55876 -28.59053,-5.00331 -41.26029,-10.65388 -12.55577,-5.59994 -24.57441,-12.68591 -36.09476,-18.90863 -11.70633,-6.32323 -23.39108,-12.02647 -35.69543,-15.36993 -12.27799,-3.33677 -25.17667,-4.18843 -36.99217,-0.91511 -11.39535,3.15041 -21.75657,10.20956 -29.29119,19.62478 -7.53206,9.41238 -12.26156,21.11494 -13.79755,33.281 -1.535535,12.16358 0.0797,24.75523 4.30833,36.45428 4.22824,11.69757 11.02858,22.49069 19.54062,31.76817 7.86992,8.59596 17.21412,15.89526 27.71763,20.84344 10.50258,4.94787 22.21367,7.50727 33.79387,6.73914 11.57874,-0.7679 23.03517,-4.95001 32.01279,-12.35994 8.9756,-7.40807 15.37677,-18.1251 17.00801,-29.72714 1.40232,-9.78507 -0.61426,-20.09671 -5.69127,-28.71519 -5.0753,-8.61557 -13.181,-15.48423 -22.63611,-19.08369 9.56616,3.28245 18.01264,9.91949 23.49559,18.55773 5.48111,8.63534 7.95795,19.20881 6.83127,29.49306 -1.36677,12.18987 -7.75319,23.65689 -17.04979,31.7786 -9.29432,8.11991 -21.32221,12.90892 -33.64553,14.07402 -12.32179,1.16509 -24.86356,-1.21106 -36.19982,-6.16822 -11.33537,-4.95666 -21.46028,-12.42958 -30.03658,-21.28537 -9.24446,-9.56493 -16.84016,-20.89712 -21.741141,-33.42746 -4.900328,-12.5289 -7.073641,-26.27584 -5.718638,-39.84132 1.35487,-13.56286 6.287681,-26.92168 14.649229,-37.94802 8.35924,-11.02297 20.16806,-19.62809 33.6273,-23.73079 13.95491,-4.24757 28.86133,-3.50669 42.58013,-0.14565 13.69315,3.35434 26.46809,9.25623 38.54192,15.39281 12.26299,6.23266 23.57871,12.5572 35.67433,17.59252 11.98147,4.98757 24.23658,8.42089 36.44633,8.57881 19.11191,0.34235 38.21739,-7.80498 51.13805,-21.68869 12.73679,-13.68614 19.38598,-32.84472 17.95783,-51.34777 2.66008,-0.45156 5.31613,-0.93692 7.96752,-1.45623 z"
       id="path4899"
       inkscape:path-effect="#path-effect4901;#path-effect4903"
       inkscape:original-d="m 371.64015,380.48215 c -33.61891,-33.6189 -51.50129,73.67545 -77.25193,81.54368 -25.75065,7.86826 -227.019397,-102.06056 -151.64269,-43.63302 23.67696,18.35297 -42.917728,107.29434 -20.02827,128.03791 16.02394,14.52169 95.84962,17.8824 113.73201,-16.45178 17.88238,-34.33422 -20.02827,-45.06364 -29.32712,-47.92482"
       inkscape:connector-curvature="0"
       sodipodi:nodetypes="cssssc"
       inkscape:transform-center-x="135.19088"
       inkscape:transform-center-y="95.134333" />
    <path
       inkscape:transform-center-y="-58.307122"
       inkscape:transform-center-x="143.39365"
       sodipodi:nodetypes="cssssc"
       inkscape:connector-curvature="0"
       inkscape:original-d="m 373.53368,381.40939 c -1e-5,-47.54431 -88.51332,15.6795 -112.28545,3.03473 -23.77216,-12.64476 -88.35924,-232.69467 -76.37437,-138.08078 3.76463,29.71965 -106.215972,45.52114 -104.698601,76.37435 1.062254,21.59902 55.131151,80.42068 92.053841,68.78751 36.92271,-11.63321 17.70268,-46.02693 13.15056,-54.62537"
       inkscape:path-effect="#path-effect4907;#path-effect4909"
       id="path4905"
       d="m 373.53368,381.40939 c 1.84861,1.97033 3.6736,3.96539 5.4747,5.98465 -15.27889,17.26377 -37.81707,27.67612 -60.73641,28.13057 -23.25797,0.46117 -46.36464,-9.33951 -62.14287,-26.22801 -9.94982,-10.74003 -16.67868,-23.75443 -21.642,-36.70887 -4.91851,-12.83802 -8.40644,-26.34702 -12.15243,-38.89326 -3.80643,-12.74883 -8.03599,-25.044 -14.3723,-36.10867 -6.32239,-11.0413 -14.84092,-20.76426 -25.51033,-26.80449 -10.28541,-5.83006 -22.60347,-8.16497 -34.58881,-6.83518 -11.98153,1.32959 -23.60076,6.26028 -33.28957,13.77687 -9.68674,7.51517 -17.448265,17.56092 -22.730618,28.82353 -5.281615,11.26124 -8.104928,23.7017 -8.64618,36.28078 -0.513392,11.64314 0.932575,23.41188 4.860785,34.33787 3.927776,10.92511 10.398999,21.01588 19.130583,28.66116 8.73039,7.64442 19.78851,12.78814 31.37626,13.89667 11.585,1.10841 23.6894,-1.94336 33.04674,-8.99379 7.91067,-5.9275 13.77617,-14.64486 16.28037,-24.32904 2.50335,-9.6809 1.62863,-20.26938 -2.51194,-29.50035 4.44326,9.08534 5.72272,19.75099 3.49159,29.73619 -2.23037,9.98183 -7.95556,19.20979 -16.0243,25.68518 -9.58599,7.65308 -22.21028,11.24561 -34.52689,10.41484 -12.31372,-0.83044 -24.20506,-5.94909 -33.74282,-13.83915 -9.53666,-7.88898 -16.724841,-18.43754 -21.235545,-29.95872 -4.510431,-11.52021 -6.385669,-23.96376 -6.188039,-36.2901 0.226603,-13.30025 2.868709,-26.68429 8.263479,-39.0101 5.39421,-12.32432 13.578001,-23.58164 24.128385,-32.21576 10.54842,-8.63235 23.48256,-14.59044 37.19187,-16.47472 13.70529,-1.88355 28.14012,0.3818 40.55829,6.99788 12.87109,6.86413 22.88764,17.92844 30.21169,30.00571 7.31064,12.0544 12.17062,25.26091 16.36889,38.13762 4.26409,13.0784 7.79338,25.55194 12.78577,37.66535 4.94544,11.99892 11.18338,23.09232 19.70532,31.83758 13.27208,13.75623 32.54272,21.50482 51.49627,20.82384 18.68384,-0.67129 36.93268,-9.51677 49.00646,-23.61026 2.20027,1.56166 4.42158,3.09657 6.6636,4.60418 z"
       style="fill:#ff0000;fill-rule:evenodd;stroke:none;stroke-width:1px;stroke-linecap:butt;stroke-linejoin:miter;stroke-opacity:1" />
    <circle
       style="opacity:1;fill:#ff0000;fill-opacity:1;stroke:none;stroke-width:0.26929134;stroke-linecap:round;stroke-linejoin:round;stroke-miterlimit:4;stroke-dasharray:none;stroke-opacity:1"
       id="path4911"
       cx="276.93677"
       cy="590.12439"
       r="7.1529565"
       inkscape:transform-center-x="94.087815"
       inkscape:transform-center-y="207.18327" />
    <circle
       inkscape:transform-center-y="79.970566"
       inkscape:transform-center-x="213.03083"
       r="7.1529565"
       cy="215.60954"
       cx="439.04645"
       id="circle4913"
       style="opacity:1;fill:#ff0000;fill-opacity:1;stroke:none;stroke-width:0.26929134;stroke-linecap:round;stroke-linejoin:round;stroke-miterlimit:4;stroke-dasharray:none;stroke-opacity:1"
       transform="matrix(0.70710678,0.70710678,-0.70710678,0.70710678,0,0)" />
    <circle
       transform="matrix(0,1,-1,0,0,0)"
       style="opacity:1;fill:#ff0000;fill-opacity:1;stroke:none;stroke-width:0.26929134;stroke-linecap:round;stroke-linejoin:round;stroke-miterlimit:4;stroke-dasharray:none;stroke-opacity:1"
       id="circle4915"
       cx="286.92227"
       cy="-164.65436"
       r="7.1529565"
       inkscape:transform-center-x="207.18328"
       inkscape:transform-center-y="-94.087817" />
    <circle
       inkscape:transform-center-y="-213.03083"
       inkscape:transform-center-x="79.970566"
       r="7.1529565"
       cy="-326.43094"
       cx="-88.799736"
       id="circle4917"
       style="opacity:1;fill:#ff0000;fill-opacity:1;stroke:none;stroke-width:0.26929134;stroke-linecap:round;stroke-linejoin:round;stroke-miterlimit:4;stroke-dasharray:none;stroke-opacity:1"
       transform="matrix(-0.70710678,0.70710678,-0.70710678,-0.70710678,0,0)" />
    <circle
       transform="scale(-1,-1)"
       style="opacity:1;fill:#ff0000;fill-opacity:1;stroke:none;stroke-width:0.26929134;stroke-linecap:round;stroke-linejoin:round;stroke-miterlimit:4;stroke-dasharray:none;stroke-opacity:1"
       id="circle4919"
       cx="-468.71744"
       cy="-174.80026"
       r="7.1529565"
       inkscape:transform-center-x="-94.087815"
       inkscape:transform-center-y="-207.18327" />
    <circle
       inkscape:transform-center-y="-79.970559"
       inkscape:transform-center-x="-213.03083"
       r="7.1529565"
       cy="200.86307"
       cx="-629.88239"
       id="circle4921"
       style="opacity:1;fill:#ff0000;fill-opacity:1;stroke:none;stroke-width:0.26929134;stroke-linecap:round;stroke-linejoin:round;stroke-miterlimit:4;stroke-dasharray:none;stroke-opacity:1"
       transform="matrix(-0.70710678,-0.70710678,0.70710678,-0.70710678,0,0)" />
    <circle
       transform="matrix(0,-1,1,0,0,0)"
       style="opacity:1;fill:#ff0000;fill-opacity:1;stroke:none;stroke-width:0.26929134;stroke-linecap:round;stroke-linejoin:round;stroke-miterlimit:4;stroke-dasharray:none;stroke-opacity:1"
       id="circle4923"
       cx="-477.87515"
       cy="580.89581"
       r="7.1529565"
       inkscape:transform-center-x="-207.18328"
       inkscape:transform-center-y="94.087818" />
    <circle
       inkscape:transform-center-y="213.03083"
       inkscape:transform-center-x="-79.970574"
       r="7.1529565"
       cy="742.0434"
       cx="-102.64685"
       id="circle4925"
       style="opacity:1;fill:#ff0000;fill-opacity:1;stroke:none;stroke-width:0.26929134;stroke-linecap:round;stroke-linejoin:round;stroke-miterlimit:4;stroke-dasharray:none;stroke-opacity:1"
       transform="matrix(0.70710678,-0.70710678,0.70710678,0.70710678,0,0)" />
    <circle
       style="opacity:1;fill:#ff0000;fill-opacity:1;stroke:none;stroke-width:0.26929134;stroke-linecap:round;stroke-linejoin:round;stroke-miterlimit:4;stroke-dasharray:none;stroke-opacity:1"
       id="path4927"
       cx="349.03952"
       cy="601.11121"
       r="3.7548721"
       inkscape:transform-center-x="23.194925"
       inkscape:transform-center-y="218.75998" />
    <circle
       inkscape:transform-center-y="138.28537"
       inkscape:transform-center-x="171.08796"
       r="3.7548721"
       cy="225.91362"
       cx="510.37772"
       id="circle4929"
       style="opacity:1;fill:#ff0000;fill-opacity:1;stroke:none;stroke-width:0.26929134;stroke-linecap:round;stroke-linejoin:round;stroke-miterlimit:4;stroke-dasharray:none;stroke-opacity:1"
       transform="matrix(0.70710678,0.70710678,-0.70710678,0.70710678,0,0)" />
    <circle
       transform="matrix(0,1,-1,0,0,0)"
       style="opacity:1;fill:#ff0000;fill-opacity:1;stroke:none;stroke-width:0.26929134;stroke-linecap:round;stroke-linejoin:round;stroke-miterlimit:4;stroke-dasharray:none;stroke-opacity:1"
       id="circle4931"
       cx="357.46561"
       cy="-150.73283"
       r="3.7548721"
       inkscape:transform-center-x="218.75998"
       inkscape:transform-center-y="-23.194941" />
    <circle
       inkscape:transform-center-y="-171.08796"
       inkscape:transform-center-x="138.28536"
       r="3.7548721"
       cy="-310.57126"
       cx="-16.889582"
       id="circle4933"
       style="opacity:1;fill:#ff0000;fill-opacity:1;stroke:none;stroke-width:0.26929134;stroke-linecap:round;stroke-linejoin:round;stroke-miterlimit:4;stroke-dasharray:none;stroke-opacity:1"
       transform="matrix(-0.70710678,0.70710678,-0.70710678,-0.70710678,0,0)" />
    <circle
       transform="scale(-1,-1)"
       style="opacity:1;fill:#ff0000;fill-opacity:1;stroke:none;stroke-width:0.26929134;stroke-linecap:round;stroke-linejoin:round;stroke-miterlimit:4;stroke-dasharray:none;stroke-opacity:1"
       id="circle4935"
       cx="-394.47308"
       cy="-158.89665"
       r="3.7548721"
       inkscape:transform-center-x="-23.194927"
       inkscape:transform-center-y="-218.75998" />
    <circle
       inkscape:transform-center-y="-138.28536"
       inkscape:transform-center-x="-171.08797"
       r="3.7548721"
       cy="214.99814"
       cx="-554.39337"
       id="circle4937"
       style="opacity:1;fill:#ff0000;fill-opacity:1;stroke:none;stroke-width:0.26929134;stroke-linecap:round;stroke-linejoin:round;stroke-miterlimit:4;stroke-dasharray:none;stroke-opacity:1"
       transform="matrix(-0.70710678,-0.70710678,0.70710678,-0.70710678,0,0)" />
    <circle
       transform="matrix(0,-1,1,0,0,0)"
       style="opacity:1;fill:#ff0000;fill-opacity:1;stroke:none;stroke-width:0.26929134;stroke-linecap:round;stroke-linejoin:round;stroke-miterlimit:4;stroke-dasharray:none;stroke-opacity:1"
       id="circle4939"
       cx="-402.37756"
       cy="592.36121"
       r="3.7548721"
       inkscape:transform-center-x="-218.75996"
       inkscape:transform-center-y="23.194943" />
    <circle
       inkscape:transform-center-y="171.08795"
       inkscape:transform-center-x="-138.28534"
       r="3.7548721"
       cy="752.50653"
       cx="-28.78385"
       id="circle4941"
       style="opacity:1;fill:#ff0000;fill-opacity:1;stroke:none;stroke-width:0.26929134;stroke-linecap:round;stroke-linejoin:round;stroke-miterlimit:4;stroke-dasharray:none;stroke-opacity:1"
       transform="matrix(0.70710678,-0.70710678,0.70710678,0.70710678,0,0)" />
  </g>
</svg>
