<?xml version="1.0" encoding="utf-8"?>

<!DOCTYPE svg PUBLIC "-//W3C//DTD SVG 1.1//EN" "http://www.w3.org/Graphics/SVG/1.1/DTD/svg11.dtd">
<svg version="1.1" id="Layer_1" xmlns="http://www.w3.org/2000/svg" xmlns:xlink="http://www.w3.org/1999/xlink" x="0px" y="0px"
	 viewBox="135.5742 64.3587 1553.4258 1702.4047" enable-background="new 135.5742 64.3587 1553.4258 1702.4047"
	 xml:space="preserve">
<g>
	<g>
		<path fill="#C37182" stroke="#C37182" stroke-width="0.0938" d="M387.51,108.7c5.34-2.98,11.17-5.75,17.46-5.28
			c8.39-0.93,16.14,4.31,20.8,10.91c7.11,9.11,10.99,20.14,15.01,30.83c3.33,8.9,5.57,18.2,9.32,26.93
			c6.57-11.4,17.93-19.45,30.23-23.69c5.61-1.55,11.73-3.15,17.4-0.93c5.54,1.75,10.15,6.24,11.66,11.89
			c0.7,3.22,0.85,6.53,1.46,9.76c6.49-3.98,13.29-7.46,20.57-9.76c4.91-2.21,10.36-2.29,15.52-3.64c12.64-1.05,26.28,1.7,36.1,10.18
			c9.5,8.02,14.03,20.85,13.27,33.1c-0.95,19.44-11.78,36.74-24.39,50.93c-3.2,3.39-6.66,6.51-10,9.75
			c-21.87-14.15-46.48-24.25-72.26-28.37c-8.84-1.37-17.7-3.09-26.68-2.93c-4.33,0.07-8.65-0.2-12.96-0.62
			c-6.04-0.61-12.04,0.63-18.08,0.64c-10.1,0-20.04,2.07-30.04,3.31c-13.31,2.4-26.4,6.01-39.23,10.29
			c-10.75-15.54-15.7-34.37-16.96-53.03c-0.2-11.09,1.29-22.2,4.33-32.84c4.41-14.5,12.54-28.13,24.41-37.73
			C378.36,114.61,383.02,111.75,387.51,108.7z"/>
		<path fill="#8DB8A4" stroke="#8DB8A4" stroke-width="0.0938" d="M1296.42,309.69c7.58-2.66,15.6699-2.05,23.49-3.36
			c8.37-0.12,16.8099-0.64,25.11,0.82c10.23,0.4,20.1899,3.22,29.65,7.02c12.1599,4.64,23.2999,12.83,29.97,24.15
			c2.9299,5.11,4.78,10.84,5.61,16.66c-0.87,9.77-5.14,19.21-11.72,26.48c-4.9301,5.13-9.8201,10.41-15.88,14.22
			c-6.64,5.07-14.3301,8.4-21.6901,12.22c-20.7899,9.96-42.5699,17.7-63.26,27.87c-15.6599,8.28-31.33,17.33-43.35,30.59
			c-6.97,7.69-13.52,16.13-17.11,25.97c-6.0599,15.81-6.11,33.42-2.3,49.77c2.0601,10.94,5.7001,21.58,10.2401,31.75
			c2.71,7.29,6.0699,14.33,9.9099,21.1c18.67,36.75,43.37,70.12,61.35,107.25c1.3101,3.45,1.05,7.18,1.1101,10.8
			c0.1499,13.99,0.12,27.99-0.1901,41.98c-1.03,7.46-1.09,14.99-1,22.51c-2.22,1.64-4.72,2.81-7.29,3.76
			c-0.2899-1.81-0.5399-3.61-0.84-5.4c-7.4-34.93-19.28-68.85-33.85-101.44c-12.3199-26.22-26.52-52.1-46.77-73.1
			c-8.17-8.78-18.26-15.57-25.91-24.84c-4.0699-4.95-8.72-9.45-12.2899-14.79c-3.4701-5.23-7.28-10.24-10.49-15.63
			c-6.49-10.71-13.64-21.2-17.79-33.11c-3.52-9.03-5.51-18.53-7.3-28.02c-0.9099-5.3-0.4299-10.71-1.1599-16.02
			c-0.92-6.95-0.0701-13.92,0.4299-20.86c0.02-9.12,2.09-18.08,4.23-26.88c4.3101-18.01,12.2201-35.37,24.3401-49.5
			c19.0299-20.99,43.3999-36.64,69.4199-47.53c9.99-4.57,20.6-7.51,31.04-10.85C1286.89,312.07,1291.48,310.19,1296.42,309.69z"/>
		<path fill="#6F6D6B" stroke="#6F6D6B" stroke-width="0.0938" d="M298.38,353.06c0.09-2.25-0.35-4.84,1.24-6.69
			c0.58,1.11,1.14,2.24,1.69,3.38l-0.62-0.22l-1.68-0.58c-0.84,7.95,0.76,15.86,3.74,23.22
			C299.41,366.45,298.47,359.59,298.38,353.06z"/>
		<path fill="#5C1A11" stroke="#5C1A11" stroke-width="0.0938" d="M299.01,348.95l1.68,0.58c4.27,8.48,10.52,15.95,18.3,21.42
			c8.15,5.39,17.13,10.02,27.01,10.94c5.88,1.78,12,0.97,18.03,0.99c6.08-1.31,12.37-1.83,18.05-4.55l-0.63,1.15
			c-13.86,19.41-43.77,24.17-63.2,10.53c-3.54-2.35-6.64-5.28-9.56-8.35c-2.26-2.97-4.32-6.13-5.94-9.49
			C299.77,364.81,298.17,356.9,299.01,348.95z"/>
		<path fill="#DDB166" stroke="#DDB166" stroke-width="0.0938" d="M236.61,369.69c4.99-4.09,9.46-8.82,14.85-12.43
			c0.17,6.94-1.84,13.8-0.8,20.74c0.67,4.61,0.72,9.28,1.25,13.92c2.13,12.7,5.66,25.16,10.89,36.95c1.92,5.89,5.97,10.72,8.1,16.5
			c-0.76,0.3-2.26,0.91-3.01,1.21c-5.44-0.22-10.53-2.52-15.93-3.01c-4.67-0.35-9.03-2.26-13.66-2.77
			c-22.23-4.53-44.39-9.25-66.66-13.61c-0.13-0.51-0.38-1.51-0.51-2.01c9.59-6.98,18.05-15.38,27.25-22.85
			c6.84-5.44,13.04-11.63,19.9-17.06C224.56,380.28,230.21,374.54,236.61,369.69z"/>
		<path fill="#BDC68A" stroke="#BDC68A" stroke-width="0.0938" d="M784.9399,622.01c-34.23-46.95-61.4099-98.73-83.58-152.3501
			c-1.86-3.2899-2.26-7.26-4.67-10.23c-0.61-3.3699-2.28-6.3599-3.55-9.48c-19.76-52.9099-45.35-104.6-82.88-147.27
			c-6.68-7.6099-14.17-14.4299-21.27-21.6299c-3.86-3.53-8.25-6.42-12.11-9.9401c-4.58-4.34-10.23-7.28-14.96-11.4301
			c-21.87-14.1499-46.48-24.25-72.2599-28.3699c-8.84-1.3701-17.7-3.0901-26.68-2.9301c-4.33,0.0699-8.65-0.2001-12.96-0.62
			c-6.04-0.6101-12.04,0.63-18.08,0.6399c-10.1,0-20.04,2.0701-30.04,3.3101c-13.31,2.4-26.4,6.01-39.23,10.29
			c-9.96,4.23-20.25,7.6799-29.6801,13.0701c-9.02,4.23-17.0699,10.0898-25.33,15.5798C283.15,288.37,262.64,313.12,254.44,342.62
			c-1.96,4.66-1.95,9.76-2.98,14.64c0.17,6.9399-1.84,13.8-0.8,20.74c0.67,4.61,0.72,9.28,1.25,13.9199
			c2.1299,12.7001,5.66,25.16,10.89,36.9501c1.92,5.89,5.97,10.72,8.1,16.5c-0.76,0.2999-2.26,0.91-3.01,1.21
			c1.36,0.41,2.71,0.84,4.04,1.34c0.29,0.75,0.6,1.51,0.95,2.26c3.57,6.55,7.78,12.74,12.35,18.6401
			c5.8799,7.73,11.59,15.6499,18.52,22.49c11.98,13.2999,24.92,25.7,36.9,39.01c1.93,1.98,3.76,4.0898,5.22,6.47
			c1.01,0.74,2.12,1.3999,2.99,2.33c7.55,9.91,15.3,19.78,21.19,30.8199c1.03,2.24,2.22,4.42,3.91,6.25
			c2.15,5.8,5.34,11.1501,7.56,16.92c5.75,14.62,10.95,29.63,13.36,45.1901c0.49,1.96,1.51,3.7999,1.59,5.8599
			c-0.15,6.7001,2.38,13.1101,2.31,19.8201c1.03,5.3,0.95,10.7,0.97,16.0801c-0.07,7.99,1.67,16.01,0.23,23.98
			c0.11,10.3199-0.6201,20.6499-0.7,30.99c0.16,3.09-1.91,5.8-1.58,8.92c0.23,4.73-1.33,9.31-1.11,14.04
			c-0.48,7.04-2.1,13.94-2.71,20.97c-0.43,8.05-2.33,15.93-3.18,23.95c0.1,6.41-1.73,12.6201-2.2,19
			c-0.18,5.3701-0.99,10.69-1.35,16.05c-1.08,2.57-1.5,5.32-1.5,8.11c-0.08,8.14-2.41,16.02-3.19,24.09
			c-0.4,4.38-2.12,8.4901-2.79,12.81c-0.15,3.7-0.2,7.42,0.06,11.1201c0.95,3.31,3.04,6.5,6.23,8.02c4,0.43,7.97,1.22,12,1.34
			c13.21-1.12,25.13-9.07,32.48-19.93c7.86-11.86,12.77-25.84,23.14-35.93c4.54-4.16,11.33-7.4301,17.4-4.65
			c11.1,5.35,17.6,16.63,28.02,22.97c1.85-16.65,4.42-33.31,9.69-49.25c4.71-17.22,12.23-33.52,20.87-49.09
			c8.56-14.7,17.89-29.08,29.57-41.52c3.26-3.1901,4.42-7.91,7.88-10.92c3.17-2.87,5.92-6.2001,9.34-8.77
			c7.92-5.64,14.91-12.4501,22.57-18.41c10.11-6.98,19.93-14.46,30.73-20.3699c6.16-3.27,11.96-7.24,18.5699-9.5901
			c15.15-7.13,31.14-12.5,47.6-15.63c7.71-1,15.33-2.87,23.14-2.99c10.22,0.0599,20.48-1.83,30.66-0.0499
			c3.9601,0.8099,8,1.0299,12.03,1.1799c15.33,1.8301,30.48,5.0801,45.2999,9.36C799.04,641.0601,792.0801,631.4299,784.9399,622.01
			z M381.45,379.48c-13.86,19.41-43.77,24.1699-63.2,10.53c-3.54-2.3501-6.64-5.28-9.56-8.3501c-2.26-2.97-4.32-6.1299-5.94-9.49
			c-3.34-5.72-4.28-12.58-4.37-19.1099c0.09-2.25-0.35-4.8401,1.24-6.6901c0.58,1.11,1.14,2.24,1.69,3.38l-0.62-0.22
			c4.27,8.48,10.52,15.95,18.3,21.4199c8.15,5.39,17.13,10.02,27.01,10.9401c5.88,1.7799,12,0.97,18.03,0.99
			c6.08-1.3099,12.37-1.83,18.05-4.55L381.45,379.48z"/>
		<path fill="#DDB166" stroke="#DDB166" stroke-width="0.0938" d="M1411.04,402.01c10.9399-1.01,21.96-1.64,32.96-1.21
			c7.59,1.06,15.4399,0,22.84,2.36c21.25,1.3,42.05,7.49,60.9701,17.19c7.8999,4.01,15.5099,8.72,22.24,14.52
			c9.5399,7.7,17.96,17.24,22.61,28.72c2.86,7.79,4.74,16.19,3.5599,24.51c-1.35,4.67-2.5399,9.56-5.8099,13.33
			c-8.65,10.62-22.04,15.63-34.9501,18.75c-5.1499,0.75-10.26,1.73-15.3999,2.36c-17.6101-0.1-35.2301,0.2401-52.8201-0.33
			c-8.35-1.2401-16.8099-0.38-25.2-0.68c-4.74-0.36-9.3201,1.33-14.04,0.99c-3.39-0.13-6.67,0.85-10.04,0.91
			c-4.77,0.05-9.23,2.02-13.9399,2.5c-18.4501,4.54-37.0601,12.79-49.1801,27.97c-12.4199,14.93-17.63,34.24-20.4199,53.0699
			c0.2699,5.38-1.28,10.64-0.9601,16.03c0.29,12-0.75,24.07,0.9,36.01c-0.46,9.97,2.12,19.72,2.27,29.66
			c0.02,11.11,0,22.27-1.15,33.34c-2.45,17.93-6.9299,35.66-14.1799,52.27c-1.6801,1.04-3.3201,2.11-4.9401,3.21
			c-0.09-7.52-0.03-15.05,1-22.51c0.3101-13.99,0.34-27.99,0.1901-41.98c-0.0601-3.62,0.2-7.35-1.1101-10.8
			c0.5801-1.31,0.7301-2.65,0.4701-4.03c-0.73-4.07-0.17-8.28-1.2101-12.3c-1.48-5.82-1.25-11.93-2.85-17.72
			c-1.4-4.53-1.51-9.35-3.36-13.75c-3.91-17.91-14.8199-33.38-18.64-51.35c-2.66-6.44-2.89-13.44-4.8199-20.08
			c-0.4-7.72-2.7001-15.1899-2.7001-22.9399c-1.45-9.6201-1.0399-19.38-0.7899-29.07c2.51-23.18,11.13-45.43,23.23-65.27
			c14.75-23.42,35.46-44.69,62.26-53.62c4.25-1.88,8.9399-2.5,13.14-4.51c3.08-1.4,6.59-1.16,9.7999-2.15
			C1397.52,403.47,1404.39,403.47,1411.04,402.01z"/>
		<path fill="#C37182" stroke="#C37182" stroke-width="0.0938" d="M250.87,487.86c6.22-13.12,12.02-26.89,22.01-37.68
			c3.57,6.55,7.78,12.74,12.35,18.64c5.88,7.73,11.59,15.65,18.52,22.49c11.98,13.3,24.92,25.7,36.9,39.01
			c1.93,1.98,3.76,4.09,5.22,6.47c-0.02,3.96-2.26,7.42-2.94,11.27c-4.3,13.86-10.25,27.34-18.77,39.15
			c-7.33,9.81-16.82,18.97-29.1,21.88c-8.03,2.8-16.72,0.66-24.15-2.86c-11.52-6.46-19.81-17.68-24-30.07
			c-2.68-5.71-3.27-12.03-4.73-18.09c-1.38-10.98-1.05-22.09-0.9-33.13C242.11,512.14,244.96,499.32,250.87,487.86z"/>
		<path fill="#BDC68A" stroke="#BDC68A" stroke-width="0.0938" d="M1446.74,545.7c16.4-5.57,34.25-7.91,51.3201-4.32
			c2.1,0.73,4.33,1.02,6.58,1.07c4.87-0.12,9.2,2.56,14.03,2.94c19.3199,4.93,37.6699,13.17,54.98,23
			c15.84,9.72,31.59,19.96,44.6699,33.3c5.41,5.95,11.15,11.73,15.42,18.61c8.4,10.95,14.79,23.59,17.9,37.07
			c2.36,6.6,1.74,13.71,1.73,20.59c-0.78,7.95-3.1899,15.96-7.76,22.57c-4.71,7.29-13.45,10.65-21.66,11.98
			c-9.76,0.09-19.8099,1.08-29.26-1.92c-9.5599-2-18.33-6.38-27.2-10.26c-28.79-13.61-55.92-31.24-86.76-40.09
			c-2.91-1.05-6.0499-1.09-9.01-1.9c-8.28-2.69-17.11-2.09-25.6799-2.19c-19.37-0.39-37.4501,9.6-51,22.83
			c-11.8,11.39-20.42,25.5-28.2001,39.8c-8.5699,17.8-16.23,36.08-22.2799,54.8799c-1.8101-2.47-4.2301-4.89-7.52-4.83
			c-5.87-0.93-11,2.55-15.74,5.45c7.25-16.61,11.73-34.34,14.1799-52.27c1.15-11.07,1.17-22.23,1.15-33.34
			c3.1899-5.73,2.3-12.58,4.45-18.64c2.2201-10.39,5.4401-20.53,9.14-30.47c2.5701-7.08,4.99-14.25,8.29-21.03
			c9.15-17.6,22.5699-32.69,37.9-45.15c5.99-5.64,13.27-9.56,20.14-13.98C1426.23,554.06,1436.01,548.62,1446.74,545.7z"/>
		<path fill="#DDB166" stroke="#DDB166" stroke-width="0.0938" d="M718.96,639.37c10.22,0.06,20.48-1.83,30.66-0.05
			c3.96,0.81,8,1.03,12.03,1.18c15.33,1.83,30.48,5.08,45.3,9.36c22.34,6.57,44.16,14.95,65.1,25.17
			c38.22,17.3,73.74,39.87,111.34,58.43c37.4,18.93,75.51,36.55,114.6899,51.49c19.64,7.41,39.5601,14.2,60.02,18.92
			c5.8,2.01,12.02,2.14,17.9601,3.56c3.5599,0.89,7.24,1.21,10.9199,1.14c4.39-0.03,8.73,1.37,13.13,0.67
			c3.27-0.54,6.59-0.64,9.9-0.83c7.79-1.33,15.45-4.72,20.71-10.78c0.14,4.92-0.61,9.8-1.27,14.67
			c-4.09,21.49-12.1699,42-21.3899,61.77c-16.5,34.42-36.89,66.85-59.02,97.91c-20.4501,28.44-42.23,56.17-67.74,80.29
			c-56.27,54.24-127.11,94.47-204.0801,109.83c-8.12,1.0701-16.0099,3.5-24.2,4.0801c-9.98,0.83-19.92,2.5399-29.97,2.3899
			c-10.69,0.2301-21.39,0.2201-32.07-0.13c-26.11-1.96-52.21-5.96-77.16-14.0699c-73.11-21.9301-138.83-70.3-178.21-136.08
			c-21.04-34.88-34.05-74.65-37.03-115.3c-0.27-12.35-0.84-24.78,0.42-37.08c1.85-16.65,4.42-33.31,9.69-49.25
			c4.71-17.22,12.23-33.52,20.87-49.09c8.56-14.7,17.89-29.08,29.57-41.52c3.26-3.19,4.42-7.91,7.88-10.92
			c3.17-2.87,5.92-6.2,9.34-8.77c7.92-5.64,14.91-12.45,22.57-18.41c10.11-6.98,19.93-14.46,30.73-20.37
			c6.16-3.27,11.96-7.24,18.5699-9.59c15.15-7.13,31.14-12.5,47.6-15.63C703.53,641.36,711.15,639.49,718.96,639.37 M728.95,646.77
			c-8.81,5.74-17.67,11.52-25.46,18.64c-2.26,1.94-4.08,5.08-7.49,4.8c-0.71-0.27-2.13-0.8-2.84-1.07
			c2.54-2.47,5.4301-4.59,7.67-7.35c-0.01-4.52-1.47-8.89-1.85-13.38c-1.75,0.6-3.2,1.79-4.54,3.03
			c-9.32,7.83-17.27,17.18-24.64,26.83c-1.82,0.9-4.88,3.83-6.04,0.56c2.24-2.99,4.36-6.07,6.93-8.79c-1.5-3.04-2.22-6.35-3.2-9.56
			c-0.54-1.42-2.3-3.64-3.52-1.52c-7.83,9.42-14.5099,19.81-20.34,30.58c-1.07,0.27-2.11,0.59-3.17,0.88
			c-0.35-0.36-1.06-1.07-1.41-1.43c0.98-1.9,2.21-3.73,2.65-5.84c-2-4.1-4.41-8-6.68-11.94c-5.3,10.11-11.21,19.96-15.24,30.69
			c-0.7401,2.03-1.72,3.96-2.91,5.77c0.89,0.23,2.67,0.69,3.56,0.92c-1.12,0.33-2.24,0.3799-3.37,0.14
			c-1.19,0.84-2.32,1.76-3.42,2.71c-0.52-0.08-1.57-0.24-2.09-0.33c1.6-3.61,2.97-7.32,4.02-11.13c-3.16-3.31-5.18-7.49-8.32-10.8
			c-5.05,12.94-10.51,25.89-13.16,39.57c-2.52,2.29-4.6201,5.14-7.91,6.4c0.54-2.9901,1.32-5.9301,2.15-8.84
			c0.26-1.43,0.89-3.14-0.16-4.38c-2.49-3.32-5.68-6.01-8.61-8.91c-4.26,11.12-5.38,23.12-7.37,34.79
			c-0.64,3.37-0.92,8.45-5.56,8.26c0.2-3.49,1.49-7.01,0.8-10.49c-3.23-2.85-6.64-5.48-10.18-7.91c-1.98,9.88-2.78,20.01-2.62,30.09
			c-0.39,3.44-0.07,6.9-0.29,10.34c-0.5,2.2401-1.9901,4.05-3.22,5.9301c-1.18-3.97-0.56-8.13-1.03-12.1801l-0.3,0.9901l-0.04-1.29
			c-3.98-2.31-7.78-4.94-12.03-6.73c0.97,10.4,0.14,20.92,1.92,31.26c0.24,3.84,1.94,7.84,0.52,11.62
			c-0.66,0.44-1.98,1.34-2.64,1.79c-0.6-3.12-0.74-6.41-1.83-9.39c-3.86-2.39-8.37-3.58-12.45-5.5699
			c0.21,3.47,0.31,6.96,0.98,10.39c1.89,8.96,3.47,18.03,6.58,26.67c-0.07,3.0099,0.35,6.37-1.82,8.81
			c-1.03-3.65-2.25-7.23-3.46-10.82c-4.47-1.09-8.82-2.6-13.36-3.38c1.7,8.3,4.71,16.28,7.92,24.1c-0.5,7.2,7.6,12.94,4.92,20.46
			c-1.1-0.53-2.19-1.06-3.27-1.57c-0.92-1.71-1.76-3.45-2.58-5.19c-4.59-0.45-9.15-1.21-13.75-1.39
			c5.99,12.51,12.16,25.12,20.71,36.13l-0.25,0.45c0.17,0.71,0.51,2.15,0.69,2.87c-0.41,0.62-1.23,1.88-1.64,2.51
			c-2.31-2.93-3.8799-6.58-6.94-8.82c-4.4-0.23-8.79,0.09-13.16,0.47c6.22,10.6201,13.84,20.42,22.07,29.57
			c0.7,1.94,1.43,3.88,2.19,5.82c-1.07-0.28-2.14-0.54-3.21-0.79c-1.29-1.37-2.6-2.71-3.91-4.04c-4.41,0.8-8.86,1.39-13.23,2.37
			c1.87,3.67,5.01,6.4,7.76,9.39c6.74,7.1,13.81,13.9901,21.79,19.69c0.35,1.99,2.38,4.63-0.1,6.07c-2.9-2.21-5.56-4.72-8.43-6.96
			c-4.37,1.17-8.7,2.5099-12.9,4.2c1.3199,1.58,2.64,3.17,4.2599,4.47c9.01,7.48,18.79,13.96,28.47,20.53
			c1.29,1.75,2.16,3.77,1.78,6.01c-3.37-2.14-6.84-4.09-10.29-6.08c-3.99,2.1201-8.32,3.61-12.06,6.21
			c6.98,4.47,14.06,8.79,21.22,12.97c3.88,3.92,9.72,4.88,14.26,7.8199c1.88,1.52,3.2,3.64,4.18,5.84
			c-0.37,0.33-1.12,0.98-1.49,1.31c-2.96-1.41-5.9-2.86-8.98-3.96c-3.76,2.52-7.58,4.9301-11.27,7.55
			c12.28,6.28,24.99,12.0801,38.43,15.41c0.87,1.09,1.97,1.99,2.98,2.98c-0.03,0.9-0.06,1.8201-0.07,2.75
			c-3.74-1.11-7.36-2.7-11.23-3.27c-2.14,1.0701-3.79,2.87-5.67,4.3301c-1.65,1.4099-3.88,2.49-4.38,4.8099
			c12.84,4.38,25.99,8,39.35,10.4c0.82,1.59,2.31,2.74,3.53,4.05c-1.66,0.1899-3.32,0.4299-4.96,0.6599
			c-2.08-0.48-4.08-1.22-6.09-1.8999c-3.71,3.0099-6.75,6.73-9.82,10.36c9.46,2.6499,19.21,3.6599,28.87,5.26
			c4.76,2.1899,12.41-0.5701,14.72,5.4299c-3.23,0.21-6.47,0.15-9.7-0.0699l-0.65-0.02c-3.46,3.0499-5.92,7.11-8.69,10.79
			c11.08,3.72,23.02,2.45,34.51,3.2799c2.83,0.42,6.53-1.01,8.47,1.77c-3.23,0.53-6.64,0.35-9.71,1.53
			c-1.55,0.58-1.41,2.37-1.56,3.72c-1.77,2.65-3.31,5.4401-4.53,8.38c2.13,1.4401,4.86,0.72,7.28,0.9
			c5.43-0.23,10.93,0.27,16.32-0.46l0.88-0.9601c5.14-0.49,10.3-0.85,15.41-1.64c2.63,0.92,5.22,1.9701,7.83,2.9801
			c0,0.7,0.02,1.4099,0.04,2.1399c-3.5,0.4701-7.51,0.0601-10.57,2.01c-1.79,3.9301-4.16,7.66-5.11,11.9301
			c9.44-0.4,18.75-2.33,28.04-3.9301c5.49-0.35,11.27-3.6799,16.55-0.97c-1.61,2.0601-4.49,1.8101-6.56,3.1901
			c-1.5,0.5499-3.76,0.4199-4.3,2.26c-1.59,3.6799-2.59,7.59-4.0601,11.33c11.3101-0.55,22-4.86,32.8-7.9401
			c2.76,0.39,5.5-0.1599,8.21-0.6499c0.03,0.6399,0.11,1.9199,0.14,2.5599c-2.3,0.71-4.59,1.4501-6.86,2.24
			c-1.07,4.4501-2.03,8.9401-3.21,13.37c13.43-3.11,26.14-8.77,38.6-14.5699c1.31,0.0399,2.65,0.09,3.99,0.14
			c0.6,0.77,1.21,1.5399,1.83,2.33c-3.58,1.5601-7.4399,2.6801-10.61,5.04c-0.64,4.49-1.32,9-1.51,13.5599
			c4.03-2,8.2401-3.59,12.29-5.5399c8.4-3.8301,16.27-8.6901,24.41-13.03c1.81,0.45,4.51-0.02,4.19,2.72
			c-2.83,1.45-5.65,2.89-8.23,4.75c-0.14,4.51-0.72,9.01-0.48,13.54c4.04-1.24,7.45-3.8,11.08-5.87
			c7.13-4.15,13.97-8.78,20.75-13.4501c3.15-0.4399,7.36-3.23,9.76,0.14c-2.13,1.72-4.55,3.14-6.36,5.23
			c0.02,4.5901,0.5,9.17,0.97,13.74c10.76-7.5,21.12-15.6399,30.74-24.5499c1.6801-0.8,3.4-1.51,5.1201-2.23
			c0.34,0.63,1.02,1.89,1.36,2.5199c-2.34,2.29-4.98,4.26-7.5,6.3401c1.03,4.63,0.96,9.52,2.71,13.98
			c10.1801-9.15,20.3-18.4,29.41-28.63c1.23,0.08,2.46-0.14,3.71-0.2c-0.13,0.96-0.25,1.9399-0.36,2.9399
			c-1.77,1.8101-3.46,3.7-5.07,5.67c1.38,4.3099,2.22,8.76,3.51,13.1c3.63-3.01,6.71-6.63,9.95-10.0601
			c5.64-6.86,11.77-13.35,16.91-20.62l0.25,0.0701c1.69-0.27,3.9901-1.86,4.8701,0.5c-1.94,2.4199-3.9301,4.8099-5.77,7.3199
			c0.66,4.9301,5.19,9.5,3.25,14.55c1.08-0.55,2.22-1.02,3.3-1.61c-0.32-2.3401,1.75-3.87,2.93-5.5801
			c6.96-8.34,12.7-17.58,19.07-26.36c1.75-1.16,3.8-2.88,5.31-0.33c-1.54,3.1-5.96,5.9299-4.25,9.78c1.46,3.6,3.15,7.1,5.07,10.49
			c7.45-11.24,14.97-22.55,20.91-34.67c2.36-1.83,4.9901-3.24,7.61-4.65c0.41,0.17,1.24,0.51,1.65,0.6801
			c-1.94,3.47-3.72,7.0399-5.47,10.61c2.17,3.85,4.39,7.6899,6.69,11.48c2.88-3.21,4.23-7.39,6.46-11.02
			c4.17-8.2999,8.35-16.62,11.92-25.2h0.35c1.06-0.76,2.12-1.53,3.18-2.3c0.39,0.4601,1.18,1.4,1.57,1.87
			c-1.36,2.78-2.65,5.5901-4,8.39c2.69,3.73,4.48,8.38,8.3,11.13c5.21-11.23,10.03-22.6899,13.95-34.4399
			c1.48-1.7001,2.63-5.5701,5.51-4.4301c0.01,0.64,0.05,1.92,0.0699,2.5701c-0.71,2.84-3.6399,6.1-1.37,8.8899
			c2.1901,3.13,4.7101,6.02,7.11,8.99c1.13-1.95,2.0601-4.0099,2.7101-6.1699c3.7999-10.8201,7.34-21.75,10.26-32.85
			c1.73-0.5901,2.8099-2.2001,4.1-3.4c0.22,0.4199,0.6799,1.28,0.9,1.71c-0.92,3.3201-1.86,6.65-2.66,10.02
			c3.49,3.03,5.46,7.9399,9.78,9.87c1.58-7.09,3.65-14.0599,5.5499-21.0699l-0.0199,0.95c1.5699-5.97,3.1699-11.97,3.95-18.1
			c0.96-2.06,2.49-3.77,3.75-5.63c0.08,1.7,0.29,3.4,0.6899,5.09c-0.4399,2.32-1.0499,4.61-1.6899,6.9
			c3.41,3.21,6.23,7.6899,10.6799,9.4c2.1101-13.27,5.42-26.39,6.3501-39.84c2.34-2.03,3.72-5.6,7.2799-5.67
			c-0.5699,3.62-1.0699,7.2599-1.4299,10.93c3.65,2.63,6.72,6.2,10.92,8c2.0499-12.28,2.62-24.72,4.08-37.06
			c0.87-1.1,1.84-2.1,2.85-3.07c0.2,2.39-0.3199,5.1,0.99,7.25l-0.03,0.43c3.7101,2.79,7.37,5.66,11.29,8.16l0.0701-0.86l1-0.57
			c1.6499-4.94,0.6599-10.29,1.4199-15.38c-0.04-2.28,1.23-4.94-0.51-6.87c0.01-0.18,0.04-0.53,0.05-0.71
			c1.6699-2.8,1.76-6.14,2.27-9.27c0.8199,0.21,1.6499,0.42,2.5,0.65c3.7999,2.75,7.6699,5.39,11.63,7.91
			c0.23-13.69,1.1599-27.35,1.1599-41.04c0.7001-0.91,1.17-1.98,1.78-2.94c0.66-0.12,1.97-0.37,2.63-0.4901
			c-0.26,3.73-0.25,7.46-0.0699,11.2c3.9199,2.12,7.46,4.9,11.5199,6.81v-0.92c2.38-6.16,0.55-12.87,0.8401-19.26
			c0.2899-7.08-0.72-14.21,0.3199-21.24c3.16,1.66,0.9601,5.91,3.0801,8.24c4.1699,1.69,7.71,4.62,11.98,6.11
			c-0.6901-13.48-0.61-27.04-2.79-40.4l0.74-0.49c0.84-2.49,1.8-4.94,2.84-7.35c0.53-0.21,1.6001-0.63,2.14-0.84
			c0.66,2.4,0.85,5.25,2.63,7.14c4.0701,1.57,8.3301,2.63,12.55,3.77c-3-13.11-7.1801-25.89-11.2001-38.69
			c-1.48,0.16-2.3899,1.4-3.33,2.39c-2,2.18-4.33,4.02-6.4299,6.09c-7.5801-0.61-14.89-3.29-22.53-3.36
			c-0.14-1.16-0.25-2.29-0.36-3.43c-0.5601,0.05-1.6801,0.15-2.24,0.21c3.11-1.08,6.25-2.14,9.08-3.88
			c0.88-4.36,1.48-8.75,2.25-13.12c-11.27,4.58-22.76,8.6-34.41,12.13c-2.9399,0.28-6.48,0.77-7.95-2.5
			c3.59-1.07,7.23-1.96,10.86-2.86c1.58-4.4399,2.84-8.98,3.7-13.61c-12.7999,3.51-25.3999,7.87-38.49,10.23
			c-2.09-1.27-4.46-2.25-6.9199-2.22c-0.0901-0.12-0.25-0.35-0.3301-0.47c4.64-1.4901,9.64-1.72,14.1-3.78
			c0.9-4.2,2.91-8.03,3.9301-12.19c-12,2.21-23.85,5.31-35.87,7.46c-3.1,0.4-6.04-0.51-8.72-1.99c0.4399-0.37,1.3199-1.11,1.76-1.48
			c3.3099-0.56,6.6699-0.77,9.95-1.61c2.13-4.16,3.71-8.57,5.3101-12.95c-13.15,2.32-26.29,4.73-39.4301,7.08
			c-1.77-1.2-3.88-1.7-5.84-2.41c0.61-0.63,1.24-1.2401,1.89-1.83c3.34-0.44,6.71-0.68,10.0599-1.13
			c2.3101-4.07,3.78-8.53,5.63-12.81c-5.67,0.21-11.1,2.01-16.74,2.4c-7.63,0.6801-15.05,2.8-22.72,3.07
			c-2.96-1.11-5.8701-2.54-7.7-5.22c3.7-0.03,7.33-0.8,11-1.24c2.15-4.17,4.27-8.37,5.7599-12.82c-11.1,1.75-22.29,2.74-33.41,4.33
			c-2.48,0.02-5.51,1.2599-7.4-1.07c-0.03,0.17-0.1,0.49-0.14,0.65l-0.22-0.26c-1.09-0.7-2.21-1.33-3.34-1.9
			c1.82-0.44,3.59-1.1,5.42-1.55c1.97-0.15,3.97-0.26,5.96-0.37c2.24-4.07,4.5-8.16,5.97-12.58c-8.33,0.84-16.69,1.25-24.96,2.61
			c-5.09-0.05-10.1299,0.7-15.21,0.72c-2.19-1.0601-4.09-2.84-6.63-3.03c4.64-0.52,9.28-1.07,13.93-1.54
			c2.4-3.88,4.44-7.96,6.28-12.13c-2.27,0.06-4.53,0.09-6.78,0.29c-0.49-0.27-1.46-0.8-1.95-1.07c-7.5,1.06-15.12,0.74-22.59,2.19
			l-0.02,0.99c-2.88,0.13-5.75,0.34-8.61,0.63c-1.3-1.02-2.76-1.77-4.16-2.58c0.02-0.47,0.08-1.42,0.11-1.9
			c3.69-0.07,7.39-0.17,11.09-0.45c2.12-4.1,4.65-7.99,6.42-12.26c-13.43,0.45-26.79,1.98-40.2,2.42
			c-0.94-0.6801-1.88-1.32-2.83-1.94c0.19-0.51,0.57-1.52,0.76-2.03c3.07-0.49,6.2-0.28,9.3-0.47l-0.66-0.04
			c2.26-4.18,5.84-8.02,6.32-12.9c-7.16,1.52-14.5,0.82-21.71,1.78c-5.93,0.52-11.89,0.77-17.77,1.68c-3.35-0.93-6.11-3.03-8.6-5.36
			c4.08-0.39,8.13-1.04,12.23-1.38c1.92-4.29,4.32-8.35,6.06-12.73c-1.48,0.12-2.94,0.25-4.39,0.43
			c-7.02-1.24-14.03,0.49-21.01,1.06l-0.73,1.03c-4.59,0.5601-9.12,1.5601-13.73,1.9901c-1.28-0.53-2.53-1.06-3.8-1.55
			c0.04-0.59,0.1299-1.77,0.18-2.36c3.21-0.47,6.65-0.24,9.67-1.61c2.22-3.75,3.45-8,5.57-11.81c-13.04,0.33-25.82,3.55-38.69,5.48
			c-2.43-0.17-5.29-0.19-6.24-2.92c3.41-1.2,7.42-0.77,10.58-2.37c1.83-4.05,3.9301-8.2,4.35-12.68
			c-9.91,1.58-19.68,3.84-29.36,6.42c-4.07-0.57-7.85,1.95-11.87,1.1c1.22-0.92,2.36-1.95,3.49-2.98c1.44-0.54,3.46-0.71,4.13-2.35
			c1.64-3.84,2.25-8.02,3.38-12.02c-5.91,0.4-11.34,2.86-16.91,4.61c-7.51,2.34-14.7,5.58-21.99,8.53
			c-1.17-0.36-2.35-0.62-3.54-0.78c-0.04-1.79,1.48-2.78,2.75-3.73c1.89-0.73,3.77-1.51,5.64-2.32c0.59-4.66,1.68-9.23,2.06-13.91
			c-12.5099,4.99-24.71,10.92-36.06,18.17c-2.12-0.22-4.23-0.42-6.33-0.58c0.87-1.47,1.7599-2.92,2.66-4.36
			c1-0.72,2.08-1.44,2.73-2.52c0.33-4.37-0.0099-8.75-0.04-13.12C731.28,645.56,730.1,646.13,728.95,646.77z"/>
		<path fill="#6F6D6B" stroke="#6F6D6B" stroke-width="0.0938" d="M728.95,646.77c1.15-0.64,2.33-1.21,3.55-1.72
			c0.03,4.37,0.37,8.75,0.04,13.12c-0.65,1.08-1.73,1.8-2.73,2.52c-2.82,1.89-5.84,3.49-8.4,5.74c0.38,0.67,0.98,1.16,1.64,1.6
			c3.11,1.9,6.24,3.78,9.48,5.48c0.03,4.55,0.05,9.11,0.04,13.67c-9.94-5.97-19.68-12.55-30.78-16.2c-1.89-0.53-3.86-0.54-5.79-0.77
			c3.41,0.28,5.23-2.86,7.49-4.8C711.28,658.29,720.14,652.51,728.95,646.77z"/>
		<path fill="#6F6D6B" stroke="#6F6D6B" stroke-width="0.0938" d="M733.48,665.63c11.35-7.25,23.55-13.18,36.06-18.17
			c-0.38,4.68-1.47,9.25-2.06,13.91c-1.87,0.81-3.75,1.59-5.64,2.32c-2.57,1.01-5.09,2.14-7.59,3.29c3.35,3.21,7.57,5.56,10.36,9.31
			c-0.04,4.62-1.28,9.16-1.33,13.81c-9.34-9.11-19.83-17-30.9901-23.71C732.59,666.2,733.18,665.82,733.48,665.63z"/>
		<path fill="#6F6D6B" stroke="#6F6D6B" stroke-width="0.0938" d="M694.44,651.44c1.34-1.24,2.79-2.43,4.54-3.03
			c0.38,4.4901,1.84,8.86,1.85,13.38c-2.24,2.76-5.13,4.88-7.67,7.35c-0.92,0.84-1.84,1.67-2.74,2.51c4.46,1.79,9.38,2.77,13.4,5.48
			c1.11,4.21,1.18,8.61,2.11,12.87c-11.39-5.65-23.77-9.02-36.13-11.73C677.17,668.62,685.12,659.27,694.44,651.44z"/>
		<path fill="#6F6D6B" stroke="#6F6D6B" stroke-width="0.0938" d="M784.62,659.67c5.57-1.75,11-4.21,16.91-4.61
			c-1.13,4-1.7401,8.18-3.38,12.02c-0.67,1.64-2.69,1.81-4.13,2.35c-3.21,0.71-6.35,1.68-9.4,2.87l0.8,0.86
			c2.66,3.1801,5.38,6.31,8.41,9.14c-1.11,4.54-2.38,9.03-3.75,13.5c-8.07-10.2-17.54-19.21-27.45-27.6
			C769.92,665.25,777.11,662.01,784.62,659.67z"/>
		<path fill="#6F6D6B" stroke="#6F6D6B" stroke-width="0.0938" d="M663.97,658.96c1.22-2.12,2.98,0.1,3.52,1.52
			c0.98,3.21,1.7,6.52,3.2,9.56c-2.57,2.72-4.69,5.8-6.93,8.79c-0.65,0.83-1.29,1.68-1.93,2.53c4.56,1.18,9.28,1.57,13.78,3
			c1.58,4.26,3.37,8.44,5.12,12.64c-12.47-3.38-25.38-5.13-38.3-5.03c0.3-0.61,0.9-1.83,1.2-2.43
			C649.46,678.77,656.14,668.38,663.97,658.96z"/>
		<path fill="#BDC68A" stroke="#BDC68A" stroke-width="0.0938" d="M721.41,666.43c2.56-2.25,5.58-3.85,8.4-5.74
			c-0.9,1.44-1.79,2.89-2.66,4.36c2.1,0.16,4.21,0.36,6.33,0.58c-0.3,0.19-0.89,0.57-1.19,0.76c-3.0099,0.89-6.14,1.31-9.24,1.64
			C722.39,667.59,721.79,667.1,721.41,666.43z"/>
		<path fill="#8DB8A4" stroke="#8DB8A4" stroke-width="0.0938" d="M754.25,666.98c2.5-1.15,5.02-2.28,7.59-3.29
			c-1.27,0.95-2.79,1.94-2.75,3.73c1.19,0.16,2.37,0.42,3.54,0.78c9.91,8.39,19.38,17.4,27.45,27.6c1.37-4.47,2.64-8.96,3.75-13.5
			c-3.03-2.83-5.75-5.96-8.41-9.14c2.26,0.51,4.55,0.91,6.87,1.14c9.56,8.99,16.86,19.98,25.09,30.12
			c1.75-4.07,3.24-8.25,4.66-12.45c-2.69-3.87-5.62-7.55-8.56-11.22c1.11-0.28,2.23-0.55,3.35-0.81c0.95,2.73,3.81,2.75,6.24,2.92
			c-0.25,0.32-0.76,0.95-1.02,1.27c8.03,10.21,15.27,21,22.32,31.91c1.59-4.33,3.62-8.48,5.42-12.73c-2.7-3.9-5.38-7.82-7.56-12.03
			c1.42-0.1801,2.85-0.34,4.29-0.48c-0.05,0.59-0.14,1.77-0.18,2.36c1.27,0.4901,2.52,1.02,3.8,1.55
			c3.19,6.58,8.01,12.22,11.55,18.63c2.98,5.05,5.87,10.17,9.2,15.0099c1.78-4.14,4.46-7.91,5.77-12.25c-1.9-4.17-5.09-7.67-6.73-12
			c0.44,0.05,1.33,0.16,1.78,0.21c2.49,2.33,5.25,4.43,8.6,5.36c6.92,11.22,13.33,22.73,19.75,34.24c2.23-3.92,4.33-7.92,6.46-11.89
			c-2.19-4.16-4.49-8.25-6.75-12.36c4.53-0.61,9.12-0.99,13.7-0.55l0.66,0.04c-3.1,0.19-6.23-0.02-9.3,0.47
			c-0.19,0.51-0.57,1.52-0.76,2.03c0.95,0.62,1.89,1.2599,2.83,1.94c7.2,11.2599,12.75,23.54,19.92,34.83
			c2.01-3.86,4.43-7.51,6.11-11.53c-1.51-4.56-4.79-8.33-6.14-12.99c0.7,0,2.1-0.01,2.8-0.02c-0.03,0.48-0.09,1.43-0.11,1.9
			c1.4,0.81,2.86,1.56,4.16,2.58c6.99,11.37,13.34,23.15,20.12,34.66c2.14-4,4.92-7.73,6.28-12.09c-1.7-4.25-4.58-7.88-6.66-11.93
			c2.54,0.19,4.44,1.97,6.63,3.03c5.08-0.02,10.12-0.77,15.21-0.72c-3.92,0.67-7.8799,0.98-11.84,0.97
			c-0.67,0.67-1.32,1.35-1.96,2.06c7.32,10.48,13.37,21.78,20.07,32.66c2.18-4.04,4.13-8.2,6.19-12.3
			c-2.43-4.11-5.12-8.05-7.6-12.11c2.71-0.41,5.43-0.72,8.17-0.94c-1.83,0.45-3.6,1.11-5.42,1.55c1.13,0.57,2.25,1.2,3.34,1.9
			l0.22,0.26c4.58,4.46,7.09,10.43,10.73,15.59c3.95,6.53,8.08,12.96,12.46,19.23c1.82-4.04,4.13-7.91,5.3-12.21
			c-1.7-4.53-5.14-8.14-7.32-12.42c0.75-0.01,2.26-0.03,3.02-0.04c1.83,2.68,4.74,4.11,7.7,5.22
			c7.27,11.14,14.6599,22.24,22.4299,33.04c2.38-3.53,3.9301-7.73,5.16-11.8c-1.65-4.6299-5.41-8.15-7.8-12.39
			c1.3201-0.04,2.65-0.17,3.9801-0.38c-0.65,0.59-1.28,1.2-1.89,1.83c1.96,0.71,4.0699,1.21,5.84,2.41
			c8.03,10.71,15.5,21.85,23.5699,32.56c1.64-4.22,3.91-8.25,4.91-12.68c-2.47-4.01-5.5699-7.6-8.11-11.56
			c1.25-0.3,2.52-0.58,3.8-0.84c-0.4401,0.37-1.3201,1.11-1.76,1.48c2.6799,1.48,5.62,2.39,8.72,1.99
			c-0.6901,0.15-2.0699,0.46-2.75,0.62c7.86,10.93,16.16,21.53,24.67,31.97c1.58-4.29,3.1-8.61,4.4199-12.99
			c-2.6799-3.58-5.75-6.86-8.1699-10.62c2.46-0.03,4.83,0.95,6.9199,2.22c4.76,4.65,8.4601,10.25,12.99,15.1299
			c4.52,5.39,9.3101,10.5601,13.98,15.84c1.4501-4.41,2.7101-8.88,3.78-13.39c-3.1899-3.44-6.2999-6.93-9.14-10.66
			c0.5801-0.17,1.74-0.51,2.3201-0.68c1.47,3.27,5.01,2.78,7.95,2.5c-0.5699,0.21-1.71,0.61-2.2899,0.81
			c9.23,10.06,18.3799,20.27,29.08,28.82c0.65-4.44,1.3199-8.87,2.4-13.22c-2.9301-2.81-5.92-5.55-8.7101-8.48
			c1.7101,0.08,3.4501,0.12,5.2001,0.16c7.64,0.07,14.95,2.75,22.53,3.36c-6.1001,6.4399-13.3,11.6899-19.5701,17.9399
			c4.3,1.33,8.63,2.59,13,3.69c3.54-3.14,7.09-6.2599,10.5601-9.49c0.5499,2.39,1.21,4.77,1.7899,7.16
			c-0.5399,0.21-1.61,0.63-2.14,0.84c-1.0399,2.41-2,4.86-2.84,7.35l-0.74,0.49c-10.96,7.37-22.72,13.47-34.4301,19.54
			c3.9801,2.23,7.9301,4.5,11.9701,6.65c2.88-1.58,5.83-3.02,8.7999-4.41c-0.33,1.71-0.5499,3.45-0.5299,5.21
			c-11.3301,6.73-23.41,12.06-35.2101,17.87c3.77,2.29,7.3301,4.98,11.36,6.81c4.7101-0.92,8.5-4.41,13.27-5.19
			c-0.03,0.75-0.08,2.24-0.11,2.98c-0.66,0.1201-1.97,0.3701-2.63,0.4901c-0.61,0.96-1.08,2.03-1.78,2.94
			c-11.61,6.49-24.1599,11.16-36.33,16.48c3.65,2.78,7.39,5.46,11.23,7.99c3.4-1.58,6.78-3.22,10.35-4.39
			c-0.9399,1.83-1.7899,3.7-2.6,5.6c-11.86,5.83-24.3099,10.37-36.66,15.04c3.7201,2.64,7.4701,5.26,11.0601,8.1
			c4.09-1.6299,8.22-3.2,12.42-4.56c-1.4601,1.91-2.76,3.94-4.15,5.9c-6.37,3.75-13.65,5.57-20.51,8.19
			c-5.58,1.88-11.14,3.79-16.79,5.42c3.61,2.84,6.76,6.38,10.92,8.45c4.58-0.84,8.86-2.81,13.3099-4.14
			c-0.1799,1.12-0.36,2.26-0.51,3.42c-3.5599,0.0699-4.9399,3.64-7.2799,5.67c-3.3,1.62-6.8501,2.58-10.36,3.57
			c-9.03,2.47-17.91,5.62-27.1901,7.02c3.03,3.15,5.9,6.56,9.53,9.06c4.72,0.09,9.21-2.02,13.83-2.85c-0.38,2.24-0.73,4.5-1.15,6.74
			c-0.3999-1.69-0.61-3.39-0.6899-5.09c-1.26,1.86-2.79,3.57-3.75,5.63c-0.78,6.13-2.38,12.13-3.95,18.1l0.0199-0.95
			c0.9801-6.0901,2.8401-12.0001,3.5601-18.1301c-12.53,3.43-25.27,6.06-38.12,7.93c2.97,3.29,5.6,6.9501,9.0499,9.78
			c4.67,0.11,9.12-1.6801,13.6801-2.45c-0.29,1.34-0.61,2.6799-0.84,4.0499c-0.2201-0.4299-0.6801-1.29-0.9-1.71
			c-1.29,1.2-2.37,2.8099-4.1,3.4c-12.77,3.23-25.98,4.14-38.9901,5.9199c3.07,3.29,5.28,7.39,8.69,10.35
			c4.6-0.1299,9.13-1.11,13.7001-1.5599c-0.6901,2.14-1.3501,4.3-2.1101,6.4301c-0.0199-0.65-0.0599-1.9301-0.0699-2.5701
			c-2.88-1.14-4.03,2.73-5.51,4.4301c0.1801-0.74,0.55-2.2101,0.74-2.9501c-12.83,1.78-25.78,2.7101-38.73,2.63
			c2.2,3.77,4.81,7.28,7.18,10.9601c4.91,0.0499,9.81-0.02,14.72-0.0601c-0.73,1.4399-1.46,2.88-2.16,4.34
			c-0.39-0.47-1.18-1.4099-1.57-1.87c-1.06,0.77-2.12,1.54-3.18,2.3h-0.35c-13.13,0.13-26.31,0.5699-39.4-0.86
			c2.24,4.15,4.56,8.2799,7.15,12.23c4.63-0.01,9.27,0.15,13.9,0.46c-0.31,0.5701-0.94,1.72-1.25,2.3
			c-0.41-0.17-1.24-0.51-1.65-0.6801c-2.62,1.41-5.25,2.8201-7.61,4.65c-12.96-0.9-25.91-2.0599-38.74-4.1
			c1.9,4.0499,3.34,8.34,5.7,12.16c4.47,1.5,9.28,1.23,13.91,1.7899c-0.92,1.48-1.76,3.02-2.6,4.55
			c-1.51-2.55-3.56-0.8301-5.31,0.33c-1.48-0.83-3.05-1.53-4.75-1.7c-11.38-1.4501-22.65-3.7001-33.79-6.41
			c1.92,4.16,2.95,8.73,5.29,12.7c4.2,1.54,8.67,2.13,12.96,3.39c-0.85,1.2201-1.63,2.4801-2.49,3.7001
			c-0.88-2.36-3.1801-0.77-4.8701-0.5l-0.25-0.0701c-12.58-3.1599-25.24-6.0599-37.47-10.4199c0.97,4.48,2.13,8.9199,3.68,13.25
			c4.43,1.25,8.86,2.51,13.3,3.77c-1.58,1.7899-3.17,3.5699-4.81,5.3099c0.11-1,0.23-1.98,0.36-2.9399
			c-1.25,0.0599-2.48,0.2799-3.71,0.2c-12.58-3.4401-24.68-8.39-36.66-13.48c0.6801,4.24,0.9301,8.5699,2.21,12.7
			c3.35,3.34,8.41,4.05,12.63,5.92c-0.96,1.03-1.85,2.12-2.8,3.1699c-0.34-0.6299-1.02-1.8899-1.36-2.5199
			c-1.72,0.72-3.44,1.4299-5.1201,2.23c0.1801-0.38,0.54-1.14,0.72-1.52c-11.96-4.39-23.19-10.38-34.39-16.39
			c0.07,4.61,0.22,9.23,1.11,13.78c3.15,1.4,6.28,2.89,9.16,4.83c-3.06,0.5601-6.87-0.2999-9.21,2.2101
			c-11.44-5.89-22.15-13.04-32.67-20.41c-0.25,4.58-0.32,9.1699-0.3,13.77c3.87,2.4199,7.64,5.01,11.32,7.73
			c-1.34,0.7899-2.64,1.66-3.97,2.47c0.32-2.74-2.38-2.27-4.19-2.72c-10.84-7.23-21.58-14.8-30.79-24.0601
			c-0.88,4.55-1.65,9.13-2.12,13.75c3.28,2.5701,6.69,5.03,9.54,8.0801c1.21,0.97-0.37,1.85-1.21,2.2
			c-0.62-0.79-1.23-1.5599-1.83-2.33c-1.34-0.05-2.68-0.1001-3.99-0.14c-10.08-8-19.54-16.78-28.09-26.4
			c-1.46,4.3101-3.33,8.78-2.73,13.4301c1.87,2.63,4.35,4.7599,6.47,7.21c-2.22-0.1801-4.42-0.3-6.62-0.4401
			c-8.85-8.98-17.17-18.5399-24.5-28.8099c-1.22,3.99-2.9,7.8199-4.05,11.84c-0.69,1.61,0.95,2.86,1.77,4.0801
			c2.42,2.6599,4.58,5.5399,6.47,8.62c-3.34,0.6399-6.7,1.21-10.04,1.87c2.07-1.38,4.95-1.13,6.56-3.1901
			c-5.28-2.71-11.06,0.62-16.55,0.97c4.02-1.13,8.09-2.0299,12.19-2.8099c-8.7-9.72-15.65-20.85-22.53-31.88
			c-1.92,4.04-3.71,8.14-5.72,12.14c2.39,4.14,5.1899,8.0399,7.39,12.3099c-1.24,0.0601-2.47,0.13-3.69,0.23
			c-0.02-0.73-0.04-1.4399-0.04-2.1399c-2.61-1.01-5.2-2.0601-7.83-2.9801c0.05-0.36,0.16-1.1,0.21-1.46
			c-7.08-10.3-12.39-21.6799-17.91-32.85c-2.34,3.7999-5.2,7.36-6.79,11.5699c1.07,3.3101,2.95,6.29,4.31,9.5
			c-1.92-0.4099-3.82-0.83-5.75-1.08c-5.74-11.5601-10.65-23.49-14.93-35.67c-2.92,3.52-6.64,6.8101-8.2,11.16
			c1.5,4.15,3.51,8.11,4.77,12.36c-4.5,0.05-8.97-0.34-13.44-0.8199c3.23,0.22,6.47,0.2799,9.7,0.0699
			c-2.31-6-9.96-3.24-14.72-5.4299c3.88,0.3899,7.78,0.6899,11.64,1.33c-4.63-12.23-8.29-24.8-11.32-37.51
			c-2.89,3.48-6.52,6.38-8.98,10.2c0.46,4.51,2.19,8.79,2.82,13.29c-2.38-0.35-4.77-0.61-7.12-1.03c1.64-0.23,3.3-0.47,4.96-0.6599
			c-1.22-1.3101-2.71-2.4601-3.53-4.05c-3.35-12.55-6.08-25.3199-7.18-38.27c-3.47,2.97-6.87,6.02-10.5,8.79
			c0.83,4.64,1.5699,9.2999,2.06,14c-0.83-0.28-1.65-0.54-2.45-0.79c0.01-0.9299,0.04-1.85,0.07-2.75
			c-1.01-0.99-2.11-1.89-2.98-2.98c-2-7.72-1.86-15.73-2.66-23.6c-0.41-5.05-0.13-10.12-0.18-15.18
			c-3.71,2.5099-7.42,5.02-11.15,7.5099c0.18,4.66,0.27,9.33,0.2,14c-1.48-0.59-2.95-1.11-4.39-1.73c0.37-0.33,1.12-0.98,1.49-1.31
			c-0.98-2.2-2.3-4.32-4.18-5.84c-4.54-2.9399-10.38-3.9-14.26-7.8199c4.75,2.52,9.54,4.97,14.5601,6.91
			c-0.73-12.85,1.11-25.65,2.33-38.41c-3.85,1.95-7.94,3.42-11.68,5.58c-1.25,4.6-0.78,9.52-1.92,14.18
			c-0.54-0.34-1.62-1.02-2.16-1.36c0.38-2.24-0.49-4.26-1.78-6.01c1.41-12.96,3.62-25.86,7.63-38.28c-4.26,1.41-8.54,2.74-12.8,4.14
			c-1.37,4.53-2.54,9.12-3.66,13.72c-0.86-0.62-1.73-1.21-2.57-1.82c2.48-1.44,0.45-4.08,0.1-6.07
			c2.16-12.73,7.03-24.81,11.92-36.69c-4.51,0.88-9.05,1.67-13.5,2.84c-1.32,4.19-2.93,8.28-4.48,12.39
			c-0.23-0.04-0.69-0.12-0.91-0.16c0.19-2.63,0.69-5.56-1.26-7.69c4.38-12.13,10.43-23.58,17.11-34.58
			c-4.35,0.22-8.77-0.05-13.04,0.89c-1.24,0.21-1.54,1.67-2.19,2.55c-1.69,3.15-3.28,6.35-5.1,9.4399c-0.64-0.9-1.28-1.78-1.91-2.65
			c0.41-0.63,1.23-1.89,1.64-2.51c-0.18-0.72-0.52-2.16-0.69-2.87l0.25-0.45c5.99-11.54,13.91-21.87,21.87-32.09
			c-4.63-0.04-9.22-0.97-13.84-0.81c-3.15,3.28-5.3,7.35-8.02,10.97c-0.25-0.43-0.75-1.28-1-1.7c2.57-2.83,2.65-6.65,2.14-10.22
			c7.31-10.39,16.51-19.3,25.88-27.81c-4.31-1.13-8.55-3.19-13.04-3.11c-3.8,2.67-6.67,6.44-10.31,9.33
			c-0.28-0.98-0.55-1.94-0.81-2.9c2.17-2.44,1.75-5.8,1.82-8.81c0.69,2.23,0.75,4.58,0.7,6.91c0.21-2.09,0.72-4.2,2.41-5.58
			c8.58-8.16,18.1201-15.25,28.13-21.55c-4.17-1.87-8.24-4.61-12.84-5.06c-4.06,2.14-7.21,5.65-11.32,7.75
			c-0.09-1.54-0.19-3.06-0.36-4.57c0.66-0.45,1.98-1.35,2.64-1.79c5.16-5.74,12.23-9.12,18.84-12.87
			c5.05-2.93,10.33-5.44,15.41-8.34c-3.8199-2.08-7.31-4.85-11.44-6.27c-4.54,0.9301-7.99,4.61-12.54,5.6201
			c-0.66-4.3-0.51-8.67-0.64-13l0.3-0.9901c0.47,4.05-0.15,8.21,1.03,12.1801c1.23-1.88,2.72-3.69,3.22-5.9301
			c0.22-3.44-0.1-6.9,0.29-10.34c0.13,3.7,0.23,7.4,0.18,11.11c11.23-6.26,23.25-10.79,35.39-14.9
			c-3.45-2.93-7.08-5.62-10.55-8.5099c-4.45,1.49-8.84,3.16-13.26,4.71c0.13-1.37,0.21-2.74,0.24-4.1c4.64,0.19,4.92-4.89,5.56-8.26
			c-0.22,1.82-0.38,3.66-0.53,5.51c12.39-3.82,24.77-7.8,37.6-9.86c-3.25-3.06-6.38-6.23-9.47-9.44c-4.64,0.8-9.25,1.7-13.91,2.39
			l0.3-1.2599c3.29-1.26,5.39-4.11,7.91-6.4c12.35-3.85,25.47-4.21,38.3-4.91c-2.74-3.7401-4.89-8.09-8.34-11.2
			c-4.53,0.17-9,1.31-13.55,0.97c0.26-0.62,0.79-1.87,1.05-2.5c0.52,0.09,1.57,0.25,2.09,0.33c1.1-0.95,2.23-1.87,3.42-2.71
			c1.13,0.24,2.25,0.19,3.37-0.14c11.67-2.07,23.65-0.59,35.43-0.13c-2.09-3.94-3.84-8.13-6.69-11.59
			c-4.6-0.72-9.29-0.22-13.92-0.47c0.31-0.61,0.92-1.84,1.23-2.45c2.17,0.04,4.53-0.09,5.95-1.98c12.92-0.1,25.83,1.65,38.3,5.03
			c-1.75-4.2-3.54-8.38-5.12-12.64c-4.5-1.43-9.22-1.82-13.78-3c0.64-0.85,1.28-1.7,1.93-2.53c1.16,3.27,4.22,0.34,6.04-0.56
			c12.36,2.71,24.74,6.08,36.13,11.73c-0.93-4.26-1-8.66-2.11-12.87c-4.02-2.71-8.94-3.69-13.4-5.48c0.9-0.84,1.82-1.67,2.74-2.51
			c0.71,0.27,2.13,0.8,2.84,1.07c1.93,0.23,3.9,0.24,5.79,0.77c11.1,3.65,20.84,10.23,30.78,16.2c0.01-4.56-0.01-9.12-0.04-13.67
			c-3.2401-1.7-6.3701-3.58-9.48-5.48c3.1-0.33,6.23-0.75,9.24-1.64c11.16,6.71,21.65,14.6,30.9901,23.71
			c0.05-4.65,1.29-9.19,1.33-13.81C761.82,672.54,757.6,670.19,754.25,666.98 M667.8,739.86c-17.22,10.53-33.25,23.26-46.41,38.63
			c-20.6,23.4-35.12,52.51-39.45,83.52c-2.36,12.53-1.86,25.37-1.42,38.05c1.66,13.8,4.07,27.62,8.78,40.74
			c8.08,23.95,21.52,45.89,38,64.98c25.54,29.1,58.63,51.28,94.8,64.9299c20.62,7.4701,42.04,12.98,63.9,15.1901
			c22.51,1.7,45.26,1.2999,67.54-2.6c21.11-4.02,41.95-9.8101,61.85-17.9801c35.06-14.45,67.46-35.11,95.99-60.0399
			c13.29-12,26.3099-24.39,37.75-38.21c12.88-14.6,24.24-30.43,35.76-46.11c10.0699-14.4,19.7999-29.06,28.77-44.18
			c-4.79-2-9.86-3.14-14.76-4.8101c-29.8301-9.72-58.9601-21.47-87.62-34.21c-38.35-17.07-75.88-35.97-112.44-56.58
			c-19.32-10.5-38.45-21.42-58.45-30.61c-23.35-11.18-47.61-20.76-72.94-26.37c-7.44-1.15-14.8-3.08-22.36-3.27
			c-9.01-0.32-18.08-0.47-27.05,0.57C700.24,723.99,683.09,730.45,667.8,739.86z"/>
		<path fill="#6F6D6B" stroke="#6F6D6B" stroke-width="0.0938" d="M802.4,671.31c9.68-2.58,19.45-4.84,29.36-6.42
			c-0.42,4.48-2.52,8.63-4.35,12.68c-3.16,1.6-7.17,1.17-10.58,2.37c-1.12,0.26-2.24,0.53-3.35,0.81c2.94,3.67,5.87,7.35,8.56,11.22
			c-1.42,4.2-2.91,8.38-4.66,12.45c-8.23-10.14-15.53-21.13-25.09-30.12C795.71,673.5,799.03,672.33,802.4,671.31z"/>
		<path fill="#BDC68A" stroke="#BDC68A" stroke-width="0.0938" d="M784.62,672.3c3.05-1.19,6.19-2.16,9.4-2.87
			c-1.13,1.03-2.27,2.06-3.49,2.98c4.02,0.85,7.8-1.67,11.87-1.1c-3.37,1.02-6.69,2.19-10.11,2.99c-2.32-0.23-4.61-0.63-6.87-1.14
			L784.62,672.3z"/>
		<path fill="#6F6D6B" stroke="#6F6D6B" stroke-width="0.0938" d="M619.78,701.9c4.03-10.73,9.9399-20.58,15.24-30.69
			c2.27,3.94,4.68,7.84,6.68,11.94c-0.44,2.11-1.67,3.94-2.65,5.84c-0.9,1.63-1.75,3.28-2.57,4.96c-0.31,0.61-0.92,1.84-1.23,2.45
			c4.63,0.25,9.32-0.25,13.92,0.47c2.85,3.46,4.6,7.65,6.69,11.59c-11.78-0.46-23.76-1.94-35.43,0.13
			c-0.89-0.23-2.67-0.69-3.56-0.92C618.06,705.86,619.04,703.93,619.78,701.9z"/>
		<path fill="#6F6D6B" stroke="#6F6D6B" stroke-width="0.0938" d="M823.07,682.86c12.87-1.93,25.65-5.15,38.69-5.48
			c-2.12,3.81-3.35,8.06-5.57,11.81c-3.02,1.37-6.46,1.14-9.67,1.61c-1.44,0.14-2.87,0.3-4.29,0.48
			c2.18,4.21,4.86,8.1299,7.56,12.03c-1.8,4.25-3.83,8.4-5.42,12.73c-7.05-10.91-14.29-21.7-22.32-31.91
			C822.31,683.81,822.82,683.18,823.07,682.86z"/>
		<path fill="#6F6D6B" stroke="#6F6D6B" stroke-width="0.0938" d="M607.25,689.18c3.14,3.31,5.16,7.49,8.32,10.8
			c-1.05,3.81-2.42,7.52-4.02,11.13c-0.26,0.63-0.79,1.88-1.05,2.5c4.55,0.34,9.02-0.8,13.55-0.97c3.45,3.11,5.6,7.46,8.34,11.2
			c-12.83,0.7-25.95,1.06-38.3,4.91C596.74,715.07,602.2,702.12,607.25,689.18z"/>
		<path fill="#BDC68A" stroke="#BDC68A" stroke-width="0.0938" d="M639.05,688.99c0.35,0.36,1.06,1.07,1.41,1.43
			c1.06-0.29,2.1-0.61,3.17-0.88c-0.3,0.6-0.9,1.82-1.2,2.43c-1.42,1.89-3.78,2.02-5.95,1.98
			C637.3,692.27,638.15,690.62,639.05,688.99z"/>
		<path fill="#BDC68A" stroke="#BDC68A" stroke-width="0.0938" d="M864.6,691.69c6.98-0.57,13.9901-2.3,21.01-1.06
			c-7.22,1.01-14.47,1.6-21.74,2.09L864.6,691.69z"/>
		<path fill="#6F6D6B" stroke="#6F6D6B" stroke-width="0.0938" d="M885.61,690.63c1.45-0.18,2.91-0.31,4.39-0.43
			c-1.74,4.38-4.14,8.44-6.06,12.73c-4.1,0.34-8.15,0.99-12.23,1.38c-0.45-0.05-1.34-0.16-1.78-0.21c1.64,4.33,4.83,7.83,6.73,12
			c-1.31,4.34-3.99,8.11-5.77,12.25c-3.33-4.84-6.22-9.96-9.2-15.0099c-3.54-6.41-8.36-12.05-11.55-18.63
			c4.61-0.43,9.14-1.43,13.73-1.9901C871.14,692.23,878.39,691.64,885.61,690.63z"/>
		<path fill="#6F6D6B" stroke="#6F6D6B" stroke-width="0.0938" d="M898.08,707.99c7.21-0.96,14.55-0.26,21.71-1.78
			c-0.48,4.88-4.06,8.72-6.32,12.9c-4.58-0.44-9.17-0.06-13.7,0.55c2.26,4.11,4.56,8.2,6.75,12.36c-2.13,3.97-4.23,7.97-6.46,11.89
			c-6.42-11.5099-12.83-23.02-19.75-34.24C886.19,708.76,892.15,708.51,898.08,707.99z"/>
		<path fill="#6F6D6B" stroke="#6F6D6B" stroke-width="0.0938" d="M572.19,747.81c1.99-11.67,3.11-23.67,7.37-34.79
			c2.93,2.9,6.12,5.59,8.61,8.91c1.05,1.24,0.42,2.95,0.16,4.38c-0.83,2.91-1.61,5.85-2.15,8.84l-0.3,1.2599
			c4.66-0.69,9.27-1.59,13.91-2.39c3.09,3.21,6.22,6.38,9.47,9.44c-12.83,2.06-25.21,6.04-37.6,9.86
			C571.81,751.47,571.97,749.63,572.19,747.81z"/>
		<path fill="#6F6D6B" stroke="#6F6D6B" stroke-width="0.0938" d="M667.8,739.86c15.29-9.41,32.44-15.87,50.24-18.36
			c8.97-1.04,18.04-0.89,27.05-0.57c7.56,0.19,14.92,2.12,22.36,3.27c25.33,5.61,49.59,15.19,72.94,26.37
			c20,9.19,39.13,20.11,58.45,30.61c36.56,20.61,74.09,39.51,112.44,56.58c28.6599,12.74,57.7899,24.49,87.62,34.21
			c4.9,1.67,9.97,2.8101,14.76,4.8101c-8.9701,15.12-18.7001,29.78-28.77,44.18c-11.52,15.68-22.88,31.5099-35.76,46.11
			c-11.4401,13.82-24.46,26.21-37.75,38.21c-28.53,24.9299-60.93,45.59-95.99,60.0399c-19.9,8.17-40.74,13.9601-61.85,17.9801
			c-22.28,3.8999-45.03,4.2999-67.54,2.6c-21.86-2.2101-43.28-7.72-63.9-15.1901c-36.17-13.6499-69.2599-35.83-94.8-64.9299
			c-16.48-19.09-29.92-41.03-38-64.98c-4.71-13.12-7.12-26.94-8.78-40.74c-0.44-12.68-0.94-25.52,1.42-38.05
			c4.33-31.01,18.85-60.12,39.45-83.52C634.55,763.12,650.58,750.39,667.8,739.86 M720,759.93c-9.25,1.14-17.79,5.13-26.11,9.09
			c-24.43,13.3-46.03,32.65-59.72,57.05c-8.52,14.56-13.59,31.05-15.36,47.8c-2.98,28.56,4.76,57.55,19.22,82.14
			c19.64,32.81,50.4399,58.23,85.2,73.74c17.46,8.27,36.3,13.24,55.27,16.5c6.17,0.61,12.33,1.4,18.49,2.08
			c44.05,2.42,88.25-8.73,127.15-29.1899c35.44-18.33,66.85-43.96,93.31-73.72c13.18-15.51,25.92-31.48,37.16-48.44
			c-51.52-19.32-101.25-43.1-149.88-68.77c-38.78-21.19-76.92-44.2-118.73-59.11C764.92,761.94,742.35,756.28,720,759.93z"/>
		<path fill="#6F6D6B" stroke="#6F6D6B" stroke-width="0.0938" d="M906.9,723.59c13.41-0.44,26.77-1.97,40.2-2.42
			c-1.77,4.27-4.3,8.16-6.42,12.26c-3.7,0.28-7.4,0.38-11.09,0.45c-0.7,0.01-2.1,0.02-2.8,0.02c1.35,4.66,4.63,8.43,6.14,12.99
			c-1.68,4.02-4.1,7.67-6.11,11.53C919.65,747.13,914.1,734.85,906.9,723.59z"/>
		<path fill="#BDC68A" stroke="#BDC68A" stroke-width="0.0938" d="M942.27,736.74c7.47-1.45,15.09-1.13,22.59-2.19
			c0.49,0.27,1.46,0.8,1.95,1.07c-8.17,0.93-16.35,1.69-24.56,2.11L942.27,736.74z"/>
		<path fill="#6F6D6B" stroke="#6F6D6B" stroke-width="0.0938" d="M966.81,735.62c2.25-0.2,4.51-0.23,6.78-0.29
			c-1.84,4.17-3.88,8.25-6.28,12.13c-4.65,0.47-9.29,1.02-13.93,1.54c2.08,4.05,4.96,7.68,6.66,11.93
			c-1.36,4.36-4.14,8.09-6.28,12.09c-6.78-11.51-13.13-23.29-20.12-34.66c2.86-0.29,5.73-0.5,8.61-0.63
			C950.46,737.31,958.64,736.55,966.81,735.62z"/>
		<path fill="#6F6D6B" stroke="#6F6D6B" stroke-width="0.0938" d="M557.25,737.67c3.54,2.43,6.95,5.06,10.18,7.91
			c0.69,3.48-0.6,7-0.8,10.49c-0.03,1.36-0.11,2.73-0.24,4.1c4.42-1.55,8.81-3.22,13.26-4.71c3.47,2.89,7.1,5.58,10.55,8.5099
			c-12.14,4.11-24.16,8.64-35.39,14.9c0.05-3.71-0.05-7.41-0.18-11.11C554.47,757.68,555.27,747.55,557.25,737.67z"/>
		<path fill="#6F6D6B" stroke="#6F6D6B" stroke-width="0.0938" d="M975.22,751.31c8.27-1.36,16.63-1.77,24.96-2.61
			c-1.47,4.42-3.73,8.51-5.97,12.58c-1.9901,0.11-3.9901,0.22-5.96,0.37c-2.74,0.22-5.46,0.53-8.17,0.94c2.48,4.06,5.17,8,7.6,12.11
			c-2.06,4.1-4.01,8.26-6.19,12.3c-6.7-10.88-12.75-22.18-20.07-32.66c0.64-0.71,1.29-1.39,1.96-2.06
			C967.34,752.29,971.3,751.98,975.22,751.31z"/>
		<path fill="#BDC68A" stroke="#BDC68A" stroke-width="0.0938" d="M720,759.93c22.35-3.65,44.92,2.01,66,9.17
			c41.81,14.91,79.95,37.92,118.73,59.11c48.63,25.67,98.36,49.45,149.88,68.77c-11.24,16.96-23.98,32.93-37.16,48.44
			c-26.46,29.76-57.87,55.39-93.31,73.72c-38.9,20.46-83.1,31.61-127.15,29.1899c-6.16-0.6799-12.32-1.47-18.49-2.08
			c-18.97-3.26-37.81-8.23-55.27-16.5c-34.76-15.51-65.56-40.93-85.2-73.74c-14.46-24.59-22.2-53.58-19.22-82.14
			c1.77-16.75,6.84-33.24,15.36-47.8c13.69-24.4,35.29-43.75,59.72-57.05C702.21,765.06,710.75,761.07,720,759.93 M736.48,801.81
			c-18.38,1.5-35.94,9.68-49.69,21.83c-10.85,8.83-18.74,20.87-24.4,33.54c-2.94,8.35-6.03,16.91-6.14,25.86
			c-2.56,21.61,3.42,43.96,15.99,61.67c7.11,9.16,15.2,17.74,25.13,23.89c20.03,13.1,45.39,16.88,68.65,12.07
			c19.74-4.22,37.68-15.59,50.52-31.08c13.22-15.9901,20.78-36.81,20.18-57.6c0.64-23.85-9.4-47.69-26.49-64.26
			C791.35,808.39,763.26,798.84,736.48,801.81z"/>
		<path fill="#6F6D6B" stroke="#6F6D6B" stroke-width="0.0938" d="M993.93,765.78c11.12-1.59,22.31-2.58,33.41-4.33
			c-1.49,4.45-3.61,8.65-5.7599,12.82c-3.67,0.44-7.3,1.21-11,1.24c-0.76,0.01-2.27,0.03-3.02,0.04c2.18,4.28,5.62,7.89,7.32,12.42
			c-1.17,4.3-3.48,8.17-5.3,12.21c-4.38-6.27-8.51-12.7-12.46-19.23c-3.64-5.16-6.15-11.13-10.73-15.59
			c0.04-0.16,0.11-0.48,0.14-0.65C988.42,767.04,991.45,765.8,993.93,765.78z"/>
		<path fill="#6F6D6B" stroke="#6F6D6B" stroke-width="0.0938" d="M537.72,764.82c4.25,1.79,8.05,4.42,12.03,6.73l0.04,1.29
			c0.13,4.33-0.02,8.7,0.64,13c4.55-1.01,8-4.69,12.54-5.6201c4.13,1.42,7.6201,4.19,11.44,6.27c-5.08,2.9-10.36,5.41-15.41,8.34
			c-6.61,3.75-13.68,7.13-18.84,12.87c1.42-3.78-0.28-7.78-0.52-11.62C537.86,785.74,538.69,775.22,537.72,764.82z"/>
		<path fill="#F1ECD1" stroke="#F1ECD1" stroke-width="0.0938" d="M1321.3,774.28c4.74-2.9,9.87-6.38,15.74-5.45
			c3.2899-0.06,5.71,2.36,7.52,4.83c1.1,2.26,1.0499,4.8701,0.8999,7.33c-0.5599,5.98,0.8,11.96-0.1499,17.94
			c0.0699,3.17-1.8101,5.93-1.8601,9.08c-0.2,4.86-2.5599,9.26-3.23,14.04c-0.38,2.44-0.85,4.9-1.97,7.14
			c-1.9301,3.64-0.97,8.11-3.48,11.54c-1.5601,5.6-2.0601,11.73-5.27,16.75c-1.48,2.23-0.8199,5.24-2.5699,7.36
			c-1.9,2.46-1.3501,5.78-2.7301,8.47c-1.85,3.91-2.4399,8.29-4.72,12.01c-3.6,8.13-5.8199,16.89-9.97,24.78
			c0.59,0.8,1.23,1.64,1.86,2.48c-1.51,0.64-3.3199,1.19-3.76,3c-2.65,4.6-3,10.31-6.74,14.25c-1.08,4.77-3.79,8.87-5.92,13.21
			c-1.1499,2.08-0.4099,4.5-0.6399,6.75c-1.42,1.46-3.2101,2.5-4.64,3.95c-2.9501,8.13-6.37,16.28-11.0901,23.59
			c-1.62,5.02-4.1699,9.67-7.1799,13.99c-1.62,5.69-6.41,9.81-7.41,15.73c-3.71,3.89-4.67,9.49-8.51,13.26
			c-0.0499,1.01-0.0699,2.05-0.08,3.09c-2.14,2.41-4.49,4.77-5.8,7.76c-1.61,6.45-6.74,11.14-9.21,17.21
			c-1.13,2.99-3.74,4.98-5.38,7.64c-3.96,7.26-9.15,13.79-12.61,21.34c-3.5601,4.5-6.3201,9.5701-10.02,13.97
			c-2.7,3.2001-3.63,7.9701-7.98,9.51c0.87,3-1.0701,5.4601-3.28,7.2301c-3.98,3.24-4.6801,9.0399-9.0599,11.8799
			c-3.67,2.25-3.6901,7.4501-7.4601,9.6101c-2.16,1.2899-2.99,3.72-4.11,5.83c-1.38,2.86-4.21,4.5599-6.1,7.03
			c-2.66,3.02-4.4,6.8099-7.54,9.4099c-5.11,4.64-8.0399,11.25-13.59,15.4301c-1.74,2.9399-4.75,4.52-7.14,6.78
			c-2.84,4.22-7.72,6.48-10.34,10.87c-5.01,6.26-11.8101,10.75-17.16,16.6899c-3.04,2.25-5.97,4.61-8.66,7.27
			c-6.7899,4.88-13.1,10.41-20.08,15.01c-3.54,2.5699-6.66,5.8199-10.8199,7.4301c-2.75,1.09-4.14,4.2-7.14,4.83
			c-4.63,1.49-8.27,4.86-12.2201,7.53c-4.97,2.6599-9.3899,6.22-14.5399,8.5599c-5.8101,3.17-12.13,5.36-17.62,9.11
			c-3.17,2.26-6.9901,3.4501-9.9901,5.9501c-8.86,1.6699-16.25,7.7999-25.05,9.3099c-0.64,0.61-1.26,1.23-1.86,1.87
			c-4.27-0.25-7.1,3.1801-10.94,4.29c-4.72,1.62-9.48,3.17-14.38,4.15c-2.76,0.78-5.27,2.49-6.93,4.85
			c-0.09-0.3-0.28-0.88-0.38-1.17c-77.7,26.3-162.39,33.2001-242.92,16.67c-13.04-2.67-26-5.86-38.65-10.02
			c-3.44-1.89-7.34-2.49-11.04-3.63c-7.35-1.95-13.79-6.46-21.39-7.52c-1.81-0.2699-3.38-1.13-4.71-2.3199
			c-2.78-2.49-6.74-2.58-9.91-4.3c-2.66-1.46-5.28-3.01-8.22-3.83c-3.46-1.0601-5.97-3.9-9.33-5.16c-3.38-1.7-7.31-2.58-10.02-5.37
			c-8.18-1.65-14.59-7.16-21.47-11.45c-13.74-10.29-29.7-17.74-41.65-30.27c-4.35-1.83-6.72-6.0601-10.71-8.38
			c-3.38-2.5699-6.28-5.6899-9.18-8.76c-2.18-2.35-6.3-2.96-6.63-6.6899c-4.54-2.1801-6.81-7.03-10.99-9.7001
			c-3.1-1.64-3.54-5.5599-6.32-7.47c-5.57-4.22-9.06-10.45-14.34-14.9301c-2.42-4.98-6.28-9.01-9.8-13.21
			c-1.7-2.2-4.32-3.1-7.02-3.1c1.36-0.42,2.66-0.97,4.05-1.29c-2.17-1.83-3.62-4.25-4.97-6.6899c-0.75-1.7201-2.87-1.42-4.38-1.87
			c1.7-5.8-4.2-9.4301-6.6-13.9701c-4.86-8.48-11.13-16.21-14.59-25.4199c-0.64-1.63-1.99-2.77-3.11-4.02
			c-0.25-4.02-3.2-7.02-4.37-10.74c-7.48-14.0601-12.57-29.17-18.01-44.08c-1.03-5.01-3.54-9.53-4.31-14.6001
			c-1.99-4.71-1.87-9.95-3.91-14.6299c-2.03-3.85,0.18-8.52-2.25-12.19c-2.39-3.74-1.78-8.31-1.49-12.49
			c-1.06-1.54-2.28-2.98-3.02-4.69c-1.04-4.07,0.82-8.4-0.77-12.36c-1.23-2.66,0.04-5.47,0.23-8.19
			c-0.44-2.99-2.01-5.7599-1.84-8.84c0.21-10.07-0.3-20.14,0.17-30.2c0.1-4.96,0.63-9.99-0.54-14.86c1.54-1.27,3.04-2.7,2.98-4.86
			c-3.66-1.12-7.63-1.14-11.02-3.04c4,0.43,7.97,1.22,12,1.34c13.21-1.12,25.13-9.07,32.48-19.93
			c7.86-11.86,12.77-25.84,23.14-35.93c4.54-4.16,11.33-7.4301,17.4-4.65c11.1,5.35,17.6,16.63,28.02,22.97
			c-1.26,12.3-0.69,24.73-0.42,37.08c2.98,40.65,15.99,80.42,37.03,115.3c39.38,65.78,105.1,114.15,178.21,136.08
			c24.95,8.11,51.05,12.11,77.16,14.0699c10.68,0.3501,21.38,0.3601,32.07,0.13c10.05,0.15,19.99-1.5599,29.97-2.3899
			c8.19-0.5801,16.08-3.01,24.2-4.0801c76.97-15.36,147.8101-55.59,204.0801-109.83c25.51-24.12,47.2899-51.85,67.74-80.29
			c22.13-31.06,42.52-63.49,59.02-97.91c9.22-19.77,17.2999-40.28,21.3899-61.77c4.03-0.47,7.53-2.94,11.63-3.1
			c3.27-0.09,6.0901-1.79,9.0901-2.87c6.0199-1.18,11.6899-3.57,17.5299-5.42c5.8-1.17,11.1001-4.06,16.15-7.03
			c2.1901-0.85,4.5801-1.18,6.66-2.33c5.59-3.55,12.01-5.4,17.9-8.38c-0.13-2.44-0.2101-4.88-0.1801-7.32
			c0.3,1.79,0.55,3.59,0.84,5.4c2.5701-0.95,5.0701-2.12,7.29-3.76C1317.98,776.39,1319.62,775.32,1321.3,774.28z"/>
		<path fill="#6F6D6B" stroke="#6F6D6B" stroke-width="0.0938" d="M1041,777.66c5.64-0.39,11.0699-2.19,16.74-2.4
			c-1.85,4.28-3.3199,8.74-5.63,12.81c-3.35,0.45-6.72,0.69-10.0599,1.13c-1.3301,0.21-2.66,0.34-3.9801,0.38
			c2.39,4.24,6.15,7.76,7.8,12.39c-1.23,4.07-2.78,8.27-5.16,11.8c-7.77-10.8-15.1599-21.9-22.4299-33.04
			C1025.95,780.46,1033.37,778.34,1041,777.66z"/>
		<path fill="#6F6D6B" stroke="#6F6D6B" stroke-width="0.0938" d="M1046,793.44c13.14-2.35,26.28-4.76,39.4301-7.08
			c-1.6001,4.38-3.1801,8.79-5.3101,12.95c-3.28,0.84-6.64,1.05-9.95,1.61c-1.28,0.26-2.55,0.54-3.8,0.84
			c2.54,3.96,5.64,7.55,8.11,11.56c-1,4.43-3.27,8.46-4.91,12.68C1061.5,815.29,1054.03,804.15,1046,793.44z"/>
		<path fill="#6F6D6B" stroke="#6F6D6B" stroke-width="0.0938" d="M523.24,794.53c4.08,1.99,8.59,3.18,12.45,5.5699
			c1.09,2.98,1.23,6.27,1.83,9.39c0.17,1.51,0.27,3.03,0.36,4.57c4.11-2.1,7.26-5.61,11.32-7.75c4.6,0.45,8.67,3.19,12.84,5.06
			c-10.0099,6.3-19.55,13.39-28.13,21.55c-1.69,1.38-2.2,3.49-2.41,5.58c0.05-2.33-0.01-4.68-0.7-6.91
			c-3.11-8.64-4.69-17.71-6.58-26.67C523.55,801.49,523.45,798,523.24,794.53z"/>
		<path fill="#6F6D6B" stroke="#6F6D6B" stroke-width="0.0938" d="M1077.13,804.39c12.02-2.15,23.87-5.25,35.87-7.46
			c-1.02,4.16-3.03,7.99-3.9301,12.19c-4.46,2.06-9.46,2.29-14.1,3.78c0.0801,0.12,0.24,0.35,0.3301,0.47
			c2.4199,3.76,5.49,7.04,8.1699,10.62c-1.3199,4.38-2.84,8.7-4.4199,12.99c-8.51-10.44-16.8101-21.04-24.67-31.97
			C1075.0601,804.85,1076.4399,804.54,1077.13,804.39z"/>
		<path fill="#C37182" stroke="#C37182" stroke-width="0.0938" d="M736.48,801.81c26.78-2.97,54.87,6.58,73.75,25.92
			c17.09,16.57,27.13,40.41,26.49,64.26c0.6,20.79-6.96,41.61-20.18,57.6c-12.84,15.49-30.78,26.86-50.52,31.08
			c-23.26,4.81-48.62,1.03-68.65-12.07c-9.93-6.15-18.02-14.73-25.13-23.89c-12.57-17.71-18.55-40.06-15.99-61.67
			c0.11-8.95,3.2-17.5099,6.14-25.86c5.66-12.67,13.55-24.71,24.4-33.54C700.54,811.49,718.1,803.31,736.48,801.81z"/>
		<path fill="#6F6D6B" stroke="#6F6D6B" stroke-width="0.0938" d="M1102.22,815.59c13.0901-2.36,25.6901-6.72,38.49-10.23
			c-0.86,4.63-2.12,9.17-3.7,13.61c-3.63,0.9-7.27,1.79-10.86,2.86c-0.5801,0.17-1.74,0.51-2.3201,0.68
			c2.8401,3.73,5.9501,7.22,9.14,10.66c-1.0699,4.51-2.33,8.98-3.78,13.39c-4.6699-5.28-9.46-10.45-13.98-15.84
			C1110.6801,825.84,1106.98,820.24,1102.22,815.59z"/>
		<path fill="#6F6D6B" stroke="#6F6D6B" stroke-width="0.0938" d="M1134.1,824.33c11.65-3.53,23.14-7.55,34.41-12.13
			c-0.77,4.37-1.37,8.76-2.25,13.12c-2.83,1.74-5.97,2.8-9.08,3.88c-1.4,0.45-2.78,0.97-4.13,1.5c0.38,0.39,1.1499,1.17,1.5299,1.56
			c2.79,2.93,5.78,5.67,8.7101,8.48c-1.0801,4.35-1.75,8.78-2.4,13.22c-10.7001-8.55-19.85-18.76-29.08-28.82
			C1132.39,824.94,1133.53,824.54,1134.1,824.33z"/>
		<path fill="#6F6D6B" stroke="#6F6D6B" stroke-width="0.0938" d="M512.16,826.2c4.54,0.78,8.89,2.29,13.36,3.38
			c1.21,3.59,2.43,7.17,3.46,10.82c0.26,0.96,0.53,1.92,0.81,2.9c3.64-2.89,6.51-6.66,10.31-9.33c4.4901-0.08,8.73,1.98,13.04,3.11
			c-9.37,8.51-18.57,17.42-25.88,27.81c-3.41-4.33-4.67-9.78-7.18-14.59C516.87,842.48,513.86,834.5,512.16,826.2z"/>
		<path fill="#6F6D6B" stroke="#6F6D6B" stroke-width="0.0938" d="M1188.74,829.69c0.9401-0.99,1.85-2.23,3.33-2.39
			c4.02,12.8,8.2001,25.58,11.2001,38.69c-4.22-1.14-8.48-2.2-12.55-3.77c-1.78-1.89-1.97-4.74-2.63-7.14
			c-0.58-2.39-1.24-4.77-1.7899-7.16c-3.4701,3.23-7.02,6.35-10.5601,9.49c-4.37-1.1-8.7-2.36-13-3.69
			c6.27-6.25,13.47-11.5,19.5701-17.9399C1184.41,833.71,1186.74,831.87,1188.74,829.69z"/>
		<path fill="#BDC68A" stroke="#BDC68A" stroke-width="0.0938" d="M1153.05,830.7c1.35-0.53,2.73-1.05,4.13-1.5
			c0.5599-0.06,1.6799-0.16,2.24-0.21c0.11,1.14,0.22,2.27,0.36,3.43c-1.75-0.04-3.49-0.08-5.2001-0.16
			C1154.2,831.87,1153.4301,831.09,1153.05,830.7z"/>
		<path fill="#BDC68A" stroke="#BDC68A" stroke-width="0.0938" d="M520.08,850.3c2.51,4.81,3.77,10.26,7.18,14.59
			c0.51,3.57,0.43,7.39-2.14,10.22c-1.17-1.96-2.33-3.92-3.39-5.92c1.08,0.51,2.17,1.04,3.27,1.57
			C527.68,863.24,519.58,857.5,520.08,850.3z"/>
		<path fill="#6F6D6B" stroke="#6F6D6B" stroke-width="0.0938" d="M505.4,862.61c4.6,0.18,9.16,0.94,13.75,1.39
			c0.8199,1.74,1.66,3.48,2.58,5.19c1.06,2,2.22,3.96,3.39,5.92c0.25,0.42,0.75,1.27,1,1.7c2.72-3.62,4.87-7.69,8.02-10.97
			c4.62-0.16,9.21,0.77,13.84,0.81c-7.96,10.22-15.88,20.55-21.87,32.09C517.56,887.73,511.39,875.12,505.4,862.61z"/>
		<path fill="#6F6D6B" stroke="#6F6D6B" stroke-width="0.0938" d="M1147.9399,883.3c11.7101-6.07,23.4701-12.17,34.4301-19.54
			c2.1801,13.36,2.1,26.92,2.79,40.4c-4.27-1.49-7.8101-4.42-11.98-6.11c-0.29-4.76-0.6801-9.5-0.88-14.26
			c-1.2201,0.57-2.4,1.17-3.5901,1.75c-2.97,1.39-5.9199,2.83-8.7999,4.41C1155.87,887.8,1151.92,885.53,1147.9399,883.3z"/>
		<path fill="#BDC68A" stroke="#BDC68A" stroke-width="0.0938" d="M1168.71,885.54c1.1901-0.58,2.37-1.18,3.5901-1.75
			c0.2,4.76,0.59,9.5,0.88,14.26c-2.12-2.33,0.08-6.58-3.0801-8.24c-1.0399,7.03-0.03,14.16-0.3199,21.24
			c-0.29,6.39,1.5399,13.1-0.8401,19.26c-0.0699-13.19,0.2001-26.4-0.7599-39.56C1168.16,888.99,1168.38,887.25,1168.71,885.54z"/>
		<path fill="#6F6D6B" stroke="#6F6D6B" stroke-width="0.0938" d="M1168.1801,890.75c0.96,13.16,0.6899,26.37,0.7599,39.56v0.92
			c-4.0599-1.91-7.6-4.69-11.5199-6.81c-0.1801-3.74-0.1901-7.47,0.0699-11.2c0.03-0.74,0.08-2.23,0.11-2.98
			c-4.77,0.78-8.5599,4.27-13.27,5.19c-4.0299-1.83-7.59-4.52-11.36-6.81C1144.77,902.81,1156.85,897.48,1168.1801,890.75z"/>
		<path fill="#6F6D6B" stroke="#6F6D6B" stroke-width="0.0938" d="M534.11,895.23c4.27-0.94,8.69-0.67,13.04-0.89
			c-6.6801,11-12.73,22.45-17.11,34.58c-1.05-1.07-2.12-2.08-3.16-3.13c-8.23-9.15-15.85-18.95-22.07-29.57
			c4.37-0.3799,8.76-0.7,13.16-0.47c3.0601,2.24,4.63,5.89,6.94,8.82c0.63,0.87,1.27,1.75,1.91,2.65c1.82-3.09,3.41-6.29,5.1-9.4399
			C532.57,896.9,532.87,895.44,534.11,895.23z"/>
		<path fill="#6F6D6B" stroke="#6F6D6B" stroke-width="0.0938" d="M1116.75,933.13c12.17-5.32,24.72-9.99,36.33-16.48
			c0,13.69-0.9299,27.35-1.1599,41.04c-3.9601-2.52-7.8301-5.16-11.63-7.91c0.12-4.6,0.2899-9.2,0.45-13.8
			c-0.8199,0.23-1.62,0.48-2.41,0.75c-3.5699,1.17-6.95,2.81-10.35,4.39C1124.14,938.59,1120.4,935.91,1116.75,933.13z"/>
		<path fill="#6F6D6B" stroke="#6F6D6B" stroke-width="0.0938" d="M536.69,924.38c4.45-1.17,8.99-1.96,13.5-2.84
			c-4.89,11.88-9.76,23.96-11.92,36.69c-7.98-5.7-15.05-12.59-21.79-19.69c-2.75-2.99-5.89-5.72-7.76-9.39
			c4.37-0.98,8.82-1.57,13.23-2.37c1.31,1.33,2.62,2.67,3.91,4.04c1.82,1.91,3.6,3.87,5.44,5.79c0.22,0.04,0.68,0.12,0.91,0.16
			C533.76,932.66,535.37,928.57,536.69,924.38z"/>
		<path fill="#BDC68A" stroke="#BDC68A" stroke-width="0.0938" d="M526.88,925.79c1.04,1.05,2.11,2.06,3.16,3.13
			c1.95,2.13,1.45,5.06,1.26,7.69c-1.84-1.92-3.62-3.88-5.44-5.79c1.07,0.25,2.14,0.51,3.21,0.79
			C528.31,929.67,527.58,927.73,526.88,925.79z"/>
		<path fill="#BDC68A" stroke="#BDC68A" stroke-width="0.0938" d="M1138.33,936.73c0.79-0.27,1.5901-0.52,2.41-0.75
			c-0.16,4.6-0.33,9.2-0.45,13.8c-0.8501-0.23-1.6801-0.44-2.5-0.65c-0.51,3.13-0.6001,6.47-2.27,9.27
			c-0.0601-5.37,0.98-10.73,0.21-16.07C1136.54,940.43,1137.39,938.56,1138.33,936.73z"/>
		<path fill="#6F6D6B" stroke="#6F6D6B" stroke-width="0.0938" d="M1099.0699,957.37c12.3501-4.67,24.8-9.21,36.66-15.04
			c0.77,5.34-0.27,10.7-0.21,16.07c-0.01,0.18-0.04,0.53-0.05,0.71c-0.75,7.59-1.27,15.21-1.9099,22.82l-0.0701,0.86
			c-3.92-2.5-7.58-5.37-11.29-8.16l0.03-0.43c0.37-4.53,0.75-9.05,1.0801-13.58l-0.76,0.29c-4.2001,1.36-8.3301,2.9301-12.42,4.56
			C1106.54,962.63,1102.79,960.01,1099.0699,957.37z"/>
		<path fill="#6F6D6B" stroke="#6F6D6B" stroke-width="0.0938" d="M544.4,952.4c4.2599-1.4,8.54-2.73,12.8-4.14
			c-4.01,12.42-6.22,25.32-7.63,38.28c-9.68-6.57-19.46-13.05-28.47-20.53c-1.62-1.3-2.94-2.89-4.2599-4.47
			c4.2-1.69,8.53-3.03,12.9-4.2c2.87,2.24,5.53,4.75,8.43,6.96c0.84,0.61,1.71,1.2,2.57,1.82
			C541.86,961.52,543.03,956.93,544.4,952.4z"/>
		<path fill="#BDC68A" stroke="#BDC68A" stroke-width="0.0938" d="M1133.5601,981.93c0.6399-7.61,1.1599-15.23,1.9099-22.82
			c1.74,1.93,0.47,4.59,0.51,6.87c-0.76,5.09,0.23,10.44-1.4199,15.38L1133.5601,981.93z"/>
		<path fill="#BDC68A" stroke="#BDC68A" stroke-width="0.0938" d="M1122.55,960.91l0.76-0.29c-0.3301,4.53-0.7101,9.05-1.0801,13.58
			c-1.3099-2.15-0.79-4.86-0.99-7.25c-1.01,0.97-1.98,1.97-2.85,3.07c0-0.8,0.01-2.41,0.01-3.21
			C1119.79,964.85,1121.09,962.82,1122.55,960.91z"/>
		<path fill="#6F6D6B" stroke="#6F6D6B" stroke-width="0.0938" d="M1097.89,975c6.86-2.62,14.14-4.44,20.51-8.19
			c0,0.8-0.01,2.41-0.01,3.21c-1.46,12.34-2.03,24.78-4.08,37.06c-4.2001-1.8-7.27-5.37-10.92-8c0.36-3.67,0.86-7.31,1.4299-10.93
			c0.15-1.16,0.3301-2.3,0.51-3.42c-4.45,1.33-8.73,3.3-13.3099,4.14c-4.16-2.07-7.3101-5.61-10.92-8.45
			C1086.75,978.79,1092.3101,976.88,1097.89,975z"/>
		<path fill="#6F6D6B" stroke="#6F6D6B" stroke-width="0.0938" d="M555.43,979.73c3.74-2.16,7.83-3.63,11.68-5.58
			c-1.22,12.7599-3.06,25.56-2.33,38.41c-5.02-1.94-9.8101-4.39-14.5601-6.91c-7.16-4.1801-14.24-8.5-21.22-12.97
			c3.74-2.6,8.07-4.09,12.06-6.21c3.45,1.9901,6.92,3.94,10.29,6.08c0.54,0.34,1.62,1.02,2.16,1.36
			C554.65,989.25,554.18,984.33,555.43,979.73z"/>
		<path fill="#6F6D6B" stroke="#6F6D6B" stroke-width="0.0938" d="M1087.1801,997.39c3.5099-0.99,7.0599-1.95,10.36-3.57
			c-0.9301,13.45-4.24,26.57-6.3501,39.84c-4.45-1.7101-7.2699-6.1901-10.6799-9.4c0.64-2.29,1.25-4.58,1.6899-6.9
			c0.42-2.24,0.77-4.5,1.15-6.74c-4.62,0.83-9.11,2.94-13.83,2.85c-3.63-2.5-6.5-5.91-9.53-9.06
			C1069.27,1003.01,1078.15,999.86,1087.1801,997.39z"/>
		<path fill="#6F6D6B" stroke="#6F6D6B" stroke-width="0.0938" d="M571.36,1008.35c3.73-2.49,7.44-5,11.15-7.5099
			c0.05,5.06-0.23,10.1299,0.18,15.18c0.8,7.87,0.66,15.88,2.66,23.6c-13.44-3.33-26.15-9.13-38.43-15.41
			c3.69-2.6199,7.51-5.03,11.27-7.55c3.08,1.1,6.02,2.55,8.98,3.96c1.44,0.62,2.91,1.14,4.39,1.73
			C571.63,1017.68,571.54,1013.01,571.36,1008.35z"/>
		<path fill="#6F6D6B" stroke="#6F6D6B" stroke-width="0.0938" d="M1039.27,1024.85c12.85-1.87,25.59-4.5,38.12-7.93
			c-0.72,6.13-2.58,12.04-3.5601,18.1301c-1.8999,7.01-3.97,13.98-5.5499,21.0699c-4.3201-1.9301-6.29-6.84-9.78-9.87
			c0.8-3.37,1.74-6.7,2.66-10.02c0.23-1.37,0.5499-2.71,0.84-4.0499c-4.5601,0.7699-9.01,2.5599-13.6801,2.45
			C1044.87,1031.8,1042.24,1028.14,1039.27,1024.85z"/>
		<path fill="#6F6D6B" stroke="#6F6D6B" stroke-width="0.0938" d="M588.65,1032.14c3.63-2.77,7.03-5.8201,10.5-8.79
			c1.1,12.9501,3.83,25.72,7.18,38.27c-13.36-2.4-26.51-6.02-39.35-10.4c0.5-2.3199,2.73-3.4,4.38-4.8099
			c1.88-1.4601,3.53-3.26,5.67-4.3301c3.87,0.5701,7.49,2.16,11.23,3.27c0.8,0.25,1.62,0.51,2.45,0.79
			C590.22,1041.4399,589.48,1036.78,588.65,1032.14z"/>
		<path fill="#6F6D6B" stroke="#6F6D6B" stroke-width="0.0938" d="M1017.17,1043.84c13.0101-1.7799,26.22-2.6899,38.9901-5.9199
			c-2.92,11.1-6.4601,22.0299-10.26,32.85c-0.65,2.16-1.5801,4.22-2.7101,6.1699c-2.3999-2.97-4.9199-5.86-7.11-8.99
			c-2.2699-2.7899,0.66-6.0499,1.37-8.8899c0.76-2.13,1.42-4.29,2.1101-6.4301c-4.5701,0.45-9.1001,1.4301-13.7001,1.5599
			C1022.45,1051.23,1020.24,1047.13,1017.17,1043.84z"/>
		<path fill="#6F6D6B" stroke="#6F6D6B" stroke-width="0.0938" d="M609.2,1054.0699c2.46-3.8199,6.09-6.72,8.98-10.2
			c3.03,12.71,6.69,25.28,11.32,37.51c-3.86-0.64-7.76-0.9401-11.64-1.33c-9.66-1.6001-19.41-2.6101-28.87-5.26
			c3.07-3.63,6.11-7.3501,9.82-10.36c2.01,0.6799,4.01,1.4199,6.09,1.8999c2.35,0.42,4.74,0.6801,7.12,1.03
			C611.39,1062.86,609.66,1058.58,609.2,1054.0699z"/>
		<path fill="#6F6D6B" stroke="#6F6D6B" stroke-width="0.0938" d="M993.88,1060.6c12.95,0.0801,25.9-0.85,38.73-2.63
			c-0.1899,0.74-0.5599,2.2101-0.74,2.9501c-3.92,11.75-8.74,23.21-13.95,34.4399c-3.82-2.75-5.61-7.4-8.3-11.13
			c1.35-2.7999,2.64-5.61,4-8.39c0.7-1.46,1.43-2.9,2.16-4.34c-4.91,0.04-9.8101,0.11-14.72,0.0601
			C998.69,1067.88,996.08,1064.37,993.88,1060.6z"/>
		<path fill="#6F6D6B" stroke="#6F6D6B" stroke-width="0.0938" d="M631.55,1073.87c1.56-4.35,5.28-7.64,8.2-11.16
			c4.28,12.1801,9.19,24.11,14.93,35.67c-13.73-0.03-27.48-0.77-41.14-2.2c2.77-3.6801,5.23-7.7401,8.69-10.79l0.65,0.02
			c4.47,0.48,8.94,0.87,13.44,0.8199C635.06,1081.98,633.05,1078.02,631.55,1073.87z"/>
		<path fill="#6F6D6B" stroke="#6F6D6B" stroke-width="0.0938" d="M969.12,1075.41c13.09,1.4299,26.27,0.99,39.4,0.86
			c-3.57,8.58-7.75,16.9-11.92,25.2c-2.23,3.63-3.58,7.8101-6.46,11.02c-2.3-3.79-4.52-7.63-6.69-11.48
			c1.75-3.5701,3.53-7.14,5.47-10.61c0.31-0.5801,0.94-1.73,1.25-2.3c-4.63-0.3099-9.27-0.47-13.9-0.46
			C973.68,1083.6899,971.36,1079.5601,969.12,1075.41z"/>
		<path fill="#6F6D6B" stroke="#6F6D6B" stroke-width="0.0938" d="M656.12,1089.96c1.59-4.21,4.45-7.77,6.79-11.5699
			c5.52,11.17,10.83,22.5499,17.91,32.85c-0.05,0.36-0.16,1.1-0.21,1.46c-5.11,0.79-10.27,1.15-15.41,1.64
			c-8.16,0.24-16.33,0.14-24.48,0.52c1.22-2.9399,2.76-5.73,4.53-8.38c0.85-1.22,1.74-2.4,2.63-3.58
			c4.65,0.0499,9.3-0.16,13.95-0.34c-0.47-1.05-0.94-2.0901-1.4-3.1001C659.07,1096.25,657.19,1093.27,656.12,1089.96z"/>
		<path fill="#6F6D6B" stroke="#6F6D6B" stroke-width="0.0938" d="M940.92,1090.27c12.83,2.04,25.78,3.2,38.74,4.1
			c-5.94,12.12-13.46,23.4301-20.91,34.67c-1.92-3.39-3.61-6.89-5.07-10.49c-1.71-3.8501,2.71-6.6801,4.25-9.78
			c0.84-1.53,1.68-3.0701,2.6-4.55c-4.63-0.5599-9.44-0.2899-13.91-1.7899C944.26,1098.61,942.82,1094.3199,940.92,1090.27z"/>
		<path fill="#6F6D6B" stroke="#6F6D6B" stroke-width="0.0938" d="M684.78,1105.28c2.0099-4,3.8-8.1,5.72-12.14
			c6.88,11.03,13.83,22.16,22.53,31.88c-4.1,0.78-8.17,1.6799-12.19,2.8099c-9.29,1.6001-18.6,3.53-28.04,3.9301
			c0.95-4.27,3.32-8,5.11-11.9301c3.06-1.95,7.07-1.5399,10.57-2.01c1.22-0.1,2.45-0.1699,3.69-0.23
			C689.97,1113.3199,687.17,1109.42,684.78,1105.28z"/>
		<path fill="#BDC68A" stroke="#BDC68A" stroke-width="0.0938" d="M613.54,1096.1801c13.66,1.4299,27.41,2.1699,41.14,2.2
			c1.93,0.25,3.83,0.67,5.75,1.08c0.46,1.01,0.93,2.05,1.4,3.1001c-4.65,0.1799-9.3,0.3899-13.95,0.34
			c-0.89,1.1799-1.78,2.36-2.63,3.58c0.15-1.35,0.01-3.14,1.56-3.72c3.07-1.1801,6.48-1,9.71-1.53c-1.94-2.78-5.64-1.35-8.47-1.77
			C636.56,1098.63,624.62,1099.9,613.54,1096.1801z"/>
		<path fill="#6F6D6B" stroke="#6F6D6B" stroke-width="0.0938" d="M914.08,1100.99c11.14,2.71,22.41,4.96,33.79,6.41
			c1.7,0.1699,3.27,0.87,4.75,1.7c-6.37,8.78-12.11,18.02-19.07,26.36c-1.18,1.7101-3.25,3.24-2.93,5.5801
			c-1.08,0.59-2.22,1.0599-3.3,1.61c1.94-5.05-2.59-9.62-3.25-14.55c1.84-2.51,3.83-4.9,5.77-7.3199
			c0.86-1.22,1.64-2.48,2.49-3.7001c-4.29-1.26-8.76-1.85-12.96-3.39C917.03,1109.72,916,1105.15,914.08,1100.99z"/>
		<path fill="#6F6D6B" stroke="#6F6D6B" stroke-width="0.0938" d="M716.68,1103.64c7.33,10.27,15.65,19.83,24.5,28.8099
			c0.26,0.28,0.77,0.8401,1.03,1.1101c-2.33,0.6599-4.64,1.3799-6.94,2.1399c-10.8,3.0801-21.49,7.39-32.8,7.9401
			c1.47-3.74,2.47-7.65,4.0601-11.33c0.54-1.8401,2.8-1.7101,4.3-2.26c3.34-0.66,6.7-1.2301,10.04-1.87
			c-1.89-3.0801-4.05-5.9601-6.47-8.62c-0.82-1.2201-2.46-2.4701-1.77-4.0801C713.78,1111.46,715.46,1107.63,716.68,1103.64z"/>
		<path fill="#6F6D6B" stroke="#6F6D6B" stroke-width="0.0938" d="M887.25,1109.79c12.23,4.36,24.89,7.26,37.47,10.4199
			c-5.14,7.27-11.27,13.76-16.91,20.62c-3.24,3.4301-6.32,7.05-9.95,10.0601c-1.29-4.34-2.13-8.79-3.51-13.1
			c1.61-1.9701,3.3-3.86,5.07-5.67c1.64-1.74,3.23-3.52,4.81-5.3099c-4.44-1.26-8.87-2.52-13.3-3.77
			C889.38,1118.71,888.22,1114.27,887.25,1109.79z"/>
		<path fill="#6F6D6B" stroke="#6F6D6B" stroke-width="0.0938" d="M744.06,1112.25c8.55,9.62,18.01,18.4,28.09,26.4
			c-12.46,5.7999-25.17,11.46-38.6,14.5699c1.18-4.4299,2.14-8.9199,3.21-13.37c2.27-0.7899,4.56-1.53,6.86-2.24
			c2.14-0.7,4.28-1.4399,6.41-2.17c-0.75-0.8799-1.48-1.72-2.23-2.5499c-2.12-2.4501-4.6-4.58-6.47-7.21
			C740.73,1121.03,742.6,1116.5601,744.06,1112.25z"/>
		<path fill="#BDC68A" stroke="#BDC68A" stroke-width="0.0938" d="M640.72,1114.86c8.15-0.38,16.32-0.28,24.48-0.52l-0.88,0.9601
			c-5.39,0.73-10.89,0.23-16.32,0.46C645.58,1115.58,642.85,1116.3,640.72,1114.86z"/>
		<path fill="#6F6D6B" stroke="#6F6D6B" stroke-width="0.0938" d="M859.41,1115.9c11.98,5.09,24.08,10.0399,36.66,13.48
			c-9.11,10.23-19.23,19.48-29.41,28.63c-1.75-4.46-1.68-9.35-2.71-13.98c2.52-2.0801,5.16-4.05,7.5-6.3401
			c0.95-1.0499,1.84-2.1399,2.8-3.1699c-4.22-1.87-9.28-2.5801-12.63-5.92C860.34,1124.47,860.09,1120.14,859.41,1115.9z"/>
		<path fill="#6F6D6B" stroke="#6F6D6B" stroke-width="0.0938" d="M771.76,1117.09c9.21,9.26,19.95,16.8301,30.79,24.0601
			c-8.14,4.34-16.01,9.2-24.41,13.03c-4.05,1.95-8.26,3.5399-12.29,5.5399c0.19-4.5599,0.87-9.0699,1.51-13.5599
			c3.17-2.36,7.03-3.48,10.61-5.04c0.84-0.35,2.42-1.23,1.21-2.2c-2.85-3.05-6.26-5.51-9.54-8.0801
			C770.11,1126.22,770.88,1121.64,771.76,1117.09z"/>
		<path fill="#6F6D6B" stroke="#6F6D6B" stroke-width="0.0938" d="M799.69,1119.9c10.52,7.37,21.23,14.52,32.67,20.41
			c-0.84,0.83-1.65,1.6899-2.5,2.5299c-6.78,4.67-13.62,9.3-20.75,13.4501c-3.63,2.0699-7.04,4.63-11.08,5.87
			c-0.2401-4.53,0.34-9.03,0.48-13.54c2.58-1.86,5.4-3.3,8.23-4.75c1.33-0.8099,2.63-1.6801,3.97-2.47
			c-3.68-2.72-7.45-5.3101-11.32-7.73C799.37,1129.0699,799.44,1124.48,799.69,1119.9z"/>
		<path fill="#6F6D6B" stroke="#6F6D6B" stroke-width="0.0938" d="M831.3,1119.49c11.2,6.01,22.43,12,34.39,16.39
			c-0.18,0.38-0.54,1.14-0.72,1.52c-9.62,8.91-19.98,17.0499-30.74,24.5499c-0.47-4.5699-0.95-9.1499-0.97-13.74
			c1.81-2.09,4.23-3.51,6.36-5.23c1.43-1.1,2.83-2.23,4.26-3.33c-0.78-0.53-1.55-1.05-2.31-1.55c-2.88-1.9399-6.01-3.4299-9.16-4.83
			C831.52,1128.72,831.37,1124.1,831.3,1119.49z"/>
		<path fill="#BDC68A" stroke="#BDC68A" stroke-width="0.0938" d="M741.18,1132.45c2.2,0.14,4.4,0.26,6.62,0.4401
			c0.75,0.83,1.48,1.67,2.23,2.5499c-2.13,0.7301-4.27,1.4701-6.41,2.17c-0.03-0.64-0.11-1.92-0.14-2.5599
			c-2.71,0.49-5.45,1.0399-8.21,0.6499c2.3-0.76,4.61-1.48,6.94-2.1399C741.95,1133.29,741.44,1132.73,741.18,1132.45z"/>
		<path fill="#BDC68A" stroke="#BDC68A" stroke-width="0.0938" d="M832.36,1140.3101c2.34-2.51,6.15-1.65,9.21-2.2101
			c0.76,0.5,1.53,1.02,2.31,1.55c-1.43,1.1-2.83,2.23-4.26,3.33c-2.4-3.37-6.61-0.58-9.76-0.14
			C830.71,1142,831.52,1141.14,832.36,1140.3101z"/>
		<path fill="#C37182" stroke="#C37182" stroke-width="0.0938" d="M715.09,1307.25c80.53,16.53,165.22,9.63,242.92-16.67
			c0.1,0.29,0.29,0.87,0.38,1.17c5.58,20.6899,3.87,43.3101-4.71,62.96c-4.28,9.15-9.47,18.1001-17.02,24.9701
			c-8.7,9.59-20.58,16.09-33.12,19.0299c-9.0099,2.02-18.3,1.99-27.3-0.02c-25.69-5.58-45.59-27.35-53.13-51.96
			c-3.36-8.6699-3.83-18.01-5.61-27.04c-0.76,17.6001-7.74,34.64-18.25,48.66c-9.82,12.25-23.29,22.01-38.78,25.5
			c-9.1899,1.86-18.81,2.12-27.99,0.03c-18.37-4.04-34.14-16.5699-43.92-32.4301c-6.89-11.0499-11.31-23.58-13.02-36.47
			c-0.32-6.33-1.67-12.66-0.7599-18.99c0.53-3.02,0.7-6.0699,0.7-9.12l0.96,0.36C689.09,1301.39,702.05,1304.58,715.09,1307.25z"/>
		<path fill="#DDB166" stroke="#DDB166" stroke-width="0.0938" d="M732.48,1393.88c9.18,2.09,18.8,1.83,27.99-0.03
			c0,67.26,0.1,134.53-0.05,201.79c15.5,2.27,31.12,6.08,44.6,14.36c3.46,2.24,7.68,3.84,11.58,1.55
			c12.58-4.78,25.54-8.5701,38.7401-11.16c6.6299-1.99,13.62-2.13,20.28-3.97c0.07-60.79,0-121.5901,0.03-182.38
			c0.0699-5.13-0.44-10.29,0.59-15.3501c9,2.01,18.29,2.04,27.3,0.02c0.33,4.75-0.11,9.54,0.66,14.27
			c-0.62,8.3-0.93,16.73,0.09,25.04c0.25,1.65-0.17,3.28-0.36,4.95c-0.8,3.66,0.78,7.3301-0.01,11.01
			c-0.62,2.91-0.02,5.8201,0.33,8.74c-0.06,3.7001-1.21,7.42-0.07,11.11c0.04,3.7201-0.85,7.42-0.5,11.1901
			c-0.51,4.33,1.19,8.65,0.15,12.95c-0.49,10.0801,0.19,20.2101,0.34,30.25c-1.78,6.55,1.22,13.24-0.46,19.77
			c1.44,6.99-0.92,14,0.37,21.02c-0.69,4.3199,0.77,8.67-0.45,13c1.07,4.54-0.7,9.1799,0.81,13.62
			c9.65-0.6801,19.07,1.78,28.46,3.55c7.83,2.35,15.75,4.7999,22.78,9.08c4.47,2.51,9.39,4.34,13.41,7.6
			c2.28,2.1,4.98,4.8101,4.21,8.23c-2.51,5.05-7.51,9.1901-13.37,9.15c-12.83-0.14-22.34-11.1-35.01-11.9399
			c-11.84-2.29-23.91-2.1901-35.9-1.8101c-8.69,1.33-17.52,1.76-26.04,4.02c-19.72,4.64-39.01,10.98-58.08,17.79
			c-5.03,1.5499-10.1801,2.7699-15,4.8899c-8.35,1.9401-16.41,5.2201-24.97,6.2001c-2.31-0.05-4.5-1-6.51-2.04
			c-2.8-1.6-2.57-5.61-1.34-8.14c4.29-7.99,12.18-13.37,20.36-16.8199c1.33-0.25,1.23-1.76,1.34-2.75
			c-10.8101-1.9-21.72-3.88-32.75-3.25c-10.1801-0.85-20.1201,1.53-30.1801,2.53c-26.43,5.5299-51.8,14.9399-77.37,23.38
			c-9.07,2.6599-18.07,5.8199-27.46,7.11c-2.96-0.6801-6.94-1.15-8.36-4.2201c-1.11-4.8099,1.92-9.1399,4.98-12.5199
			c6.72-6.55,15.44-10.5701,24.19-13.67c27.15-8.75,53.71-20.1801,82.2-23.9c5.78-1.36,11.68-2.23,17.61-2.4399
			c1.32-3.41,0.58-7.14,0.73-10.6901C732.43,1521.28,732.21,1457.58,732.48,1393.88z"/>
	</g>
	<g>
		<path fill="#C37182" stroke="#C37182" stroke-width="0.0938" d="M1407.25,1227.33c5.51-1.1,11.17-0.6699,16.76-0.7899
			c22.28-0.53,44.3099,6.71,63.1,18.47c29.0701,18.64,50.96,46.58,67.1901,76.71c19.37,35.75,31.1399,75.23,37.6399,115.24
			c1.2401,8.6801,2.4601,17.3501,2.89,26.12c0.8,3.89,1.0701,7.8501,0.9401,11.8401c1.0699,23.0499,0.63,46.22-2.85,69.0699
			c-5.3301,34.03-16.39,67.6801-35.4,96.64c-7.51,11.8199-16.49,22.62-26.13,32.75c-22.35,22.03-50.0701,38.84-80.4,47.2
			c-7.61,2.02-15.21,4.27-23.0699,5c-5.29,0.9801-10.6001,1.89-15.99,1.66c-7.65,0.47-15.3301,0.88-22.9801,0.24
			c-5.62-0.6699-11.35,0.17-16.83-1.4199c-48.02-5.7201-93.84-30.3101-123.9399-68.3401
			c-22.78-28.1699-36.8501-62.95-41.9601-98.6799c-0.34-3.8501-1.01-7.64-1.61-11.4401c-0.9399-14.1799-1.88-28.46-0.35-42.64
			c-0.33-8.0699,1.54-15.96,2.1899-23.96c6.04-41.71,20.52-82.01,40.62-118.98c18.3301-33.71,41.9301-64.74,70.75-90.17
			c15.26-13.45,32.37-24.83,50.8401-33.37C1380.96,1233.05,1393.95,1229.27,1407.25,1227.33 M1397.39,1353.47
			c-22.46,1.65-43.16,13.29-58.91,28.9601c-16.03,16.95-28.0599,37.8099-33.75,60.5c-1.65,6.96-4.04,13.84-4.39,21.0499
			c-5.4199,38.65,3.0901,79.78,26,111.6801c10.0801,13.4299,22.3,25.75,37.4,33.45c20.95,11.33,46.6801,13.66,69.29,6.09
			c14.34-4.4399,26.98-13.13,38.02-23.1399c13.23-13.2001,23.7899-29.17,30.3899-46.67c16.2401-40.48,14.67-87.62-3.83-127.09
			c-10.5699-22.2101-27.12-42.1801-48.9399-53.99c-5.39-3.5-11.61-5.3101-17.62-7.3501
			C1420.3,1353.1899,1408.66,1352.3199,1397.39,1353.47z"/>
		<path fill="#C592A6" stroke="#C592A6" stroke-width="0.0938" d="M1497.61,1418.3c-10.5699-22.2101-27.12-42.1801-48.9399-53.99
			c-5.39-3.5-11.61-5.3101-17.62-7.3501c-10.75-3.77-22.39-4.64-33.66-3.49c-22.46,1.65-43.16,13.29-58.91,28.9601
			c-16.03,16.95-28.0599,37.8099-33.75,60.5c-1.65,6.96-4.04,13.84-4.39,21.0499c-5.4199,38.65,3.0901,79.78,26,111.6801
			c10.0801,13.4299,22.3,25.75,37.4,33.45c20.95,11.33,46.6801,13.66,69.29,6.09c14.34-4.4399,26.98-13.13,38.02-23.1399
			c13.23-13.2001,23.7899-29.17,30.3899-46.67C1517.6801,1504.91,1516.11,1457.77,1497.61,1418.3z"/>
		<path fill="#B90000" enable-background="new    " d="M1481.6217,1446.0881c-4.3352-16.8806-17.9686-27.5706-36.7247-29.5977
			c-1.6304-0.1763-3.2159-0.2616-4.762-0.2616c-16.304,0-27.9044,9.521-34.5366,22.5341
			c-6.9287-13.5811-18.7559-22.3899-36.0002-22.3894c-1.1414,0-2.3075,0.0386-3.4963,0.1169
			c-17.1512,1.1305-31.8848,11.3866-36.5269,31.3794c-8.3501,35.9639,31.1733,72.7273,76.0234,108.4917
			C1453.2957,1520.84,1490.5082,1480.6903,1481.6217,1446.0881z"/>
	</g>
</g>
</svg>
