<?xml version="1.0" encoding="UTF-8" standalone="no"?>
<!-- Created with Inkscape (http://www.inkscape.org/) -->

<svg
   width="40.84853mm"
   height="66.703362mm"
   viewBox="0 0 40.84853 66.703362"
   version="1.1"
   id="svg8017"
   xml:space="preserve"
   inkscape:version="1.2 (dc2aedaf03, 2022-05-15)"
   sodipodi:docname="Abstract woman 2.svg"
   xmlns:inkscape="http://www.inkscape.org/namespaces/inkscape"
   xmlns:sodipodi="http://sodipodi.sourceforge.net/DTD/sodipodi-0.dtd"
   xmlns="http://www.w3.org/2000/svg"
   xmlns:svg="http://www.w3.org/2000/svg"
   xmlns:rdf="http://www.w3.org/1999/02/22-rdf-syntax-ns#"
   xmlns:cc="http://creativecommons.org/ns#"
   xmlns:dc="http://purl.org/dc/elements/1.1/"><title
     id="title8037">Abstract woman</title><sodipodi:namedview
     id="namedview8019"
     pagecolor="#ffffff"
     bordercolor="#666666"
     borderopacity="1.0"
     inkscape:showpageshadow="2"
     inkscape:pageopacity="0.0"
     inkscape:pagecheckerboard="0"
     inkscape:deskcolor="#d1d1d1"
     inkscape:document-units="mm"
     showgrid="false"
     inkscape:zoom="0.69041105"
     inkscape:cx="143.39284"
     inkscape:cy="470.00986"
     inkscape:window-width="1920"
     inkscape:window-height="991"
     inkscape:window-x="-9"
     inkscape:window-y="-9"
     inkscape:window-maximized="1"
     inkscape:current-layer="layer1" /><defs
     id="defs8014" /><g
     inkscape:label="Lager 1"
     inkscape:groupmode="layer"
     id="layer1"
     transform="translate(-66.912257,-23.9835)"><path
       style="fill:#000000;stroke-width:0.0426926"
       d="m 71.565755,90.669738 c 0,-0.0092 0.258802,-0.541318 0.575117,-1.182394 0.316315,-0.641078 0.568061,-1.172652 0.559435,-1.181278 -0.0086,-0.0086 -0.25302,0.07035 -0.543098,0.175489 -0.972219,0.352407 -1.760355,0.497648 -2.695359,0.496721 -0.895202,-8.58e-4 -1.712617,-0.216064 -2.292921,-0.603576 l -0.256672,-0.171397 v -0.295314 c 0,-0.162426 0.0072,-0.295317 0.01597,-0.295317 0.0088,0 0.100038,0.04619 0.20279,0.102649 0.266485,0.14642 0.900832,0.353964 1.275483,0.417311 0.520795,0.08807 1.602835,0.0628 2.134632,-0.04984 0.994474,-0.21063 1.851642,-0.525132 2.562059,-0.940039 0.333347,-0.194682 0.682582,-0.488493 0.682582,-0.574255 0,-0.02826 -0.0862,-0.113269 -0.191548,-0.188923 -0.105351,-0.07566 -0.388452,-0.314261 -0.629114,-0.530224 -0.84772,-0.760726 -1.933011,-1.479693 -2.753479,-1.824081 l -0.222769,-0.09351 -0.438967,0.215806 c -0.831312,0.408696 -1.658098,1.043335 -2.274751,1.746098 l -0.341541,0.389234 -0.0126,-0.349068 c -0.0069,-0.19199 -0.0024,-0.387493 0.01014,-0.434453 0.04012,-0.150714 0.47355,-0.617162 0.819424,-0.88185 0.184656,-0.141313 0.357165,-0.29849 0.383353,-0.349278 0.02619,-0.05079 0.07019,-0.38052 0.09779,-0.732733 0.193165,-2.465385 0.25757,-3.414459 0.495416,-7.300442 0.08336,-1.361896 0.216947,-3.340699 0.296869,-4.397342 0.07992,-1.056644 0.157096,-2.228558 0.171497,-2.604253 0.0144,-0.375694 0.0819,-1.441941 0.149999,-2.369439 0.124314,-1.693153 0.190192,-2.905042 0.235557,-4.333303 l 0.02441,-0.768468 -0.716884,-0.668401 C 68.494289,60.726247 68.017998,60.295922 67.83015,60.13759 67.642303,59.979258 67.394888,59.765778 67.28034,59.663189 l -0.208269,-0.186528 0.132136,-0.266054 c 0.132502,-0.266791 1.283999,-2.04832 1.634475,-2.528764 0.102774,-0.140883 0.192856,-0.269331 0.20018,-0.285438 0.0073,-0.01611 -0.09623,-0.140978 -0.230119,-0.277502 -0.326437,-0.332848 -1.2655,-1.40532 -1.477233,-1.687094 -0.295681,-0.393491 -0.388603,-0.577657 -0.356781,-0.707114 0.04429,-0.180183 0.347941,-0.877185 0.608823,-1.397502 0.364636,-0.727243 1.258001,-2.762422 1.26498,-2.881752 0.005,-0.08547 -0.110078,-0.21536 -0.5778,-0.652147 -0.321223,-0.299977 -0.674888,-0.64579 -0.785922,-0.768467 -0.224015,-0.24751 -0.529859,-0.697974 -0.529859,-0.780409 0,-0.05666 0.718932,-1.052887 1.279585,-1.773131 L 68.573067,45.0364 67.843895,44.317293 c -0.703691,-0.693976 -0.728254,-0.723984 -0.702872,-0.858673 0.02942,-0.156132 0.135627,-0.372981 1.129867,-2.306985 l 0.696896,-1.355609 -0.450335,-0.42996 c -0.247683,-0.236477 -0.590104,-0.546417 -0.760935,-0.688755 -0.5039,-0.419853 -0.630795,-0.541688 -0.630795,-0.605641 0,-0.161157 0.890935,-1.481312 1.599905,-2.370681 0.176695,-0.221656 0.321264,-0.417819 0.321264,-0.435917 0,-0.0181 -0.403446,-0.451113 -0.896546,-0.962253 -0.4931,-0.511139 -0.896545,-0.959472 -0.896545,-0.996295 0,-0.103417 0.256511,-0.328315 1.045969,-0.91706 0.399177,-0.297685 0.730979,-0.555093 0.73734,-0.572012 0.01248,-0.03319 -0.518256,-0.137603 -1.213221,-0.238672 -0.488433,-0.07103 -0.655901,-0.122701 -0.654536,-0.201934 0.003,-0.172548 0.333194,-0.728187 1.250226,-2.103669 1.108894,-1.663261 1.966813,-2.753676 2.166542,-2.753676 0.117875,0 0.135125,0.124171 0.102576,0.738366 l -0.02992,0.564577 0.861635,1.14835 c 0.760596,1.013685 1.064639,1.459676 1.01958,1.495582 -0.0075,0.006 -0.272499,0.150865 -0.588868,0.321962 -0.625035,0.338023 -1.228092,0.714535 -1.315801,0.82151 -0.03743,0.04566 -0.05119,0.174587 -0.04269,0.400066 l 0.01254,0.332699 0.305311,0.247412 c 0.167922,0.136078 0.373146,0.341836 0.456055,0.457239 l 0.150742,0.209821 -0.534915,0.624179 -0.534915,0.624179 -0.03678,0.292921 c -0.02023,0.161107 -0.04009,0.448128 -0.04414,0.637824 l -0.0074,0.344902 0.252875,0.289532 c 0.139082,0.159243 0.433068,0.507666 0.653302,0.774274 l 0.400425,0.484743 -0.08085,0.150123 c -0.04447,0.08257 -0.334077,0.454372 -0.643581,0.826232 l -0.562734,0.676109 -0.03115,0.415448 c -0.01713,0.228497 -0.01857,0.578988 -0.0032,0.77887 0.02626,0.341629 0.03823,0.376348 0.199524,0.57898 0.441212,0.554269 0.980726,1.264717 1.14137,1.502988 l 0.177186,0.262807 -0.585883,0.690558 c -0.322211,0.379806 -0.64936,0.769842 -0.726973,0.866746 l -0.141114,0.176189 0.01304,0.862265 0.01304,0.862266 0.128078,0.170099 c 0.07044,0.09355 0.26368,0.330728 0.429416,0.527049 0.165735,0.19632 0.365586,0.451119 0.444112,0.566222 0.135904,0.199204 0.138986,0.212043 0.06406,0.266828 -0.04329,0.03166 -0.09088,0.05755 -0.105743,0.05755 -0.01487,0 -0.214118,0.214725 -0.442777,0.477168 l -0.415744,0.477164 0.01334,0.728903 0.01334,0.728899 0.391369,0.576352 c 0.215254,0.316991 0.518536,0.749255 0.673962,0.960583 0.746158,1.014536 0.715468,0.961965 0.63347,1.085072 -0.04042,0.06068 -0.24916,0.427315 -0.463873,0.814753 -0.214714,0.387435 -0.501233,0.896543 -0.63671,1.131354 -0.506379,0.877656 -0.491414,0.824136 -0.491453,1.757667 l -3.3e-5,0.818429 0.242102,0.355617 c 0.133156,0.195591 0.32151,0.451677 0.418562,0.569083 0.294959,0.35681 0.572039,0.731288 0.621644,0.840162 0.04196,0.09209 0.01602,0.148505 -0.242821,0.528016 -0.328293,0.481353 -0.899881,1.244373 -1.106583,1.477195 -0.155551,0.175206 -0.165489,0.241082 -0.211598,1.402546 -0.01352,0.340472 -0.04414,0.825223 -0.06805,1.077224 -0.02391,0.252001 -0.03265,0.475697 -0.01942,0.497102 0.02491,0.0403 0.485029,-0.127627 1.369441,-0.499791 0.785935,-0.330719 1.380009,-0.656292 3.052524,-1.672881 3.898693,-2.369703 4.473368,-2.80064 4.923821,-3.692265 0.285216,-0.564549 0.540838,-1.526851 0.540838,-2.035991 v -0.25485 l -0.138752,0.03131 c -0.07631,0.01722 -0.42696,0.03068 -0.779216,0.02992 -0.933674,-0.002 -1.346808,-0.123685 -1.787414,-0.526374 -0.253655,-0.231826 -0.460137,-0.584823 -0.562569,-0.961753 -0.04357,-0.160332 -0.08208,-0.564734 -0.105355,-1.106531 -0.02017,-0.46962 -0.06019,-0.93836 -0.0889,-1.04165 -0.05202,-0.187129 -0.171263,-0.329045 -0.603454,-0.718203 -0.294074,-0.264791 -0.351731,-0.396807 -0.352436,-0.806965 l -6.01e-4,-0.346803 -0.276566,-0.05096 c -0.267727,-0.04933 -0.385169,-0.103101 -0.385169,-0.176352 0,-0.0194 0.204478,-0.279336 0.454394,-0.577645 l 0.454394,-0.54238 -0.336989,0.02586 c -0.185344,0.01422 -0.788012,0.0844 -1.339262,0.155943 -0.55125,0.07155 -1.170827,0.13009 -1.376838,0.13009 h -0.374564 l 8.58e-4,-0.224137 c 4.58e-4,-0.123275 0.01934,-0.349011 0.04193,-0.501639 0.143529,-0.96964 0.340136,-4.773469 0.340983,-6.597132 6.87e-4,-1.486731 -0.0097,-1.545228 -0.570661,-3.200986 -0.546349,-1.61274 -0.681814,-2.329454 -0.681823,-3.607371 -7e-6,-0.927177 0.06026,-1.329152 0.318109,-2.121711 0.385121,-1.18377 0.900246,-2.182582 1.591974,-3.086792 0.41504,-0.542529 1.644534,-1.785721 2.204913,-2.229477 1.06991,-0.847243 2.248588,-1.55309 3.499149,-2.095444 1.718494,-0.745292 4.314236,-1.311826 6.899684,-1.505893 1.355142,-0.101719 3.605717,-0.104322 4.200404,-0.0049 2.251136,0.376504 4.045504,1.153765 5.823878,2.522705 1.018526,0.78403 1.894701,1.821907 2.294578,2.718053 0.27737,0.621601 0.500311,1.49277 0.533794,2.085872 0.02386,0.422563 -0.0446,0.977347 -0.18395,1.490675 -0.03068,0.113029 -0.07809,0.113858 0.945429,-0.01653 0.790998,-0.100778 1.949398,-0.188605 3.187438,-0.241659 0.96455,-0.04133 1.19316,-0.04042 1.24787,0.005 0.095,0.07883 0.4259,1.117531 0.66771,2.09586 0.78094,3.15961 1.02073,5.024356 1.15697,8.997393 0.0564,1.646406 0.017,3.197609 -0.11329,4.450788 -0.11419,1.098426 -0.52387,4.113979 -0.66412,4.888308 -0.35508,1.960417 -0.88543,3.93756 -1.62046,6.041009 -0.81007,2.318196 -0.93768,2.765631 -0.93768,3.287777 0,0.491949 0.18454,0.952964 0.4734,1.182637 0.0575,0.04571 0.0632,0.0085 0.0487,-0.320198 -0.015,-0.341799 -0.007,-0.390736 0.10433,-0.604313 0.20353,-0.391938 0.30204,-0.395454 0.56896,-0.02031 0.49507,0.695803 1.117,1.012676 1.59532,0.812819 0.20082,-0.08391 0.4476,-0.3507 0.57733,-0.624154 0.0991,-0.208862 0.1114,-0.286705 0.1114,-0.704431 0,-0.432928 -0.01,-0.489632 -0.12537,-0.725772 -0.16418,-0.33546 -0.47464,-0.659193 -0.78106,-0.814456 -0.19717,-0.0999 -0.31436,-0.127807 -0.58781,-0.139951 -0.18785,-0.0084 -0.36555,-0.03471 -0.39491,-0.05859 -0.0703,-0.05719 -0.0678,-0.25786 0.005,-0.429252 0.12238,-0.287212 0.41374,-0.448448 0.88118,-0.487635 0.38518,-0.03229 0.77095,0.08648 1.20223,0.370144 0.6448,0.424102 1.00414,0.956149 1.21853,1.804161 0.10199,0.403419 0.1071,0.465012 0.0636,0.766637 -0.0625,0.433248 -0.23592,0.944571 -0.41023,1.20946 -0.46167,0.701564 -1.32995,1.202654 -2.1634,1.248524 -0.95336,0.05247 -1.82624,-0.404242 -3.08591,-1.614614 -1.21233,-1.164889 -2.09265,-2.650072 -2.925972,-4.936416 -0.393291,-1.079049 -0.538355,-1.668081 -0.733983,-2.980367 -0.111535,-0.748179 -0.160647,-3.017129 -0.08686,-4.013109 0.02609,-0.352212 0.104062,-1.370435 0.173262,-2.26271 0.185842,-2.396208 0.233486,-3.574356 0.235669,-5.827545 0.0017,-1.673685 -0.01144,-2.150943 -0.07491,-2.732329 -0.13947,-1.277982 -0.344156,-2.296295 -0.647724,-3.222419 -0.191652,-0.584687 -0.863569,-1.94339 -0.961063,-1.94339 -0.01925,0 -0.0074,0.09125 0.02632,0.20279 0.144889,0.478941 0.237016,1.23225 0.259748,2.123959 0.0656,2.573234 -0.390121,4.714624 -1.459386,6.85754 -0.330514,0.662378 -0.497008,0.951708 -1.127012,1.958489 -0.698211,1.115779 -1.252069,2.235012 -1.552818,3.137912 -0.361848,1.086331 -0.641762,2.28288 -0.778709,3.328741 -0.09236,0.705309 -0.16876,1.971493 -0.133252,2.208275 0.04025,0.268445 0.665127,1.524262 1.058014,2.126312 0.534616,0.819227 0.90589,1.259304 1.911288,2.265483 0.946041,0.946777 3.097275,3.012806 4.399365,4.225121 1.671253,1.55602 2.681073,2.644751 3.522243,3.797463 0.96449,1.321705 1.94396,3.323311 2.31935,4.739743 0.17925,0.67634 0.48068,2.402247 0.60396,3.458104 0.0779,0.666937 0.10217,2.2163 0.0476,3.031178 -0.15296,2.281695 -0.51376,4.549827 -1.09681,6.894861 -0.38988,1.568084 -0.59967,2.22003 -1.06472,3.308678 -0.10532,0.246551 -0.302,0.726842 -0.43707,1.067317 l -0.24559,0.619044 -0.56502,0.0119 c -0.32818,0.0069 -0.56503,-0.0047 -0.56503,-0.02778 0,-0.02183 0.0791,-0.209698 0.17578,-0.41749 0.31561,-0.678392 0.54852,-1.22603 0.52951,-1.245049 -0.0102,-0.01024 -0.1203,0.04848 -0.24456,0.130516 -0.12425,0.08204 -0.30894,0.191189 -0.41041,0.242569 -0.10147,0.05138 -0.37204,0.205418 -0.60127,0.342309 -0.22923,0.13689 -0.74435,0.414366 -1.14472,0.616618 l -0.727945,0.36773 h -0.58016 -0.580162 L 98.02963,90.363187 c -0.937763,-0.538841 -1.618987,-1.020365 -2.620159,-1.852068 -0.792087,-0.658009 -0.991772,-0.84254 -1.30841,-1.2091 -0.369792,-0.428096 -0.358876,-0.457883 0.230419,-0.628682 0.535697,-0.155265 1.016174,-0.326626 1.071803,-0.382254 0.03884,-0.03884 -0.161839,-0.13754 -0.717079,-0.352676 -0.186465,-0.07225 -0.519064,-0.253423 -0.739107,-0.402612 -0.22004,-0.149189 -0.408485,-0.271251 -0.418764,-0.271251 -0.0412,0 -0.01376,2.114002 0.0452,3.479451 0.03446,0.798349 0.063,1.562016 0.06342,1.697029 l 8.58e-4,0.245485 h -0.72839 -0.72839 l 0.03347,-0.20279 c 0.05907,-0.35794 0.04586,-0.545117 -0.03799,-0.538555 -0.317614,0.02486 -4.754298,0.12186 -5.582975,0.122052 l -1.04597,5.72e-4 0.0135,-0.128076 c 0.01765,-0.167444 0.337411,-0.703273 1.184703,-1.985209 1.24873,-1.889308 1.985082,-2.964509 2.145094,-3.132202 l 0.157499,-0.165058 -0.128076,0.021 c -0.07044,0.01156 -0.349014,0.07023 -0.619044,0.130399 -0.41707,0.09293 -1.613122,0.316203 -2.369442,0.442311 l -0.213463,0.03559 -0.03325,0.512147 c -0.145698,2.244333 -0.253005,3.804598 -0.295814,4.301116 l -0.05061,0.587043 h -0.360538 -0.360543 l 0.02466,-0.458947 c 0.09789,-1.820897 0.216004,-4.791357 0.191489,-4.815875 -0.0088,-0.0088 -0.428196,0.0074 -0.931903,0.03605 l -0.915834,0.05213 0.23481,0.175228 c 0.579797,0.432664 0.997794,1.038451 1.189666,1.72413 0.261473,0.934412 0.183087,2.021692 -0.214627,2.977043 l -0.129155,0.310244 h -0.42294 c -0.232619,0 -0.422944,-0.0092 -0.422944,-0.02051 0,-0.01127 0.06464,-0.121751 0.143651,-0.245481 0.191182,-0.299399 0.381238,-0.684202 0.480125,-0.972087 0.06545,-0.19055 0.08034,-0.355514 0.07898,-0.875199 -0.0014,-0.581644 -0.01196,-0.669008 -0.113992,-0.952352 -0.343911,-0.955259 -1.102426,-1.684285 -2.061655,-1.981504 -1.276,-0.395376 -2.594838,0.475406 -3.05327,2.015965 -0.109495,0.367959 -0.101974,0.811143 0.02306,1.358801 0.07689,0.336784 0.484629,1.182614 0.702998,1.458328 0.0707,0.08926 0.128542,0.17475 0.128542,0.18997 0,0.01522 -0.148405,0.02206 -0.329786,0.01519 l -0.329787,-0.01247 -0.06584,-0.17861 c -0.09566,-0.259493 -0.120781,-0.262526 -0.153154,-0.01848 -0.02858,0.215469 -0.03101,0.218447 -0.177748,0.218447 h -0.148774 l 0.02658,-0.181442 c 0.03599,-0.245658 0.032,-2.836851 -0.0068,-4.385453 l -0.03148,-1.258397 -0.51231,-0.174899 c -0.281774,-0.09619 -0.555826,-0.198429 -0.609005,-0.227192 -0.08094,-0.04378 -0.10095,-0.0412 -0.12283,0.01582 -0.02246,0.05852 0.03313,3.032537 0.08856,4.73849 0.0099,0.305252 0.0091,0.49737 -0.002,0.426928 -0.134255,-0.863246 -0.31584,-1.470835 -0.720883,-2.412134 -0.351469,-0.816801 -0.491088,-1.1739 -0.491088,-1.256045 0,-0.03708 -0.01743,-0.06743 -0.03874,-0.06743 -0.02131,0 -0.04723,0.100864 -0.0576,0.22414 -0.01037,0.123272 -0.06922,0.528568 -0.130777,0.900646 -0.215488,1.302608 -0.226917,1.493894 -0.116643,1.952291 0.05324,0.221305 0.200394,0.680269 0.327013,1.01992 0.126619,0.339645 0.230216,0.632624 0.230216,0.651062 0,0.01842 -0.243356,0.03352 -0.540791,0.03352 h -0.540705 l -0.492206,-0.327787 c -0.503225,-0.335125 -0.843499,-0.60484 -1.322594,-1.048344 -0.148932,-0.137866 -0.290216,-0.244194 -0.313965,-0.236278 -0.02375,0.0079 -0.09012,0.129 -0.147499,0.269072 -0.05738,0.140068 -0.222292,0.499622 -0.366479,0.799004 l -0.262158,0.544333 h -0.312161 c -0.171689,0 -0.312162,-0.0076 -0.312162,-0.01679 z m 27.918762,-0.453239 c 0.278157,-0.164601 0.647003,-0.365936 0.819663,-0.447407 0.17265,-0.08147 0.50603,-0.25497 0.74085,-0.385553 l 0.42692,-0.237422 -0.21346,0.03031 c -0.11741,0.01668 -0.6073,0.0297 -1.08866,0.02894 -0.673278,-0.0011 -1.014651,-0.02252 -1.479608,-0.093 -1.202348,-0.182263 -1.888264,-0.353483 -2.184994,-0.545438 -0.05487,-0.0355 -0.108208,-0.05609 -0.118532,-0.04577 -0.03799,0.03798 0.326614,0.324914 1.259864,0.991471 0.525905,0.375617 1.035013,0.754192 1.131357,0.841287 0.09634,0.08709 0.18095,0.159133 0.188013,0.160097 0.0071,8.58e-4 0.240429,-0.132925 0.518587,-0.297522 z M 75.023859,90.060035 c 0,-0.01585 -0.04586,-0.164738 -0.101914,-0.330868 -0.05605,-0.166134 -0.220522,-0.705504 -0.36549,-1.198604 -0.144967,-0.493102 -0.29254,-0.98712 -0.32794,-1.097816 l -0.06436,-0.201273 -0.413326,0.343653 c -0.22733,0.189009 -0.517164,0.403167 -0.644078,0.475906 l -0.230752,0.132258 0.508254,0.494885 c 0.27954,0.272187 0.732819,0.681662 1.007288,0.909946 0.274468,0.228282 0.510945,0.434333 0.525504,0.457892 0.02978,0.04818 0.106817,0.05829 0.106817,0.01402 z M 92.520227,88.51989 c 0.04665,-1.00991 0.130725,-2.240185 0.312098,-4.566769 0.02969,-0.380827 0.0436,-0.702789 0.03091,-0.715471 -0.01267,-0.01267 -0.223015,0.07053 -0.467403,0.18494 -0.477597,0.223571 -2.261555,0.945438 -2.336477,0.945438 -0.02495,0 -0.0566,0.01822 -0.07036,0.04048 -0.01376,0.02226 0.313843,0.728285 0.728001,1.568954 1.239127,2.515215 1.340265,2.73603 1.653313,3.60975 0.07132,0.199047 0.101265,-0.01416 0.14991,-1.067317 z m -4.282996,1.014812 c 0.657468,-0.02277 1.699702,-0.05409 2.316077,-0.06959 0.616375,-0.01551 1.120683,-0.0324 1.120683,-0.03756 0,-0.0052 -0.371397,-0.775843 -0.825329,-1.712621 -0.453929,-0.936778 -0.946734,-1.967397 -1.095119,-2.29026 -0.148388,-0.322864 -0.285842,-0.587023 -0.305456,-0.587023 -0.01963,0 -0.06273,0.06479 -0.09582,0.143971 -0.03308,0.07918 -0.269955,0.458615 -0.526379,0.84318 -0.256424,0.384563 -0.678664,1.045021 -0.938312,1.467675 -0.631088,1.027295 -1.147317,1.841149 -1.298406,2.046985 -0.188636,0.256996 -0.171466,0.283982 0.164489,0.258509 0.158498,-0.01202 0.826104,-0.04049 1.483569,-0.06327 z M 101.93765,88.5302 c 0.60069,-0.07027 0.95958,-0.150419 1.10543,-0.246874 0.0875,-0.0579 0.27344,-0.483985 0.23007,-0.527358 -0.0108,-0.01076 -0.1708,0.01905 -0.35564,0.06625 -0.71877,0.183516 -1.15632,0.233151 -2.0646,0.234187 -0.75032,8.58e-4 -0.940932,-0.0129 -1.335877,-0.09631 C 98.41873,87.72808 97.467279,87.293819 96.72479,86.68566 l -0.17905,-0.146659 -0.504033,0.189978 c -0.277217,0.104491 -0.663496,0.242303 -0.858398,0.306251 -0.209469,0.06873 -0.347707,0.136369 -0.338086,0.165418 0.02397,0.07232 0.713898,0.427309 1.204763,0.619879 1.101919,0.432276 1.772787,0.565187 3.756954,0.744314 0.46833,0.04228 1.63537,0.02332 2.13071,-0.03463 z m -0.1455,-1.193837 c 0.15262,-0.01325 0.55607,-0.08237 0.89654,-0.153615 0.34048,-0.07124 0.68222,-0.140766 0.75943,-0.154501 0.0772,-0.01373 0.15638,-0.05596 0.17594,-0.09383 0.0597,-0.11554 0.45902,-1.442414 0.61822,-2.054071 0.88372,-3.39516 1.13322,-8.067001 0.59737,-11.185472 -0.10505,-0.611403 -0.38801,-1.720362 -0.5519,-2.163014 -0.21736,-0.587063 -0.69214,-1.539962 -1.00689,-2.020865 -0.23794,-0.363536 -1.04715,-1.238086 -1.14559,-1.238086 -0.0505,0 -0.0836,0.455978 -0.13009,1.79309 -0.0233,0.669209 -0.0613,1.552945 -0.0844,1.963861 -0.0231,0.410917 -0.0906,1.928642 -0.15007,3.37272 -0.12382,3.009405 -0.3076,7.052223 -0.34059,7.492558 -0.0498,0.66425 -0.19756,4.387947 -0.17635,4.443212 0.0146,0.03799 0.0657,0.05266 0.14182,0.04074 0.0655,-0.01024 0.2439,-0.02948 0.39653,-0.04272 z M 75.367083,87.068338 c 0.0016,-0.195087 0.0529,-0.467017 0.250571,-1.32861 0.05048,-0.220025 0.0808,-0.434647 0.06737,-0.476938 -0.01342,-0.04229 -0.131885,-0.198473 -0.263252,-0.347072 -0.334002,-0.377823 -1.216572,-1.2802 -1.234533,-1.262239 -0.02812,0.02812 0.232721,0.949886 0.389457,1.376288 0.136971,0.372633 0.444324,1.325704 0.65053,2.017227 0.03676,0.123273 0.08289,0.224137 0.102503,0.224137 0.01962,0 0.03642,-0.09126 0.03735,-0.202793 z m 1.32179,-0.573931 c 0,-0.492219 -0.07527,-1.569904 -0.123164,-1.763489 -0.01742,-0.07044 -0.04818,-0.124478 -0.06834,-0.120083 -0.02017,0.0044 -0.09271,0.158091 -0.16122,0.341541 -0.114277,0.305976 -0.120795,0.352639 -0.07886,0.564517 0.08241,0.416404 0.362792,1.412696 0.397571,1.412696 0.01871,0 0.03401,-0.195832 0.03401,-0.435182 z m 21.362299,-0.365304 c 0.01485,-0.22894 0.04626,-0.992607 0.06982,-1.697035 0.02354,-0.704428 0.06187,-1.82831 0.08513,-2.497518 0.02326,-0.669209 0.06159,-2.11969 0.08516,-3.223294 0.02357,-1.103607 0.06242,-2.515664 0.08631,-3.13791 0.055,-1.432409 0.169152,-6.39985 0.169584,-7.379724 2.86e-4,-0.591351 -0.0109,-0.736703 -0.05528,-0.719673 -0.03059,0.01173 -0.17948,0.05552 -0.330869,0.09729 -1.812726,0.500145 -3.362918,2.021154 -4.152559,4.074384 -0.44002,1.144148 -0.584079,2.059885 -0.584079,3.712806 0,3.110615 0.849978,6.279925 2.347585,8.753446 0.446889,0.738103 0.839039,1.254681 1.288591,1.697462 0.30387,0.29929 0.847949,0.725175 0.937113,0.733534 0.01459,0.0014 0.03866,-0.184829 0.0535,-0.413766 z m -19.15437,0.128325 c 0.156198,-0.232565 0.723361,-0.811726 0.827175,-0.844674 0.117345,-0.03725 0.100191,-0.09958 -0.03595,-0.130654 -0.06457,-0.01473 -0.307006,-0.07365 -0.538741,-0.130925 -0.231734,-0.05727 -0.427672,-0.09779 -0.435416,-0.09005 -0.0078,0.0078 -0.0026,0.325881 0.01167,0.706968 0.01416,0.381093 0.03177,0.686897 0.0391,0.679565 0.0073,-0.0073 0.06679,-0.09294 0.132144,-0.190233 z m 16.945434,-0.202526 c 0.01376,-0.03588 -0.04613,-0.16131 -0.137611,-0.288176 -0.539536,-0.748227 -0.830865,-1.22696 -1.191385,-1.957773 -0.223173,-0.452399 -0.40577,-0.846743 -0.40577,-0.876329 0,-0.108259 -0.09379,-0.105708 -0.342941,0.0093 l -0.254756,0.117614 v 0.5202 c 0,0.286114 -0.01193,0.607246 -0.02652,0.713629 -0.02506,0.182749 -0.01679,0.203965 0.149538,0.38442 0.193469,0.209886 0.813065,0.666771 1.115061,0.822236 0.105665,0.0544 0.345811,0.21431 0.533658,0.355365 0.342094,0.256882 0.515079,0.318427 0.560717,0.1995 z M 73.637155,85.531403 c -0.04378,-0.110221 -0.698391,-1.996746 -1.151795,-3.319351 -0.217337,-0.633986 -0.568579,-1.594569 -0.780538,-2.134632 -0.687914,-1.752772 -1.005783,-2.707368 -1.371857,-4.11984 -0.173818,-0.670665 -0.602994,-2.733742 -0.602994,-2.898631 0,-0.04942 -0.01635,-0.08986 -0.03633,-0.08986 -0.01998,0 -0.04926,0.273766 -0.06506,0.60837 -0.0158,0.334604 -0.07552,1.386445 -0.13272,2.337421 -0.0572,0.950982 -0.13435,2.257375 -0.171449,2.903102 -0.135526,2.358866 -0.302489,4.479297 -0.38911,4.941674 -0.01429,0.07631 -0.01583,0.13875 -0.0034,0.13875 0.01242,0 0.12105,-0.04945 0.24139,-0.109896 0.268421,-0.134822 0.795769,-0.31703 0.917543,-0.31703 0.127631,0 0.946549,0.345229 1.423775,0.600214 0.467795,0.249955 1.283974,0.827818 1.75367,1.241627 0.336991,0.296893 0.419575,0.345716 0.368879,0.218077 z m 2.325942,-0.863658 c 0,-0.207341 -0.0045,-0.21485 -0.181444,-0.303822 -0.09979,-0.05017 -0.215182,-0.120887 -0.256417,-0.157145 -0.148982,-0.130988 -0.11527,-0.01636 0.06868,0.233515 0.103331,0.140363 0.210133,0.296798 0.237337,0.347626 0.08125,0.151821 0.131843,0.105708 0.131844,-0.120174 z m 6.975997,-0.08776 c 0.255955,-0.02426 0.488702,-0.05788 0.517225,-0.07468 0.03882,-0.02286 -0.01685,-0.341637 -0.221628,-1.268634 -0.150416,-0.680946 -0.307621,-1.401383 -0.34934,-1.600974 l -0.07586,-0.362887 -0.09297,0.207756 c -0.235863,0.527089 -0.715559,1.038678 -1.195445,1.274927 -0.265898,0.130903 -0.311749,0.139637 -0.732816,0.139637 -0.405349,0 -0.472882,-0.01164 -0.692186,-0.119337 -0.34951,-0.171634 -0.650745,-0.461464 -0.846545,-0.814495 -0.09281,-0.167338 -0.168998,-0.337874 -0.169309,-0.378967 -2.86e-4,-0.04109 -0.01645,-0.07471 -0.03587,-0.07471 -0.01942,0 -0.05908,0.158495 -0.08813,0.352212 -0.09117,0.607902 -0.376472,1.968931 -0.449246,2.143109 -0.03832,0.09171 -0.05482,0.179393 -0.03667,0.194862 0.04932,0.04203 0.859616,0.199373 1.441856,0.279977 1.012304,0.140148 2.202877,0.180343 3.026927,0.102202 z m 1.675324,-0.29683 c 1.285178,-0.259164 3.06643,-0.956331 3.771882,-1.476271 l 0.277151,-0.204268 -0.341188,-0.1019 c -0.187652,-0.05604 -0.686997,-0.214347 -1.109654,-0.351792 -1.528544,-0.497056 -3.675638,-1.099736 -3.728738,-1.046636 -0.03827,0.03827 0.588511,3.115681 0.657208,3.226835 0.03002,0.04858 -0.01917,0.05335 0.473339,-0.04597 z m -6.631834,-0.479768 c 0.05591,-0.319776 0.345553,-1.652861 0.543367,-2.500899 0.116693,-0.50026 0.212167,-0.920987 0.212167,-0.934947 0,-0.08337 -1.840285,0.09476 -2.540212,0.245887 -0.33988,0.07339 -1.463387,0.409832 -1.513224,0.453154 -0.01044,0.0091 0.03033,0.116824 0.09059,0.239442 0.261528,0.532106 1.015313,1.388167 1.636095,1.858085 0.297042,0.224854 1.455802,0.83529 1.515525,0.798377 0.01719,-0.01061 0.04224,-0.08222 0.05569,-0.159099 z m 3.212855,-1.604673 c 0.333915,-0.10242 0.706497,-0.394962 0.907363,-0.712439 0.14884,-0.235251 0.364414,-0.661178 0.34456,-0.680777 -0.009,-0.0089 -0.342929,-0.07528 -0.742105,-0.147593 -0.920706,-0.166774 -2.033219,-0.289046 -2.40146,-0.263933 -0.13633,0.0093 0.05424,0.759361 0.285604,1.12411 0.167747,0.264451 0.458452,0.577943 0.607337,0.654936 0.258661,0.133755 0.616384,0.142958 0.998701,0.02569 z m 8.299205,-0.351209 c 0.791967,-0.951648 1.191958,-1.983801 1.322926,-3.413752 0.04831,-0.527438 0.05387,-2.553576 0.0087,-3.174546 l -0.02749,-0.378174 -0.341542,-0.125559 c -1.568558,-0.576638 -2.985608,-0.834109 -4.354287,-0.791151 -1.157542,0.03633 -1.918989,0.219668 -2.848583,0.685873 -0.861914,0.432258 -1.589331,1.064474 -2.020225,1.755814 L 81.033159,76.728514 80.840526,76.41776 C 79.907644,74.912849 78.588552,74.247162 76.881,74.419569 c -0.882314,0.08908 -2.275384,0.437271 -2.438149,0.609395 -0.02778,0.02938 -0.120655,0.380014 -0.206388,0.77919 -0.08573,0.399178 -0.25305,1.148433 -0.371815,1.665014 -0.19412,0.844336 -0.213815,0.975902 -0.194929,1.302127 0.02357,0.407175 0.1452,0.921404 0.338281,1.430201 0.191262,0.504011 0.164841,0.493726 0.681773,0.265418 0.736303,-0.325195 1.549011,-0.537184 2.60507,-0.679521 0.596261,-0.08037 2.52649,-0.06498 3.193685,0.02546 2.003941,0.271643 3.31211,0.55275 5.315236,1.142156 0.840592,0.247338 2.898808,0.930093 3.180602,1.055068 0.105664,0.04686 0.215431,0.08656 0.243925,0.08822 0.02849,0.0017 0.148362,-0.113005 0.266365,-0.254799 z M 73.442121,76.790087 c 0.0736,-0.422657 0.256903,-1.325606 0.407338,-2.006556 0.305961,-1.384945 0.382402,-1.804135 0.447624,-2.454697 0.05802,-0.578727 0.05834,-2.156431 5.44e-4,-2.732457 -0.08648,-0.862025 -0.331672,-1.990639 -0.615176,-2.831622 -0.180574,-0.53566 -0.632088,-1.608416 -0.676966,-1.608416 -0.02908,0 -0.03315,1.142417 -0.01241,3.490125 0.05813,6.582468 0.109121,8.638742 0.22311,8.997323 0.02718,0.08549 0.02721,0.08549 0.05965,0 0.01785,-0.04696 0.09268,-0.431197 0.16628,-0.853855 z m 16.676082,-6.389394 c 0.221696,-0.02724 0.403086,-0.06411 0.403086,-0.08193 0,-0.01782 -0.168104,-0.123476 -0.373562,-0.234805 -0.544763,-0.295179 -0.796458,-0.460566 -1.23271,-0.810015 -0.881834,-0.706382 -1.52276,-1.446339 -2.163561,-2.497876 -0.60625,-0.99483 -1.058019,-2.050066 -1.643878,-3.839746 -0.414164,-1.265194 -0.41784,-1.277501 -0.481133,-1.611645 -0.02781,-0.146757 -0.06536,-0.266832 -0.08347,-0.266832 -0.114227,0 -0.09779,2.531828 0.02217,3.415413 0.120008,0.883915 0.415413,1.952386 0.729428,2.638324 0.290588,0.634759 0.948482,1.626442 1.39354,2.10056 0.257259,0.274055 0.649818,0.610504 0.906573,0.776987 0.578364,0.375025 1.541994,0.532187 2.523521,0.411563 z m 1.289437,-2.072114 -0.01116,-1.737416 -0.384234,-0.05508 C 90.172882,66.415765 89.581862,66.227835 88.813572,65.83695 87.679909,65.260174 87.00316,64.681496 86.181507,63.58632 85.982883,63.321577 85.800485,63.117258 85.77618,63.13228 c -0.04904,0.03031 -0.02663,0.291966 0.04908,0.573151 0.08412,0.312387 0.631846,1.562942 0.883664,2.017555 0.319208,0.576269 0.818449,1.346104 1.113749,1.717407 0.62926,0.79122 1.553407,1.603575 2.357066,2.071926 0.347512,0.202526 1.098311,0.553131 1.1852,0.553468 0.04264,0 0.05152,-0.361519 0.04269,-1.737212 z M 70.302512,67.844777 c 0.459076,-1.133296 1.140811,-2.183352 1.929675,-2.972214 0.150043,-0.150044 0.272806,-0.277931 0.272806,-0.284194 0,-0.0063 -0.525919,-0.01711 -1.168708,-0.02415 l -1.168708,-0.01276 -0.02626,0.654638 c -0.01445,0.360049 -0.03651,1.0869 -0.04904,1.615222 -0.01252,0.528321 -0.03369,1.082848 -0.04703,1.232277 -0.03472,0.3888 0.03962,0.328454 0.25727,-0.208854 z m 21.093976,-6.218331 c 0,-2.445595 -0.01445,-4.460973 -0.03209,-4.478619 -0.01765,-0.01765 -0.141542,0.09122 -0.275305,0.241934 -0.133766,0.150711 -0.504738,0.542984 -0.824385,0.871718 -0.654982,0.673602 -1.011137,1.069257 -2.112856,2.347179 -0.422657,0.490256 -1.03263,1.185151 -1.355493,1.544216 -0.322861,0.359064 -0.587023,0.680114 -0.587023,0.713448 0,0.03333 0.08399,0.173188 0.186651,0.310788 0.874518,1.172175 1.954097,1.985672 3.378184,2.545566 0.433869,0.170579 1.328319,0.374707 1.558283,0.355622 0.05648,-0.0047 0.06404,-0.530198 0.06404,-4.451852 z m -5.651199,1.085741 c 0.02821,-0.05283 0.152155,-0.211329 0.275454,-0.352216 0.123298,-0.140884 0.477036,-0.553934 0.786079,-0.917891 0.979069,-1.15303 1.805809,-2.103984 2.081472,-2.394205 0.275374,-0.289916 0.31251,-0.375142 0.203038,-0.465996 -0.06857,-0.05691 -0.153975,-0.04523 -0.436756,0.05975 -0.517908,0.192261 -1.660997,0.233088 -2.381206,0.08504 -0.561996,-0.115523 -1.287411,-0.41459 -1.558102,-0.642363 -0.07252,-0.06102 -0.143241,-0.09958 -0.157148,-0.08567 -0.03849,0.03849 0.06708,1.181713 0.160292,1.735736 0.13031,0.774541 0.38424,1.654624 0.871506,3.020505 0.0294,0.08242 0.09876,0.06336 0.155371,-0.04269 z M 69.555904,60.406784 c -0.0095,-1.745105 -0.06613,-3.363122 -0.119622,-3.415189 -0.07387,-0.0719 -0.230787,0.110222 -0.639152,0.741839 -0.172589,0.266946 -0.475173,0.734939 -0.672409,1.039991 -0.197236,0.305052 -0.358611,0.578323 -0.358611,0.607272 0,0.02895 0.05372,0.08042 0.11937,0.114364 0.06565,0.03395 0.282226,0.212155 0.481272,0.396006 0.199046,0.183851 0.506539,0.462895 0.683319,0.6201 0.176779,0.157205 0.347686,0.334913 0.379794,0.394907 0.03211,0.06 0.07434,0.10908 0.09386,0.10908 0.01951,0 0.03399,-0.273766 0.03218,-0.60837 z m -0.388667,-0.523805 c -0.128351,-0.200726 -0.197005,-0.520989 -0.202592,-0.945071 -0.006,-0.457448 -0.006,-0.457459 0.0808,-0.378884 0.04776,0.04322 0.08712,0.06119 0.08748,0.03994 3.43e-4,-0.02126 0.01804,-0.01116 0.03928,0.0224 0.05707,0.09018 0.09416,0.79953 0.05597,1.070313 -0.01822,0.129143 -0.04564,0.215228 -0.06094,0.191294 z m -0.456438,-0.71933 -0.139376,-0.143799 0.06788,-0.162448 c 0.124511,-0.297995 0.169375,-0.315921 0.199981,-0.0799 0.01496,0.115365 0.04149,0.281796 0.05895,0.369849 0.0395,0.199173 -0.0063,0.203159 -0.187432,0.01631 z m 2.303804,0.276799 c 0.162248,-0.22036 0.294996,-0.424534 0.294996,-0.453717 0,-0.02918 -0.03128,-0.07902 -0.0695,-0.11074 -0.03822,-0.03173 -0.184875,-0.230997 -0.325888,-0.442826 -0.141014,-0.211835 -0.273038,-0.403399 -0.293387,-0.425707 -0.02096,-0.02297 -0.03618,0.402569 -0.0351,0.98193 0.0017,0.930902 0.0078,1.014842 0.06789,0.937105 0.03629,-0.04696 0.198738,-0.265682 0.360986,-0.486045 z m 17.25731,-1.136861 c 0.159963,-0.03 0.301985,-0.06569 0.315606,-0.07932 0.04695,-0.04695 -0.08897,-0.160223 -1.157107,-0.964365 -1.211214,-0.911855 -2.16086,-1.677033 -2.618362,-2.109743 L 84.501625,54.85656 v 0.745844 c 0,0.410216 0.01267,0.981845 0.02821,1.270287 l 0.02821,0.524437 0.365696,0.238372 c 0.6133,0.399768 1.351411,0.66304 2.096772,0.747875 0.227492,0.02589 0.92512,-0.01859 1.251422,-0.07979 z m 1.638377,-0.332359 c 0.07487,-0.09949 0.434478,-0.487927 0.799136,-0.863206 l 0.663006,-0.682325 0.0011,-0.5977 c 5.72e-4,-0.328731 -0.01888,-1.402211 -0.04338,-2.385506 l -0.04455,-1.787806 0.158767,-0.389517 c 0.279822,-0.686526 0.245086,-1.254681 -0.119648,-1.956958 -0.172156,-0.331472 -0.639722,-0.891915 -0.697431,-0.835969 -0.01705,0.01654 0.05895,0.17023 0.168912,0.341539 0.282039,0.439399 0.524019,0.947727 0.604802,1.270507 0.199308,0.796364 -0.259256,1.449274 -1.01991,1.452163 -0.426972,0.0017 -0.745332,-0.200964 -0.95235,-0.606013 -0.150207,-0.293892 -0.141908,-0.730307 0.02629,-1.382648 0.144683,-0.561135 0.145527,-0.69901 0.0023,-0.379842 -0.219468,0.489154 -0.271875,1.198014 -0.154653,2.091939 0.03387,0.258292 0.08196,0.825035 0.10688,1.259433 0.06491,1.131709 0.257462,5.191995 0.257634,5.432639 1.6e-4,0.255065 0.06186,0.259957 0.242998,0.01928 z M 69.313714,52.892879 c -0.01126,-1.626055 -0.03676,-2.974002 -0.05668,-2.995438 -0.03778,-0.04067 -0.04097,-0.03399 -0.222085,0.465899 -0.121216,0.334561 -0.206431,0.534739 -0.428739,1.007146 -0.08387,0.178234 -0.210471,0.469998 -0.281325,0.648364 -0.07085,0.178367 -0.273169,0.625355 -0.449588,0.993311 -0.273437,0.570307 -0.313741,0.682506 -0.273174,0.760492 0.08598,0.165289 0.330844,0.483049 0.700978,0.909657 0.200379,0.230951 0.502537,0.587581 0.67146,0.792507 0.168923,0.204927 0.318943,0.373028 0.333377,0.37356 0.01443,5.73e-4 0.01703,-1.329442 0.0058,-2.955498 z m -0.554087,1.366165 c -0.04146,-0.05324 -0.09362,-0.331913 -0.205767,-1.099336 -0.06136,-0.41988 -0.07991,-0.928213 -0.03787,-1.037759 0.02496,-0.06505 0.18936,-0.05049 0.18936,0.01676 0,0.02 0.02855,0.0254 0.06345,0.01201 0.1317,-0.05054 0.155958,0.180695 0.12472,1.188877 -0.01658,0.535027 -0.04413,0.972781 -0.06123,0.972781 -0.0171,0 -0.04979,-0.024 -0.07265,-0.05336 z m 11.580599,0.759104 c 1.456838,-0.11542 2.413819,-0.294533 3.690966,-0.69082 1.633651,-0.506905 2.455696,-1.203684 3.21597,-2.725903 0.782119,-1.565958 0.920211,-2.826546 0.797387,-7.279094 -0.07309,-2.649722 -0.17808,-4.12287 -0.409231,-5.742159 -0.17124,-1.199586 -0.456355,-2.039438 -1.071815,-3.157203 -1.25295,-2.275545 -2.651121,-3.447754 -4.939376,-4.141108 -1.287658,-0.390164 -3.056577,-0.493251 -4.188134,-0.244068 -1.415533,0.31172 -2.538465,1.164216 -3.24791,2.46571 -0.172357,0.316193 -0.445004,0.980571 -0.445004,1.084373 0,0.02183 0.09126,-0.0162 0.20279,-0.08453 0.112215,-0.06874 0.334406,-0.150214 0.497467,-0.182408 l 0.294677,-0.05818 0.0582,-0.227432 c 0.161682,-0.631767 0.569964,-1.147499 1.211176,-1.529922 0.08306,-0.04954 0.380846,-0.182151 0.661736,-0.29469 0.485078,-0.194347 0.529992,-0.204359 0.894944,-0.199522 0.623407,0.0083 1.249661,0.17865 2.646942,0.720157 0.281771,0.109198 0.848519,0.319319 1.259433,0.466937 0.906748,0.325741 1.139164,0.421915 1.872512,0.774848 1.011494,0.486793 2.032357,1.136162 2.208312,1.404704 0.09982,0.152347 0.04918,0.478821 -0.08366,0.539346 -0.102815,0.04685 -0.264571,0.01284 -1.435608,-0.301809 -0.340475,-0.09148 -0.782342,-0.198125 -0.98193,-0.236983 -0.199588,-0.03886 -0.487764,-0.107202 -0.640392,-0.151875 -0.545913,-0.159785 -1.48788,-0.21362 -2.177324,-0.124436 -1.198142,0.154987 -2.174857,0.710651 -3.091985,1.759066 -0.10599,0.121165 -0.207715,0.205233 -0.22605,0.186817 -0.05811,-0.05836 -0.02211,-0.465216 0.06352,-0.717936 0.485687,-1.43335 2.048981,-2.080112 4.364523,-1.805676 1.325643,0.157114 2.987599,0.60993 3.846111,1.047911 0.331972,0.169359 0.155814,0.01384 -0.250021,-0.220727 -1.105475,-0.638954 -2.511651,-1.279902 -3.325812,-1.515935 -1.183858,-0.343214 -2.641563,-0.111754 -3.564918,0.566051 -0.240927,0.176857 -0.762786,0.725346 -1.036229,1.089107 -0.35404,0.470976 -0.717538,1.32717 -0.773178,1.821169 l -0.02744,0.243617 0.39036,0.144285 c 0.74446,0.275168 1.215345,0.672811 1.665012,1.406045 0.148516,0.242177 0.284585,0.424688 0.302368,0.40558 0.01779,-0.01911 0.10214,-0.236463 0.187452,-0.483014 0.538853,-1.557276 0.766586,-2.049712 1.179039,-2.549511 0.547924,-0.663958 1.325972,-1.010961 2.389184,-1.065558 l 0.490968,-0.02521 0.405579,0.21162 c 0.799378,0.417094 1.57981,0.973994 2.237864,1.596896 0.316847,0.299924 0.528608,0.549824 0.989989,1.168297 l 0.157952,0.211732 -0.209332,0.184338 c -0.289068,0.254552 -1.055719,0.764215 -1.617865,1.075541 -0.919888,0.509449 -1.739412,0.800624 -2.644132,0.939454 -0.465103,0.07137 -0.516838,0.08847 -0.5977,0.197589 -0.114856,0.154994 -0.335316,0.497206 -1.648501,2.558886 -0.979061,1.537118 -1.698294,2.72943 -1.735227,2.87658 -0.01433,0.05708 -0.0088,0.128419 0.01227,0.158535 0.02106,0.03012 0.113546,0.161633 0.205507,0.292252 0.09196,0.13062 0.15669,0.248005 0.143839,0.260856 -0.01284,0.01284 -0.236578,0.0793 -0.497173,0.147672 -0.450717,0.118252 -1.194226,0.334562 -2.567543,0.746983 -0.340473,0.102249 -0.884907,0.255923 -1.209852,0.341499 -0.324945,0.08558 -0.677151,0.192607 -0.78268,0.237843 -0.105529,0.04523 -0.199884,0.08224 -0.209678,0.08224 -0.04168,0 -0.01017,-0.191475 0.106406,-0.646508 0.230672,-0.900386 0.725353,-2.827304 0.95744,-3.729487 0.12685,-0.493099 0.357215,-1.357626 0.511922,-1.921169 0.576556,-2.100192 0.628061,-2.355057 0.446808,-2.210955 -0.08351,0.0664 -0.973154,0.15052 -1.414966,0.1338 l -0.390607,-0.01479 -0.02576,2.817714 c -0.02597,2.840923 -0.06304,3.625334 -0.231972,4.909653 -0.08107,0.616295 -0.08035,0.747121 0.0041,0.747121 0.03659,0 0.19509,-0.01848 0.352214,-0.04104 0.157124,-0.02257 0.506615,-0.07143 0.776646,-0.108559 0.27003,-0.03713 0.913622,-0.151535 1.430203,-0.25423 1.342567,-0.266894 1.344818,-0.267152 1.344818,-0.153214 0,0.144057 -0.05942,0.224718 -0.316858,0.430141 -0.13098,0.104521 -0.238146,0.211607 -0.238146,0.237975 0,0.02638 0.101193,0.05984 0.224872,0.07437 0.588748,0.0692 1.253928,0.311637 1.980828,0.721953 0.426279,0.240626 0.483401,0.327879 0.271978,0.415451 -0.08092,0.03352 -0.172092,0.133083 -0.25277,0.276038 -0.139986,0.248039 -0.543307,0.637611 -0.897957,0.867346 -0.260426,0.168697 -0.683633,0.351483 -0.813792,0.351483 -0.09119,0 -0.115903,0.06201 -0.04273,0.107235 0.02392,0.01479 0.09448,0.126388 0.156793,0.248001 0.10317,0.201368 0.116032,0.282123 0.144025,0.904197 0.04033,0.896343 0.138804,1.250839 0.454444,1.636037 0.468553,0.571809 0.934767,0.670867 2.553736,0.5426 z m -9.413235,-1.164686 c 0.08126,-0.135013 0.24742,-0.405 0.369245,-0.599968 0.121825,-0.19497 0.253793,-0.439047 0.293263,-0.542394 0.06831,-0.178873 0.06793,-0.194138 -0.008,-0.317462 -0.10696,-0.173706 -0.878778,-1.240483 -0.897495,-1.240483 -0.0081,0 -0.01479,0.29778 -0.01479,0.661736 v 0.661736 h 0.277503 c 0.213155,0 0.277502,0.01428 0.277502,0.06152 0,0.03384 -0.02121,0.07463 -0.04714,0.09065 -0.08275,0.05115 -0.206995,0.375637 -0.211451,0.552258 -0.0049,0.193715 -0.01842,0.166769 -0.14552,-0.289686 -0.114606,-0.411592 -0.161457,-0.266094 -0.146535,0.455085 0.01817,0.878002 0.0236,0.888871 0.253421,0.507008 z m 6.509002,-2.731684 c 0.343831,-0.174367 1.163888,-0.761482 1.122048,-0.803321 -0.009,-0.009 -0.35164,0.0031 -0.76135,0.02698 -0.674904,0.03931 -1.2784,0.02784 -1.585899,-0.0302 -0.11201,-0.02114 -0.114493,-0.01722 -0.08989,0.141267 0.05927,0.381848 0.324745,0.729246 0.599413,0.784385 0.204972,0.04115 0.494801,-0.0071 0.715679,-0.119099 z m 13.213372,-0.30672 c 0.134639,-0.09278 0.256004,-0.32741 0.256092,-0.495077 8.6e-5,-0.135654 -0.126748,-0.411609 -0.200451,-0.436174 -0.02721,-0.0091 -0.03592,0.06336 -0.02334,0.194138 0.02729,0.283945 -0.10135,0.581521 -0.269632,0.623758 -0.154461,0.03877 -0.318103,-0.07931 -0.396924,-0.286408 -0.05325,-0.139919 -0.04926,-0.17138 0.04903,-0.386076 0.05886,-0.128556 0.142569,-0.245009 0.186028,-0.258775 0.07439,-0.02357 0.07826,-0.08275 0.06609,-1.011351 l -0.01293,-0.986319 0.192636,-0.205945 c 0.292965,-0.313202 0.302088,-0.457013 0.04815,-0.758809 -0.129092,-0.153418 -0.255005,-0.174247 -0.448482,-0.0742 -0.394556,0.204034 -0.392419,0.694908 0.0039,0.899863 0.06914,0.03575 0.116035,0.08065 0.104217,0.09977 -0.01182,0.01911 -0.04226,0.384597 -0.06765,0.812166 -0.03693,0.621919 -0.06791,0.847275 -0.154899,1.126788 -0.166837,0.536106 -0.172559,0.675663 -0.03716,0.906705 0.198664,0.338996 0.439087,0.419422 0.705329,0.235944 z m -0.598163,-3.472223 c -0.101267,-0.166084 -0.104088,-0.21265 -0.02246,-0.370507 0.165436,-0.319914 0.588931,-0.175471 0.518469,0.176839 -0.03483,0.174155 -0.183135,0.332421 -0.311497,0.332421 -0.06691,0 -0.127862,-0.04583 -0.184515,-0.138753 z m -11.424038,2.662468 c 0.07006,-0.02749 0.06131,-0.03968 -0.06404,-0.08914 -0.07986,-0.03151 -0.302234,-0.129884 -0.494161,-0.218593 -0.493961,-0.228313 -0.877825,-0.338403 -1.280892,-0.367358 -0.323227,-0.02323 -0.365893,-0.01636 -0.57635,0.09246 -0.253233,0.130963 -0.504784,0.309183 -0.504784,0.357634 0,0.03284 0.235381,0.106291 0.64039,0.199848 0.258238,0.05965 2.138998,0.0804 2.279833,0.02515 z m -9.30929,-2.534389 c -0.01092,-0.851185 -0.02804,-1.586032 -0.03805,-1.632995 -0.01001,-0.04696 -0.09546,-0.167999 -0.189875,-0.268973 l -0.17167,-0.183587 -0.242457,0.354359 c -0.133352,0.194896 -0.368574,0.510897 -0.522718,0.702225 -0.154143,0.191326 -0.345168,0.455695 -0.424499,0.587481 l -0.14424,0.239617 0.121819,0.175786 c 0.11766,0.169781 1.546677,1.571596 1.603529,1.573004 0.01541,2.86e-4 0.01908,-0.695731 0.0082,-1.546917 z m -0.503871,0.384234 c -0.0092,-0.02935 -0.02549,-0.23259 -0.03619,-0.451643 -0.01069,-0.219053 -0.04098,-0.419817 -0.0673,-0.446139 -0.03535,-0.03535 -0.04786,0.0039 -0.04786,0.150015 0,0.376347 -0.116782,0.511781 -0.34122,0.395718 -0.191259,-0.09891 -0.224683,-0.320361 -0.04835,-0.320361 0.05175,0 0.104726,-0.07614 0.170823,-0.245484 0.161406,-0.413537 0.228451,-0.52379 0.334734,-0.550467 0.0558,-0.01402 0.1136,-0.0133 0.128447,0.0017 0.04513,0.04514 0.135132,0.670619 0.137538,0.955889 0.0012,0.147509 -0.02558,0.334824 -0.0596,0.416255 -0.06252,0.149623 -0.140281,0.192679 -0.171025,0.09469 z m 5.505427,0.08722 c 0.258291,-0.09124 0.757794,-0.272951 1.110009,-0.403799 0.352214,-0.130848 0.8229,-0.299705 1.045969,-0.375242 0.524639,-0.177651 1.217601,-0.484205 1.295047,-0.572902 0.101058,-0.115737 0.266748,-1.976648 0.43392,-4.873487 0.100718,-1.745292 0.110511,-1.636353 -0.1956,-2.175725 -0.437594,-0.771048 -0.787658,-1.138339 -1.383864,-1.451961 -0.130073,-0.06842 -0.27769,-0.153257 -0.328035,-0.18852 -0.05035,-0.03526 -0.104832,-0.0559 -0.12108,-0.04586 -0.01625,0.01004 -0.04297,0.215766 -0.05939,0.457165 -0.0428,0.629487 -0.09691,0.982006 -0.280329,1.826419 -0.145011,0.66759 -0.50272,2.112289 -0.724095,2.924446 -0.463963,1.702131 -0.965686,3.506214 -1.133872,4.077147 -0.07955,0.27003 -0.164319,0.578953 -0.188385,0.686494 -0.02406,0.107541 -0.05735,0.230951 -0.07396,0.274241 -0.02511,0.06545 -0.01636,0.07271 0.05192,0.04309 0.04517,-0.0196 0.293453,-0.11027 0.551743,-0.20151 z m -3.607528,-0.565867 c 0,-0.130391 -0.08495,-0.364529 -0.132255,-0.364529 -0.02118,0 -0.03788,0.148892 -0.03709,0.330868 l 0.0014,0.330869 0.08397,-0.100787 c 0.04618,-0.05543 0.08396,-0.143822 0.08396,-0.196421 z m 20.213441,-1.131752 c 0.352896,-0.169034 0.633137,-0.440749 0.819462,-0.794529 0.274126,-0.520487 0.333248,-0.962089 0.190293,-1.421399 -0.148165,-0.476056 -0.374959,-0.762817 -0.758386,-0.958911 -0.34113,-0.174458 -0.759794,-0.170403 -1.181061,0.01144 -0.263747,0.113849 -0.701736,0.459212 -0.865655,0.682586 -0.506136,0.689724 -0.389495,1.75052 0.257505,2.341842 0.278821,0.254825 0.443364,0.308451 0.898978,0.292985 0.284846,-0.0097 0.390897,-0.03524 0.638864,-0.154012 z m -1.238306,-0.401138 c -0.363312,-0.169182 -0.572993,-0.482146 -0.607017,-0.906019 -0.04381,-0.545832 0.189961,-1.000911 0.630121,-1.226624 0.202,-0.103587 0.27427,-0.118343 0.517394,-0.105652 0.366142,0.01911 0.622889,0.172546 0.865761,0.517377 0.170862,0.24259 0.175085,0.257101 0.173955,0.597695 -0.0011,0.392289 -0.07679,0.585341 -0.344946,0.882157 -0.314627,0.348255 -0.801173,0.443206 -1.235268,0.241066 z m 0.756407,-0.444499 c 0.356432,-0.235072 0.468276,-0.722368 0.239939,-1.0454 -0.180946,-0.255991 -0.499353,-0.3046 -0.862113,-0.131613 -0.208108,0.09924 -0.343324,0.374223 -0.313617,0.637787 0.02369,0.210223 0.195499,0.492593 0.343086,0.563877 0.150239,0.07256 0.465161,0.05947 0.592705,-0.02465 z m -0.524912,-0.199599 c -0.113257,-0.06368 -0.251097,-0.297979 -0.251097,-0.426803 0,-0.242568 0.341708,-0.485252 0.602574,-0.427957 0.150488,0.03305 0.336664,0.247927 0.336664,0.38856 0,0.354712 -0.402036,0.627082 -0.688141,0.4662 z M 78.490649,44.975087 c 0.286534,-0.430143 0.601081,-0.919757 1.187326,-1.84815 0.553863,-0.877113 0.940134,-1.478828 1.285314,-2.00221 0.220034,-0.333625 0.250548,-0.41392 0.141396,-0.372035 -0.100426,0.03854 -0.962871,-0.183314 -1.982333,-0.509924 -0.735705,-0.235702 -0.656804,-0.314016 -0.690645,0.685499 -0.01591,0.46962 -0.05913,1.410991 -0.09607,2.091939 -0.03694,0.680948 -0.07985,1.476474 -0.09536,1.767836 -0.01862,0.349766 -0.01368,0.520774 0.01453,0.503331 0.02352,-0.01452 0.129632,-0.156858 0.235834,-0.316286 z m -9.172576,-0.407273 c 0.06606,-0.549945 0.01893,-4.301283 -0.05404,-4.301283 -0.01428,0 -0.110961,0.19692 -0.214845,0.4376 -0.258979,0.599999 -0.891457,1.869957 -1.105151,2.219039 -0.0967,0.157958 -0.186817,0.331051 -0.20027,0.384651 -0.02927,0.116636 -0.01685,0.130534 0.620628,0.694316 0.265503,0.23481 0.570906,0.508131 0.678672,0.60738 0.107766,0.09925 0.20767,0.180899 0.22201,0.181444 0.01434,4.87e-4 0.03819,-0.09987 0.05299,-0.223147 z M 68.83424,43.854235 c -0.03917,-0.07319 -0.136618,-0.520703 -0.200865,-0.922421 -0.02356,-0.147282 0.09086,-0.465015 0.153513,-0.426295 0.02235,0.01381 0.0545,0.0027 0.07145,-0.02474 0.02167,-0.03506 0.04788,-0.02651 0.08834,0.02881 0.0948,0.129648 0.06543,1.428511 -0.03231,1.428511 -0.01938,0 -0.05544,-0.03774 -0.08013,-0.08386 z m 24.270146,-0.52257 c 0.621342,-1.257473 0.947349,-2.106677 1.111137,-2.894363 0.192184,-0.924229 0.238349,-1.751027 0.144914,-2.595261 -0.04425,-0.399854 -0.151812,-0.989384 -0.18692,-1.024491 -0.01516,-0.01514 -0.603255,0.183129 -0.873514,0.29449 l -0.103038,0.04246 0.150868,0.124358 c 0.08298,0.0684 0.239376,0.254693 0.347553,0.413989 0.264843,0.390005 0.341087,0.69712 0.342165,1.378292 8.58e-4,0.470904 -0.01276,0.572956 -0.114856,0.867849 -0.375108,1.083464 -1.347678,1.837315 -2.896359,2.245006 -1.281164,0.337266 -1.822531,0.352545 -2.266121,0.06396 l -0.160094,-0.104155 v 0.797534 c 0,0.438644 0.0073,0.78953 0.01628,0.779747 0.009,-0.0098 0.114942,-0.141413 0.235528,-0.292511 0.389506,-0.488071 0.863744,-0.787327 1.498583,-0.945647 0.654201,-0.163148 1.100454,-0.06583 1.539933,0.335829 0.337285,0.30826 0.549627,0.770746 0.618375,1.346859 l 0.0297,0.248858 0.106737,-0.184818 c 0.05871,-0.101649 0.265316,-0.505741 0.459127,-0.897982 z M 70.775941,43.077457 c 0.474855,-0.554263 0.468712,-0.413377 0.04602,-1.055473 -0.202777,-0.308033 -0.37947,-0.560059 -0.392651,-0.560059 -0.01318,0 -0.01743,0.432215 -0.0094,0.960478 0.0092,0.605086 0.03033,0.95929 0.05722,0.957263 0.02348,-0.0017 0.157963,-0.137763 0.298849,-0.302209 z m 19.467846,-1.289483 c 0.140884,-0.03651 0.42906,-0.09432 0.640389,-0.128457 0.391074,-0.06318 0.819367,-0.19184 1.088662,-0.32704 0.225724,-0.113328 0.670238,-0.451651 0.746668,-0.568295 0.0629,-0.096 0.06048,-0.122117 -0.03485,-0.375131 -0.123816,-0.328604 -0.478214,-1.035946 -0.852824,-1.702148 l -0.276075,-0.490965 -0.378481,0.01378 c -0.437296,0.01591 -0.736595,-0.06203 -1.242651,-0.323593 -0.419196,-0.21667 -0.799576,-0.541964 -1.265389,-1.082132 -0.589964,-0.684136 -1.351414,-1.853341 -1.281098,-1.967117 0.03867,-0.06257 0.236725,0.140725 0.690265,0.708539 0.449686,0.562993 1.346865,1.475419 1.728798,1.758183 0.312708,0.231512 0.870024,0.44989 1.159276,0.45425 0.360772,0.0054 1.247558,-0.395129 1.203956,-0.543835 -0.0069,-0.02348 -0.124575,-0.05681 -0.261533,-0.07406 -0.391063,-0.04926 -0.854816,-0.190507 -1.387607,-0.422637 -0.848796,-0.369809 -1.532778,-0.857777 -2.452543,-1.749704 -0.571674,-0.554369 -0.875771,-0.907454 -0.825149,-0.958077 0.01227,-0.01228 0.08046,0.02659 0.151515,0.08638 0.179722,0.151225 0.324282,0.169144 0.738955,0.09159 1.019408,-0.190647 1.76084,-0.303249 3.25452,-0.49427 1.909992,-0.244261 4.605524,-0.514856 5.821839,-0.584434 0.262546,-0.01502 0.496303,-0.03902 0.519464,-0.05333 0.04692,-0.029 0.347996,-0.548308 0.347996,-0.600237 0,-0.06635 -0.424096,-0.07712 -1.639801,-0.04164 -1.782832,0.05203 -3.108498,0.176996 -5.42583,0.511488 -1.160254,0.167476 -1.746676,0.266019 -2.689637,0.45197 -0.422657,0.08335 -0.936317,0.162111 -1.141464,0.17503 -0.343707,0.02165 -0.384754,0.01549 -0.522694,-0.07846 -0.08233,-0.05607 -0.149827,-0.124654 -0.149987,-0.152407 -2.87e-4,-0.04782 0.710581,-0.290111 1.408564,-0.480101 0.765201,-0.208287 2.223515,-0.466422 4.482727,-0.793482 0.351526,-0.05089 1.868329,-0.1935 2.497521,-0.234816 0.375694,-0.02466 0.952046,-0.06317 1.28078,-0.08555 0.328734,-0.02237 0.90875,-0.04097 1.288933,-0.04132 0.380177,-2.86e-4 0.700409,-0.01548 0.711621,-0.03362 0.01121,-0.01814 0.0076,-0.138211 -0.0082,-0.266828 l -0.02855,-0.233846 -0.555004,-0.03531 c -0.665107,-0.04232 -2.960725,0.02862 -3.906381,0.120718 -1.198883,0.116755 -3.271819,0.430318 -4.269246,0.645787 -0.579671,0.125226 -2.015753,0.48312 -2.624968,0.654183 -0.236424,0.06639 -0.592647,0.153729 -0.791603,0.194092 -0.198961,0.04037 -0.377948,0.08317 -0.397757,0.09513 -0.0198,0.01196 0.04052,0.101145 0.134056,0.198195 0.196792,0.204185 0.522274,0.673907 0.672807,0.97097 0.05727,0.113013 0.207098,0.364714 0.332957,0.559335 0.125858,0.194622 0.308725,0.508827 0.406373,0.698234 0.09765,0.189408 0.301648,0.525613 0.45334,0.747122 0.681604,0.995341 0.796827,1.173222 1.052412,1.624757 0.303087,0.535447 0.605104,0.89556 0.860252,1.025727 0.191912,0.09791 0.572799,0.111271 1.080357,0.03791 0.422511,-0.06107 0.61485,-0.05648 0.61485,0.01469 0,0.103549 -0.299228,0.291728 -0.635022,0.399356 -0.269349,0.08633 -0.388222,0.101306 -0.688451,0.08673 -0.674855,-0.03277 -1.01939,-0.326445 -1.470169,-1.253167 -0.248007,-0.509862 -0.710101,-1.309731 -0.739602,-1.28023 -0.0086,0.0087 0.0495,0.147375 0.129218,0.308278 0.190731,0.384974 0.30145,0.761406 0.437639,1.487945 0.06162,0.328733 0.146125,0.674543 0.187784,0.768467 0.0984,0.22185 0.397117,0.493131 0.736444,0.668811 0.231457,0.119832 0.313466,0.139804 0.569263,0.138645 0.258429,-0.0012 0.347976,-0.02452 0.662082,-0.172661 0.40454,-0.190785 0.632301,-0.408955 0.812044,-0.777844 0.05803,-0.119087 0.119911,-0.217267 0.137522,-0.21818 0.04657,-0.0024 0.0392,0.646177 -0.01213,1.066778 -0.106874,0.875892 -0.356346,1.225584 -1.080116,1.514005 -0.506191,0.201718 -0.87253,0.191225 -1.405283,-0.04025 -0.05727,-0.02488 -0.07471,-0.01225 -0.07471,0.05417 0,0.141839 0.32133,0.384357 0.549944,0.415057 0.108445,0.01456 0.21552,0.03108 0.23794,0.03671 0.06018,0.0151 0.392954,-0.04213 0.685012,-0.117824 z m -0.172516,-0.755989 c 0.305404,-0.114268 0.687844,-0.461258 0.817997,-0.742178 0.05397,-0.116486 0.09156,-0.218355 0.08354,-0.226376 -0.008,-0.008 -0.08552,0.03355 -0.172219,0.09239 -0.320483,0.217486 -0.603641,0.291107 -1.047769,0.27242 -0.496601,-0.0209 -0.715583,-0.109174 -1.046004,-0.421672 -0.129126,-0.122124 -0.234776,-0.212166 -0.234776,-0.200096 0,0.128497 0.144408,0.794727 0.192358,0.887455 0.192914,0.373051 0.875171,0.53699 1.406871,0.338057 z m -7.256254,-0.744762 c 0.837686,-0.200417 1.948565,-0.674521 2.711233,-1.157106 0.39118,-0.247524 0.361468,-0.224055 0.327135,-0.258387 -0.01576,-0.01575 -0.215872,0.06005 -0.444714,0.168434 -1.058175,0.501192 -1.769646,0.765881 -2.465326,0.917177 -0.44383,0.09652 -0.609326,0.111094 -1.238088,0.109005 -0.613385,-0.002 -0.84147,-0.02278 -1.472896,-0.133974 -0.410916,-0.07236 -0.831188,-0.161256 -0.933934,-0.19755 -0.230462,-0.08141 -0.304151,-0.08315 -0.304151,-0.0072 0,0.11324 0.917922,0.428143 1.686359,0.578522 0.924688,0.180957 1.313362,0.177513 2.134382,-0.01891 z m 10.475646,-0.202136 c 0.206476,-0.453634 0.236893,-0.587495 0.235233,-1.035296 -0.002,-0.563313 -0.103404,-0.835181 -0.440411,-1.181726 -0.150757,-0.155023 -0.277131,-0.248478 -0.336006,-0.248478 -0.0519,0 -0.254261,0.08645 -0.449687,0.192117 -0.195425,0.105664 -0.38736,0.192117 -0.426522,0.192117 -0.103711,0 -0.09091,0.02949 0.110241,0.254027 0.258455,0.288494 0.582077,0.852393 0.871114,1.517877 0.137262,0.316039 0.264197,0.574971 0.282077,0.575404 0.01788,4.29e-4 0.08716,-0.119286 0.153961,-0.266042 z M 74.3353,39.855653 c 0.198354,-0.05515 0.299758,-0.06066 0.495507,-0.02693 0.243517,0.04196 0.482981,0.0076 0.609305,-0.08749 0.107855,-0.08116 0.04929,-0.115171 -0.0817,-0.04744 -0.19961,0.103223 -0.536412,0.06359 -0.789529,-0.09289 -0.26736,-0.165296 -0.375472,-0.354203 -0.371216,-0.648635 0.0045,-0.308209 0.164856,-0.542193 0.481893,-0.702958 0.27304,-0.138455 0.427334,-0.145656 0.678527,-0.03166 0.218653,0.09922 0.22371,0.02814 0.0084,-0.117761 -0.282203,-0.191208 -0.653241,-0.107164 -1.177038,0.26661 -0.315306,0.224997 -0.491678,0.436061 -0.645918,0.772965 -0.149137,0.325759 -0.156672,0.593072 -0.01984,0.703901 0.127787,0.103502 0.465193,0.108614 0.811628,0.0123 z m 7.431742,-0.291994 c -0.338835,-0.17401 -0.560346,-0.392853 -0.71459,-0.705985 -0.09655,-0.196007 -0.115663,-0.29125 -0.115663,-0.576351 0,-0.44419 0.116333,-0.700941 0.398744,-0.880041 0.256424,-0.162619 0.199402,-0.155616 -0.18716,0.02299 -0.493443,0.227985 -0.918887,0.590266 -1.432644,1.219943 -0.215694,0.264361 -0.593377,0.792325 -0.593377,0.829484 0,0.0134 0.105513,0.02437 0.234473,0.02437 0.128957,0 0.652475,0.03816 1.163372,0.0848 0.924431,0.08439 1.216443,0.108888 1.41987,0.119102 0.07395,0.0037 0.0208,-0.03877 -0.173025,-0.138309 z m 1.731308,-0.128828 c 0.164365,-0.06208 0.61584,-0.244868 1.003275,-0.406194 0.387435,-0.161326 0.777885,-0.305349 0.867661,-0.32005 0.136006,-0.02227 0.154716,-0.03699 0.112178,-0.08825 -0.02809,-0.03383 -0.07107,-0.06152 -0.09552,-0.06152 -0.03968,0 -1.038881,-0.578006 -1.449079,-0.838248 -0.188717,-0.119726 -0.284629,-0.134442 -0.198261,-0.03042 0.04224,0.05087 0.05859,0.208775 0.05859,0.565677 0,0.473903 -0.0056,0.505164 -0.131669,0.729917 -0.08515,0.151843 -0.199946,0.280063 -0.324901,0.362887 -0.384274,0.254706 -0.367721,0.240121 -0.247858,0.218403 0.0587,-0.01064 0.241213,-0.07013 0.405581,-0.132211 z M 69.303045,38.309514 c 0,-0.489336 0.01192,-1.243395 0.02649,-1.675686 0.03126,-0.927411 0.08303,-0.921788 -0.554439,-0.06021 -0.225852,0.305252 -0.527469,0.712916 -0.67026,0.90592 -0.172587,0.23328 -0.254988,0.382666 -0.245806,0.445626 0.0085,0.05847 0.201659,0.256609 0.504778,0.517857 0.270031,0.232732 0.576281,0.498084 0.680556,0.589671 0.104276,0.09159 0.205137,0.166523 0.224137,0.166523 0.019,0 0.03454,-0.400365 0.03454,-0.889701 z m -0.465664,-0.08484 c -0.07285,-0.136118 -0.05569,-0.318763 0.06008,-0.639727 0.203071,-0.562958 0.09986,-0.662329 -0.141971,-0.136694 -0.130242,0.283086 -0.173762,0.341074 -0.256327,0.341541 -0.08995,4.87e-4 -0.09659,-0.0127 -0.0695,-0.138187 0.01647,-0.07631 0.06649,-0.210945 0.111161,-0.299182 0.08953,-0.176853 0.422722,-0.543998 0.493696,-0.543998 0.06981,0 0.110713,0.670883 0.05596,0.917892 -0.0563,0.25398 -0.134768,0.498119 -0.176431,0.548914 -0.01651,0.02013 -0.05101,-0.0026 -0.07667,-0.05056 z m 10.478731,0.344825 c 0.420858,-0.6957 0.939319,-1.214807 1.479785,-1.481629 0.477725,-0.235849 0.897837,-0.331832 1.443017,-0.329688 0.530202,0.0021 0.966934,0.115488 1.529789,0.397228 0.395697,0.198069 0.632353,0.346472 1.693508,1.061978 0.313823,0.211603 0.490965,0.290905 0.490965,0.219794 0,-0.02311 -0.01462,-0.04841 -0.03249,-0.05624 -0.01788,-0.0078 -0.181087,-0.190301 -0.362698,-0.405497 -0.411491,-0.487588 -0.918858,-0.955993 -1.629909,-1.504749 -0.818586,-0.631748 -0.892006,-0.666204 -1.411659,-0.662499 -0.735357,0.0052 -1.456066,0.269655 -2.015362,0.73939 -0.471689,0.396158 -0.726365,0.776182 -1.138071,1.69822 -0.351583,0.787384 -0.359202,0.839992 -0.04687,0.323695 z m -5.491887,-0.390675 c 0.178298,-0.175053 0.378685,-0.320712 0.557541,-0.405271 0.25301,-0.119618 0.321262,-0.132519 0.727478,-0.137509 0.24655,-0.003 0.445705,-0.02153 0.442567,-0.04112 -0.01801,-0.112437 -1.232266,-0.606124 -1.650943,-0.671234 -0.293991,-0.04572 -0.360251,0.09015 -0.47469,0.973402 -0.03651,0.281771 -0.07729,0.589158 -0.09062,0.683082 l -0.02424,0.17077 0.117284,-0.149424 c 0.06451,-0.08218 0.242534,-0.272396 0.395619,-0.422694 z m -3.09881,-0.372311 c 0.274353,-0.292337 0.334499,-0.407657 0.242328,-0.464622 -0.02365,-0.01462 -0.151199,-0.189174 -0.283434,-0.3879 -0.132235,-0.198727 -0.258569,-0.372533 -0.280743,-0.386237 -0.02493,-0.01541 -0.03489,0.278248 -0.02609,0.769544 0.0078,0.436953 0.02511,0.789688 0.03842,0.783857 0.0133,-0.0058 0.152587,-0.14742 0.309522,-0.314642 z m 4.964715,-0.171411 c 0.01174,-0.137678 0.04913,-0.480291 0.08311,-0.761361 0.08346,-0.690423 0.08178,-0.919167 -0.0068,-0.919167 -0.31857,0 -1.767234,0.552497 -1.767234,0.673994 0,0.01789 0.139285,0.05495 0.309522,0.08234 0.668282,0.107542 1.177479,0.344858 1.271705,0.592689 0.0226,0.05945 0.04109,0.225306 0.04109,0.368577 0,0.321728 0.03983,0.300194 0.06857,-0.03707 z m -2.139483,-1.235568 c 0.134795,-0.23001 0.377004,-0.395498 0.830991,-0.567771 0.38366,-0.145586 1.065228,-0.282378 1.217071,-0.244268 0.154627,0.03881 0.135796,-0.03185 -0.06717,-0.252044 -0.460877,-0.499992 -1.177006,-0.574538 -1.647827,-0.171532 -0.231415,0.198082 -0.335321,0.374561 -0.390107,0.662577 -0.05892,0.309743 -0.106058,0.768468 -0.07897,0.768468 0.01181,0 0.07302,-0.08794 0.136011,-0.19543 z m 2.743976,-0.626403 c 0.0636,-0.229011 0.335369,-0.663724 0.693097,-1.10865 0.23215,-0.288736 0.84569,-1.115696 1.410796,-1.90154 0.0719,-0.09999 0.119768,-0.199548 0.106362,-0.221238 -0.01342,-0.02168 -0.131271,-0.06336 -0.261928,-0.0926 -0.286373,-0.06409 -0.271431,-0.08072 -0.401616,0.446788 -0.05299,0.214713 -0.110819,0.409601 -0.128508,0.433082 -0.01768,0.02348 -0.04513,0.103361 -0.06097,0.177512 -0.04272,0.199952 -0.39187,0.68192 -0.887063,1.224501 -0.241345,0.264442 -0.458021,0.51494 -0.481502,0.556662 -0.03064,0.05444 -0.04364,-0.05468 -0.04605,-0.386403 -0.0018,-0.254245 -0.0091,-0.798468 -0.01602,-1.209385 -0.01766,-1.041985 -0.07717,-0.635986 -0.08368,0.570851 -0.0028,0.513556 -0.01335,0.947197 -0.02352,0.963646 -0.01017,0.01645 0.008,0.08096 0.04038,0.143361 0.03984,0.07679 0.051,0.189634 0.03454,0.349154 -0.02898,0.280823 0.03381,0.313061 0.105683,0.05425 z m 21.578223,-0.747122 c 0.1538,-0.33796 0.461407,-1.154356 0.460723,-1.222771 -2.86e-4,-0.02603 -0.05289,0.01991 -0.116947,0.102089 -0.225848,0.289746 -0.698097,0.75737 -0.84446,0.836191 -0.08147,0.04387 -0.148136,0.09942 -0.148142,0.123429 -2e-5,0.04824 0.427713,0.444445 0.482984,0.447389 0.01908,10e-4 0.09371,-0.12783 0.165842,-0.286327 z m -4.086443,0.05274 c 1.09935,-0.115448 1.846867,-0.352866 2.647817,-0.840971 0.490673,-0.299019 0.468656,-0.283609 0.44252,-0.309745 -0.01897,-0.01896 -2.673828,0.20295 -4.092743,0.342097 -1.218431,0.119487 -2.1942,0.233498 -2.732328,0.319253 -0.293512,0.04677 -0.576389,0.09081 -0.628617,0.09786 -0.180655,0.02438 -0.143158,0.06262 0.148177,0.151107 0.409612,0.124416 0.802694,0.212336 1.146793,0.2565 0.505324,0.06486 2.391734,0.05496 3.068381,-0.0161 z m -17.78167,-0.08754 c -0.0229,-0.06023 -0.04164,-0.158642 -0.04164,-0.218691 0,-0.08803 -0.01142,-0.0997 -0.05896,-0.06025 -0.05012,0.04159 -0.05034,0.0088 -0.0015,-0.218908 0.06193,-0.288683 0.08283,-1.441887 0.02614,-1.441887 -0.0619,0 -0.295134,0.275115 -0.325742,0.384233 -0.08921,0.318039 -0.10013,0.403477 -0.06378,0.499083 0.02574,0.06771 0.02463,0.0944 -0.0032,0.07719 -0.02341,-0.01447 -0.04256,0.0021 -0.04256,0.03676 0,0.03469 -0.01166,0.09345 -0.02591,0.130597 -0.01425,0.03714 -0.006,0.06753 0.01838,0.06753 0.02436,0 0.05262,-0.04323 0.06279,-0.09606 0.01018,-0.05283 0.02112,-0.01441 0.02431,0.08539 0.0032,0.09979 -0.01368,0.181444 -0.03751,0.181444 -0.06775,0 -0.20213,-0.248881 -0.191033,-0.353799 0.0055,-0.05196 0.01274,-0.132897 0.01609,-0.179859 0.0052,-0.07245 0.01303,-0.07568 0.05185,-0.02135 0.03587,0.05022 0.04046,0.041 0.02128,-0.04269 -0.01346,-0.0587 -0.02473,-0.141486 -0.02505,-0.183963 -3.44e-4,-0.04248 -0.01987,-0.06531 -0.04343,-0.05075 -0.02357,0.01457 -0.03037,0.0762 -0.01512,0.136966 0.0193,0.07688 0.013,0.101379 -0.0207,0.08055 -0.03116,-0.01926 -0.03936,-0.0063 -0.02301,0.03632 0.01398,0.03644 0.0072,0.06626 -0.01498,0.06626 -0.02222,0 -0.06522,0.05283 -0.09555,0.117405 -0.0318,0.06771 -0.06332,0.09481 -0.07445,0.06404 -0.02568,-0.07099 -0.09758,-0.06843 -0.09758,0.0035 0,0.03127 0.09126,0.116289 0.20279,0.188937 0.249529,0.162531 0.542542,0.44827 0.678271,0.661433 0.118438,0.186007 0.159143,0.206637 0.09981,0.05059 z m 0.462907,-0.03991 c 0.02675,-0.0587 0.06676,-0.106731 0.08893,-0.106731 0.0739,0 0.128499,-0.272782 0.149524,-0.747122 0.02732,-0.616254 0.06668,-1.209021 0.09002,-1.35549 0.02191,-0.137476 -0.01296,-0.144171 -0.259811,-0.04989 l -0.176778,0.06751 -0.02473,0.381742 c -0.02922,0.451073 0.01282,1.916716 0.05499,1.916716 0.01608,0 0.05112,-0.04803 0.07786,-0.106732 z M 69.516614,34.55639 c 1.32e-4,-0.199543 0.116382,-1.90888 0.152431,-2.241364 0.01464,-0.135014 0.0097,-0.245482 -0.01101,-0.245482 -0.02069,0 -0.399348,0.248863 -0.841452,0.553031 -0.442103,0.304168 -0.822759,0.559342 -0.845902,0.567058 -0.04318,0.01439 1.456119,1.526486 1.513806,1.526723 0.01761,8.5e-5 0.03207,-0.07191 0.03213,-0.159966 z m -0.383746,-0.478858 c -0.08077,-0.195004 -0.0419,-0.765311 0.0628,-0.921217 l 0.08474,-0.126187 0.02976,0.213462 c 0.04253,0.305025 -0.01839,0.960586 -0.08927,0.960586 -0.01957,0 -0.05918,-0.05699 -0.08804,-0.126644 z m 5.826952,0.468185 c -0.01451,-0.02348 -0.04446,-0.04269 -0.06656,-0.04269 -0.02209,0 -0.04017,0.01921 -0.04017,0.04269 0,0.02348 0.02995,0.04269 0.06656,0.04269 0.03661,0 0.05469,-0.01921 0.04017,-0.04269 z m 2.017003,-0.160098 c 0.150768,-0.220432 0.306955,-0.633981 0.432196,-1.144372 0.157425,-0.641555 0.189031,-0.915548 0.105613,-0.915548 -0.103001,0 -0.270757,0.133984 -0.270757,0.216253 0,0.0431 -0.02698,0.09372 -0.05993,0.112496 -0.05364,0.03056 -0.149238,0.437782 -0.319296,1.360181 -0.08783,0.476375 -0.04861,0.606067 0.112172,0.37099 z m 2.060145,-1.010934 c 0.281965,-0.08481 0.971245,-0.194027 1.238085,-0.196178 0.226697,-0.0017 0.161848,-0.0586 -0.120031,-0.105075 -0.101239,-0.01668 -0.392839,-0.104188 -0.647996,-0.194436 l -0.463924,-0.164088 -0.275589,0.371074 c -0.151575,0.20409 -0.316252,0.40767 -0.365956,0.452402 -0.160878,0.144789 -0.09618,0.157643 0.155119,0.03082 0.135014,-0.06814 0.351146,-0.155673 0.480292,-0.194516 z m -8.35473,0.01051 c 0.06328,-0.08649 0.115049,-0.185874 0.115049,-0.220859 0,-0.0731 -0.20172,-0.326319 -0.259951,-0.326319 -0.02139,0 -0.0389,0.176747 -0.0389,0.392771 0,0.216024 0.01547,0.374521 0.03438,0.352214 0.01891,-0.02231 0.08615,-0.111321 0.149424,-0.197807 z m 15.164207,-1.158581 c 0.658549,-0.330748 2.354033,-0.841023 4.119837,-1.239913 0.626053,-0.141422 1.865331,-0.34004 2.945794,-0.472116 2.040711,-0.249457 3.005514,-0.323129 4.234725,-0.323361 0.438884,-8.6e-5 0.807046,-0.01485 0.81814,-0.03279 0.01107,-0.01794 -0.04799,-0.189289 -0.131289,-0.380752 -0.102099,-0.234667 -0.17913,-0.355354 -0.236361,-0.370321 -0.188774,-0.04936 -2.336937,-0.02552 -3.276359,0.03639 -1.362136,0.08975 -2.184172,0.184088 -3.201949,0.367472 -0.505847,0.09114 -1.9324,0.417574 -2.348094,0.537305 -0.350823,0.101044 -2.796328,0.980944 -3.845262,1.383535 -0.177714,0.06821 -0.35429,0.12402 -0.392387,0.12402 -0.139016,0 -0.115921,0.0842 0.04571,0.166657 0.09115,0.0465 0.296698,0.191903 0.456778,0.323115 l 0.291052,0.238572 0.110407,-0.103862 c 0.06072,-0.05712 0.244892,-0.171403 0.409258,-0.253955 z m -1.334278,-0.832043 c 1.561547,-1.049621 3.741966,-1.90974 6.073159,-2.395702 1.678406,-0.349884 3.1907,-0.512141 5.0911,-0.546239 0.73378,-0.01316 1.333242,-0.03565 1.332137,-0.04997 -0.0054,-0.07022 -0.999204,-0.828385 -1.14001,-0.869715 -0.272107,-0.07987 -2.440851,-0.06315 -3.191284,0.0246 -1.253294,0.146568 -2.743864,0.45647 -3.756954,0.781104 -0.839385,0.268971 -2.191122,0.89481 -2.994036,1.386204 -0.511014,0.312748 -1.718017,1.207626 -2.105269,1.56086 -0.05275,0.04812 -0.03746,0.07747 0.106735,0.204878 0.09256,0.0818 0.192255,0.14048 0.221533,0.130413 0.02928,-0.01007 0.192576,-0.111967 0.362889,-0.226445 z M 69.875226,31.162324 c 0.01283,-0.123275 0.03486,-0.493099 0.04897,-0.821833 0.0141,-0.328734 0.06266,-1.037931 0.1079,-1.576 0.07166,-0.852281 0.07779,-1.077461 0.0273,-1.003346 -0.0067,0.0098 -0.115718,0.190694 -0.242343,0.402022 -0.252362,0.421179 -1.722319,2.644264 -1.828026,2.76461 -0.03622,0.04124 -0.05797,0.08154 -0.04833,0.08956 0.0096,0.008 0.228855,0.04845 0.487146,0.08985 0.656635,0.105229 1.261301,0.224219 1.291163,0.254081 0.0783,0.0783 0.134865,0.0063 0.156218,-0.198945 z m 14.049332,-0.706691 c 1.180889,-1.151193 1.884233,-1.670369 3.050989,-2.252111 2.055974,-1.0251 4.369965,-1.584328 6.904196,-1.668553 0.477465,-0.01585 0.868118,-0.04168 0.868118,-0.05736 0,-0.03637 -0.630765,-0.382669 -1.34482,-0.738329 -0.50062,-0.249352 -1.313917,-0.587818 -2.330623,-0.969927 l -0.366763,-0.13784 -0.657863,0.350505 c -0.714635,0.380761 -1.6231,0.962251 -2.369164,1.516466 -1.45279,1.079201 -3.522393,3.12164 -4.326886,4.270096 -0.163007,0.232699 -0.221911,0.386883 -0.135475,0.35461 0.02097,-0.0078 0.339691,-0.308227 0.708291,-0.667557 z m -12.34813,0.07354 c 0.158496,-0.119256 0.288078,-0.229709 0.28796,-0.245449 -1.28e-4,-0.01573 -0.07556,-0.124678 -0.167646,-0.242083 -0.09209,-0.117405 -0.288909,-0.383724 -0.437384,-0.59182 -0.148475,-0.208096 -0.327589,-0.457852 -0.398032,-0.555005 l -0.128078,-0.176647 -0.02687,0.512313 c -0.01478,0.28177 -0.04011,0.816555 -0.0563,1.18841 l -0.02943,0.676097 0.333805,-0.174493 c 0.183593,-0.09597 0.463485,-0.272066 0.621981,-0.391323 z m -0.70052,-0.284743 c -0.01123,-0.26593 0.0035,-0.327586 0.09724,-0.405581 0.145007,-0.120706 0.269534,-0.09472 0.361125,0.07535 0.09426,0.175025 0.06736,0.244617 -0.152399,0.39427 -0.21447,0.146047 -0.297828,0.128602 -0.305967,-0.06404 z m 0.177535,-0.178395 c 0,-0.0218 0.03004,-0.06968 0.06676,-0.106402 0.06185,-0.06185 0.05231,-0.15324 -0.01592,-0.15247 -0.03079,2.86e-4 -0.136231,0.204932 -0.136231,0.264334 0,0.0188 0.01921,0.03418 0.04269,0.03418 0.02348,0 0.04269,-0.01785 0.04269,-0.03965 z m 1.755068,60.460405 c 0.327109,-0.539786 0.32024,-0.533518 0.446484,-0.407275 0.108879,0.10888 0.198774,0.352787 0.170922,0.463759 -0.02171,0.08649 -0.04905,0.09712 -0.237915,0.0925 -0.214652,-0.0052 -0.246346,-0.02303 -0.174283,-0.09776 0.02151,-0.02231 0.05064,-0.115211 0.06473,-0.206454 0.02238,-0.144895 0.01743,-0.159099 -0.03911,-0.112178 -0.0356,0.02955 -0.06473,0.08096 -0.06473,0.114258 0,0.07379 -0.171978,0.313243 -0.224974,0.313243 -0.02098,0 0.0055,-0.07205 0.05887,-0.1601 z m 4.438737,0.0925 c 0.002,-0.04973 0.01216,-0.05985 0.02581,-0.0258 0.01233,0.03082 0.01081,0.06764 -0.0034,0.08183 -0.01419,0.01419 -0.02429,-0.01104 -0.02243,-0.05604 z m -0.03774,-0.508756 c 8.58e-4,-0.07044 0.01044,-0.09409 0.02126,-0.05255 0.01084,0.04154 0.01013,0.09918 -0.0017,0.128079 -0.0117,0.02891 -0.02054,-0.0051 -0.01968,-0.07553 z m 3.396239,0.0631 c -0.269163,-0.06801 -0.562574,-0.239345 -0.733082,-0.428076 -0.36236,-0.401096 -0.551515,-1.092524 -0.456418,-1.66837 0.09301,-0.563198 0.314046,-0.871795 0.791792,-1.105455 0.697256,-0.341021 1.435982,-0.210473 1.968561,0.347881 0.323293,0.338939 0.488393,0.755909 0.488067,1.232636 -5.72e-4,0.945034 -0.628422,1.59977 -1.578454,1.646227 -0.176106,0.0086 -0.392316,-0.0026 -0.480466,-0.02483 z"
       id="path8033" /></g><metadata
     id="metadata8035"><rdf:RDF><cc:License
         rdf:about="http://creativecommons.org/publicdomain/zero/1.0/"><cc:permits
           rdf:resource="http://creativecommons.org/ns#Reproduction" /><cc:permits
           rdf:resource="http://creativecommons.org/ns#Distribution" /><cc:permits
           rdf:resource="http://creativecommons.org/ns#DerivativeWorks" /></cc:License><cc:Work
         rdf:about=""><cc:license
           rdf:resource="http://creativecommons.org/publicdomain/zero/1.0/" /><dc:title>Abstract woman</dc:title></cc:Work></rdf:RDF></metadata></svg>
