<?xml version="1.0" encoding="UTF-8" standalone="no"?>
<!-- Created with Inkscape (http://www.inkscape.org/) -->

<svg
   width="33.900288mm"
   height="48.164265mm"
   viewBox="0 0 33.900288 48.164265"
   version="1.1"
   id="svg2207"
   xml:space="preserve"
   inkscape:version="1.2 (dc2aedaf03, 2022-05-15)"
   sodipodi:docname="Light bulb.svg"
   xmlns:inkscape="http://www.inkscape.org/namespaces/inkscape"
   xmlns:sodipodi="http://sodipodi.sourceforge.net/DTD/sodipodi-0.dtd"
   xmlns="http://www.w3.org/2000/svg"
   xmlns:svg="http://www.w3.org/2000/svg"
   xmlns:rdf="http://www.w3.org/1999/02/22-rdf-syntax-ns#"
   xmlns:cc="http://creativecommons.org/ns#"
   xmlns:dc="http://purl.org/dc/elements/1.1/"><title
     id="title2227">Light bulb</title><sodipodi:namedview
     id="namedview2209"
     pagecolor="#ffffff"
     bordercolor="#666666"
     borderopacity="1.0"
     inkscape:showpageshadow="2"
     inkscape:pageopacity="0.0"
     inkscape:pagecheckerboard="0"
     inkscape:deskcolor="#d1d1d1"
     inkscape:document-units="mm"
     showgrid="false"
     inkscape:zoom="0.69041105"
     inkscape:cx="267.95631"
     inkscape:cy="441.04161"
     inkscape:window-width="1920"
     inkscape:window-height="991"
     inkscape:window-x="-9"
     inkscape:window-y="-9"
     inkscape:window-maximized="1"
     inkscape:current-layer="layer1" /><defs
     id="defs2204" /><g
     inkscape:label="Lager 1"
     inkscape:groupmode="layer"
     id="layer1"
     transform="translate(-34.094399,-31.969677)"><path
       style="fill:#000000;stroke-width:0.0375438"
       d="m 50.42929,80.095426 c -1.353027,-0.134915 -2.484202,-0.746757 -3.249905,-1.75784 -0.321314,-0.424285 -0.356118,-0.453295 -1.00624,-0.838619 -0.926004,-0.548845 -1.721722,-1.248185 -1.924722,-1.691598 -0.134701,-0.294227 -0.135592,-0.572266 -0.0028,-0.862408 l 0.09938,-0.217069 -0.08978,-0.156054 c -0.04938,-0.08583 -0.101423,-0.232081 -0.115651,-0.325003 -0.01523,-0.09937 -0.07089,-0.226111 -0.135185,-0.307756 -0.143528,-0.182244 -0.18405,-0.296495 -0.18405,-0.518885 0,-0.196267 0.0394,-0.312619 0.17974,-0.530722 l 0.08827,-0.13718 -0.07455,-0.146144 c -0.170799,-0.334794 -0.141932,-0.559987 0.124503,-0.971299 0.09268,-0.143068 0.168863,-0.294975 0.169308,-0.337573 5.19e-4,-0.0426 -0.05139,-0.127071 -0.115181,-0.187719 -0.146617,-0.139392 -0.204805,-0.254003 -0.237068,-0.466936 -0.01408,-0.09292 -0.0604,-0.241235 -0.10295,-0.329589 -0.09211,-0.191275 -0.09925,-0.502955 -0.01608,-0.702007 0.03103,-0.07427 0.149945,-0.233087 0.26425,-0.352924 0.309419,-0.324395 0.286507,-0.447947 -0.185347,-0.999521 -0.734561,-0.858661 -1.043948,-1.518938 -1.209198,-2.580589 -0.09724,-0.624748 -0.08759,-1.856358 0.02023,-2.581698 0.180621,-1.215015 0.212172,-1.611704 0.165409,-2.079616 -0.02679,-0.267985 -0.07149,-0.496039 -0.116605,-0.594788 -0.04025,-0.08809 -0.287823,-0.42203 -0.550174,-0.742091 -0.262353,-0.320061 -0.776588,-0.978956 -1.142747,-1.464211 -1.789431,-2.371471 -2.737502,-3.803181 -3.450802,-5.211161 -0.515947,-1.018423 -0.650516,-1.334906 -0.94503,-2.222533 -0.634773,-1.91313 -0.90156,-3.552474 -0.901474,-5.539341 6.4e-5,-1.450503 0.07287,-2.047626 0.380734,-3.122512 0.444633,-1.552407 1.401774,-3.14976 2.6349,-4.397327 1.14329,-1.156679 2.593996,-2.197916 4.181835,-3.00149 0.561741,-0.284286 1.248759,-0.586041 1.274853,-0.559946 0.0089,0.0089 -0.132178,0.0794 -0.313552,0.156615 -1.200222,0.510994 -2.745084,1.429151 -3.78381,2.248828 -0.484298,0.382168 -1.570852,1.471031 -1.967838,1.97202 -1.180256,1.48946 -1.933542,3.127947 -2.197183,4.779131 -0.08186,0.512682 -0.14143,1.686628 -0.114894,2.264191 0.08327,1.812392 0.334642,3.298761 0.824355,4.874386 0.597881,1.923653 1.443274,3.507764 3.14706,5.897007 0.678577,0.95158 2.842714,3.74875 2.842714,3.674239 0,-0.05823 -0.185956,-0.496204 -0.346157,-0.815296 -0.266026,-0.529881 -0.73194,-1.241726 -1.573916,-2.404708 -1.050459,-1.45095 -2.014402,-3.097109 -2.53922,-4.336322 -0.3982,-0.940239 -0.806187,-2.258231 -1.061728,-3.42989 -0.275636,-1.263792 -0.35652,-2.087314 -0.323181,-3.290469 0.02422,-0.874036 0.08089,-1.371252 0.234383,-2.056548 0.501847,-2.240534 1.399986,-3.955498 3.022502,-5.771357 1.636097,-1.831056 3.448169,-3.101492 5.703459,-3.998667 0.990022,-0.393839 1.59777,-0.568142 2.609305,-0.748353 2.32253,-0.413772 4.537584,-0.328717 6.904742,0.265132 1.535879,0.385306 3.193206,1.137393 4.527377,2.054505 1.882323,1.293909 3.50978,3.079085 4.43021,4.859544 0.966016,1.868636 1.353089,3.555062 1.30267,5.675536 -0.02396,1.007289 -0.09193,1.56984 -0.310115,2.566433 -0.348886,1.593566 -0.869322,3.077056 -1.597466,4.553536 -0.839374,1.702033 -1.431499,2.626321 -3.081818,4.81065 -0.421074,0.557326 -0.730734,1.030308 -0.696772,1.064267 0.0339,0.03391 1.56836,-1.566157 1.947081,-2.030333 0.815801,-0.999871 1.879377,-2.510342 2.511385,-3.566614 0.268441,-0.448649 0.304144,-0.480109 0.115407,-0.101688 -0.561359,1.125515 -1.84111,2.961239 -2.94902,4.230181 -0.5216,0.597412 -1.377577,1.445693 -1.642197,1.627426 -0.196007,0.134613 -0.211947,0.1721 -0.446627,1.050225 -0.164345,0.614938 -0.152011,0.629083 0.229543,0.263292 0.902375,-0.865089 2.191819,-2.161427 2.51319,-2.526625 1.158443,-1.316426 2.142653,-2.866993 3.217141,-5.068428 0.191494,-0.392334 0.348982,-0.702543 0.349975,-0.689354 0.001,0.01317 -0.106396,0.283503 -0.238642,0.600701 -0.314945,0.755402 -0.896248,1.870743 -1.59203,3.05462 -0.808471,1.375616 -2.033783,2.80776 -3.62506,4.236963 -0.348231,0.312762 -0.71141,0.624413 -0.807063,0.692557 -0.09565,0.06814 -0.187848,0.161066 -0.204883,0.206491 -0.01704,0.04543 -0.04022,0.45428 -0.05152,0.908559 -0.01728,0.694582 -0.0071,0.954366 0.0638,1.63316 0.183369,1.754819 -0.03975,2.94407 -0.749741,3.996234 -0.181298,0.268673 -0.696862,0.899771 -1.105942,1.353775 -0.09303,0.103244 -0.169794,0.207458 -0.170586,0.231588 -7.8e-4,0.02414 0.05769,0.167257 0.129959,0.318066 0.239765,0.500302 0.157218,0.869626 -0.300283,1.343511 l -0.244104,0.252847 v 0.324681 c 0,0.289433 0.01372,0.354319 0.126304,0.597698 0.06947,0.150156 0.136853,0.317432 0.149748,0.371712 0.03211,0.135145 -0.054,0.401041 -0.197353,0.609392 -0.15146,0.220138 -0.21526,0.401987 -0.246928,0.703811 -0.02318,0.220961 -0.01606,0.257048 0.08975,0.454173 0.227997,0.424804 0.231965,0.711325 0.01484,1.071895 -0.114757,0.190574 -0.126137,0.233194 -0.104413,0.391131 0.05074,0.368935 -0.170747,0.811722 -0.646039,1.291513 -0.303232,0.306098 -0.545491,0.496925 -1.109525,0.873942 -0.385366,0.257591 -0.414903,0.287045 -0.671595,0.669633 -0.695037,1.035939 -1.592384,1.57225 -2.843239,1.699313 -0.433926,0.04408 -0.477867,0.04379 -0.98036,-0.0063 z m 1.369537,-0.516094 c 0.625974,-0.123381 1.1064,-0.370161 1.501379,-0.771212 0.311225,-0.316011 0.610559,-0.844437 0.478345,-0.844437 -0.01567,0 -0.154862,0.0718 -0.309307,0.159559 -0.251189,0.142733 -0.283065,0.17359 -0.302217,0.292536 -0.07519,0.467034 -0.749877,0.917782 -1.595007,1.065607 -0.877856,0.153552 -2.107811,-0.0087 -2.636066,-0.347681 -0.203609,-0.130668 -0.447614,-0.369098 -0.413076,-0.403634 0.01273,-0.01273 0.112952,0.008 0.222697,0.046 0.232814,0.0807 0.752263,0.09223 0.99018,0.02198 0.347847,-0.102699 0.65032,-0.404941 0.500318,-0.499939 -0.02861,-0.01811 -0.249604,-0.0332 -0.491107,-0.03351 -0.499333,-7.8e-4 -1.253553,-0.05768 -1.710292,-0.129318 -0.191674,-0.03006 -0.309739,-0.0347 -0.309739,-0.01219 0,0.06367 0.357941,0.487908 0.650438,0.770905 0.49404,0.478007 1.109333,0.686613 2.277988,0.772317 0.28726,0.02107 0.791419,-0.01723 1.145466,-0.08701 z m 0.93822,-1.819274 c 1.320393,-0.167385 1.697023,-0.316603 2.421583,-0.959404 0.175518,-0.155711 0.416267,-0.355304 0.535002,-0.44354 0.224383,-0.166751 0.235117,-0.182159 0.183528,-0.263505 -0.02492,-0.03929 -0.08636,-0.02992 -0.305186,0.04653 -0.389393,0.136045 -0.554793,0.243465 -0.95733,0.621758 -0.413256,0.388359 -0.766593,0.582493 -1.33321,0.732501 -0.630296,0.166868 -1.172757,0.21255 -2.571759,0.216593 -2.409912,0.007 -3.278296,-0.165353 -3.922775,-0.778388 -0.321202,-0.305529 -0.444461,-0.375173 -0.861551,-0.486797 -0.191791,-0.05133 -0.459182,-0.145016 -0.594206,-0.208201 -0.135021,-0.06318 -0.252288,-0.108087 -0.26059,-0.09979 -0.02826,0.02826 0.245466,0.229691 0.615031,0.452591 0.202755,0.122289 0.554489,0.351022 0.781629,0.508289 0.227142,0.157272 0.480563,0.315119 0.563159,0.350775 0.377405,0.162913 1.069463,0.282085 2.19632,0.378197 0.09292,0.0079 0.810949,0.0099 1.595615,0.0043 1.051126,-0.0074 1.555146,-0.02636 1.91474,-0.07195 z m -0.204254,-0.464345 c 0.37549,-0.133023 0.621518,-0.26781 0.778804,-0.42667 0.08506,-0.0859 0.145248,-0.171402 0.133756,-0.18999 -0.03318,-0.05369 -0.244273,0.0087 -0.407953,0.120512 -0.387977,0.265095 -0.816073,0.405609 -1.274201,0.418239 -0.176777,0.0049 -0.321414,0.02344 -0.321414,0.04128 0,0.151032 0.701581,0.17458 1.091008,0.03663 z m 0.316886,-0.98272 c 0.147456,-0.01515 -0.330436,-0.02641 -1.088774,-0.0257 -0.74337,7.79e-4 -1.191081,0.01172 -0.994912,0.02445 0.5024,0.03264 1.770427,0.0334 2.083686,0.0013 z m -5.105971,-0.07633 c -0.01276,-0.02066 -0.07711,-0.0374 -0.143006,-0.03722 -0.06589,0 -0.34788,-0.02786 -0.626645,-0.06232 l -0.506844,-0.06265 -0.181605,-0.158159 c -0.09988,-0.08698 -0.338681,-0.244922 -0.530658,-0.350967 -0.19198,-0.106046 -0.369969,-0.218015 -0.395535,-0.24882 -0.02557,-0.0308 -0.0782,-0.056 -0.116974,-0.056 -0.03877,0 -0.07049,-0.01871 -0.07049,-0.04156 0,-0.02286 0.025,-0.03196 0.05558,-0.02024 0.03057,0.01174 0.276904,0.0409 0.547411,0.06481 0.374552,0.03312 0.502287,0.03304 0.535664,-5.2e-4 0.03341,-0.03341 0.01263,-0.04293 -0.0875,-0.04005 -0.110974,0.0032 -0.782709,-0.06404 -1.379989,-0.138129 -0.155368,-0.01928 -0.161521,-0.01593 -0.217726,0.118597 -0.139511,0.333897 0.191159,0.713456 0.753053,0.864386 0.123895,0.03328 0.504025,0.07753 0.844737,0.09834 0.340712,0.02081 0.754633,0.05105 0.919825,0.06718 0.457587,0.04471 0.626944,0.04559 0.600704,0.0031 z m 1.905354,0.0099 c -0.10841,-0.0076 -0.285803,-0.0076 -0.394213,0 -0.108407,0.0076 -0.01972,0.0138 0.197106,0.0138 0.216817,0 0.305514,-0.0062 0.197107,-0.0138 z m 3.641759,0.0028 c -0.02583,-0.01042 -0.06805,-0.01042 -0.09386,0 -0.0258,0.01042 -0.0047,0.01894 0.04693,0.01894 0.05162,0 0.07274,-0.0085 0.04693,-0.01894 z m 1.075195,-0.203305 c 0.856196,-0.146319 1.39951,-0.322236 1.456867,-0.471709 0.02674,-0.06968 -0.05903,-0.13407 -0.138638,-0.104091 -0.174385,0.06568 -1.275589,0.376799 -1.595616,0.450813 -0.206491,0.04776 -0.595071,0.121287 -0.86351,0.163402 l -0.488072,0.07657 0.59651,-0.02024 c 0.328082,-0.01115 0.792687,-0.05377 1.032459,-0.09475 z m -1.197214,-0.05732 c 0.41615,-0.06129 1.265081,-0.244587 1.431125,-0.30901 0.124189,-0.04818 0.258353,-0.216357 0.258353,-0.323847 0,-0.10266 -0.124485,-0.222185 -0.319638,-0.306909 -0.204415,-0.08874 -1.4657,-0.1151 -2.477383,-0.05176 -0.412986,0.02585 -1.379359,0.04922 -2.1475,0.05192 -0.931075,0.0033 -1.384107,0.01743 -1.359083,0.04246 0.02424,0.02424 1.037029,0.03973 2.860833,0.04371 3.320385,0.0072 3.054526,0.0029 3.008108,0.04931 -0.02019,0.02019 -0.331893,0.05656 -0.692685,0.08083 -0.385407,0.02593 -0.667367,0.06112 -0.683573,0.08532 -0.01944,0.02904 -0.02775,0.02812 -0.02816,-0.0031 -5.2e-4,-0.02991 -0.03412,-0.0354 -0.103821,-0.01691 -0.05678,0.01507 -0.177872,0.02398 -0.269081,0.01977 -0.123679,-0.0057 -0.202612,0.01671 -0.310499,0.0881 -0.07957,0.05266 -0.156504,0.0839 -0.170973,0.06943 -0.01447,-0.01447 -0.0039,-0.04017 0.02354,-0.05712 0.03228,-0.01995 0.03612,-0.0393 0.01091,-0.05488 -0.05497,-0.03397 -0.09096,0.03896 -0.06289,0.127424 0.01814,0.05712 0.0099,0.06925 -0.03512,0.05196 -0.03232,-0.01239 -0.05877,-0.0038 -0.05877,0.01902 0,0.105261 1.2106,-0.0037 2.075615,-0.186786 0.569088,-0.12046 0.590004,-0.123261 0.590004,-0.07892 0,0.04915 -0.264123,0.181224 -0.488072,0.244062 -0.533796,0.149777 -1.562937,0.360418 -1.952284,0.399584 -0.237465,0.02388 -0.828781,0.03957 -1.314038,0.03485 -1.356358,-0.01317 -2.535634,-0.115796 -4.0251,-0.350242 -1.024987,-0.161336 -1.178923,-0.182468 -1.155565,-0.158647 0.02367,0.02414 1.957582,0.342014 2.421189,0.397962 0.431916,0.05213 1.211253,0.116623 1.858421,0.153799 0.770711,0.04427 2.6502,0.0073 3.116148,-0.06135 z m -2.300347,-0.3379 c -0.01247,-0.01247 -0.04486,-0.0138 -0.07196,-0.003 -0.02995,0.01198 -0.02105,0.02089 0.02268,0.02268 0.03958,0.0016 0.06175,-0.0072 0.04928,-0.01972 z m 0.28236,-0.0021 c -0.0258,-0.01042 -0.06805,-0.01042 -0.09386,0 -0.0258,0.01042 -0.0047,0.01894 0.04693,0.01894 0.05162,0 0.07274,-0.0085 0.04693,-0.01894 z m 0.197108,-0.01268 c -0.01276,-0.02066 -0.0391,-0.03755 -0.05853,-0.03755 -0.01944,0 -0.03533,0.01689 -0.03533,0.03755 0,0.02066 0.02634,0.03754 0.05853,0.03754 0.03219,0 0.04809,-0.01689 0.03533,-0.03754 z m 0.619473,-0.01876 c 0,-0.03097 -0.01689,-0.05632 -0.03754,-0.05632 -0.02066,0 -0.03754,0.01873 -0.03754,0.04162 0,0.02536 -0.03576,0.03264 -0.09156,0.01863 -0.05036,-0.01265 -0.102041,-0.006 -0.114848,0.01471 -0.01411,0.02286 0.0367,0.03768 0.129102,0.03768 0.110431,0 0.15239,-0.01551 0.15239,-0.05631 z m -2.280792,-0.0061 c -0.0258,-0.01042 -0.06805,-0.01042 -0.09386,0 -0.0258,0.01042 -0.0047,0.01894 0.04693,0.01894 0.05163,0 0.07274,-0.0085 0.04693,-0.01894 z m 1.850583,-0.04772 c -0.01361,-0.02203 -0.04131,-0.04004 -0.06156,-0.04004 -0.02024,0 -0.01502,0.02364 0.01161,0.05253 0.0539,0.05849 0.08848,0.04984 0.04995,-0.0125 z m -2.592076,-0.0026 c 0.01356,-0.02193 -0.02848,-0.03901 -0.101028,-0.04107 -0.06833,-0.0018 -0.284736,-0.01801 -0.480901,-0.03568 -0.196169,-0.01767 -0.550958,-0.04027 -0.788423,-0.05018 -0.365598,-0.01528 -0.391485,-0.01299 -0.168947,0.01484 0.285871,0.03576 0.601673,0.06668 1.126319,0.11026 0.18584,0.01543 0.349569,0.03062 0.363836,0.03373 0.01427,0.0031 0.03638,-0.01125 0.04914,-0.03189 z m 0.168949,0 c 0,-0.02066 -0.02634,-0.03754 -0.05853,-0.03754 -0.03219,0 -0.04809,0.01689 -0.03533,0.03754 0.01276,0.02066 0.0391,0.03755 0.05853,0.03755 0.01944,0 0.03533,-0.01689 0.03533,-0.03755 z m 2.753821,-0.09506 c -0.01164,-0.03031 -0.05735,-0.05316 -0.101605,-0.05076 -0.06346,0.0034 -0.06658,0.008 -0.01476,0.02151 0.03614,0.0095 0.0657,0.04227 0.0657,0.07295 0,0.03068 0.01616,0.0458 0.0359,0.03359 0.01975,-0.01221 0.02639,-0.04699 0.01476,-0.0773 z m -0.951686,0.02936 c 3.7e-5,-0.04377 0.200856,-0.04494 0.253395,-0.0016 0.03265,0.02702 0.06325,0.02528 0.100595,-0.0057 0.06981,-0.05794 0.284232,-0.0849 0.284232,-0.03575 0,0.02089 0.01717,0.02737 0.03815,0.01439 0.02099,-0.01296 0.0277,-0.0405 0.01491,-0.06118 -0.02216,-0.03584 -1.552254,-0.0096 -1.589246,0.0272 -0.0086,0.0086 0.173016,0.01559 0.403598,0.01559 0.254463,0 0.419239,0.01476 0.419239,0.03754 0,0.02066 0.01689,0.03754 0.03755,0.03754 0.02066,0 0.03755,-0.01268 0.03757,-0.02816 z m 1.14346,-0.08707 c -0.01187,-0.01923 -0.04801,-0.03495 -0.0803,-0.03495 -0.04772,0 -0.05002,0.01045 -0.01229,0.0559 0.04848,0.05841 0.130216,0.03991 0.0926,-0.02094 z m -2.109528,0.01551 c -0.02541,-0.01029 -0.0761,-0.01091 -0.112632,-0.0016 -0.03653,0.0095 -0.01574,0.01793 0.04622,0.01871 0.06195,7.79e-4 0.09183,-0.007 0.06642,-0.0173 z m 5.566112,-0.236628 c 0.517713,-0.138786 0.65673,-0.196722 0.823627,-0.343261 0.166189,-0.145913 0.174366,-0.218618 0.01154,-0.102681 -0.06669,0.04749 -0.38271,0.173088 -0.702273,0.279115 -0.319562,0.106027 -0.587406,0.21193 -0.595208,0.23534 -0.01964,0.05889 -0.0047,0.05667 0.462307,-0.06851 z m -7.622357,-0.153459 c -0.103244,-0.01608 -0.326947,-0.03072 -0.497112,-0.03253 -0.513852,-0.0055 -1.439307,-0.114817 -1.611566,-0.190426 -0.08602,-0.03775 -0.184619,-0.111718 -0.219114,-0.164366 -0.07566,-0.115475 -0.04256,-0.202025 0.04934,-0.129006 0.03375,0.02681 0.02258,-0.0018 -0.02484,-0.06388 -0.07171,-0.09372 -0.155547,-0.132335 -0.499408,-0.230011 -0.3152,-0.08954 -0.417597,-0.106006 -0.431638,-0.06942 -0.02711,0.07065 0.0536,0.469458 0.108472,0.53595 0.08862,0.107402 0.354287,0.193565 0.707845,0.229577 0.598527,0.06096 1.855928,0.134863 2.399236,0.141013 l 0.206491,0.0023 -0.187721,-0.02924 z m 7.612211,-0.153016 c 0.628944,-0.230528 0.778856,-0.324369 0.778856,-0.487553 0,-0.07708 -0.01,-0.07844 -0.384825,-0.05235 -0.211655,0.01473 -0.39961,0.02923 -0.417678,0.03221 -0.01806,0.003 -0.03966,-0.01289 -0.04797,-0.03525 -0.0083,-0.02237 0.05715,-0.06414 0.145484,-0.09281 l 0.160606,-0.05214 -0.118192,-0.01252 c -0.06501,-0.0069 -0.294344,0.02146 -0.509638,0.06302 -0.652357,0.125893 -2.46182,0.306729 -3.073686,0.307184 -0.25842,5.2e-4 -0.630129,0.0603 -0.425187,0.06876 0.04302,0.0018 0.08536,0.01037 0.09409,0.0191 0.0087,0.0087 0.45503,0.02541 0.991783,0.0371 1.479001,0.03218 1.951333,0.09345 2.196094,0.284925 0.05162,0.04038 0.115061,0.0738 0.140971,0.07426 0.0259,5.2e-4 0.237096,-0.0688 0.4693,-0.15391 z m -6.354488,-0.178007 c 0,-0.0503 -0.670179,-0.08542 -0.901055,-0.04722 -0.11357,0.01879 -0.391654,0.03668 -0.617964,0.03974 -0.226311,0.0031 -0.419195,0.0133 -0.428627,0.02274 -0.0094,0.0094 0.424927,0.01715 0.965247,0.01715 0.540318,0 0.982399,-0.01458 0.982399,-0.0324 z m 0.309735,0.0059 c -0.04646,-0.009 -0.122487,-0.009 -0.168946,0 -0.04646,0.0089 -0.0084,0.01627 0.08447,0.01627 0.09292,0 0.130934,-0.0073 0.08447,-0.01627 z m 0.713336,-0.001 c -0.10841,-0.0076 -0.285803,-0.0076 -0.394213,0 -0.108407,0.0076 -0.01972,0.01377 0.197107,0.01377 0.216816,0 0.305513,-0.0062 0.197106,-0.01377 z m 0.600701,0.0028 c -0.0258,-0.01042 -0.06805,-0.01042 -0.09386,0 -0.0258,0.01042 -0.0047,0.01894 0.04693,0.01894 0.05162,0 0.07274,-0.0085 0.04693,-0.01894 z m -2.610084,-0.110452 c -0.01247,-0.01247 -0.04486,-0.0138 -0.07196,-0.003 -0.02995,0.01198 -0.02105,0.02089 0.02268,0.02268 0.03958,0.0016 0.06175,-0.0072 0.04928,-0.01972 z m -2.365266,-0.03754 c -0.01247,-0.01247 -0.04486,-0.0138 -0.07196,-0.003 -0.02995,0.012 -0.02105,0.02089 0.02268,0.02268 0.03958,0.0016 0.06175,-0.0072 0.04928,-0.01972 z m 7.988249,-0.387785 c 1.234084,-0.109368 1.784836,-0.263434 2.179041,-0.609548 0.145858,-0.128071 0.173306,-0.256461 0.05482,-0.256461 -0.0413,0 -0.07561,0.02112 -0.07625,0.04693 -0.0016,0.06635 -0.284618,0.271362 -0.526391,0.381367 -0.67999,0.309384 -2.634074,0.463222 -5.348072,0.421042 -2.344776,-0.03644 -3.706993,-0.114601 -3.979654,-0.228348 -0.06195,-0.02585 -0.197104,-0.122994 -0.300351,-0.215892 -0.217344,-0.195563 -0.359583,-0.275524 -0.555486,-0.312276 -0.151027,-0.02833 -0.21306,-0.08464 -0.141774,-0.1287 0.06408,-0.0396 -0.569297,-0.358611 -0.650295,-0.327528 -0.08222,0.03155 -0.172973,0.249614 -0.172973,0.415635 0,0.15746 0.136302,0.332995 0.338779,0.436292 0.432214,0.220498 0.887096,0.267176 3.640875,0.373624 0.609151,0.02354 1.234255,0.04804 1.389124,0.05444 0.607662,0.0251 3.723376,-0.01289 4.148602,-0.05058 z m 0.488072,-0.373873 c 0.649154,-0.09919 1.009449,-0.178093 1.201907,-0.263227 0.180293,-0.07975 0.275109,-0.178241 0.111831,-0.116166 -0.122923,0.04673 -0.206192,0.04796 -0.206192,0.003 0,-0.01891 0.0718,-0.05983 0.159562,-0.09089 0.150324,-0.05321 0.15304,-0.05664 0.04693,-0.05914 -0.06195,-0.0016 -0.298474,0.02123 -0.525614,0.05043 -0.22714,0.02921 -0.666406,0.06386 -0.976142,0.07703 -0.309738,0.01317 -1.019317,0.05014 -1.576846,0.08216 -0.557526,0.03203 -1.05086,0.05663 -1.096298,0.05465 -0.04544,-0.0021 -0.09244,0.01232 -0.104447,0.03174 -0.012,0.01944 -0.04941,0.02474 -0.08311,0.01182 -0.04096,-0.01572 -0.05227,-0.009 -0.03413,0.02042 0.01494,0.02416 0.08951,0.04526 0.165723,0.04689 0.07621,0.0016 0.117455,0.01148 0.09164,0.0219 -0.08988,0.03626 -0.0461,0.08777 0.07509,0.08834 0.09259,5.19e-4 0.108435,0.0094 0.0657,0.03697 -0.05006,0.03235 -0.05006,0.03705 0,0.0423 0.03097,0.0032 -0.01128,0.01933 -0.09386,0.03574 -0.0826,0.01642 0.398906,0.02326 1.070002,0.01523 0.972319,-0.01164 1.319319,-0.02976 1.708247,-0.08919 z m -2.947195,-0.05817 c 0,-0.0091 -0.01689,-0.027 -0.03755,-0.03976 -0.02066,-0.01276 -0.03754,-0.0053 -0.03754,0.01655 0,0.02188 0.01689,0.03976 0.03754,0.03976 0.02066,0 0.03755,-0.0075 0.03755,-0.01655 z m -4.993342,-0.0816 c -0.196168,-0.02891 -0.382009,-0.04699 -0.412985,-0.04019 -0.08044,0.01767 0.399113,0.09109 0.600704,0.09199 0.107635,5.2e-4 0.03951,-0.01832 -0.187719,-0.0518 z m 4.007029,0.03793 c -0.01247,-0.01247 -0.04486,-0.0138 -0.07196,-0.003 -0.02995,0.01198 -0.02105,0.02089 0.02268,0.02268 0.03958,0.0016 0.06175,-0.0072 0.04928,-0.01972 z m 0.75792,-0.07453 c 0.04653,-0.04587 -0.03691,-0.04266 -0.167258,0.0064 l -0.148737,0.05603 0.150174,-0.02351 c 0.0826,-0.01294 0.157215,-0.03046 0.165821,-0.03895 z m -0.147049,-0.386751 c 0,-0.01387 -0.147827,-0.02292 -0.328508,-0.02014 -0.18068,0.0028 -0.426511,-0.0064 -0.546291,-0.02035 -0.11978,-0.01398 -0.225695,-0.0126 -0.235363,0.003 -0.0097,0.01564 0.03765,0.03564 0.105151,0.04444 0.199544,0.026 1.005011,0.02037 1.005011,-0.007 z m -1.240948,-0.04053 c -0.03207,-0.01876 -0.165519,-0.04245 -0.296549,-0.05261 -0.13103,-0.01016 -0.248664,-0.03535 -0.261408,-0.05597 -0.01273,-0.02063 -0.174954,-0.03855 -0.360467,-0.03985 -0.185513,-0.0013 -0.68364,-0.03361 -1.106948,-0.0718 -0.423308,-0.03819 -0.841893,-0.06456 -0.930189,-0.05858 -0.08941,0.0061 -0.151201,-0.0042 -0.139462,-0.02323 0.04085,-0.06609 -0.457184,-0.261475 -1.492719,-0.585626 -0.180681,-0.05656 -0.328511,-0.11675 -0.328511,-0.133756 0,-0.0391 -0.01889,-0.0406 0.305721,0.02424 0.151915,0.03035 0.529632,0.08168 0.83937,0.114069 0.309736,0.03239 0.706762,0.0826 0.88228,0.111582 0.325403,0.05373 1.102263,0.124464 2.477898,0.225622 1.886264,0.138705 5.329447,0.216154 5.934386,0.133488 0.771986,-0.105494 1.247179,-0.362288 1.14812,-0.620435 -0.02346,-0.06117 -0.152333,-0.04814 -0.410766,0.04154 -0.162955,0.05655 -0.514538,0.109431 -0.514538,0.07739 0,-0.01177 0.101963,-0.07575 0.226586,-0.142179 0.252096,-0.134364 0.449205,-0.333112 0.449205,-0.452933 0,-0.07301 -0.01406,-0.07682 -0.197106,-0.05344 -0.108407,0.01385 -0.543447,0.09122 -0.966755,0.171937 -0.942764,0.179768 -1.200511,0.213997 -1.989828,0.26425 -0.340709,0.0217 -0.763079,0.05493 -0.938597,0.07386 -0.175517,0.01894 -0.660318,0.03762 -1.07734,0.04154 -0.417017,0.0039 -0.864728,0.01803 -0.994914,0.03137 -0.400274,0.04102 1.652843,0.06751 2.83913,0.03664 1.194361,-0.03108 1.533795,-0.07357 2.53316,-0.317071 0.527246,-0.128463 0.655467,-0.137684 0.518129,-0.03726 -0.08256,0.06037 -1.059317,0.331447 -1.471671,0.408433 -0.477523,0.08915 -0.599195,0.09756 -2.257517,0.156078 -0.892085,0.03148 -1.636913,0.07413 -1.722138,0.09862 -0.17068,0.04905 -0.682804,0.04583 -1.125334,-0.0071 -0.164652,-0.01967 -0.468757,-0.03587 -0.675789,-0.03597 -0.497922,-5.2e-4 -1.427048,-0.08542 -2.431508,-0.222887 -0.933424,-0.12774 -1.054027,-0.155347 -1.336058,-0.305848 -0.469146,-0.250353 -0.701753,-0.03775 -0.479921,0.438661 0.20124,0.432189 0.890521,0.621659 2.175863,0.598106 0.306592,-0.0056 0.619144,0.0043 0.694564,0.02211 0.157304,0.03707 0.778516,0.08598 1.119012,0.08809 0.127055,7.8e-4 0.223733,0.01325 0.214839,0.02769 -0.01889,0.03067 0.259275,0.05102 0.811875,0.05937 0.251574,0.0038 0.37311,-0.0064 0.335895,-0.02818 z m 0.705947,-0.590779 c 0.04646,-0.009 0.122487,-0.009 0.168949,0 0.04646,0.009 0.0084,0.01626 -0.08448,0.01626 -0.09292,0 -0.130934,-0.0073 -0.08447,-0.01626 z m 3.313251,0.553593 c 1.566497,-0.07551 2.455932,-0.248825 2.811262,-0.547819 0.133756,-0.112549 0.160682,-0.207508 0.03269,-0.115301 -0.500601,0.360657 -1.21502,0.49831 -2.806406,0.540734 -0.526555,0.01403 -0.881344,0.036 -0.788423,0.0488 l 0.168949,0.02328 -0.178334,0.0056 c -0.120385,0.0038 -0.178521,-0.0096 -0.178911,-0.04129 -5.19e-4,-0.03112 -0.0125,-0.02796 -0.036,0.0094 -0.02817,0.04479 -0.198974,0.06519 -0.834776,0.0997 l -0.799354,0.04338 0.88228,-0.01289 c 0.485256,-0.0071 1.262415,-0.03122 1.72702,-0.05361 z m -3.954008,-0.08361 c -0.012,-0.02995 -0.02089,-0.02105 -0.02268,0.02268 -0.0016,0.03958 0.0072,0.06175 0.01972,0.04928 0.01247,-0.01247 0.0138,-0.04486 0.003,-0.07196 z m 0.237161,0.02359 c 0,-0.03219 -0.01689,-0.04809 -0.03754,-0.03533 -0.02066,0.01276 -0.03755,0.0391 -0.03755,0.05853 0,0.01944 0.01689,0.03533 0.03755,0.03533 0.02066,0 0.03754,-0.02634 0.03754,-0.05853 z m 0.272194,0.03204 c -0.04646,-0.009 -0.12249,-0.009 -0.168949,0 -0.04646,0.009 -0.0084,0.01626 0.08447,0.01626 0.09292,0 0.130934,-0.0073 0.08448,-0.01626 z m -0.768978,-0.07542 c -0.05642,-0.0086 -0.157784,-0.0087 -0.225263,-5.2e-4 -0.06748,0.0084 -0.02133,0.01536 0.102571,0.01556 0.123895,5.2e-4 0.179106,-0.0066 0.122692,-0.0152 z m 0.768978,5.19e-4 c -0.04646,-0.009 -0.12249,-0.009 -0.168949,0 -0.04646,0.0089 -0.0084,0.01627 0.08447,0.01627 0.09292,0 0.130934,-0.0073 0.08448,-0.01627 z M 46.542302,72.10763 C 46.34597,72.06986 45.9306,72.02887 45.979995,72.05214 c 0.05477,0.0258 0.466221,0.08337 0.59985,0.08392 0.09177,5.2e-4 0.08483,-0.0049 -0.03754,-0.02843 z m 3.40711,-0.06283 c -0.0258,-0.01042 -0.06805,-0.01042 -0.09386,0 -0.0258,0.01042 -0.0047,0.01894 0.04693,0.01894 0.05162,0 0.07274,-0.0085 0.04693,-0.01894 z m -4.036753,-0.03536 c -0.01247,-0.01247 -0.04486,-0.0138 -0.07196,-0.003 -0.02995,0.012 -0.02105,0.02089 0.02268,0.02268 0.03958,0.0016 0.06175,-0.0072 0.04928,-0.01972 z m -0.263271,-0.198746 c 0.106172,-0.158008 0.108823,-0.251633 0.0087,-0.305251 -0.08511,-0.04555 -0.866277,-0.270658 -0.880172,-0.253639 -0.05485,0.06717 -0.09397,0.203072 -0.09397,0.326458 0,0.122004 0.01915,0.164319 0.09756,0.215707 0.140004,0.09173 0.419868,0.160962 0.614527,0.152006 0.144904,-0.0067 0.179352,-0.02505 0.253421,-0.135281 z m 6.628386,-0.247427 c 1.249933,-0.08849 2.494428,-0.254153 2.937171,-0.39098 l 0.112632,-0.03481 -0.131402,-0.0023 c -0.07227,-0.0016 -0.452406,0.02245 -0.84474,0.0529 -0.392332,0.03043 -1.07657,0.08142 -1.520526,0.1133 -0.794685,0.05706 -1.016446,0.08379 -0.743709,0.08962 0.07622,0.0016 0.147856,0.01798 0.1592,0.03634 0.01135,0.01834 -0.06791,0.0301 -0.176118,0.02611 -0.108209,-0.004 -0.247427,0.0043 -0.309377,0.0185 -0.1077,0.02463 -0.106193,0.02596 0.03442,0.03021 0.08088,0.0023 0.136426,0.01507 0.123448,0.02804 -0.0314,0.0314 -2.220981,0.05856 -2.401274,0.02979 -0.07752,-0.01237 -0.13143,-0.0379 -0.1198,-0.05671 0.01164,-0.01881 -0.01364,-0.03422 -0.05616,-0.03422 -0.04252,0 -0.0773,0.01328 -0.0773,0.02949 0,0.01624 -0.03258,0.0295 -0.07241,0.0295 -0.03982,0 -0.06939,-0.0165 -0.0657,-0.03665 0.01068,-0.05836 -0.131137,-0.07254 -0.166556,-0.01665 -0.01764,0.02784 -0.03234,0.03219 -0.03265,0.0096 -2.6e-4,-0.02318 -0.08218,-0.04386 -0.188296,-0.04762 -0.106723,-0.0038 -0.187718,0.0099 -0.187718,0.03159 0,0.02102 -0.01689,0.03823 -0.03755,0.03823 -0.02066,0 -0.03332,-0.01899 -0.02815,-0.04224 0.0052,-0.02323 -0.01174,-0.04998 -0.03755,-0.05944 -0.02583,-0.0095 -0.04693,0.0095 -0.04693,0.04224 0,0.07538 -0.06012,0.0775 -0.08866,0.0031 -0.02344,-0.06111 -0.361862,-0.08353 -0.361862,-0.02398 0,0.0178 0.04646,0.0252 0.103244,0.0165 0.08821,-0.01354 0.09357,-0.0097 0.03679,0.02627 -0.0697,0.04417 -0.229442,0.016 -0.197972,-0.03492 0.01985,-0.03214 -0.539401,-0.100776 -1.10592,-0.13573 -0.440628,-0.02719 -1.244409,-0.147441 -1.344876,-0.201209 -0.04096,-0.02193 -0.128039,-0.107487 -0.193507,-0.190148 -0.08602,-0.108605 -0.208238,-0.192097 -0.44061,-0.30099 -0.401257,-0.188034 -0.461409,-0.191772 -0.461222,-0.02868 1.43e-4,0.171101 0.117085,0.343575 0.309104,0.456106 0.331171,0.194082 2.503533,0.494079 3.951991,0.545756 1.362848,0.04862 2.850621,0.0422 3.670556,-0.01585 z m 0.14015,-0.09553 c 0,-0.02001 0.02533,-0.03636 0.05632,-0.03636 0.03097,0 0.05631,0.0067 0.05631,0.01476 0,0.0081 -0.02533,0.02448 -0.05631,0.03637 -0.03097,0.0119 -0.05632,0.0052 -0.05632,-0.01476 z m -2.39271,0.01408 c -0.02541,-0.01029 -0.0761,-0.01091 -0.112632,-0.0016 -0.03653,0.0095 -0.01572,0.01793 0.04621,0.01871 0.06195,7.79e-4 0.09184,-0.007 0.06642,-0.01731 z m 0.515515,-0.01291 c 0,-0.02066 -0.01689,-0.03754 -0.03755,-0.03754 -0.02066,0 -0.03754,0.01689 -0.03754,0.03754 0,0.02066 0.01689,0.03754 0.03754,0.03754 0.02066,0 0.03755,-0.01689 0.03755,-0.03754 z m 0.168946,0 c -0.01276,-0.02066 -0.0401,-0.03754 -0.06075,-0.03754 -0.02066,0 -0.0271,0.01689 -0.01434,0.03754 0.01276,0.02066 0.0401,0.03754 0.06075,0.03754 0.02066,0 0.0271,-0.01689 0.01434,-0.03754 z m 0.319123,7.8e-4 c -0.06205,-0.01944 0.0079,-0.02912 0.206495,-0.02859 0.195766,5.19e-4 0.267668,0.01076 0.206492,0.0294 l -0.09386,0.02859 0.103247,0.0038 c 0.06841,0.0026 0.103247,-0.01525 0.103247,-0.05257 0,-0.045 -0.05598,-0.05631 -0.27851,-0.05631 -0.311421,0 -0.435233,0.02793 -0.353502,0.07974 0.02754,0.01746 0.08387,0.03032 0.125166,0.02858 0.0616,-0.0026 0.05822,-0.0084 -0.01876,-0.03256 z m 4.054745,-0.603724 c 0.612849,-0.04574 1.009127,-0.116344 1.262439,-0.224931 0.179303,-0.07686 0.440171,-0.260166 0.295632,-0.207741 -0.839505,0.304516 -1.538745,0.373983 -3.519677,0.349674 -0.996416,-0.01224 -1.446522,-0.03213 -1.680152,-0.07428 -0.17552,-0.03168 -0.648573,-0.0684 -1.051233,-0.08163 -1.224117,-0.0402 -2.114926,-0.0956 -3.059827,-0.190268 -0.495581,-0.04966 -1.102282,-0.109417 -1.348228,-0.13281 -0.245943,-0.02338 -0.551267,-0.07468 -0.678495,-0.113977 -0.247367,-0.0764 -0.609364,-0.293263 -0.782161,-0.468567 -0.123467,-0.125254 -0.14722,-0.105123 -0.216446,0.183439 -0.03906,0.162823 -0.03591,0.192934 0.02952,0.281906 0.170495,0.231855 0.63815,0.395889 1.250019,0.438456 0.323226,0.0225 0.349632,0.01949 0.281638,-0.03193 -0.04127,-0.03121 -0.06585,-0.06592 -0.05462,-0.07715 0.01122,-0.01122 0.273064,0.01149 0.58187,0.0505 0.584995,0.07388 1.585524,0.157683 2.739012,0.229423 0.371683,0.02313 0.819394,0.05395 0.994914,0.06852 0.534405,0.04436 4.365554,0.04541 4.955797,0.0013 z m -0.168949,-0.280404 c 0.744463,-0.066 1.333714,-0.14903 1.576864,-0.222208 0.47513,-0.142995 0.681048,-0.55295 0.449156,-0.894213 -0.116834,-0.171927 -0.10298,-0.17134 -1.049878,-0.04475 -1.583539,0.211699 -3.961833,0.340938 -5.537726,0.300923 -1.58403,-0.04022 -3.408092,-0.168297 -4.033591,-0.283218 -0.446911,-0.08211 -1.044167,-0.228699 -1.292981,-0.317346 -0.275694,-0.09823 -0.320324,-0.08342 -0.440511,0.146136 l -0.107155,0.204662 0.07793,0.105077 c 0.109935,0.148233 0.314269,0.25381 0.639428,0.330384 0.236205,0.05563 0.390736,0.06262 0.982188,0.04447 0.804293,-0.02468 0.959666,-0.05034 0.975802,-0.161178 0.01068,-0.07328 0.02045,-0.07444 0.244036,-0.02907 0.432204,0.0877 1.768082,0.222403 3.161348,0.318783 0.793486,0.05489 2.673821,0.02099 3.24755,-0.05852 0.429273,-0.05951 1.865169,-0.304843 2.008598,-0.343193 0.0637,-0.01704 0.06085,-0.0083 -0.01876,0.0573 -0.247284,0.203865 -1.414951,0.43011 -2.740704,0.531037 -0.716189,0.05452 -2.35272,0.02427 -3.112952,-0.05753 -0.589275,-0.06341 -0.760141,-0.0546 -0.258701,0.01333 0.725309,0.09827 1.066112,0.119081 2.556777,0.156145 1.332934,0.03314 1.677967,0.03025 2.291863,-0.0192 0.397484,-0.03202 0.80964,-0.05822 0.915903,-0.05822 0.192144,0 0.28658,0.04733 0.177755,0.0891 -0.118886,0.04562 -1.297871,0.180675 -1.819767,0.208458 l -0.544387,0.02898 0.506842,0.0052 c 0.278762,0.0029 0.794053,-0.02024 1.145088,-0.05136 z M 54.29512,68.914183 c 0.609149,-0.02053 1.386308,-0.06679 1.72702,-0.102785 l 0.619474,-0.06546 0.01216,-0.105393 c 0.01198,-0.103943 0.0099,-0.105089 -0.150174,-0.08333 -1.59897,0.217339 -2.506105,0.263367 -5.174429,0.262557 -2.980724,-7.8e-4 -3.104799,-0.0083 -6.410623,-0.380154 -0.158549,-0.01785 -0.197107,-0.01135 -0.197107,0.03309 0,0.120385 1.058673,0.29496 2.233862,0.368366 1.717705,0.107289 5.274647,0.142719 7.339836,0.07311 z m -3.409618,-2.260177 c 0.01089,-1.727202 0.0064,-1.897684 -0.05304,-2.017986 -0.0851,-0.172202 -0.140919,-0.475788 -0.144195,-0.784162 -0.0016,-0.136561 -0.01411,-0.27628 -0.02816,-0.310486 -0.01403,-0.0342 -0.129445,-0.138534 -0.256466,-0.231848 -0.311453,-0.228795 -0.594583,-0.578637 -0.778547,-0.961981 -0.139082,-0.28982 -0.153588,-0.348754 -0.166803,-0.677766 -0.0244,-0.607379 0.115646,-0.989855 0.505083,-1.379464 0.10836,-0.108407 0.178996,-0.197106 0.156971,-0.197106 -0.104913,0 -0.312394,0.183322 -0.523346,0.462406 -0.266937,0.353148 -0.410203,0.646839 -0.497847,1.020578 -0.102239,0.435964 -0.145305,2.19225 -0.115311,4.702374 l 0.02658,2.224477 h 0.145677 0.145679 l 0.0062,-0.797807 0.0062,-0.797808 0.04399,0.807193 c 0.02419,0.443956 0.04676,0.811417 0.05015,0.81658 0.0034,0.0052 0.334484,0.0094 0.735761,0.0094 h 0.729601 z m 0.734986,0.112632 0.0098,-1.75518 h -0.206146 -0.206144 l 0.01751,0.159561 c 0.0096,0.08776 0.02821,0.882688 0.04128,1.766506 l 0.02375,1.606944 0.155108,-0.01133 0.155108,-0.01133 z m 2.108399,1.749255 0.459242,-0.02468 -0.01567,-3.326104 c -0.01538,-3.269774 -0.01707,-3.332457 -0.09908,-3.701537 -0.168172,-0.75688 -0.546855,-1.350434 -0.997608,-1.56368 -0.272755,-0.129035 -0.304729,-0.131194 -0.333845,-0.02255 -0.04511,0.168346 -0.02305,0.209063 0.173478,0.31997 0.539447,0.304445 0.82281,0.896141 0.822171,1.716788 -2.6e-4,0.425914 -0.08958,0.722702 -0.301878,1.003891 -0.209129,0.27699 -0.437723,0.449579 -0.786711,0.593964 -0.398183,0.164743 -0.39422,0.160087 -0.3665,0.430674 0.03031,0.295788 -0.04145,0.536881 -0.217916,0.73221 l -0.13473,0.149129 v 1.858318 1.858312 h 0.669896 c 0.368443,0 0.876556,-0.01112 1.129138,-0.02468 z m -5.017503,-3.157578 c 0.01933,-3.736865 0.02639,-3.821395 0.385309,-4.608989 l 0.132446,-0.290638 -0.203849,-0.567779 c -0.112117,-0.312277 -0.342653,-1.007043 -0.512301,-1.543921 -0.323345,-1.023282 -0.451507,-1.382098 -0.911863,-2.552982 -1.306825,-3.323831 -1.972815,-5.374684 -2.674028,-8.234423 -0.130061,-0.530416 -0.234586,-0.883427 -0.265048,-0.895116 -0.09238,-0.03545 -1.460168,0.587016 -2.147802,0.977435 -0.390556,0.221748 -0.226398,0.08715 0.222381,-0.182329 0.414524,-0.248914 1.333385,-0.717131 1.712601,-0.872677 0.18459,-0.07571 0.197103,-0.08915 0.197103,-0.21165 0,-0.15203 -0.08053,-0.248798 -0.207042,-0.248798 -0.04947,0 -0.11583,-0.03755 -0.149296,-0.08447 -0.0578,-0.08105 -0.05461,-0.0894 0.07854,-0.205914 l 0.138794,-0.121439 -0.05463,-0.197684 c -0.03005,-0.108726 -0.07058,-0.193925 -0.09006,-0.189332 -0.01949,0.0046 -0.132283,0.04683 -0.250662,0.09386 -0.240536,0.09556 -0.242974,0.101968 -0.163332,0.429756 0.148439,0.610933 0.100038,0.65334 -0.08916,0.07812 -0.06622,-0.20133 -0.134582,-0.366053 -0.151918,-0.366053 -0.06975,0 -1.100263,0.431517 -1.557905,0.652361 -0.778506,0.375685 -1.630486,0.886169 -2.377025,1.424251 -0.621266,0.447791 -0.520328,0.336624 0.161934,-0.178345 1.09698,-0.827995 2.331648,-1.520906 3.388337,-1.901578 0.259852,-0.09361 0.347281,-0.141816 0.347281,-0.191472 0,-0.0365 -0.109787,-0.458162 -0.243972,-0.937025 -0.134184,-0.478864 -0.237202,-0.87743 -0.228929,-0.885703 0.02654,-0.02654 0.303614,0.757572 0.509765,1.442636 l 0.1151,0.382496 0.196212,-0.0689 c 0.319155,-0.112076 0.327615,-0.117593 0.327615,-0.213633 0,-0.131653 -0.288934,-1.003014 -0.426507,-1.286244 -0.06428,-0.132347 -0.203142,-0.33185 -0.308569,-0.443341 -0.172059,-0.181949 -0.202859,-0.199908 -0.300714,-0.175347 -0.09164,0.023 -0.05666,-0.02394 0.21935,-0.294421 0.299696,-0.293684 0.381112,-0.404333 0.297511,-0.404333 -0.01697,0 -0.147241,0.10063 -0.28948,0.223622 -0.142239,0.122992 -0.265186,0.217054 -0.273212,0.209026 -0.03506,-0.03505 0.209718,-0.414205 0.338649,-0.524564 0.162789,-0.139343 0.397022,-0.22131 0.5341,-0.186906 0.07687,0.01929 0.102608,0.0056 0.138869,-0.07401 0.02448,-0.05373 0.05813,-0.09769 0.07476,-0.09769 0.01663,0 -0.0051,0.05985 -0.04822,0.133007 -0.04316,0.07315 -0.06744,0.144043 -0.05395,0.157532 0.02253,0.02253 0.709807,-0.19061 0.805652,-0.249843 0.02847,-0.0176 0.03077,-0.06382 0.0072,-0.145861 -0.04407,-0.153647 -0.01112,-0.157038 0.04212,-0.0043 0.03283,0.09419 0.05521,0.11128 0.120063,0.09171 0.624782,-0.18857 1.691094,-0.39735 2.520063,-0.493418 0.697335,-0.08081 2.606142,-0.09249 3.341407,-0.02044 0.858115,0.08409 2.6623,0.379689 2.721522,0.445901 0.01055,0.0118 -0.03995,0.01002 -0.112216,-0.004 -1.414582,-0.273455 -2.303607,-0.366616 -3.705593,-0.388307 -1.388862,-0.02149 -2.02681,0.01402 -2.939681,0.163617 -0.807411,0.132315 -1.839652,0.368416 -1.839652,0.420777 0,0.03863 0.313129,1.016183 0.534155,1.667567 0.124365,0.366523 0.245462,0.666404 0.269107,0.666404 0.02364,0 0.16091,-0.03267 0.305038,-0.07259 0.719153,-0.199223 2.415651,-0.528107 2.724163,-0.528107 0.313092,0 0.116004,0.06388 -0.669389,0.216964 -0.758327,0.147807 -2.2857,0.507535 -2.325983,0.547817 -0.02377,0.02377 0.06404,0.445409 0.102753,0.493386 0.01686,0.0209 0.03615,0.08847 0.04286,0.150176 0.01006,0.09227 -0.0028,0.114316 -0.07229,0.124186 -0.07704,0.01094 -0.08229,0.02585 -0.05949,0.168947 0.01375,0.08632 0.04403,0.241421 0.06727,0.344667 0.04839,0.214948 0.01185,0.206932 0.546024,0.119797 0.442982,-0.07226 0.893748,-0.113257 0.732103,-0.06658 -0.06195,0.01789 -0.347044,0.08071 -0.633554,0.139605 -0.286507,0.0589 -0.528823,0.127672 -0.538478,0.152835 -0.02029,0.05286 0.206509,1.180414 0.245408,1.220108 0.01426,0.01456 0.270827,-0.01329 0.570141,-0.06188 0.299311,-0.04859 0.670916,-0.09753 0.825783,-0.108767 l 0.281581,-0.02042 -0.225264,0.03809 c -0.463487,0.07837 -1.419269,0.25678 -1.429283,0.266794 -0.02842,0.02842 0.603677,3.034379 0.82709,3.933241 0.110346,0.443956 0.412019,1.550564 0.670379,2.459125 0.781792,2.749263 0.913877,3.280071 1.265879,5.0872 0.106588,0.547201 0.200208,1.016415 0.20805,1.042696 0.0088,0.02961 0.06928,-0.0072 0.159006,-0.09697 0.07961,-0.07962 0.219381,-0.185895 0.31059,-0.236176 0.14973,-0.08254 0.166574,-0.105944 0.173462,-0.240924 0.01575,-0.308756 0.0476,-0.386202 0.221943,-0.53966 0.127014,-0.1118 0.22502,-0.161318 0.383506,-0.193765 0.11709,-0.02398 0.231354,-0.04868 0.253922,-0.0549 0.04608,-0.01271 0.113583,-7.42857 0.07007,-7.698344 l -0.02461,-0.152596 -0.268509,-0.06234 c -0.527924,-0.122562 -0.925528,-0.4011 -0.925528,-0.648374 0,-0.107763 0.182546,-0.263552 0.377132,-0.321851 0.08166,-0.02448 0.148483,-0.0499 0.148483,-0.05653 0,-0.0066 -0.04447,-0.143331 -0.09883,-0.303795 -0.146762,-0.433249 -0.133935,-0.83655 0.07497,-2.356671 0.09364,-0.681422 0.18174,-1.344541 0.19577,-1.473598 0.01772,-0.163049 0.04143,-0.23465 0.0777,-0.23465 0.03419,0 0.04624,0.02913 0.03495,0.08447 -0.0095,0.04646 -0.02712,0.219632 -0.03922,0.384825 -0.02778,0.379514 -0.112715,1.082203 -0.215548,1.783336 -0.102917,0.701707 -0.11005,1.368842 -0.01767,1.652028 0.116496,0.357088 0.148784,0.380919 0.574483,0.424043 0.204293,0.02071 0.451859,0.02557 0.550148,0.01083 0.256825,-0.03851 0.299428,-0.12072 0.319749,-0.616983 0.01429,-0.348712 -0.0059,-0.533494 -0.158124,-1.443209 -0.09598,-0.573812 -0.224575,-1.291839 -0.285772,-1.595616 -0.126317,-0.627031 -0.131355,-0.683726 -0.06073,-0.683726 0.05153,0 0.103445,0.241383 0.480408,2.233862 0.131833,0.696806 0.15682,0.905224 0.159798,1.332809 0.0018,0.278764 -0.0085,0.560593 -0.02318,0.626287 -0.0259,0.115881 -0.01975,0.123252 0.206491,0.247126 0.198897,0.108904 0.234888,0.144632 0.244686,0.242909 0.01808,0.181389 -0.168668,0.360004 -0.605726,0.579331 l -0.374918,0.188139 0.02466,0.847508 c 0.01356,0.466127 0.02466,2.23626 0.02466,3.933626 v 3.086124 l 0.253421,0.02505 c 0.396016,0.03915 0.600429,0.122253 0.80573,0.327554 0.105051,0.10505 0.190876,0.229377 0.204145,0.295726 0.01258,0.06296 0.03675,0.123038 0.05369,0.133509 0.03759,0.02323 0.04688,-0.03735 0.146994,-0.959196 0.196057,-1.805251 0.492279,-3.526521 0.810869,-4.71176 0.467016,-1.737426 1.092996,-3.770616 1.3268,-4.309458 0.212917,-0.490708 0.26362,-0.658809 0.268548,-0.890372 l 0.0036,-0.168948 0.03835,0.131404 c 0.0922,0.315922 -0.0023,0.795763 -0.417836,2.12123 -0.281043,0.8965 -0.781413,2.599234 -0.992945,3.378953 -0.165805,0.611162 -0.485536,2.00957 -0.464319,2.03079 0.0087,0.0087 0.03659,-0.05608 0.06196,-0.143967 0.02536,-0.08789 0.170719,-0.556833 0.323003,-1.042086 0.152278,-0.485255 0.377966,-1.211728 0.501521,-1.614388 0.123554,-0.402659 0.309239,-1.002423 0.412636,-1.332809 0.413677,-1.321846 0.808516,-2.878325 1.223826,-4.824392 0.09474,-0.443956 0.180457,-0.844465 0.190471,-0.890018 0.01234,-0.05617 -0.01814,-0.124224 -0.09472,-0.211448 -0.133127,-0.151624 -0.139316,-0.195643 -0.03643,-0.259182 0.07653,-0.04726 0.135725,-0.210581 0.238559,-0.658173 l 0.0541,-0.235485 -0.137656,-0.06969 c -0.32162,-0.162818 -1.644795,-0.538585 -2.408168,-0.683891 -0.133727,-0.02546 -0.222237,-0.05325 -0.196683,-0.06177 0.137713,-0.04591 1.869043,0.393741 2.422396,0.615135 0.182938,0.07319 0.337667,0.127439 0.343843,0.120549 0.0062,-0.0069 0.05635,-0.164579 0.111507,-0.350421 0.339678,-1.144556 0.569343,-1.557798 0.908252,-1.634235 0.191458,-0.04318 0.256017,0.01637 0.126636,0.11682 -0.504378,0.39159 -0.563213,0.512131 -0.783681,1.605566 l -0.108615,0.538678 0.164784,0.185536 c 0.276517,0.311345 0.44405,0.722084 0.523523,1.28353 0.0159,0.112256 0.03898,0.167818 0.06072,0.146085 0.01928,-0.01929 0.116215,-0.430257 0.215393,-0.913262 0.216147,-1.052652 0.321841,-1.412067 0.58744,-1.997607 l 0.201227,-0.443626 -0.128834,-0.05383 c -0.07086,-0.02961 -0.151907,-0.05383 -0.180104,-0.05383 -0.08116,0 -0.101836,-0.04152 -0.05979,-0.120086 0.05338,-0.09974 -0.01884,-0.201259 -0.318804,-0.448081 -0.236602,-0.194692 -0.271751,-0.258049 -0.142883,-0.257556 0.03492,1.56e-4 0.309198,0.09138 0.609512,0.202764 0.939631,0.348511 1.518889,0.671998 1.518889,0.848222 0,0.08064 -0.01905,0.09545 -0.135127,0.105175 -0.07432,0.0062 -0.326232,-0.0327 -0.559803,-0.08649 -0.347418,-0.08001 -0.432872,-0.0889 -0.469723,-0.04886 -0.09315,0.101212 -0.394688,1.02449 -0.521184,1.59581 -0.166502,0.751993 -0.266618,1.282132 -0.245403,1.299459 0.0091,0.0074 0.269923,0.145382 0.579661,0.306598 0.932621,0.485426 1.462676,0.791841 2.060004,1.190848 0.545518,0.364396 1.610174,1.155987 1.657291,1.232224 0.01247,0.02018 -0.219051,-0.136921 -0.514499,-0.349122 -0.691108,-0.496375 -1.463294,-0.995311 -2.066495,-1.335232 -0.834508,-0.470268 -1.72272,-0.917516 -1.754453,-0.883431 -0.01681,0.01807 -0.04212,0.161489 -0.05622,0.318719 -0.02408,0.268529 -0.02092,0.287109 0.05217,0.306223 0.107396,0.02808 0.113541,0.287872 0.0075,0.315612 -0.133091,0.0348 -0.224833,0.221412 -0.303963,0.618284 -0.384957,1.930719 -0.788763,3.369727 -1.821084,6.489631 -0.964117,2.913784 -1.23378,3.80396 -1.544204,5.097583 l -0.101597,0.423368 0.133776,0.308737 c 0.354709,0.818646 0.367908,0.99513 0.364151,4.869503 -0.0023,2.363102 0.008,3.175314 0.04019,3.186061 0.0589,0.01964 1.348457,-0.06654 1.594127,-0.106521 0.490218,-0.07979 0.741771,-0.218202 1.236882,-0.680582 0.520693,-0.486267 0.805987,-0.908543 1.000804,-1.481321 0.211293,-0.621215 0.226797,-0.83613 0.218909,-3.034536 -0.006,-1.669299 0.0028,-2.064136 0.05415,-2.428874 0.07227,-0.513374 0.204977,-1.057405 0.338688,-1.388446 0.109176,-0.270291 0.110751,-0.322431 0.0036,-0.117431 -0.04007,0.07662 -0.164236,0.291361 -0.275925,0.477204 -0.694709,1.15592 -0.922131,1.880826 -0.971727,3.097372 -0.02489,0.610658 -0.0257,0.615199 -0.0567,0.319123 -0.03853,-0.368051 -0.0033,-1.208561 0.06772,-1.614388 0.128399,-0.733932 0.405534,-1.325475 1.143301,-2.440353 0.17764,-0.268439 0.430568,-0.690809 0.562065,-0.938597 0.131498,-0.247791 0.428027,-0.771529 0.658952,-1.163864 0.94232,-1.600968 1.108916,-1.890554 1.771094,-3.078599 1.039953,-1.865827 1.614788,-3.028287 1.949374,-3.942109 0.155243,-0.424001 0.159533,-0.352911 0.01356,0.224572 -0.16924,0.66947 -0.377142,1.153847 -1.241115,2.891572 -0.730471,1.469203 -1.367738,2.63748 -1.957259,3.588172 -0.319461,0.515177 -0.641406,1.086973 -0.622597,1.105782 0.04667,0.04666 1.781321,-2.585962 2.301263,-3.492551 1.095168,-1.909574 1.974847,-4.130512 2.342108,-5.913165 0.251314,-1.219852 0.2848,-1.538968 0.283639,-2.703161 -7.8e-4,-0.917932 -0.01289,-1.144701 -0.08423,-1.595616 -0.297573,-1.880623 -0.934848,-3.405075 -2.11324,-5.055186 -1.273492,-1.783278 -3.068355,-3.272729 -5.010245,-4.157712 -2.809782,-1.280506 -6.062062,-1.697894 -8.930104,-1.146061 -2.665134,0.512791 -5.262461,1.835177 -7.212626,3.672188 -2.07245,1.9522 -3.504049,4.618618 -3.902564,7.268701 -0.12935,0.860161 -0.111653,2.372436 0.03998,3.416496 0.182292,1.255164 0.677498,3.027055 1.158469,4.145103 0.577785,1.343102 1.431439,2.761628 2.724625,4.527538 0.73924,1.00947 1.427877,2.033404 1.605819,2.387692 0.476676,0.949068 0.586297,2.041534 0.36506,3.638108 -0.136304,0.983659 -0.173002,2.321551 -0.07878,2.872108 0.07441,0.434767 0.25519,1.032581 0.397525,1.314547 0.140514,0.278359 0.528023,0.797259 0.777651,1.041334 0.325257,0.318019 0.303668,0.2264 -0.03539,-0.150176 -0.171973,-0.191006 -0.349094,-0.398934 -0.393605,-0.462069 -0.139342,-0.197642 -0.33717,-0.623751 -0.43632,-0.939787 -0.328513,-1.04715 -0.333665,-1.961367 -0.02284,-4.051397 0.09835,-0.661285 0.136677,-1.774191 0.07551,-2.192506 -0.02448,-0.167403 -0.07826,-0.409916 -0.11951,-0.538915 -0.210352,-0.657808 -0.82908,-1.686897 -1.939629,-3.22605 -1.266367,-1.755107 -1.7362,-2.511909 -2.349883,-3.785172 -0.804795,-1.669778 -1.287787,-3.325167 -1.511675,-5.181061 -0.07862,-0.651734 -0.08963,-2.08036 -0.0204,-2.646845 0.129173,-1.056911 0.503586,-2.477344 0.818914,-3.106758 0.142209,-0.283858 0.197813,-0.339556 0.09159,-0.09174 -0.206991,0.482891 -0.558682,1.910885 -0.686024,2.785515 -0.07559,0.519198 -0.06351,2.599583 0.01886,3.246216 0.217145,1.704721 0.777461,3.571259 1.514664,5.045677 0.627428,1.254872 0.959489,1.789742 2.11268,3.403033 0.869872,1.216938 1.490905,2.147686 1.714108,2.568954 0.582163,1.098761 0.666461,1.891453 0.407542,3.832284 -0.156077,1.169922 -0.211872,2.434483 -0.13163,2.983269 0.121614,0.831718 0.45986,1.656703 0.881464,2.149894 0.347857,0.406923 0.502882,0.555538 0.638696,0.612282 0.227511,0.09506 1.82969,0.225248 2.918913,0.237184 l 0.513257,0.0056 z m -2.870762,2.065838 c -0.59108,-0.508986 -0.935731,-1.225939 -1.042711,-2.169083 -0.02107,-0.185843 -0.03593,-0.397029 -0.03301,-0.469299 0.0051,-0.124761 0.0061,-0.125709 0.02001,-0.01876 0.153944,1.181446 0.413955,1.820895 1.032745,2.539854 0.121736,0.141441 0.213252,0.257167 0.203371,0.257167 -0.0099,0 -0.09106,-0.06294 -0.180387,-0.139866 z m 10.050114,-0.738196 c 0.309564,-0.146612 0.48677,-0.30145 0.686148,-0.599546 0.219825,-0.328666 0.327578,-0.59314 0.42284,-1.037834 l 0.06836,-0.319124 0.0027,0.201074 c 0.0016,0.11059 -0.02416,0.30488 -0.05691,0.431755 -0.183349,0.710182 -0.577525,1.217286 -1.05879,1.362129 -0.252091,0.07587 -0.275769,0.06171 -0.06429,-0.03845 z m -9.12317,-0.15072 c -0.389868,-0.123625 -0.782026,-0.430155 -1.013364,-0.792097 -0.117138,-0.183271 -0.357487,-0.736936 -0.356486,-0.8212 2.59e-4,-0.02328 0.08109,0.120253 0.179586,0.318944 0.318393,0.642276 0.590604,0.933291 1.123338,1.200917 0.303648,0.152546 0.31843,0.173182 0.06693,0.09344 z m 0.337896,-0.619095 c -0.90562,-0.264068 -1.470229,-0.939163 -1.650626,-1.97363 -0.06045,-0.346631 -0.07152,-1.033868 -0.0218,-1.353061 0.02445,-0.156919 0.03011,-0.119962 0.03456,0.225264 0.02201,1.706743 0.514432,2.612838 1.656639,3.048301 0.347238,0.132384 0.338441,0.157283 -0.01876,0.05313 z m 8.613236,-0.235636 c 0.963054,-0.474272 1.065786,-0.717992 0.924322,-2.192786 -0.01187,-0.123882 0.0071,-0.07339 0.05763,0.15296 0.103543,0.464194 0.114822,1.10249 0.02367,1.338723 -0.126288,0.32724 -0.550745,0.633845 -1.16866,0.844182 -0.143,0.04868 -0.269709,0.08806 -0.281581,0.08751 -0.01187,-5.19e-4 0.188213,-0.104309 0.444627,-0.230585 z m 0.0437,-4.790164 c -0.0045,-0.125065 0.09993,-0.801737 0.186869,-1.210544 0.205543,-0.966533 0.412278,-1.585132 1.309368,-3.917938 0.622899,-1.619789 1.149079,-3.424505 1.369861,-4.698386 0.106607,-0.615106 0.131765,-0.440769 0.039,0.270268 -0.180165,1.380999 -0.535885,2.566867 -1.51378,5.046535 -0.795036,2.015987 -1.057119,2.846874 -1.296442,4.110141 -0.0505,0.266555 -0.09319,0.446521 -0.09488,0.399924 z m -9.346524,-0.516053 c -0.06629,-0.395421 -0.316499,-1.403664 -0.660407,-2.6612 -0.427018,-1.561443 -0.655727,-2.516407 -0.612921,-2.559216 0.0087,-0.0087 0.0465,0.11481 0.08389,0.274569 0.06223,0.26589 0.223159,0.846462 0.68178,2.459559 0.229421,0.80693 0.45256,1.765303 0.524131,2.251125 0.07012,0.475972 0.0565,0.670438 -0.01647,0.235163 z M 45.153529,58.938307 C 44.894974,58.19063 44.554378,57.332174 44.159243,56.43225 43.76012,55.523244 43.745544,55.485803 43.859628,55.662599 c 0.144063,0.223255 0.671761,1.376881 0.918788,2.008601 0.316998,0.810656 0.628121,1.783334 0.570426,1.783334 -0.0092,0 -0.09713,-0.232302 -0.195313,-0.516227 z m 16.687917,-7.560979 c -0.134221,-0.10306 -0.617704,-0.435471 -1.07441,-0.73869 -0.456704,-0.303219 -0.86218,-0.572666 -0.901052,-0.598771 -0.137719,-0.09248 0.185008,0.07449 0.542682,0.280778 0.554268,0.319669 1.494213,0.995951 1.657207,1.192345 0.07218,0.08698 0.0409,0.06807 -0.224427,-0.135662 z M 39.457421,50.987555 c 0.24292,-0.474312 1.165907,-1.396004 1.988295,-1.985508 0.310335,-0.222453 0.2309,-0.132727 -0.16292,0.184028 -0.594643,0.478279 -1.084775,0.947189 -1.449408,1.386643 -0.413337,0.498153 -0.425522,0.511596 -0.375967,0.414837 z M 51.09686,49.111189 c -0.02578,-0.07506 -0.08488,-1.346049 -0.137503,-2.957083 -0.02766,-0.847069 -0.02871,-0.855187 -0.118745,-0.918247 -0.489065,-0.342555 -1.576376,-1.51458 -1.576376,-1.699194 0,-0.02106 0.02112,-0.03893 0.04693,-0.03972 0.0258,-7.79e-4 0.110933,-0.09361 0.189158,-0.206272 0.07823,-0.112665 0.191671,-0.230414 0.252099,-0.261662 0.102761,-0.05314 0.133633,-0.04915 0.477245,0.06164 0.500513,0.161392 0.69545,0.157966 1.069589,-0.0188 0.159076,-0.07516 0.33279,-0.136648 0.386031,-0.136648 0.212974,0 0.672601,0.263669 0.781761,0.448465 l 0.06775,0.114694 h -0.111873 c -0.214855,0 -0.431285,0.268604 -0.811332,1.006905 -0.09906,0.192438 -0.26146,0.4389 -0.36089,0.547692 l -0.180782,0.197806 0.03752,1.273187 c 0.03925,1.331933 0.03359,2.715787 -0.01057,2.587224 z m -0.218397,-4.195532 c -7.5e-5,-0.02581 -0.0507,-0.122956 -0.11247,-0.215877 -0.121716,-0.183094 -0.137534,-0.260432 -0.06758,-0.330387 0.06406,-0.06407 0.155238,-0.05688 0.129494,0.01021 -0.02964,0.07726 0.04788,0.282638 0.106687,0.282638 0.05811,0 0.09378,-0.08192 0.09534,-0.218948 0.001,-0.09028 0.0052,-0.09324 0.04192,-0.02999 0.0401,0.06902 0.02788,0.308008 -0.02328,0.455425 -0.02266,0.06528 -0.0158,0.06347 0.05242,-0.01385 0.04317,-0.04892 0.105637,-0.182352 0.138826,-0.296519 0.0776,-0.266919 0.02826,-0.46823 -0.135511,-0.552918 -0.15081,-0.07799 -0.201975,-0.07164 -0.336786,0.0418 -0.181587,0.152795 -0.243355,0.306057 -0.230951,0.573025 0.0023,0.0501 0.06312,0.145034 0.138235,0.215878 0.141059,0.133038 0.203924,0.157584 0.203657,0.07952 z m 12.521054,0.887952 c -1.034481,-0.69988 -2.112755,-1.304922 -3.238639,-1.81727 -0.415033,-0.188864 -0.29602,-0.177253 0.179521,0.01751 0.995338,0.407663 2.375821,1.194005 3.218682,1.833406 0.322618,0.244743 0.431183,0.338533 0.375438,0.324343 -0.0052,-0.0013 -0.245912,-0.162412 -0.535002,-0.357994 z M 39.333872,45.532091 c 0.125428,-0.119132 1.50327,-0.82546 1.53859,-0.788733 0.0067,0.007 -0.345138,0.19536 -0.781942,0.418565 -0.436807,0.223205 -0.777297,0.389781 -0.756648,0.370168 z m -0.539603,-1.494738 c -0.01103,-0.532122 0.140492,-1.554121 0.319269,-2.153366 0.09991,-0.334884 0.463772,-1.289695 0.483778,-1.269475 0.0064,0.0065 -0.06986,0.28207 -0.169451,0.612456 -0.273734,0.90807 -0.440332,1.691589 -0.594728,2.797021 l -0.03408,0.244036 z m 14.627957,0.0744 c 0.0258,-0.01042 0.06804,-0.01042 0.09386,0 0.0258,0.01042 0.0047,0.01894 -0.04693,0.01894 -0.05163,0 -0.07274,-0.0085 -0.04693,-0.01894 z M 40.039382,43.698889 c 0.09277,-0.150563 2.2497,-1.443495 3.208442,-1.92324 0.252951,-0.126575 0.459912,-0.22415 0.459912,-0.216833 0,0.0073 -0.232302,0.145469 -0.516226,0.307005 -1.182158,0.672572 -2.706767,1.569873 -3.086536,1.816563 -0.05082,0.03301 -0.08034,0.04044 -0.06559,0.0165 z m 22.571715,-1.23754 c -0.537086,-0.331079 -0.945828,-0.523133 -1.989358,-0.934731 -2.716062,-1.071294 -4.747694,-1.556781 -7.30276,-1.745096 -0.661932,-0.04879 -2.616031,-0.04783 -3.285092,0.0016 -0.747921,0.05526 -1.728543,0.171952 -2.530575,0.301126 -0.380008,0.0612 -0.697112,0.105092 -0.704671,0.09753 -0.0076,-0.0076 0.25267,-0.0663 0.578292,-0.130541 1.607617,-0.317142 2.672562,-0.419848 4.34643,-0.419181 1.994466,8.05e-4 3.465981,0.181722 5.488064,0.674774 1.863803,0.454457 3.19542,0.924238 4.479842,1.580441 0.5095,0.2603 1.374034,0.791893 1.274617,0.783748 -0.0093,-7.54e-4 -0.168949,-0.09511 -0.354789,-0.209675 z m -8.736,-0.490377 c 0.0271,-0.01085 0.05948,-0.0095 0.07196,0.003 0.01247,0.01248 -0.0097,0.02135 -0.04928,0.01972 -0.04374,-0.0018 -0.05263,-0.0107 -0.02268,-0.02268 z m -7.208432,-1.764564 c 0.0271,-0.01085 0.05948,-0.0095 0.07196,0.003 0.01247,0.01248 -0.0097,0.02135 -0.04928,0.01972 -0.04374,-0.0018 -0.05263,-0.0107 -0.02268,-0.02268 z m -6.412968,-0.559477 c 0,-0.06973 0.603559,-0.857379 1.019938,-1.331028 0.250879,-0.285385 0.961236,-0.934401 1.420417,-1.29776 0.495724,-0.392277 1.877194,-1.275744 1.877194,-1.200489 0,0.0107 -0.0887,0.07622 -0.197106,0.145597 -0.384274,0.245925 -1.59104,1.194817 -2.337107,1.837692 -0.47542,0.409663 -1.082625,1.028907 -1.496492,1.526164 -0.157764,0.189552 -0.286844,0.333472 -0.286844,0.319824 z m 2.96611,-0.566484 c 2.6e-4,-0.05535 0.682154,-0.488724 1.166303,-0.741231 0.619375,-0.323037 1.11698,-0.529075 1.894402,-0.7844 2.186247,-0.718018 4.560799,-1.091772 6.944607,-1.093079 1.296471,-7.02e-4 2.010095,0.07256 2.928423,0.300658 0.347914,0.08642 1.423434,0.463126 1.397187,0.489374 -0.0064,0.0064 -0.255778,-0.07083 -0.554216,-0.171571 -0.998487,-0.337056 -1.919387,-0.486019 -3.189462,-0.51592 -2.006722,-0.04724 -3.912057,0.164792 -5.950711,0.662224 -1.59201,0.388449 -2.938299,0.922307 -4.36448,1.730686 -0.149706,0.08486 -0.272131,0.140322 -0.272053,0.123259 z M 57.636528,37.30363 c -0.03097,-0.02002 -0.03942,-0.03639 -0.01876,-0.03639 0.02066,0 0.06288,0.01638 0.09386,0.03639 0.03097,0.02002 0.03942,0.03639 0.01879,0.03639 -0.02066,0 -0.06289,-0.01638 -0.09386,-0.03639 z m -1.362003,-0.844563 c -0.485394,-0.462698 -1.374185,-0.998368 -2.088765,-1.258889 -0.292499,-0.10664 -0.383105,-0.186726 -0.211254,-0.186726 0.147456,0 0.779622,0.244519 1.184124,0.458012 0.604838,0.31923 1.11789,0.723788 1.356033,1.06928 0.204286,0.296368 0.129916,0.271073 -0.240138,-0.08168 z m -2.547352,-0.19437 c -0.100844,-0.122888 -0.592876,-0.415694 -0.966926,-0.575412 -0.347073,-0.1482 -0.483733,-0.262851 -0.313308,-0.262851 0.07879,0 0.577491,0.188391 0.802323,0.303091 0.163628,0.08348 0.537333,0.414505 0.599881,0.531373 0.04736,0.08849 -0.04999,0.09152 -0.12197,0.0038 z M 51.6097,64.573041 c 0.09645,-0.06522 0.132435,-0.06326 0.132435,0.0072 0,0.05121 0.01161,0.05127 0.10967,5.2e-4 0.136409,-0.07054 0.276403,-0.261767 0.255518,-0.349032 -0.01489,-0.06218 -0.01692,-0.06217 -0.04026,2.6e-4 -0.01354,0.03614 -0.0325,0.09104 -0.04218,0.122019 -0.0341,0.109148 -0.122438,0.05827 -0.145492,-0.08379 -0.02748,-0.169325 5.19e-4,-0.38775 0.07632,-0.597297 0.067,-0.185004 0.05057,-0.360659 -0.01816,-0.194087 -0.126631,0.306919 -0.439383,0.149506 -0.650302,-0.327311 -0.09124,-0.206267 -0.07274,-0.280505 0.0699,-0.280505 0.11569,0 0.227412,0.06432 0.41193,0.237138 0.124441,0.116555 0.139706,0.110413 0.16838,-0.06776 0.0066,-0.04106 0.04561,-0.08089 0.08667,-0.08851 0.110719,-0.02055 0.168515,-0.07982 0.168515,-0.172821 0,-0.06882 -0.01738,-0.08028 -0.103244,-0.06805 -0.05678,0.0081 -0.20394,-0.01174 -0.327012,-0.04405 -0.29115,-0.07644 -0.495901,-0.07426 -0.658212,0.007 -0.124238,0.06221 -0.130461,0.07448 -0.118953,0.234594 0.0067,0.09292 0.06145,0.292709 0.121712,0.443974 0.127612,0.320324 0.143534,0.594487 0.04428,0.762503 -0.06401,0.108365 -0.06314,0.11449 0.04489,0.314192 0.135243,0.250014 0.215322,0.277857 0.413576,0.143795 z m -0.46827,-0.0067 c 0,-0.01746 -0.03357,-0.06211 -0.0746,-0.09924 -0.04103,-0.03713 -0.09511,-0.124225 -0.120174,-0.193539 -0.02507,-0.06931 -0.05801,-0.126023 -0.07321,-0.126023 -0.04215,0 0.0073,0.270439 0.06687,0.366053 0.05008,0.08032 0.201115,0.119935 0.201115,0.05275 z m 1.558028,-1.357378 c 0.434665,-0.207445 0.751645,-0.641806 0.821959,-1.12634 0.03523,-0.242744 -0.06197,-0.738125 -0.202662,-1.032926 -0.113801,-0.23845 -0.429006,-0.619004 -0.512709,-0.619004 -0.02351,0 -0.04861,0.208258 -0.06402,0.531219 -0.02554,0.53503 -0.07833,0.958177 -0.210051,1.683871 -0.109254,0.601891 -0.119418,0.675788 -0.09296,0.675788 0.01346,0 0.130671,-0.05067 0.260444,-0.112608 z M 50.653361,63.03449 c 0,-0.01336 -0.04984,-0.179865 -0.110756,-0.370034 -0.189481,-0.591514 -0.266033,-1.039006 -0.29061,-1.698764 -0.0125,-0.335549 -0.03589,-0.610088 -0.05198,-0.610088 -0.05434,0 -0.257714,0.276581 -0.357547,0.486256 -0.277124,0.582035 -0.191488,1.176875 0.252419,1.753319 0.196729,0.255471 0.558477,0.540029 0.558477,0.439311 z m 1.67551,-1.849076 0.0257,-0.80335 -0.09034,0.02211 c -0.449429,0.110042 -0.861429,0.120843 -1.55041,0.04066 l -0.221124,-0.02575 0.02699,0.390619 c 0.03362,0.48661 0.142374,1.136208 0.246403,1.471781 l 0.07911,0.255195 0.171774,-0.191055 c 0.220975,-0.245774 0.35327,-0.31416 0.562201,-0.290612 0.204551,0.02305 0.39196,0.163181 0.528184,0.394919 l 0.104081,0.177061 0.04587,-0.319126 c 0.02523,-0.175515 0.05743,-0.680629 0.07157,-1.12247 z m -0.345677,1.22572 c -0.01068,-0.0258 -0.08043,-0.09339 -0.155043,-0.150177 -0.171298,-0.130378 -0.415345,-0.141194 -0.577676,-0.02559 -0.05998,0.04271 -0.109045,0.09339 -0.109045,0.112631 0,0.01925 0.105595,0.03596 0.23465,0.03715 0.129058,10e-4 0.302229,0.01613 0.384825,0.03323 0.219576,0.04542 0.243719,0.04463 0.222289,-0.0072 z m -0.287991,-2.195052 c -0.05678,-0.0086 -0.149704,-0.0086 -0.206491,0 -0.05678,0.0086 -0.01034,0.01564 0.103247,0.01564 0.11357,0 0.160032,-0.007 0.103244,-0.01564 z m 2.391979,-1.418549 c 0.300701,-1.234209 0.615218,-2.296028 1.595836,-5.387551 0.624504,-1.968829 0.852813,-2.777553 1.239023,-4.388893 0.267582,-1.116407 0.301767,-1.295877 0.252133,-1.323655 -0.111315,-0.06229 -0.213437,-0.280055 -0.213437,-0.455126 0,-0.210774 -0.108729,-0.569228 -0.241264,-0.795378 -0.08543,-0.145775 -0.171718,-0.220712 -0.171718,-0.149126 0,0.100697 -0.488579,2.23387 -0.773364,3.37656 -0.405923,1.628761 -0.442291,1.755946 -1.121891,3.923337 -0.275173,0.87759 -0.560431,1.798352 -0.633907,2.046143 -0.285263,0.962033 -0.887333,3.560791 -0.887333,3.830059 0,0.05917 0.02125,0.09328 0.05812,0.09328 0.07743,0 0.425124,0.226961 0.541567,0.353511 l 0.09285,0.100904 0.08139,-0.405542 c 0.04476,-0.223047 0.126665,-0.591384 0.182003,-0.818523 z m -1.88085,1.108892 c 0.01897,-0.01897 0.04164,-0.115716 0.0504,-0.215017 0.01211,-0.137372 -0.0049,-0.22094 -0.071,-0.349488 -0.08444,-0.164104 -0.09339,-0.16983 -0.312194,-0.199651 -0.360555,-0.04914 -1.20574,-0.0062 -1.317385,0.06699 -0.08923,0.05847 -0.0929,0.0757 -0.08256,0.387891 l 0.01083,0.326703 0.525615,0.02276 c 0.614616,0.02663 1.147381,0.0087 1.196303,-0.04019 z M 50.622907,59.69205 c -0.11238,-0.02338 -0.146051,-0.11463 -0.07027,-0.19041 0.04893,-0.04893 0.183842,-0.06265 0.746625,-0.07594 0.843545,-0.01993 1.053438,0.03476 0.791934,0.206323 -0.0861,0.05649 -0.198375,0.06744 -0.741491,0.07233 -0.352018,0.0032 -0.679076,-0.0023 -0.726798,-0.01229 z m -2.01234,-2.23336 c -0.06826,-0.363642 -0.542654,-2.139387 -0.787696,-2.948471 -0.441384,-1.457381 -0.834147,-2.89444 -1.111329,-4.06621 -0.0806,-0.340709 -0.224744,-0.948921 -0.320331,-1.35158 -0.09559,-0.402658 -0.273466,-1.194901 -0.395283,-1.76054 -0.121817,-0.565639 -0.226113,-1.033001 -0.231767,-1.038582 -0.01736,-0.01713 -0.683841,0.211496 -0.720045,0.24699 -0.02021,0.01981 0.01556,0.26599 0.08829,0.607543 0.285783,1.342233 0.652711,2.609304 1.291573,4.46003 0.596791,1.728854 0.751107,2.155067 1.265749,3.495944 0.272502,0.709997 0.598329,1.606814 0.724053,1.99292 0.125725,0.386109 0.234659,0.695951 0.242075,0.688533 0.0074,-0.0074 -0.01297,-0.154375 -0.04528,-0.326577 z m 2.437168,-6.827224 c 0.02393,-0.03873 -0.0034,-0.05297 -0.171582,-0.08944 -0.06516,-0.01414 -0.150098,-0.100179 -0.262507,-0.26594 -0.161965,-0.238842 -0.169515,-0.244449 -0.297882,-0.221267 -0.154365,0.02788 -0.338194,0.114757 -0.338194,0.159829 0,0.06885 0.16521,0.235506 0.303318,0.305963 0.254431,0.129801 0.714071,0.196246 0.766847,0.110855 z m -0.76327,-0.311893 c -0.09658,-0.102807 -0.100035,-0.123277 -0.02562,-0.151834 0.03642,-0.01398 0.07582,0.01681 0.112631,0.08798 0.0928,0.179448 0.05064,0.210383 -0.08702,0.06385 z m 1.586999,0.211083 c 0.44425,-0.222198 0.474587,-0.424943 0.07965,-0.532318 -0.174738,-0.04751 -0.224305,-0.01845 -0.306708,0.179875 -0.03071,0.07392 -0.106674,0.197891 -0.168799,0.275498 -0.06213,0.0776 -0.101667,0.159374 -0.08787,0.181704 0.03533,0.05717 0.255164,0.0096 0.48372,-0.104759 z M 51.43927,50.212331 c 0.01564,-0.06875 0.04066,-0.163006 0.05556,-0.209466 l 0.0271,-0.08447 h -0.471829 c -0.259507,0 -0.471293,0.01268 -0.470636,0.02816 7.8e-4,0.01549 0.02364,0.05772 0.05107,0.09386 0.0411,0.05414 0.110244,0.0657 0.393018,0.0657 h 0.343142 v 0.137663 c 0,0.160474 0.03203,0.146596 0.07258,-0.03144 z m -0.504331,0.04396 c 0.01276,-0.02066 -0.01258,-0.03755 -0.05631,-0.03755 -0.04374,0 -0.06908,0.01689 -0.05632,0.03755 0.01276,0.02066 0.0381,0.03754 0.05632,0.03754 0.01821,0 0.04355,-0.01689 0.05631,-0.03754 z m 6.386613,-3.125538 c -0.01286,-0.04646 -0.04028,-0.199682 -0.06093,-0.340492 -0.02066,-0.140809 -0.06406,-0.361581 -0.09647,-0.490604 -0.06311,-0.251239 -0.46804,-1.060226 -0.524731,-1.048333 -0.03842,0.0081 -0.12738,0.32268 -0.128489,0.454396 -5.2e-4,0.04742 0.05958,0.151288 0.133506,0.231185 0.330831,0.357567 0.441561,0.568248 0.503966,0.958882 0.03838,0.240254 0.07803,0.317346 0.163991,0.318865 0.0179,3.12e-4 0.02201,-0.03744 0.0091,-0.0839 z m -11.960186,-0.810985 0.317426,-0.107037 -5.19e-4,-0.240244 c -2.6e-4,-0.132135 -0.01424,-0.274034 -0.03096,-0.315333 -0.02781,-0.06869 -0.03461,-0.06517 -0.07979,0.04144 -0.05568,0.131377 -0.19933,0.244944 -0.450189,0.35591 -0.106752,0.04722 -0.170407,0.0994 -0.170087,0.139409 7.79e-4,0.09659 0.04248,0.232893 0.07127,0.232893 0.014,0 0.168318,-0.04817 0.342903,-0.107037 z m -0.285042,-0.462149 c 0.05259,-0.02396 0.09563,-0.05819 0.09563,-0.07605 0,-0.01787 -0.05068,-0.0063 -0.112631,0.02576 -0.168913,0.08735 -0.15495,0.128638 0.01702,0.05029 z m 0.05808,-0.228372 c 0.07227,-0.02197 0.196581,-0.08094 0.276241,-0.131059 l 0.14484,-0.09112 -0.02652,-0.250393 c -0.0146,-0.137718 -0.03352,-0.257646 -0.04207,-0.266509 -0.0085,-0.0089 -0.07515,0.01231 -0.14801,0.04706 -0.07286,0.03474 -0.267604,0.115283 -0.432765,0.178976 -0.333533,0.128624 -0.325133,0.1084 -0.182299,0.438835 0.07564,0.174995 0.07774,0.175374 0.410582,0.07422 z m 0.833172,-0.423322 c 0.02037,-0.174581 -0.112517,-0.72047 -0.360869,-1.482282 -0.111073,-0.340711 -0.264864,-0.819318 -0.341762,-1.063572 -0.0769,-0.244254 -0.163586,-0.453222 -0.192645,-0.464372 -0.04646,-0.01783 -0.546824,0.137557 -0.683165,0.212149 -0.03559,0.01947 -5.2e-4,0.05716 0.117673,0.126417 0.221776,0.129971 0.459093,0.399387 0.655781,0.744484 0.226322,0.39709 0.604298,1.414313 0.657066,1.768317 0.04605,0.308931 0.121003,0.389427 0.147921,0.158859 z m -0.561187,-0.473507 c 0.09342,-0.05 0.07094,-0.186784 -0.106146,-0.646045 C 44.99899,43.305104 44.68053,42.852428 44.289245,42.6493 l -0.208596,-0.10829 -0.240536,0.258191 -0.240539,0.25819 0.199655,0.248652 c 0.261016,0.325071 0.315993,0.44102 0.527335,1.112162 0.09754,0.309738 0.1929,0.582279 0.211922,0.605647 0.02494,0.03064 0.140542,0.0014 0.414715,-0.104924 0.209071,-0.08108 0.413006,-0.165007 0.453188,-0.18651 z m 14.173405,-1.243424 c -0.01858,-0.05712 -0.56993,-0.367213 -0.854494,-0.48059 -0.395091,-0.157414 -0.991846,-0.370345 -1.003961,-0.358229 -0.0067,0.0067 0.208912,0.136941 0.479152,0.28941 0.502833,0.283698 0.578159,0.389018 0.13428,0.187754 -0.136244,-0.06178 -0.247717,-0.106602 -0.247717,-0.09961 0,0.05687 0.699154,0.345332 1.126316,0.464704 0.195778,0.05471 0.38477,0.05294 0.366424,-0.0034 z M 40.440822,63.141451 c -0.303917,-0.177984 -0.884834,-0.566493 -1.182038,-0.790538 -0.749861,-0.565272 -1.818468,-1.572026 -2.297242,-2.16427 -0.779479,-0.964221 -1.512085,-2.397311 -1.95766,-3.82948 -0.42604,-1.369381 -0.674365,-2.588992 -0.814121,-3.998427 -0.05684,-0.573183 -0.122761,-2.589561 -0.08347,-2.552985 0.01109,0.01031 0.03947,0.415799 0.06307,0.901052 0.07355,1.51255 0.170309,2.383301 0.381723,3.43527 0.340332,1.693458 0.793491,3.071821 1.415424,4.305263 0.497358,0.986381 0.926148,1.584658 1.713671,2.39104 0.754566,0.772636 1.651493,1.506078 2.667378,2.181188 0.456442,0.303331 0.499756,0.359936 0.09326,0.121887 z m 22.151502,-0.08965 c 0.09292,-0.04671 0.473054,-0.23211 0.844738,-0.412001 2.071491,-1.002568 2.851561,-1.546038 3.521134,-2.453154 0.335201,-0.454119 0.800866,-1.239036 0.93153,-1.570171 0.125202,-0.317289 0.142192,-0.255074 0.03042,0.111387 -0.191023,0.626307 -0.778204,1.581538 -1.291492,2.101016 -0.537039,0.543513 -1.313585,1.053208 -2.394055,1.571366 -0.643642,0.30867 -2.145513,0.904521 -1.642275,0.651557 z M 41.754405,62.789766 c -1.411272,-0.96553 -2.897347,-2.141938 -4.241412,-3.357592 -0.545282,-0.493186 -0.821157,-0.76606 -0.774485,-0.76606 0.01605,0 0.192647,0.147997 0.392445,0.32888 1.02053,0.923929 2.02496,1.738273 4.112073,3.333873 0.907709,0.693945 0.950805,0.727935 0.924362,0.72905 -0.0109,5.19e-4 -0.196745,-0.120211 -0.412983,-0.268151 z m 17.630527,-0.256632 c 0.102026,-0.373014 0.495945,-0.790608 1.799495,-1.907635 0.946917,-0.811426 2.307398,-2.134552 2.745028,-2.669652 1.489487,-1.821243 2.477118,-3.624067 2.809142,-5.127811 0.117693,-0.533046 0.140134,-0.597249 0.111535,-0.319123 -0.06212,0.604183 -0.346813,1.567136 -0.692027,2.34078 -0.647026,1.450014 -1.90802,3.201037 -3.188553,4.427645 -0.514863,0.493181 -1.111256,0.999407 -2.030439,1.723463 -0.734405,0.578502 -1.261015,1.092734 -1.460033,1.425724 -0.0659,0.110259 -0.108267,0.158234 -0.09415,0.106609 z m 1.912127,-0.168476 c 0.06195,-0.05435 0.331624,-0.262539 0.599281,-0.46263 1.247319,-0.93246 1.473713,-1.106299 1.996199,-1.532814 1.108564,-0.904934 2.129934,-1.83366 2.657481,-2.416436 0.231677,-0.255928 0.195688,-0.163703 -0.07357,0.18853 -0.600421,0.785448 -2.520655,2.381679 -4.860266,4.040185 -0.365754,0.259275 -0.481753,0.325856 -0.319123,0.183165 z M 42.356157,61.740634 c -0.857311,-0.689941 -1.588469,-1.431341 -3.217178,-3.262241 -0.836102,-0.939897 -1.708911,-1.810588 -2.522522,-2.516399 -0.296928,-0.257589 -0.60948,-0.533009 -0.694562,-0.612048 -0.143917,-0.133696 -0.145756,-0.137783 -0.02639,-0.05867 0.397786,0.263648 1.643015,1.375876 2.313143,2.06608 0.227741,0.234563 0.683706,0.730583 1.013256,1.102266 1.43837,1.622274 1.709071,1.898625 3.281449,3.349925 0.243483,0.224734 0.181807,0.195859 -0.147192,-0.06891 z m -1.355636,-1.901342 c -0.900197,-0.922127 -2.503954,-2.897989 -2.864449,-3.529059 -0.06007,-0.105152 0.0084,-0.03532 0.147302,0.150177 0.784442,1.047793 2.303631,2.860751 3.035145,3.622058 0.103675,0.107895 0.179666,0.20501 0.168867,0.215809 -0.0108,0.01081 -0.229888,-0.195748 -0.486865,-0.458985 z m 25.176444,-9.938663 c 0.514686,-1.612675 0.769248,-3.135174 0.770051,-4.605555 10e-4,-2.133934 -0.472002,-3.808485 -1.580205,-5.592432 -0.908086,-1.461805 -2.425834,-3.14035 -3.915101,-4.329878 -1.990262,-1.58969 -4.106316,-2.564432 -6.521155,-3.003913 -1.172442,-0.213375 -1.782365,-0.262077 -3.282282,-0.262089 -1.514662,-1.2e-5 -1.91376,0.03067 -3.17246,0.243913 -2.627562,0.445144 -6.613153,1.869105 -8.586059,3.067604 -0.698476,0.424309 -1.187382,0.809377 -1.797913,1.416052 -1.267499,1.259495 -1.938277,2.394266 -2.419004,4.092286 -0.24732,0.873581 -0.428809,1.922189 -0.461355,2.665617 -0.0074,0.169542 -0.014,0.109585 -0.01855,-0.168947 -0.012,-0.735471 0.121095,-1.579955 0.410346,-2.603614 0.440648,-1.559447 1.186903,-2.825604 2.360242,-4.004575 1.191555,-1.197275 2.430268,-1.931859 4.955795,-2.938893 2.141343,-0.853844 4.473162,-1.503324 6.288603,-1.751562 2.352733,-0.321704 5.020078,-0.136755 7.227204,0.501122 2.446823,0.707151 4.717559,2.116334 6.702313,4.159346 1.192914,1.227931 2.056211,2.357668 2.690487,3.520854 1.018411,1.867644 1.410856,4.072033 1.138338,6.394117 -0.117298,0.99948 -0.370153,2.166072 -0.608039,2.805318 -0.120088,0.322693 -0.245114,0.595316 -0.181257,0.395229 z m 0.44595,-0.488608 c 0.0118,-0.03071 0.06646,-0.200286 0.121507,-0.376836 0.05505,-0.176551 0.108093,-0.312992 0.11788,-0.303203 0.02133,0.02132 -0.212815,0.735874 -0.24112,0.735874 -0.01084,0 -0.01006,-0.02512 0.0018,-0.05583 z"
       id="path2223" /></g><metadata
     id="metadata2225"><rdf:RDF><cc:License
         rdf:about="http://creativecommons.org/publicdomain/zero/1.0/"><cc:permits
           rdf:resource="http://creativecommons.org/ns#Reproduction" /><cc:permits
           rdf:resource="http://creativecommons.org/ns#Distribution" /><cc:permits
           rdf:resource="http://creativecommons.org/ns#DerivativeWorks" /></cc:License><cc:Work
         rdf:about=""><cc:license
           rdf:resource="http://creativecommons.org/publicdomain/zero/1.0/" /><dc:title>Light bulb</dc:title></cc:Work></rdf:RDF></metadata></svg>
