<?xml version="1.0" encoding="UTF-8" standalone="no"?>
<!DOCTYPE svg PUBLIC "-//W3C//DTD SVG 1.1//EN" "http://www.w3.org/Graphics/SVG/1.1/DTD/svg11.dtd">
<!-- Created with Vectornator (http://vectornator.io/) -->
<svg height="100%" stroke-miterlimit="10" style="fill-rule:nonzero;clip-rule:evenodd;stroke-linecap:round;stroke-linejoin:round;" version="1.1" viewBox="0 0 428.586 420.752" width="100%" xml:space="preserve" xmlns="http://www.w3.org/2000/svg" xmlns:xlink="http://www.w3.org/1999/xlink">
<defs/>
<g id="layer1">
<g opacity="1">
<path d="M113.788 30.2585L155.146 68.068L167.211 122.79C194.843 108.996 227.318 108.836 255.085 122.355L296.411 84.6012L308.444 29.9346C247.591-2.53259 174.532-2.41105 113.788 30.2586C113.788 30.2586 113.788 30.2586 113.788 30.2585Z" fill="#44749d" fill-rule="nonzero" opacity="1" stroke="#000000" stroke-linecap="butt" stroke-linejoin="round" stroke-width="2"/>
<path d="M103.451 36.3268C44.7415 72.5433 8.04117 135.727 5.67 204.668L59.0663 187.755L112.463 204.667C114.617 173.831 131.001 145.755 156.787 128.708L144.765 74.0612L103.451 36.3268Z" fill="#000000" fill-rule="nonzero" opacity="1" stroke="#000000" stroke-linecap="butt" stroke-linejoin="round" stroke-width="2"/>
<path d="M318.971 35.6737L306.912 90.3853L265.559 128.185C278.755 136.729 289.736 148.282 297.599 161.895C305.107 174.984 309.535 189.611 310.548 204.667L363.971 221.579L417.393 204.667C416.308 170.859 406.919 137.838 390.055 108.516C372.822 78.6748 348.383 53.6307 318.971 35.6737Z" fill="#c6d4e1" fill-rule="nonzero" opacity="1" stroke="#000000" stroke-linecap="butt" stroke-linejoin="round" stroke-width="2"/>
<path d="M5.70311 216.654C6.48849 251.086 15.8892 284.772 33.0464 314.635C49.9902 343.919 73.8817 368.581 102.613 386.446L114.681 331.717L156.043 293.901C143.515 285.48 133.071 274.316 125.503 261.255C117.678 247.631 113.193 232.347 112.42 216.654L59.0615 199.742L5.70311 216.654Z" fill="#757575" fill-rule="nonzero" opacity="1" stroke="#000000" stroke-linecap="butt" stroke-linejoin="round" stroke-width="2"/>
<path d="M310.688 216.653C309.084 248.157 292.616 277.027 266.315 294.443L278.336 349.09L319.651 386.824C378.89 350.252 415.664 286.249 417.426 216.653L364.057 233.565L310.688 216.653Z" fill="#ffffff" fill-rule="nonzero" opacity="1" stroke="#000000" stroke-linecap="butt" stroke-linejoin="round" stroke-width="2"/>
<path d="M166.342 300.034L125.049 337.732L113.049 392.343C174.18 425.66 247.998 425.867 309.314 392.892L267.956 355.083L255.891 300.361C227.681 314.472 194.448 314.35 166.342 300.034Z" fill="#a1ac88" fill-rule="nonzero" opacity="1" stroke="#000000" stroke-linecap="butt" stroke-linejoin="round" stroke-width="2"/>
</g>
</g>
</svg>
